<?xml version="1.0" encoding="UTF-8"?>
<svg id="Capa_2" data-name="Capa 2" xmlns="http://www.w3.org/2000/svg" viewBox="0 0 12.84 11.72">
  <defs>
    <style>
      .cls-1 {
        fill: #c71621;
        stroke-width: 0px;
      }
    </style>
  </defs>
  <g id="Capa_1-2" data-name="Capa 1">
    <path class="cls-1" d="M11.7,8.07l-2.08-1.46c-.13-.09-.3-.11-.45-.05l-1.32.58s-.02,0-.02,0c-.05.03-.09.08-.1.13l-.06.24c-.03.12.04.24.15.27l1.05.28c.29.08.52.33.56.63l.28,1.77c.01.08.07.15.16.18l.2.05c.22.06.38.25.39.48v.03s-1.17.07-1.17.07l-.54-2.16c-.04-.16-.17-.29-.33-.34l-1.56-.42.56-2.08,1.63-.65c.27-.11.58-.06.8.14l1.61,1.43c.07.06.17.07.25.03l.14-.08c.13-.08.29-.09.43-.04h.04s-.62.96-.62.96ZM4.73,7.8c-.11-.03-.23.04-.26.15l-.14.51-.54-.15.92-3.4.54.15-.14.51c-.03.11.04.23.15.27l1.7.46-.53,1.97-1.7-.46ZM4.08,9.38c-.09.34-.41.57-.75.57-.07,0-.13,0-.2-.03l-1.91-.52s-.04,0-.05,0H.42s.18-.67.18-.67l.65.36s.05.02.08.03l1.76.24c.24.04.46-.11.52-.34l.08-.29.54.14-.14.51ZM3.47,6.95c-.12.08-.26.12-.4.12-.06,0-.12,0-.18-.02l-.27-.07v-.03c.04-.26-.06-.52-.27-.67l-.04-.03v-.02c.05-.15.18-.26.33-.29.17-.03.31-.16.36-.33l.03-.12.27.07c.39.12.62.52.53.92-.05.2-.17.37-.35.48M1.92,6.5l.16.12c.06.05.1.12.11.2v.04s-.74-.2-.74-.2c-.07-.02-.13-.07-.17-.13-.04-.06-.05-.14-.03-.21l.39-1.43c.04-.15.19-.24.34-.2l.48.13c.15.04.24.19.2.34l-.09.35h-.02c-.09.02-.18.05-.26.1-.2.11-.34.3-.4.52l-.04.14c-.02.09,0,.18.08.23M2.84,2.97s-.05-.01-.07-.01h-.6s.18-.67.18-.67l.65.36s.03.02.05.02l1.91.52c.41.11.65.54.54.95l-.14.51-.54-.15.08-.29c.06-.23-.06-.47-.28-.56l-1.78-.68ZM12.77,6.91c-.31-.28-.76-.33-1.12-.13h-.02s-1.49-1.32-1.49-1.32c-.34-.31-.82-.39-1.25-.22l-1.66.66-1.63-.44.33-1.22c.17-.64-.21-1.31-.85-1.48l-1.89-.51-.59-.33s-.07-.03-.11-.04c-.25-.07-.5.08-.57.33l-.16.58s-.02.07-.02.11c0,.12.04.24.13.33.09.09.2.14.33.14h.52s0,.01,0,.01l1.77.67-.42,1.55-.04-.05c-.16-.21-.38-.36-.64-.43l-.3-.08v-.02c-.02-.3-.23-.55-.52-.63l-.48-.13c-.38-.1-.77.12-.87.5l-.39,1.43c-.1.38.12.77.5.87l1.43.39c.25.07.52.05.76-.05l.06-.02-.42,1.55-1.75-.24-.58-.32s-.07-.03-.11-.04c-.12-.03-.24-.02-.35.05-.11.06-.18.16-.22.28l-.16.58s-.02.07-.02.11c0,.26.2.47.46.47h.68s1.88.52,1.88.52c.64.17,1.31-.21,1.48-.85l.33-1.22,3.49.94v.02s.53,2.13.53,2.13c.05.22.26.37.48.35l1.36-.08c.06,0,.11-.03.15-.07.04-.04.06-.1.05-.16v-.25c-.04-.41-.32-.76-.72-.87l-.07-.02-.25-1.63c-.07-.47-.42-.86-.88-.98l-.76-.2,1.14-.5,2.06,1.45s0,0,.01,0c.21.14.5.08.64-.13l.73-1.09c.06-.09.04-.21-.04-.28"/>
    <path class="cls-1" d="M6.29,1.96s.03.04.05.06c.09.08.23.06.3-.03l1.04-1.26.27,1.62s.01.05.03.07c.03.05.08.09.13.1.06.02.11,0,.16-.02l1.01-.58.14.97.43-.06-.18-1.29s-.01-.05-.03-.08c-.03-.05-.08-.09-.13-.1-.06-.01-.11,0-.16.02l-1.02.58-.29-1.78c0-.05-.04-.1-.08-.13-.04-.04-.1-.05-.16-.05-.06,0-.11.03-.15.08l-1.15,1.39-.58-1.02s-.03-.04-.05-.06c-.09-.07-.23-.06-.3.04l-.81,1.02.34.27.61-.77.58,1.01Z"/>
  </g>
</svg>