<?xml version="1.0" encoding="UTF-8"?>
<svg id="Capa_2" data-name="Capa 2" xmlns="http://www.w3.org/2000/svg" viewBox="0 0 11.93 12.52">
  <defs>
    <style>
      .cls-1 {
        fill: #c71621;
        stroke-width: 0px;
      }
    </style>
  </defs>
  <g id="Capa_1-2" data-name="Capa 1">
    <path class="cls-1" d="M10.85,8.45h-2.12c-.39,0-.71-.32-.71-.71,0-.06.05-.11.11-.11h3.31c.06,0,.11.05.11.11,0,.39-.32.71-.71.71M9.73,4.2s.09,0,.14,0l1.31,3.06h-2.76l1.31-3.06ZM10,3.43v.21c0,.08-.04.15-.11.18,0,0,0,0,0,0-.06.03-.13.03-.18,0,0,0,0,0,0,0-.07-.03-.11-.1-.11-.18v-.21h.41ZM6.52,3.06v-.41h4.02s.05.02.05.05v.31s-.02.05-.05.05h-4.02ZM7.54,10.56s.02.01.02.02v.39h-3.13v-.39s.01-.02.03-.02h3.08ZM8.12,11.34c.06,0,.11.05.11.11v.6c0,.06-.05.11-.11.11H3.88c-.06,0-.11-.05-.11-.11v-.6c0-.06.05-.11.11-.11h4.23ZM3.11,2.28c2.06-.44,2.01-.44,2.3-.47v.47h-2.3ZM5.41,3.06H1.38s-.05-.02-.05-.05v-.31s.02-.05.05-.05h4.02v.41ZM1.93,3.63v-.21h.41v.21c0,.08-.04.15-.11.18t0,0s-.09.03-.14.02c-.02,0-.03,0-.05-.02,0,0,0,0,0,0-.07-.04-.11-.1-.11-.18M3.51,7.26H.76l1.31-3.06s.1,0,.14,0l1.31,3.06ZM3.9,7.74c0,.39-.32.71-.71.71H1.08c-.39,0-.71-.32-.71-.71,0-.06.05-.11.11-.11h3.31c.06,0,.11.05.11.11M5.77.56c0-.11.09-.19.19-.19s.19.09.19.19v9.63h-.39V.56ZM6.52,1.81c.28.03.23.03,2.3.47h-2.3v-.47ZM11.58,7.28l-1.39-3.24c.11-.1.17-.25.17-.41v-.21h.18c.23,0,.42-.19.42-.42v-.31c0-.22-.18-.4-.39-.42-3.88-.83-3.7-.8-4.05-.84v-.88c0-.31-.25-.56-.56-.56s-.56.25-.56.56v.88c-.35.04-.16,0-4.05.84-.22.01-.39.2-.39.42v.31c0,.23.19.42.42.42h.18v.21c0,.16.07.3.17.41L.35,7.28c-.2.06-.35.24-.35.46,0,.59.48,1.08,1.08,1.08h2.12c.59,0,1.08-.48,1.08-1.08,0-.22-.15-.4-.35-.46l-1.39-3.24c.11-.1.17-.25.17-.41v-.21h2.7v6.77h-.94c-.22,0-.39.18-.39.39v.39h-.19c-.26,0-.48.21-.48.48v.6c0,.26.21.48.48.48h4.23c.26,0,.48-.21.48-.48v-.6c0-.26-.21-.48-.48-.48h-.18v-.39c0-.22-.18-.39-.39-.39h-1.01V3.43h2.7v.21c0,.16.07.3.17.41l-1.39,3.24c-.2.06-.35.24-.35.46,0,.59.48,1.08,1.08,1.08h2.12c.59,0,1.08-.48,1.08-1.08,0-.22-.15-.4-.35-.46"/>
  </g>
</svg>