<?xml version="1.0" encoding="UTF-8"?>
<svg id="Capa_2" data-name="Capa 2" xmlns="http://www.w3.org/2000/svg" viewBox="0 0 12.84 9.54">
  <defs>
    <style>
      .cls-1 {
        fill: #c71621;
        stroke-width: 0px;
      }
    </style>
  </defs>
  <g id="Capa_1-2" data-name="Capa 1">
    <path class="cls-1" d="M9.25,5.87c.34,0,.62-.28.62-.62,0-.1-.08-.19-.19-.19s-.19.08-.19.19c0,.13-.11.24-.24.24s-.24-.11-.24-.24c0-.1-.08-.19-.19-.19s-.19.08-.19.19c0,.34.28.62.62.62"/>
    <path class="cls-1" d="M10.24,4.82c.1,0,.19-.08.19-.19v-.2c.09-.01.17-.09.17-.19,0-.1-.08-.19-.19-.19h-.16c-.1,0-.19.08-.19.19v.38c0,.1.08.19.19.19"/>
    <path class="cls-1" d="M8.08,4.43v.2c0,.1.08.19.19.19s.19-.08.19-.19v-.38c0-.1-.08-.19-.19-.19h-.17c-.1,0-.19.08-.19.19,0,.1.07.17.17.19"/>
    <path class="cls-1" d="M12.46,6.88h-.23c-.57,0-1.03-.46-1.03-1.03v-.18c.08-.16.15-.34.19-.52.14-.02.28-.08.41-.17,0,0,.01,0,.02-.01.38.16.64.53.64.95v.96ZM11.52,9.16h-4.52v-1.39c0-.43.35-.77.77-.77h.46c0,.56.46,1.01,1.02,1.01s1.02-.45,1.02-1.01h.47c.43,0,.77.35.77.77v1.39ZM6.04,6.88v-.96c0-.42.26-.8.64-.95.12.1.27.17.43.19.04.18.11.36.19.52v.18c0,.57-.46,1.03-1.03,1.03h-.23ZM4.87,6.52h-.4c.12-.07.23-.15.33-.24.4-.34.68-.8.79-1.3.35-.05.64-.28.77-.6.01.1.04.19.08.28-.47.24-.78.72-.78,1.26v.91c-.21-.19-.49-.3-.79-.3M3.18,7.46c-.37-.02-.67-.31-.71-.67,0,0,0,0,0,0,0,0,0-.02,0-.02.25.08.51.11.74.11s.5-.04.75-.12c-.02.41-.37.73-.78.71M1.17,4.77c-.02-.09-.09-.16-.19-.16h0s-.02,0-.02,0c-.32,0-.58-.26-.58-.58s.25-.57.56-.58h0s.03,0,.04,0h0c.09,0,.17-.06.19-.16.04-.25.13-.49.26-.71.02-.03.04-.06.06-.09.26.57.84.96,1.49.96h2.52c.09,0,.19.03.27.08,0,0,0,0,0,0,.17.1.28.29.28.49,0,.32-.26.58-.58.58,0,0-.02,0-.02,0-.1,0-.18.06-.19.16-.17,1.02-1.05,1.73-2.04,1.73s-1.87-.71-2.04-1.73M.73,1.25l.47.15c.08.03.18,0,.22-.09.29-.52.81-.86,1.41-.91.47-.04.33-.03.66-.03,1.2,0,2.18.98,2.18,2.18v.54c-.16-.04-.11-.02-2.69-.02-.19,0-.37-.04-.53-.12-.36-.17-.63-.49-.7-.9-.03-.15-.22-.2-.32-.09-.27.29-.46.63-.56.99-.13-.59-.14-1.33-.13-1.71M10.28,6.59c.21-.11.41-.26.58-.44.04.2.12.38.24.53-.21-.07-.33-.05-.82-.05v-.03ZM7.77,6.63h0c-.13,0-.25.02-.37.06.12-.16.2-.34.24-.54.05.06.11.11.17.17.13.11.27.2.41.28v.03h-.46ZM9.25,7.64c-.36,0-.65-.29-.65-.65v-.24c.21.07.44.1.65.1s.44-.03.65-.1v.24c0,.35-.27.63-.61.65-.01,0-.02,0-.03,0M8.07,3.79c.5,0,.94-.27,1.18-.67.24.4.67.67,1.17.67h.85c.27,0,.5.22.5.5,0,.13-.05.26-.14.35-.1.1-.24.16-.38.15-.1,0-.18.06-.19.16-.14.86-.88,1.53-1.81,1.53-.65,0-1.26-.35-1.59-.92,0,0,0-.02-.01-.02-.08-.14-.13-.28-.17-.43,0,0,0,0,0,0-.01-.04-.02-.09-.03-.14-.02-.09-.1-.16-.19-.16-.28.01-.52-.21-.52-.5s.22-.5.5-.5c0,0,.01,0,.02,0,0,0,.02,0,.02,0h.8ZM12.06,4.66c.05-.11.08-.24.08-.37,0-.22-.08-.42-.22-.58.02-.03.04-.07.04-.11,0-.55.03-.89-.14-1.36-.03-.1-.14-.15-.24-.11-.1.03-.15.14-.12.24.14.39.12.66.12,1.05h-1.16c-.54,0-.99-.44-.99-.99,0-.1-.08-.19-.19-.19s-.19.08-.19.19c0,.54-.44.99-.99.99h-1.16v-.35c0-1.17.95-2.12,2.12-2.12.02,0,.03.01.03.03,0,.1.08.19.19.19s.19-.08.19-.19c0-.01.01-.03.03-.03.61,0,1.2.26,1.6.73.07.08.19.09.27.02.08-.07.09-.19.02-.27-.47-.54-1.16-.86-1.88-.86-.08,0-.15.02-.21.06-.06-.04-.14-.06-.21-.06-1.38,0-2.49,1.12-2.49,2.5v.54s.01.08.03.11c-.06.07-.11.15-.15.24-.02-.28-.16-.52-.37-.68v-.72C6.05,1.15,4.9,0,3.49,0,3.14,0,3.28,0,2.8.03c-.67.05-1.27.41-1.63.97l-.57-.18c-.12-.04-.24.05-.25.17,0,.06-.06,1.32.17,2.19-.31.16-.53.48-.53.85,0,.48.36.89.83.95.12.51.4.96.79,1.3.1.09.22.17.33.24h-.4c-.65,0-1.18.53-1.18,1.18v1.65c0,.1.08.19.19.19h.31c.1,0,.19-.08.19-.19s-.08-.19-.19-.19h-.12v-1.46c0-.44.36-.8.8-.8h.55c.09.55.6.97,1.18.93.53-.03.95-.43,1.04-.93h.55c.44,0,.8.36.8.8v1.46H1.76c-.1,0-.19.08-.19.19s.08.19.19.19h4.1c.1,0,.19-.08.19-.19v-1.65c0-.16-.03-.31-.09-.44h.3c.19,0,.37-.04.54-.11-.12.18-.18.39-.18.62v1.58c0,.1.08.19.19.19h4.9c.1,0,.19-.08.19-.19v-1.58c0-.23-.07-.44-.18-.61.16.06.33.1.52.1h.42c.1,0,.19-.09.19-.19v-1.15c0-.54-.31-1.02-.78-1.26"/>
    <path class="cls-1" d="M3.21,5.78c.37,0,.67-.3.67-.67,0-.1-.09-.19-.19-.19s-.19.08-.19.19c0,.16-.13.29-.29.29s-.29-.13-.29-.29c0-.1-.08-.19-.19-.19s-.19.08-.19.19c0,.37.3.67.67.67"/>
    <path class="cls-1" d="M2.11,3.81c-.1,0-.19.08-.19.19v.42c0,.1.08.19.19.19s.19-.08.19-.19v-.42c0-.1-.08-.19-.19-.19"/>
    <path class="cls-1" d="M4.31,4.6c.1,0,.19-.08.19-.19v-.42c0-.1-.08-.19-.19-.19s-.19.08-.19.19v.42c0,.1.08.19.19.19"/>
  </g>
</svg>