<svg xmlns="http://www.w3.org/2000/svg" xmlns:xlink="http://www.w3.org/1999/xlink" viewBox="0 0 166.81 239.48"><defs><linearGradient id="linear-gradient" x1="83.41" y1="207.98" x2="83.41" y2="-31.5" gradientUnits="userSpaceOnUse"><stop offset="0" stop-color="#fff"/><stop offset="1" stop-color="#ffc87b"/></linearGradient></defs><g style="isolation:isolate"><g id="Capa_2" data-name="Capa 2"><g id="Layer_3" data-name="Layer 3"><rect width="166.81" height="239.48" style="fill:url(#linear-gradient)"/><path d="M68.9,130.25c-.44.57-.44,1.89-.34,3.38.41,1.51,1.84,1.4,3.06,1.59,2.36.37,3.53,2.14,6.67,2.13,1.86,0,3.1-.4,3.5-1.58a2,2,0,0,0-.93-1.66s-4.27-1.91-4.38-2a21.59,21.59,0,0,1-2.06-1.62c0-.14-.74-3.42-.74-3.42l-3.52-.83Z"/><path d="M74.88,130.55a6.34,6.34,0,0,1-4.27-.32,5.34,5.34,0,0,1-1.81-1.49c.58-4.13,1.86-7.49,3.69-9.7-4.1-3.2-7-6.78-10.43-8.7a11.81,11.81,0,0,0-1.88-.86v-7.17l7.29-1.92C71.26,105.6,79,111.91,79.9,119.84,79.9,121.28,74.37,126.71,74.88,130.55Z" style="fill:#4a371e"/><path d="M70.61,130.23a5.34,5.34,0,0,1-1.81-1.49c.58-4.13,1.86-7.49,3.69-9.7-4.1-3.2-7-6.78-10.43-8.7l4.32-5c.54,5.14.82,9,7.85,13.5C71.57,123.16,68.64,126.89,70.61,130.23Z" style="fill:#162736;mix-blend-mode:multiply;opacity:0.30000000000000004"/><path d="M50.8,142.91a5,5,0,0,0-.35,2.93,15,15,0,0,1,.67,1.6c.27,1,.23,2.57,1.66,3.53,1.71,1.35,5,1.42,6.06,0a7.58,7.58,0,0,0-1.34-3.51l-1.67-3.12.1-2.92-4.81-1.06Z"/><path d="M63.49,108.84a5.26,5.26,0,0,0-2.22,3.9c-.59,3.91-.88,9.27-1.79,14.4a127.84,127.84,0,0,0-3.37,16.31c-.61.66-2.41.7-3.82,0a3.47,3.47,0,0,1-1.4-1.17c-.43-5.56,0-10.61,2-14.66l-2-17.19a8,8,0,0,1,.67-7.67,18,18,0,0,1,1.36-2l14.55-1.44C67.6,104.12,65.68,107.46,63.49,108.84Z" style="fill:#4a371e"/><path d="M54.42,127.14c-1.93,5.81-2.83,11.31-2.13,16.32a3.47,3.47,0,0,1-1.4-1.17c-.43-5.56,0-10.61,2-14.66l-2-17.19a8,8,0,0,1,.67-7.67l4,2.8C52.51,106.48,52.62,112.81,54.42,127.14Z" style="fill:#162736;mix-blend-mode:multiply;opacity:0.30000000000000004"/><path d="M81.34,57.73c0-.44-2.83-1.87-3.53-.82l-6,9.87a40.33,40.33,0,0,1-11,4.6l.54,4,4.26,5.54c.42-3,6.55-6,9.64-9.18A79,79,0,0,0,81.34,57.73Z" style="fill:#32567b"/><path d="M68.32,97.94c.12,2.48-8.84,8.29-14.06,7.1a5.68,5.68,0,0,1-3-1.64,56.69,56.69,0,0,1-.53-8.66,41.34,41.34,0,0,0-.81-5,41.65,41.65,0,0,0-3-7c.47-1.16-1.17-3.74-.08-4.19.37-.15.71-.31,1.06-.48a20.14,20.14,0,0,0,5.66-4.6c2.41-.67,4.84-1.36,7.26-2.08,2.14,1,3.75,3.4,4.78,6.52C66.35,77.88,69.16,93.94,68.32,97.94Z" style="fill:#32567b"/><path d="M54,72.57c-.72,1-1.45,1.9-2.2,2.79-.17,4,3.76,4.93,6.49,7,.26-1.28.49-2.58.68-3.91l3.56,0a54.53,54.53,0,0,0-2.8-6C57.85,72.48,55.94,72.51,54,72.57Z" style="fill:#fff"/><path d="M59.63,77.28c-.1.37-.35,1-.64,1.19-2.73,1.3-6.11-1.66-6.38-3.38a5.72,5.72,0,0,0-.56-2.35c-.81-1-2.24-2.17-1.67-2.21,1.5-.1,6.63,1.78,8.12,1.71a1.29,1.29,0,0,0-.14,1.2C58.79,74.66,59.94,76.17,59.63,77.28Z" style="fill:#ffb294"/><path d="M58.64,76.74c-2.5.87-5.44-3.33-5.5-3.29,1.72-.29,3.94-1,5.66-1.26C59.61,74.49,59.62,76.41,58.64,76.74Z" style="fill:#ffb294;mix-blend-mode:multiply;opacity:0.5"/><path d="M54.26,105a5.68,5.68,0,0,1-3-1.64,56.69,56.69,0,0,1-.53-8.66,26.7,26.7,0,0,0-3.32-10.91c1.28.63,2,.2,3.21.92.08-.07,3.17,4.83,3,7.26a48.52,48.52,0,0,1,.53,6.79C54.24,100.68,54.25,103.06,54.26,105Z" style="fill:#d9ecfc;mix-blend-mode:multiply"/><path d="M42.31,78.42l-8-4.1c-1.39-.53-2.46,2-1,3.49A40.39,40.39,0,0,0,41,84.07c3.44.93,7.23.62,10.65,2.33L49.61,77C48,78.2,45.41,78.55,42.31,78.42Z" style="fill:#32567b"/><path d="M52.72,73a6,6,0,0,0,2,1.6,11.61,11.61,0,0,0,3.52-.09,1.38,1.38,0,0,0,1.54-1.63l-1-4.36-.35-1s-1.3-2.56-2.64-3.12a5.11,5.11,0,0,0-4.82.4c-1.54,1.09-2.55,2.62-1.94,4.51C50.46,74,52.72,73,52.72,73Z" style="fill:#ffb294"/><path d="M52.48,74l0-.67a.67.67,0,0,0,0-.72l-1.11-1.79c.27-.27,1.19-1,.65-3.58,2.49-.27,4.26-2.31,5.68-.8.61-.63-.9-2.42-1.72-2.84s-2.58-.63-4.67.5a4.56,4.56,0,0,0-2.8,4.75C48.62,71.12,51.46,73.71,52.48,74Z"/><path d="M50.24,70.48a.91.91,0,0,0,.13.79,4.15,4.15,0,0,0,.5.78,1.49,1.49,0,0,0,.78.48.65.65,0,0,0,.76-.28.79.79,0,0,0-.06-.65,3,3,0,0,0-.84-1.17C51.17,70.19,50.47,70,50.24,70.48Z" style="fill:#ffb294"/><path d="M34.76,75.81c-.16.61-1.23,1.46-3.77,1l-1.86-.1c-1.13-.12-.95-.63-.33-.49l-1.05-.12c-.7-.1-.91-.74-.24-.7L26.44,75c-.76-.23-.79-.83-.09-.75h.22L26,73.87c-.63-.42-.48-1.08.17-.79,0,0,2.46,1.42,3.47.75.66-.43-.9-1.91-.9-1.91-.61-.68,0-1.15.52-.59a8.51,8.51,0,0,0,2.16,1.42C32.46,73.15,35.06,74.73,34.76,75.81Z" style="fill:#ffb294"/><path d="M78.28,57l.28-.77-.46-2.59L78,50.41c0-.56.58-.6.73,0,0,0,.23,2,.64,2.18,0,0,1.38-.69,2.32-4.26.15-.64.81-.65.78,0L82.2,50l-.41,1.73,1.33-1.76.76-1.18c.47-.66,1-.52.72.3l-.7,1.56-1,1.67,1.25-1.11.93-1.12c.52-.57,1-.26.56.41l-1,1.48-1,1.21v.29L85,52.08c.53-.47.86-.18.46.46L83.92,54.4l-1.66,2.24-1.38,1s-.12.25-.16.31C80.18,58.69,78.13,57.54,78.28,57Z" style="fill:#ffb294"/><path d="M45.44,169.8l10.44,5.94a15.89,15.89,0,0,0,14.4,0c4-2.3,4-6,0-8.32l-10.43-5.94a15.91,15.91,0,0,0-14.41,0C41.47,163.78,41.47,167.5,45.44,169.8Z" style="fill:#f0d0c2;mix-blend-mode:multiply;opacity:0.75"/><path d="M95.15,144l10.43,5.94a15.91,15.91,0,0,0,14.41,0c4-2.3,4-6,0-8.32l-10.44-5.94a16,16,0,0,0-14.4,0C91.17,138,91.17,141.69,95.15,144Z" style="fill:#f0d0c2;mix-blend-mode:multiply;opacity:0.75"/><path d="M125.42,170.85l-19.14,5.68c-5.28,1.58-12.28.57-15.63-2.23s-1.77-6.36,3.52-7.93l19.14-5.68c5.29-1.57,12.28-.57,15.63,2.23S130.71,169.28,125.42,170.85Z" style="fill:#f0d0c2;mix-blend-mode:multiply;opacity:0.75"/><ellipse cx="85.93" cy="148.2" rx="21.64" ry="12.49" style="fill:#f0d0c2;mix-blend-mode:multiply"/><path d="M105.75,74.92a36.93,36.93,0,0,1-7.93,4.75c-2.43,2.72-7.27,5.45-7.78,5.82-.19.14-1-2.62-1-2.62l6.59-6.59,8-5.74c1.1-1.4,1.86-2,4.06-1.72Z" style="fill:#ffb294"/><path d="M85,82.48l1.16.07.1.69a2.53,2.53,0,0,0,.45,1,4.84,4.84,0,0,0,1.54,1.54,1,1,0,0,0,.52.17,1.25,1.25,0,0,0,.75-.16l.49-.27-.36-3.28L88.21,81h-.34l-1.24.09a.4.4,0,0,0-.2.09l-.28.24-.39,0a.54.54,0,0,0-.29.15l-.08.1L85,81.9A.29.29,0,0,0,85,82.48Z" style="fill:#ffb294"/><path d="M86.2,82.55l.1.69a2.53,2.53,0,0,0,.45,1,4.84,4.84,0,0,0,1.54,1.54,1,1,0,0,0,.52.17A1.42,1.42,0,0,1,89,84.57l-.87-1.1c-.4-.43,0-.71.43-.75L88,82A3.24,3.24,0,0,0,86.2,82.55Z" style="fill:#ffa89f;mix-blend-mode:multiply;opacity:0.5"/><path d="M109.81,127.43c2-.57,3.7-1.59,4.23-3.06-1.17-5-4.81-9.05-8.07-15.06h7.61c3.61,5.26,2.4,12.22,4.07,15.06,1,1.25,1.51,2.48.53,3.66h-2.94l-2.9,1.82-3.16-.05C108.81,128.78,108.57,127.82,109.81,127.43Z" style="fill:#f28f85"/><path d="M117.94,124.76A3.57,3.57,0,0,1,119,129c-1,1.38-3,.46-4.47.85-3.26.89-3.27,1.65-4.84,1.61-2.54,0-4.21-1.13-4.07-2s1.21-1.37,3-2l2.88-.7a8.1,8.1,0,0,1-1.72.68c-.91.59-.59,1.22.26,2,.94.42,2.12,0,3.63-.78l3.25-1.54A1.92,1.92,0,0,0,117.94,124.76Z" style="fill:#32567b"/><path d="M121.39,134.67a5.93,5.93,0,0,0-.33-3.27c-2.55-7,.9-10-4.14-17.14,1.71-6.92.69-9.57,1.59-19.42-1.88-5.66-12.55-3.63-10.57-2-.2,5.36,1.59,14.93,3.55,21.1,1.67,4.63,5.42,11,6.12,17.17-.72,2.57-.79,4.23-2.29,5.64l.92,2.28a21.51,21.51,0,0,0,3-.88C119.25,138,121.39,134.67,121.39,134.67Z" style="fill:#ffb294"/><path d="M121.06,131.4c1,.83,1,2.52.77,3.79-.48,1-1.17,1.64-2,3.13l-.74,1c-1.5,1.24-4.17,1.4-5.11.75-.61-1.07.12-2.13,1.95-4-.69,1.43.1,2.13,1.92,1.94.86-.17,1.44-1.32,2.38-2.89S121.69,132.5,121.06,131.4Z" style="fill:#32567b"/><path d="M104.1,109.31a8,8,0,0,0,4.84,5,9,9,0,0,0,3.57.35,19.21,19.21,0,0,0,5.37-1.37l.83-13.85c.47-4.15.36-7.87-1.58-10.48a7.49,7.49,0,0,0-.79-.9l-10.69-1C102.72,89.33,102.65,100.05,104.1,109.31Z" style="fill:#32567b"/><path d="M108.94,114.27l3.57.35a19.21,19.21,0,0,0,5.37-1.37l.83-13.85c.47-4.15.36-7.87-1.58-10.48l-12.32,3.16C107,100.84,117.94,106.51,108.94,114.27Z" style="fill:#386479;mix-blend-mode:multiply;opacity:0.5"/><path d="M104.57,84.05l-.22,6.42c1.25,7.57,11.85,5.42,14.08.85-.49-2.2-2.23-3.12-1.36-5.31,1.21-3,2-5.44,2-5.44.27-.77.51-1.47.7-2.12.67-2.34.61-3.94-1.35-5.63-3.76-2.77-7.62-4.53-11.69-4.35-1.66-.48-2.39,2.88-1.92,5.36.41,2.23-2.61,4.55-2.75,6.11A4.05,4.05,0,0,0,104.57,84.05Z" style="fill:#fff"/><path d="M104.35,90.47c1.25,7.57,11.85,5.42,14.08.85-.49-2.2-2.23-3.12-1.36-5.31,1.21-3,2-5.44,2-5.44.27-.77.51-1.47.7-2.12-.2-1.13-.45-2.12-.7-1.86-4.56,4.74-4.94,10.52-9.55,10-2.56-.31-3-3.28-3-3.28a2.56,2.56,0,0,1-1.93.79Z" style="fill:gray;mix-blend-mode:multiply;opacity:0.30000000000000004"/><path d="M112.61,64.89l.45,4.86c-1,5-5.41,9.92-6.31,11.35-.55-2.41,0-7.77.82-10.13l.1-2.67Z" style="fill:#ffb294"/><path d="M112.7,67.26s-.73,5.24-3.55,5.09c-1.76-.09-1.43-4-1.43-4Z" style="fill:#ffa89f;mix-blend-mode:multiply;opacity:0.5"/><path d="M107.75,70.27c1.28.57,3.15-.79,4-1.51a2.41,2.41,0,0,0,.66-.89l.69-1.65,1.08.09s1.89-1,1.59-4.73c-.14-1.86-2.51-3.73-4.47-3.74-3.1,0-4.24,1.89-5.06,3.16s-.35,3.87-.35,3.87S106,69.49,107.75,70.27Z" style="fill:#ffb294"/><path d="M111.6,67.87a10.11,10.11,0,0,1-3.9-6.65s-1.47-.39-1.89,3.07c-1.66-2.83-.83-5.68,2.67-6.71,4.09-1.2,8.14.76,8,5.19a11.13,11.13,0,0,1-3.93,8.39S112.55,68.62,111.6,67.87Z"/><path d="M119.34,79.33c-1.14,1.63-5.15,8-7,9.16-2.31,1.45-8.54,2.27-10.73,2.34V88.68l7.91-3.24,5.16-8.83s1.66-3.81,3.81-3C120.92,74.43,120.22,78.08,119.34,79.33Z" style="fill:#ffb294"/><path d="M98.86,85.84l.7.58s0,.25,0,.59a4.09,4.09,0,0,0,.18,1.26c1,2.68,1.93,2.56,1.93,2.56a2.92,2.92,0,0,0,.47-.3,1.86,1.86,0,0,0,.65-2.31L102,86.14l-.33-.22-.37-.54a.59.59,0,0,0-.48-.26h-.19l-.63-.67-1.12-.54c-.54-.2-.44.41,0,.74l.44.49-.44-.08C98.35,85,98.43,85.58,98.86,85.84Z" style="fill:#ffb294"/><path d="M99.54,87a4.09,4.09,0,0,0,.18,1.26c1,2.68,1.93,2.56,1.93,2.56a2.92,2.92,0,0,0,.47-.3,1.16,1.16,0,0,1-.48-1c0-.44,0-.9,0-.9l-1.58-1.88-.24-1Z" style="fill:#ffa89f;mix-blend-mode:multiply;opacity:0.5"/><g style="isolation:isolate"><path d="M99.18,140.16l-1.09-.63a3.25,3.25,0,0,1-1.34-2.94l1.09.63A3.22,3.22,0,0,0,99.18,140.16Z" style="fill:#b03c19"/><path d="M103.16,108.21l1.09.63a10.42,10.42,0,0,0-6.49-1.22L96.67,107A10.35,10.35,0,0,1,103.16,108.21Z" style="fill:#b03c19"/><polygon points="97.84 137.22 96.75 136.59 96.67 106.99 97.76 107.62 97.84 137.22" style="fill:#b03c19"/><path d="M97.76,107.62c7.3-.81,12.1,4.56,12.12,13.6l0,13.21a6.47,6.47,0,0,1-2.92,5.06,2.78,2.78,0,0,1-1.1.38l-5.18.58c-1.73.19-2.87-1.08-2.88-3.23Z" style="fill:#e43805"/></g><g style="isolation:isolate"><path d="M71,140.16l1.09-.63a3.21,3.21,0,0,0,1.34-2.94l-1.09.63A3.2,3.2,0,0,1,71,140.16Z" style="fill:#b03c19"/><path d="M67.05,108.21l-1.09.63a10.39,10.39,0,0,1,6.49-1.22l1.09-.63A10.33,10.33,0,0,0,67.05,108.21Z" style="fill:#b03c19"/><polygon points="72.36 137.22 73.45 136.59 73.53 106.99 72.45 107.62 72.36 137.22" style="fill:#b03c19"/><path d="M72.45,107.62c-7.31-.81-12.1,4.56-12.13,13.6l0,13.21a6.44,6.44,0,0,0,2.91,5.06,2.84,2.84,0,0,0,1.1.38l5.18.58c1.74.19,2.88-1.08,2.88-3.23Z" style="fill:#e43805"/></g><path d="M100.72,95.28,100.58,144c0,2.32-1.57,4.65-4.68,6.4-5.66,3.17-14.44,3.32-20.44.52a15.91,15.91,0,0,1-1.42-.75c-2.9-1.73-4.35-4-4.37-6.21l.14-48.1V95.2c0-4.11.16-15,4.35-26.36a4.24,4.24,0,0,0-.27,1.41c0,1.86,1.3,3.47,3.36,4.65,4.09,2.33,11.07,2.9,16,.1,2.92-1.63,4-4,3.22-6.1A76.89,76.89,0,0,1,100.72,95.28Z" style="fill:#fff"/><path d="M96.73,70.68c.26-2.47-4.65-13.53-11.34-19a35.57,35.57,0,0,0-9.27,12.51c-2.3,4.74-3.72,7.83,1,10.66C84,79,96.11,76.41,96.73,70.68Z" style="fill:#e43805"/><path d="M81.89,59.07a33.33,33.33,0,0,0-2,5.41A81.07,81.07,0,0,0,77.25,74.9a107.18,107.18,0,0,0-1.67,18.95l-.12,57.07a15.91,15.91,0,0,1-1.42-.75c-2.9-1.73-4.35-4-4.37-6.21l.14-48.1a78.7,78.7,0,0,1,4.08-25.61c0-.14.09-.27.14-.4a36.74,36.74,0,0,1,2.09-5,35.82,35.82,0,0,1,9.12-12.37A52.56,52.56,0,0,0,81.89,59.07Z" style="fill:gray;mix-blend-mode:multiply;opacity:0.30000000000000004"/><path d="M83.37,128.12a3.87,3.87,0,0,0-3.51,1.38c-.6.66-1,.78-1.28.76a1.61,1.61,0,0,1-1.09-2.63c-.53-.28-1.23-.66-1.75-1-1.27,1.72.74,5.91,3.92,5.45a3.35,3.35,0,0,0,2-1.17,2.23,2.23,0,0,1,2.09-1c1.87.26,1.12,2.28.74,2.83.61.08,1.42.18,2,.23.83-1.22,1.11-4.57-3.15-4.88Z" style="fill:#4a371e"/><path d="M77.35,121.43c-.64-.22-1.26-.47-1.85-.74l0,5.1c.59.27,1.21.52,1.85.74v-1.64a25.18,25.18,0,0,0,9.58,1.19v-1.8a25.4,25.4,0,0,1-9.58-1.19v-1.66Z" style="fill:#4a371e"/><path d="M82.37,120.39a29.69,29.69,0,0,1-5-1.76c.62.1,1.47.27,2.53.35,1.52.09,1.55.09,2.44.09v1.32Zm4.57-3.54a25.09,25.09,0,0,1-11.43-.13v2.16a25.4,25.4,0,0,0,11.42,4v-1.75c-1.5-.17-1.66-.18-2.75-.38V119a24.76,24.76,0,0,0,2.76-.44v-1.74Z" style="fill:#4a371e"/><path d="M77.08,112.73c-.37-1,.59-1.64,2.24-.81,1,.52,1.07,1.18,1.08,1.39v.32a22.19,22.19,0,0,1-3.32-.9ZM87,110.36a12.28,12.28,0,0,1-3.27.6c-1.46.12-2,.33-2.35.88-1.17-2-5.18-3.43-5.75-1.11a8.89,8.89,0,0,0,.07,3.23,24.06,24.06,0,0,0,11.28,1.86V114a27.34,27.34,0,0,1-4.79-.12v-.27c0-.66.46-.8,1.92-.9a11.59,11.59,0,0,0,2.87-.48v-1.89Z" style="fill:#4a371e"/><path d="M77.4,103.74c-.64-.22-1.26-.47-1.85-.74l0,5.1c.59.27,1.21.52,1.85.74V107.2A25.18,25.18,0,0,0,87,108.39v-1.8a25.2,25.2,0,0,1-9.58-1.19v-1.66Z" style="fill:#4a371e"/><path d="M82.37,98.54a21.79,21.79,0,0,1-6.8-1.83v1.81a22.06,22.06,0,0,0,7.22,1.87c3.52.36,2.09,1.45,2,1.49a3.53,3.53,0,0,1-2,.29,22.25,22.25,0,0,1-7.21-1.87v1.8a21.9,21.9,0,0,0,6.83,1.83c5.53.46,5-3.1,4.27-4s-2.55-1.2-4.28-1.4Z" style="fill:#4a371e"/><path d="M77.22,94c-.47-1.23.67-1.65,2.35-.86,1.44.68,1.1,1.75,1.09,1.76a22.24,22.24,0,0,1-3.44-.9Zm1.44-3c-1.29-.34-4-1-3,4.15A24.11,24.11,0,0,0,87,97.09v-1.8a27.91,27.91,0,0,1-4.48-.09c0-.92,0-3.07-3.86-4.13Z" style="fill:#4a371e"/><g style="isolation:isolate"><path d="M109,163.64l-1.09.64a2,2,0,0,0,.85-1.88l1.09-.63A2,2,0,0,1,109,163.64Z" style="fill:#b03c19"/><polygon points="108.83 149.2 109.92 148.57 109.88 161.77 108.79 162.41 108.83 149.2" style="fill:#b03c19"/><path d="M96.82,121.67l1.09-.64c7.29,7.61,12,18.5,12,27.54l-1.09.63C108.86,140.16,104.11,129.27,96.82,121.67Z" style="fill:#b03c19"/><path d="M96.82,121.67c7.29,7.6,12,18.49,12,27.53l0,13.2c0,1.94-1.39,2.57-2.94,1.68a5,5,0,0,1-1.09-.88l-5.17-5.4a10.09,10.09,0,0,1-2.85-6.53Z" style="fill:#e43805"/></g><g style="isolation:isolate"><path d="M61.17,163.64l1.09.64a2,2,0,0,1-.85-1.88l-1.09-.63A2,2,0,0,0,61.17,163.64Z" style="fill:#b03c19"/><polygon points="61.38 149.2 60.28 148.57 60.32 161.77 61.41 162.41 61.38 149.2" style="fill:#b03c19"/><path d="M73.38,121.67,72.29,121c-7.28,7.61-12,18.5-12,27.54l1.08.63C61.35,140.16,66.1,129.27,73.38,121.67Z" style="fill:#b03c19"/><path d="M73.38,121.67c-7.28,7.6-12,18.49-12,27.53l0,13.2c0,1.94,1.39,2.57,2.94,1.68a5.23,5.23,0,0,0,1.1-.88l5.16-5.4a10.15,10.15,0,0,0,2.86-6.53Z" style="fill:#e43805"/></g><path d="M66.21,113.53c.09-.2-.17-3.31-.17-3.31l.48-2c.23-.91.74-.37.66.2l0,1,.3,1.39Z" style="fill:#ffb294"/><path d="M65.56,116.69a19.22,19.22,0,0,0,1.52-1.44l1.84-1.59,1.5-1.81,1-1,1-.58c.58-.41.33-.86-.12-.71L71.1,110l-.91.56,1-1.18,1.38-1c.43-.3.36-.91-.21-.68L70,109.09l.63-.88,1.46-1c.42-.29.35-1-.34-.62l-1.16.63-1.3,1.06.34-.55,1.06-1.19c.41-.57.06-1-.54-.45l-1,1A5.4,5.4,0,0,0,68,108.3l-.53,1-.52.84a8.36,8.36,0,0,0-.78,3.36l-.65,3.16Z" style="fill:#ffb294"/><path d="M39.74,108.81l.46,5a3.79,3.79,0,0,0,1.72,2.82c1.47.94,3.53.91,5,1a11.15,11.15,0,0,1,1.12.07l.46-5.72-4.1-11.09C41.22,101.55,39.78,104.27,39.74,108.81Z" style="fill:#fff"/><path d="M41.92,116.66c1.47.94,3.53.91,5,1v-3.24L42,109.06Z" style="fill:gray;mix-blend-mode:multiply;opacity:0.30000000000000004"/><path d="M54.59,108.2l2.33-.76,2.56-2.71,2.15-1.18,1.43-.37a.74.74,0,0,1,.33,0l.32.09.37,0a.61.61,0,0,1,.62.3l.44.15a.32.32,0,0,1-.06.56l-.51.07-.85.39-1.31,1-.56,1.58s.21.29.28.3a6.37,6.37,0,0,0,1.56-.13l.5-.16c.47.06.78.38.37.65l-.64.38-2.59,1.1-2.77.37-2.72,1.14Z" style="fill:#ffb294"/><path d="M54.51,159c2.38.49,2.77,2.35,1.86,4l-2.69,3.81c-1,1.75-2.37,2.57-4.14,2.28a2.07,2.07,0,0,1-1.36-2.95l.66-2,1-5.51Z"/><path d="M47.63,163.88c.75,2.53,5.64,2.44,6-.95l1.33-9.68.28-3.95L57.91,140l.58-2.43-1.91-11.77-10-.46S48,145.23,48,146C46.57,150.47,47.31,158.09,47.63,163.88Z" style="fill:#173757"/><path d="M54.56,167.75c-1,1.63-.52,4.35,0,5.59,1.68.63,3.09.76,4.08.09,3.18-.2,5,.23,6.61-.24s2.93-1,3.82-2.76A1.88,1.88,0,0,0,67.57,168c-2.65-.11-5-.32-6.32-1L59,162.87l-4.11,3.24Z"/><path d="M55.45,142.33a43.05,43.05,0,0,1-.33,5.66c-2.19,6.72-2.27,14.77-2.12,21.1,1.71,2.72,7.65,1.73,8.1-.82l1.11-8.53s0-.06,0-.15l0-.28.39-3,1.16-7.4c.84-6.32-.48-18.39-.83-23.58l-9.88-1.16a.28.28,0,0,1,0,.13c-.19,1.36-6.33,1.85-6.39,3.24-.15,3.21,2.18,10,8,10.61l.15,0C55.12,140.29,55.32,140.44,55.45,142.33Z" style="fill:#32567b"/><path d="M54.72,138.14c.1,0,.14,0,.15,0,2.83,1,5.29,2.39,6.41,4.94.85,13.78,1.06,13.78.93,16.62l0-.13,0-.28.39-3,1.16-7.4c.84-6.32-.48-18.39-.83-23.58l-9.88-1.16a.28.28,0,0,1,0,.13c-.19,1.36-6.33,1.85-6.39,3.24C46.57,130.74,48.9,137.57,54.72,138.14Z" style="fill:#32567b;mix-blend-mode:multiply;opacity:0.5"/><polygon points="53.48 105.7 53.17 98.25 48.42 96.07 47.21 102.15 53.48 105.7" style="fill:#ffb294"/><path d="M46.16,119.88a73.08,73.08,0,0,1,.4,7.31C50.08,130.62,55.66,132,60,130a6.17,6.17,0,0,0,3.31-3.56,43.31,43.31,0,0,0-2.05-13.86A13.93,13.93,0,0,0,58.84,108l-7.05-4.71a40,40,0,0,0-6.56-2.38c-3.45-.28-5,4.41-3.4,9.17C41.83,110.06,45.84,118.19,46.16,119.88Z" style="fill:#fff"/><path d="M52.93,102l1.3-.56a3.31,3.31,0,0,0,1.86-2.11c.5-1.71,1-4.49.13-6.5-1.41-3.12-3.33-3.81-6.39-2.7s-4.21,3.41-3.27,6.8,1.8,2.91,1.8,2.91Z" style="fill:#ffb294"/><path d="M56.55,93.83,55,96l-.5,1.79-.52.75-.23,1.1a1.84,1.84,0,0,1-1.86,1.44,7.23,7.23,0,0,1-4-1.4s-1.22-.8-1.71-3.89a5.13,5.13,0,0,1,2.11-5.33c.83-.46,5.23-2.59,7.58-.56C58.44,92.16,56.55,93.83,56.55,93.83Z"/><path d="M54.1,96.51a.57.57,0,0,0-.41.24,1.48,1.48,0,0,0-.21.44,3.9,3.9,0,0,0-.07,1.86,1.3,1.3,0,0,0,.18.46.51.51,0,0,0,.4.23.52.52,0,0,0,.4-.23,1.66,1.66,0,0,0,.19-.43C54.72,98.57,55.24,96.45,54.1,96.51Z" style="fill:#ffb294"/><path d="M53.91,114.29c.57,10.59,6.72,8,6.13,15.75a6.17,6.17,0,0,0,3.31-3.56,43.31,43.31,0,0,0-2.05-13.86Z" style="fill:gray;mix-blend-mode:multiply;opacity:0.30000000000000004"/><path d="M62.08,114.73l2.21-2.19c2.18-1.56,4.94.65,4.32,3.61l-5.06,6.35a4.14,4.14,0,0,1-2.8,1.66c-3.29-.22-5-5.16-6.84-9.87-.93-5,2.91-8.18,5.71-5.48Z" style="fill:#fff"/><path d="M91.16,112.51a18.69,18.69,0,0,1-1.33-1.37l-1.47-2.63-.35-2.3-.59-1.28-.78-.89c-.42-.59,0-1,.35-.65l1,.81.7.84-.54-1.46L86.77,102c-.31-.44,0-1,.43-.59l2,1.85-.11-.61-1.35-1.81c-.31-.41,0-1,.54-.48L90,102.2l-.65-1.6c-.2-.69.26-.95.68-.27l.71,1.24a5.34,5.34,0,0,1,.59,1.54l.34,1.6.23,1a5.06,5.06,0,0,1-.09,2.73l-.25.8,1.72,1.91Z" style="fill:#ffb294"/><path d="M109.12,107.65l-1.88-1.44V103.3l-.67-2.49-2.22-4c-.28-.53-.79-.12-.58.41l.18.51-.85-.89a.36.36,0,0,0-.62.35l.44.77-.07-.07a.31.31,0,0,0-.31-.06.3.3,0,0,0-.2.23,1,1,0,0,0,.09.65l1.29,2.29-.59-.69c-.36-.36-.85.1-.65.53l1.26,2.72a3,3,0,0,0,.83,2.42,4.71,4.71,0,0,1,1,1.29l2.06,2.52Z" style="fill:#ffb294"/><path d="M119.8,111.87l-3.4-1-9.16-4.67c-1.46.64-1.43,1.43-1.37,3,2.9,3.19,7.41,6.21,10.65,6.62l.86.21Z" style="fill:#db9a16"/><polygon points="116.57 112.78 117.49 105.41 122.38 103.64 123.08 109.77 116.57 112.78" style="fill:#ffb294"/><path d="M123.12,161.12s-1.72.74-2,1.4a2.91,2.91,0,0,0,.25,1.83,8.51,8.51,0,0,0,1.22,1.9,5.78,5.78,0,0,0,1.65.86s.77,2.09,1.83,2.37a2.17,2.17,0,0,0,2.58-1.08c.52-1-.72-3.65-.72-3.65Z"/><path d="M102.32,168.51v3.78s.45,2-.3,2.76-1.65.55-2.69.21-3.2-2.87-3.2-2.87a6.8,6.8,0,0,1-2.26-1.46,4.63,4.63,0,0,1-1.07-2.85,2.46,2.46,0,0,1,1-1.88c1.16-.84,2-.36,4.68,1.34l1.45-1.18Z"/><path d="M127.92,164.75a2.82,2.82,0,0,1-3.94,1.09,3.21,3.21,0,0,1-1.44-1.74c-.69-4-3.18-10.28-5.32-17.16a51.35,51.35,0,0,1-1.72-5.36c-1.62,1.17-3.53,1.66-5.47,2.63l-4.7,6.12c1.43,4.81.35,12.77-1.67,21.62-2.64.84-4.86.72-5.64-2.69a57.31,57.31,0,0,0,.73-8.13c.14-4.88-.11-9.3.56-13.06.94-5.84,2.64-11.15,5.78-15.47.4-.56.84-1.11,1.3-1.64l2.92-4.3h10.76l2.4,5.16c.9,2.43,1.47,5.38.58,7.58l-.56,4.69C125.72,148.93,127.18,156.26,127.92,164.75Z" style="fill:#4a371e"/><path d="M122.69,127.45c-.46,1.65.41,6.43.41,6.43-3.76,3.11-10.82,4.85-15,2.53a6.17,6.17,0,0,1-3-3.81A43.23,43.23,0,0,1,108.25,119a14,14,0,0,1,2.82-4.4l7.38-4.1a19.3,19.3,0,0,1,4.86-1.89l2.53-.61c3.45,0,3.88,5.45,1.94,10C127.78,118.05,123.15,125.8,122.69,127.45Z" style="fill:#db9a16"/><path d="M117.73,108.61l-1.19-.63a3.17,3.17,0,0,1-1.61-2.16c-.34-1.66-.65-4.34.38-6.19,1.59-2.85,3.47-3.36,6.29-2.07s3.74,3.58,2.58,6.72-1.93,2.64-1.93,2.64Z" style="fill:#ffb294"/><path d="M114.92,100.57l1.31,2.18.34,1.75.44.75.13,1.06a1.75,1.75,0,0,0,1.66,1.52,6.89,6.89,0,0,0,3.94-1s1.23-.66,1.93-3.57A4.87,4.87,0,0,0,123.08,98c-.75-.5-4.78-2.87-7.17-1.12C113.26,98.83,114.92,100.57,114.92,100.57Z"/><path d="M117.05,103.31a.57.57,0,0,1,.37.26,1.54,1.54,0,0,1,.16.44,3.66,3.66,0,0,1-.08,1.77,1.25,1.25,0,0,1-.2.42.5.5,0,0,1-.41.19.49.49,0,0,1-.36-.25,1.48,1.48,0,0,1-.14-.42C116.29,105.22,116,103.17,117.05,103.31Z" style="fill:#ffb294"/><path d="M108.09,136.41c-4,2.5-6.44,7.33-7.64,13.92,0,0-.38,8.46-1.69,10.79.13-4.87-.12-9.29.55-13.05.94-5.84,2.64-11.15,5.78-15.47A6.17,6.17,0,0,0,108.09,136.41Z" style="fill:#386479;mix-blend-mode:multiply;opacity:0.5"/><path d="M113,119.78c-3.16,3.45-4.84,8.91-4.88,16.63a6.17,6.17,0,0,1-3-3.81A43.23,43.23,0,0,1,108.25,119Z" style="fill:#c2a24b;mix-blend-mode:multiply;opacity:0.5"/><path d="M114.31,114.4l-13.71.37-9-5.54c-1.44.5-1.78,1.8-1.72,3.39,2.86,3.46,7,6.72,10.16,7.44,4.4,1.58,8.34,1.77,13.83,1.87C117.54,122.3,118.24,115,114.31,114.4Z" style="fill:#db9a16"/><path d="M124,165.84a3.21,3.21,0,0,1-1.44-1.74c-.69-4-3.18-10.28-5.32-17.16a51.35,51.35,0,0,1-1.72-5.36l2.86-1.2a13.08,13.08,0,0,0,.58,6.61A72.21,72.21,0,0,1,124,165.84Z" style="fill:#386479;mix-blend-mode:multiply;opacity:0.5"/></g></g></g></svg>