<svg xmlns="http://www.w3.org/2000/svg" xmlns:xlink="http://www.w3.org/1999/xlink" viewBox="0 0 166.81 239.48"><defs><linearGradient id="linear-gradient" x1="83.41" y1="207.98" x2="83.41" y2="-31.5" gradientUnits="userSpaceOnUse"><stop offset="0" stop-color="#fff"/><stop offset="1" stop-color="#5ec9ff"/></linearGradient></defs><g style="isolation:isolate"><g id="Capa_2" data-name="Capa 2"><g id="Layer_3" data-name="Layer 3"><rect width="166.81" height="239.48" style="opacity:0.75;fill:url(#linear-gradient)"/><path d="M83.4,171.42l-15.18,8.77a16.82,16.82,0,0,1-15.2,0c-4.19-2.43-4.19-6.35,0-8.78l15.19-8.76a16.74,16.74,0,0,1,15.19,0C87.6,165.07,87.6,169,83.4,171.42Z" style="fill:#c8d7f7;mix-blend-mode:multiply;opacity:0.75"/><path d="M72.61,130.88l-15.18,8.76a16.82,16.82,0,0,1-15.2,0c-4.19-2.42-4.19-6.35,0-8.77l15.19-8.77a16.8,16.8,0,0,1,15.19,0C76.81,124.52,76.81,128.45,72.61,130.88Z" style="fill:#c8d7f7;mix-blend-mode:multiply;opacity:0.75"/><path d="M111.82,123.38l-15.19,8.76a16.76,16.76,0,0,1-15.2,0c-4.19-2.42-4.19-6.35,0-8.77l15.19-8.77a16.82,16.82,0,0,1,15.2,0C116,117,116,121,111.82,123.38Z" style="fill:#c8d7f7;mix-blend-mode:multiply;opacity:0.75"/><path d="M131.88,168.81l-7.58-4.38c2.44-2.37,1.91-5.49-1.63-7.53a16.76,16.76,0,0,0-15.17,0l-15.15,8.75c-4.19,2.42-4.19,6.34,0,8.75,3.49,2,8.78,2.35,12.87,1l7.62,4.39Z" style="fill:#c8d7f7;mix-blend-mode:multiply;opacity:0.75"/><path d="M56.35,120.68c-.5.6-.56,2-.52,3.7.37,1.67,2,1.61,3.27,1.87,2.57.52,3.77,2.52,7.21,2.66,2,.08,3.43-.3,3.91-1.57a2.21,2.21,0,0,0-.93-1.87s-4.59-2.29-4.71-2.38a26.3,26.3,0,0,1-2.19-1.87l-.64-3.79-5-.22Z"/><path d="M62.66,121.21c-2.88,1.56-7,2.86-7.37.77-.11-.63-.22-1.26-.32-1.88-.94-6-1.26-11.65,0-16.58L52.65,94,52,91.38c.2-6,2.94-7.92,7.48-6.81l.55.15c.26.07.53.16.8.25l.4,3.33,1.71,14.33C63.39,108.16,61.92,116.37,62.66,121.21Z" style="fill:#352717"/><path d="M44.39,129.86a5.54,5.54,0,0,0-.25,3.27,16.55,16.55,0,0,1,.82,1.75c.35,1.06.39,2.85,2,3.85,2,1.42,5.65,1.33,6.74-.33a8.42,8.42,0,0,0-1.66-3.83l-2-3.39,0-3.26L44.61,127Z"/><path d="M61,86c-.7,3.55-4.12,6.1-5.87,7.25a19.54,19.54,0,0,0-.19,2.09c-.09.71-.18,1.44-.28,2.17-.65,4.78-1.54,9.93-2.59,15.32a87.85,87.85,0,0,0-1.5,18.33c-2.21,1.14-4.92.86-6.16-.5a2.49,2.49,0,0,1-.52-.81c-.09-2.61-.2-5.24-.25-7.71-.09-5.14.07-9.58,1.12-11.59L43.61,84.85l.45-.07,3.32-.55,9.55-1.54,3.21-1.19C60.83,85,60.82,83.25,61,86Z" style="fill:#47331e"/><path d="M47.57,110.43c-2,4-2.57,12.07-3.15,20.22a2.37,2.37,0,0,1-.53-.81c-.09-2.61-.2-5.24-.25-7.71-.09-5.14.07-9.58,1.12-11.59L43.61,84.85l.45-.07,4.37,3C46.81,93.43,46.86,101.45,47.57,110.43Z" style="fill:#352616;mix-blend-mode:multiply;opacity:0.5"/><path d="M66.46,85.44l1.06,1.72a3.66,3.66,0,0,0,1.37,3L70,91.63l.27,1.08c.41.61.76.49,1.08.1l-.11.7-.37,1.63-.75,1c-.25.52-.06.61.29.55,0,.44.23.54.61.48l.61-1c.18.44.57.63.8.14l.81-2.22a8.7,8.7,0,0,0-.08-3.34,13.92,13.92,0,0,0-3.11-4.16L69,84.34Z" style="fill:#ffb294"/><path d="M70.48,86.11a4.08,4.08,0,0,1-1.36.93,6.44,6.44,0,0,1-2,.47L58.48,71.27l-1.54-2.89-.06-13a8.16,8.16,0,0,1,4.38,4.23Z" style="fill:#fff"/><path d="M69.15,87a6.08,6.08,0,0,1-2.06.5L58.48,71.27l1.71-7.08C62.11,73.16,64.81,80.36,69.15,87Z" style="fill:gray;mix-blend-mode:multiply;opacity:0.30000000000000004"/><path d="M59.76,84.85a15.2,15.2,0,0,1-11.48,2.71c-.26,0-.51-.1-.76-.16a10.33,10.33,0,0,1-3.36-1.47,3.18,3.18,0,0,1-1.32-2.78c0-.69,0-1.41,0-2.16l-.44-3.91-.25-2.36-1.9-9.45A16.71,16.71,0,0,1,42.4,62a39.17,39.17,0,0,1,7.42-6.32h7.6c1.74,1.63,2.69,4.25,3.21,7.43,0,0-.08,12.69.47,15.76a9.52,9.52,0,0,0,.25,1.2A4.59,4.59,0,0,1,59.76,84.85Z" style="fill:#fff"/><path d="M55.34,64.93l-.08-2.61L53.8,61.4l-.61.25L53,63.78l1.35,2c.48,3,1.73,9.46,1.69,11.83L58,79.4l.66-2.78Z" style="fill:#e43805"/><path d="M50.59,54.84l-3.05,2.43c-1.53,4.68,2.29,6.6,4.79,9.2l1.47-4.09,3.62.71-1.33-6.65Z" style="fill:#e6e6e6"/><path d="M54.55,61.66a1.26,1.26,0,0,1-.75.72c-3.11.92-5.65-2.62-5.3-4.71s.46-3.31.46-3.31l6,1.48s.07.56.1,1.36A10.68,10.68,0,0,1,54.55,61.66Z" style="fill:#ffb294"/><path d="M54.55,61.66a1.75,1.75,0,0,1-1,.33c-2.84,0-3.74-5.35-3.74-5.35l5.23.56A10.68,10.68,0,0,1,54.55,61.66Z" style="fill:#ffb294;mix-blend-mode:multiply;opacity:0.5"/><path d="M49.43,55.4a9.66,9.66,0,0,0,1.81,3.72A7,7,0,0,0,55,60.84a1.85,1.85,0,0,0,1.72-.56c.46-.54.74-5.48.74-5.48a14.49,14.49,0,0,0-.27-3.55c-.33-1.57-1.47-5-6-4.41a4.39,4.39,0,0,0-3.85,3.84c-.23,1.54,1,4.28,1,4.28Z" style="fill:#ffb294"/><path d="M48.22,55.28l2.17,1.16.16-1.3a1.06,1.06,0,0,1,1.13-1.07,8.08,8.08,0,0,0,4.17-.73,3,3,0,0,0,1.71-1.68c.73-2.82-3-5-5.77-4.9-3.4.12-4.77,2.4-4.78,4.41A10.91,10.91,0,0,0,48.22,55.28Z"/><path d="M48.71,53.53a.75.75,0,0,0-.92.14.72.72,0,0,0-.11.54,1.78,1.78,0,0,0,.19.53,8.76,8.76,0,0,0,.47.85,1,1,0,0,0,.58.52c.26.07.58.25.73,0A2.26,2.26,0,0,0,49.72,55,2.15,2.15,0,0,0,48.71,53.53Z" style="fill:#ffb294"/><path d="M95.16,118.77c-2.17-.61-4-1.71-4.55-3.28,1.27-5.41,5.17-9.73,8.67-16.17H91.11c-3.87,5.64-2.57,13.11-4.37,16.16-1.07,1.34-1.62,2.66-.57,3.93h3.15l3.13,2,3.38-.06C96.23,120.22,96.49,119.19,95.16,118.77Z" style="fill:#f29b79"/><path d="M86.43,115.9a3.87,3.87,0,0,0-1.18,4.55c1,1.47,3.27.49,4.79.91,3.51,1,3.52,1.76,5.2,1.73,2.73-.06,4.52-1.22,4.37-2.12-.12-.73-1.29-1.46-3.21-2.18L93.31,118a9.76,9.76,0,0,0,1.85.73c1,.63.63,1.3-.28,2.12-1,.44-2.28,0-3.9-.84l-3.49-1.66A2.07,2.07,0,0,1,86.43,115.9Z" style="fill:#5c4425"/><path d="M82.72,126.53a6.34,6.34,0,0,1,.36-3.5c2.74-7.5-1-10.72,4.44-18.4-1.83-7.42-.74-10.27-1.7-20.85,2-6.07,13.47-3.89,11.35-2.18.21,5.76-1.71,16-3.81,22.66-1.79,5-5.83,11.79-6.58,18.42.78,2.76.86,4.54,2.46,6.06l-1,2.45a24.77,24.77,0,0,1-3.19-.94C85,130.07,82.72,126.53,82.72,126.53Z" style="fill:#ffb294"/><path d="M83.08,123c-1.1.89-1.06,2.71-.82,4.06.51,1.09,1.25,1.76,2.11,3.36l.8,1.06c1.6,1.33,4.47,1.51,5.48.8.65-1.15-.13-2.28-2.1-4.29.75,1.54-.11,2.29-2,2.08-.93-.18-1.55-1.42-2.56-3.09S82.4,124.21,83.08,123Z" style="fill:#5c4425"/><path d="M101.29,99.32c-1.19,2.89-3,4.59-5.19,5.32a9.61,9.61,0,0,1-3.84.38,20.83,20.83,0,0,1-5.76-1.48l-.89-14.86c-.51-4.46-.39-8.45,1.69-11.25a7.6,7.6,0,0,1,.84-1l11.48-1.09C102.77,77.87,102.85,89.38,101.29,99.32Z" style="fill:#e43805"/><path d="M96.1,104.64l-3.84.38a20.83,20.83,0,0,1-5.76-1.48l-.89-14.86c-.51-4.46-.39-8.45,1.69-11.25l13.22,3.39C90.88,88.94,86.43,96.31,96.1,104.64Z" style="fill:#ad8b63;mix-blend-mode:multiply;opacity:0.5"/><path d="M103.49,57.76a38.32,38.32,0,0,1,5.1,6.39c2,2.79.11,5.41-2.64,3.52l-5.47-3.07-2.34-5.48.31-3.64Z" style="fill:#fff"/><path d="M100.3,57.06l1.54,1.65,2.8,5.81c-2.36-1.18-1.23,1.36,0,2.41l-5.51-3.07L99,58.49Z" style="fill:gray;mix-blend-mode:multiply;opacity:0.30000000000000004"/><path d="M103.82,51.91a17,17,0,0,1,.45,2.33l-.78,2.69.14,1.6-1.52.75-1.72-2-1.26-2.59,2.16-4Z" style="fill:#ffb294"/><polygon points="99.04 55.19 101.6 57.48 102.11 57.48 103.82 53.36 100.15 50.74 99.04 55.19"/><path d="M100.78,72.21l.24,6.88C99.68,87.22,88.3,84.91,85.9,80c.53-2.37,2.4-3.35,1.46-5.7-1.29-3.24-2.16-5.84-2.16-5.84-.29-.83-.54-1.58-.74-2.28-.72-2.51-.66-4.23,1.44-6,4-3,8.19-4.87,12.55-4.67,1.78-.52,2.56,3.09,2.07,5.75-.45,2.39,2.79,4.89,3,6.56A4.39,4.39,0,0,1,100.78,72.21Z" style="fill:#fff"/><path d="M101,79.09C99.68,87.22,88.3,84.91,85.9,80c.53-2.37,2.4-3.35,1.46-5.7-1.29-3.24-2.16-5.84-2.16-5.84-.29-.83-.54-1.58-.74-2.28.21-1.22.48-2.27.74-2,4.9,5.09,5.31,11.29,10.26,10.69,2.75-.34,3.25-3.52,3.25-3.52a2.82,2.82,0,0,0,2.07.85Z" style="fill:#ababab;mix-blend-mode:multiply;opacity:0.30000000000000004"/><path d="M81.63,82.14l1.49,1.53,2.4,1.2,2.93.51.79.4.59.71c.38.52.76.12.43-.38l-.52-.73-.92-.8,1.22.15.81.44c.61.37.89,0,.32-.52l-.85-.73-1.15-.27,1.46-.1,1,.53c.49.37.68-.23.2-.55l-1.07-.69-1.63-.21,1.57-.2.93.32c.5.2.66-.26.06-.61l-.81-.44-3.48-.23,1.4-.41h.85c.48,0,.59-.53,0-.61l-1.11-.08-1.44.11L85.36,81,84,81.44l-1.38-.88Z" style="fill:#ffb294"/><path d="M83.12,83.67c-.48.2-4.74-4.34-6.55-7.11a2.52,2.52,0,0,1,0-2.68,96,96,0,0,1,7.91-12c2.36-2.47,5.36,3.53,2.94,6.21a52.49,52.49,0,0,1-7.07,7.2L84,81.44Z" style="fill:#fff"/><path d="M102.4,52.47c-.19.65.15.75.77.55l.5-.1.6,1.25.1-2a.76.76,0,0,0-.77-.7c-.15-.48-.44-.7-.88-.61a.71.71,0,0,0-1-.51l-.7,1.33c-.18.82.29.54.7.35C101.49,52.79,101.91,52.69,102.4,52.47Z" style="fill:#ffb294"/><path d="M92.15,51.64l-.48,5.21C92.74,62.17,97.48,67.5,98.44,69c.6-2.59,0-8.34-.88-10.88l-.1-2.87Z" style="fill:#ffb294"/><path d="M92.84,54.42c0,.06-.34,5.67,2.65,6.11,1.88.28,2.35-3.89,2.35-3.89Z" style="fill:#ffb294;mix-blend-mode:multiply;opacity:0.5"/><path d="M91.74,56.11l-1,1.09a4.6,4.6,0,0,0-1.21,3.53l1.84-.18-1.53,2.29a15.68,15.68,0,0,1,8.79,6.73C96.69,63.33,92.51,62,91.74,56.11Z" style="fill:gray;mix-blend-mode:multiply;opacity:0.30000000000000004"/><path d="M96.18,55.9c1.54,2,2.56,7.94,2.26,13.14,1-3.93,1.94-7.83,1.88-10.22l-1.58-.44,1.27-.52a6,6,0,0,0-2.35-2.57Z" style="fill:gray;mix-blend-mode:multiply;opacity:0.30000000000000004"/><path d="M95.6,47A3.66,3.66,0,1,1,92,43.35,3.66,3.66,0,0,1,95.6,47Z" style="fill:#4d1b0b"/><path d="M97.42,58.64c-1.48.33-3.15-1.5-3.9-2.43a2.59,2.59,0,0,1-.5-1.09l-.38-1.87-1.16-.14s-1.77-1.47-.67-5.32c.56-1.93,3.44-3.38,5.51-3,3.26.65,4.05,2.89,4.65,4.4s-.45,4.15-.45,4.15S99.39,58.19,97.42,58.64Z" style="fill:#ffb294"/><path d="M93.41,52.84s4.43-1.13,6.23-4.29a4.23,4.23,0,0,1,1.23,4s.44,0,.74-.86,1.78-4.42-2.27-6.55-9.15-1-9.48,3.76a8,8,0,0,0,2,6.31A4,4,0,0,1,93.41,52.84Z" style="fill:#722811"/><path d="M99.64,48.55l.47-1.36c1.59.86,1.28,2.67.89,4.52A4.59,4.59,0,0,0,99.64,48.55Z" style="fill:#4d1b0b"/><path d="M70.27,161.52c-.52.68-.52,2.27-.4,4.07.49,1.81,2.21,1.67,3.68,1.9,2.83.45,4.24,2.58,8,2.57,2.24,0,3.73-.48,4.2-1.9a2.43,2.43,0,0,0-1.1-2s-5.14-2.3-5.27-2.39a26.18,26.18,0,0,1-2.48-1.94L76,157.71H70.49Z"/><path d="M77.39,162.27a17.33,17.33,0,0,1-4.58,2c-1.49.35-2.67.2-2.89-.87-.14-.63-.27-1.26-.4-1.9-1.22-6-1.79-11.8-.69-16.88L66,135l-.58-2-.2-.68c0-6.17,1.22-12.55,7.3-10.77,1.56,7.16.93,4.18,4.33,21.75C77.57,149,76.44,157.39,77.39,162.27Z" style="fill:#47331e"/><path d="M72.81,164.24c-1.49.35-2.67.2-2.89-.87-.14-.63-.27-1.26-.4-1.9-1.22-6-1.79-11.8-.69-16.88L66,135l-.58-2,6-3.64-2.85,5.06,2.54,10.64C68.72,152.59,69.71,158.81,72.81,164.24Z" style="fill:#352616;mix-blend-mode:multiply;opacity:0.5"/><path d="M53.49,170.1a5.67,5.67,0,0,0-.4,3.32,17.4,17.4,0,0,1,.76,1.82c.31,1.09.26,2.92,1.89,4,1.94,1.54,5.69,1.61,6.87,0a8.66,8.66,0,0,0-1.51-4l-1.9-3.54.12-3.32-5.47-1.2Z"/><path d="M69.08,132a7.3,7.3,0,0,0-3.67,5.62c-.88,4.83-2,10-3.32,15.48a89.59,89.59,0,0,0-2.37,18.59,6.15,6.15,0,0,1-5,.13l-.07,0a5.12,5.12,0,0,1-.72-.44,2.8,2.8,0,0,1-1-1.3c0-2.65,0-5.34.09-7.86.14-5.24.5-9.75,1.67-11.75V124.24l1.68-.19,2.18-.26,9.79-1.14L72.78,121S73.85,128.93,69.08,132Z" style="fill:#47331e"/><path d="M56.82,151.17c-2,6.11-2.53,13.07-2.08,20.66l-.07,0c-.11-.08-.38-.23-.72-.44a2.8,2.8,0,0,1-1-1.3c0-2.65,0-5.34.09-7.86.14-5.24.5-9.75,1.67-11.75V124.24l1.68-.19L59,127.56C57.13,131.45,56.88,141,56.82,151.17Z" style="fill:#352616;mix-blend-mode:multiply;opacity:0.5"/><path d="M71,103.87l4.41,4.28c2.17,1.93,5,1.95,5.84,0,.34-.81-.56-5.68-.56-5.68l-1.62-6-2.82.66L69,94.51Z" style="fill:#fff"/><polygon points="73.14 100.05 68.16 95.65 68.08 93.9 75.37 99.01 80.28 102.93 75.35 101.37 75.87 105.86 73.14 100.05" style="fill:gray;mix-blend-mode:multiply;opacity:0.30000000000000004"/><path d="M73.14,120.61c.39,5.25-8.07,9.76-14.51,6.8a16.84,16.84,0,0,1-3.88-2.5,7.34,7.34,0,0,1-1-4v-.09c0-.31,0-.62,0-1l-.69-6.39-1.94-9.63c2.69-4.77,6.29-7.52,9.72-9.8H68.6c1.78,1.66,2.75,4.33,3.27,7.56C71.64,109.21,72.54,112.48,73.14,120.61Z" style="fill:#fff"/><path d="M64.29,100.19l-.17,2.16,1.38,2a104.77,104.77,0,0,1,1.15,12l1.95,2.09.82-3.7c-.73-3.8-2.19-8.77-2.94-11.26l-.09-2.65-1.49-.94Z" style="fill:#e43805"/><path d="M61.64,93.24l-3.11,2.48c-1.56,4.76,2.34,6.72,4.88,9.37l1.49-4.16,3.7.72-1.36-6.78Z" style="fill:gray;mix-blend-mode:multiply;opacity:0.30000000000000004"/><path d="M65.67,100.19a1.32,1.32,0,0,1-.77.74c-3.16.93-5.75-2.67-5.39-4.8s.47-3.38.47-3.38l6.11,1.51s.07.58.11,1.39A10.73,10.73,0,0,1,65.67,100.19Z" style="fill:#ffb294"/><path d="M65.67,100.19a1.72,1.72,0,0,1-1,.34c-2.89,0-3.81-5.45-3.81-5.45l5.34.57A10.73,10.73,0,0,1,65.67,100.19Z" style="fill:#ffb294;mix-blend-mode:multiply;opacity:0.5"/><path d="M60.45,93.82a10,10,0,0,0,1.85,3.79,7.22,7.22,0,0,0,3.79,1.75,1.93,1.93,0,0,0,1.76-.57c.46-.55.75-5.59.75-5.59a15,15,0,0,0-.28-3.62C68,88,66.83,84.45,62.17,85.09A4.47,4.47,0,0,0,58.25,89c-.23,1.57,1,4.36,1,4.36Z" style="fill:#ffb294"/><path d="M59.19,93.59l2.24,1.2.17-1.34c0-.65.4-.86,1-.82a5,5,0,0,0,5-4c.66.26.77,1,.85,1.13,1.56-3.16-2.74-5.1-5.63-5-3.51.12-4.93,2.47-4.93,4.55A11.12,11.12,0,0,0,59.19,93.59Z"/><path d="M59.72,91.91a.78.78,0,0,0-.94.14.75.75,0,0,0-.11.55,2,2,0,0,0,.19.54,9.25,9.25,0,0,0,.49.87,1,1,0,0,0,.58.53c.27.07.6.25.74,0a2.26,2.26,0,0,0-1-2.65Z" style="fill:#ffb294"/><path d="M58.63,127.41a16.84,16.84,0,0,1-3.88-2.5,7.34,7.34,0,0,1-1-4v-.09c0-.31,0-.62,0-1l-.69-6.39,5.09-3.42s-.4,6.63-.18,11C58.08,122.92,58.34,125.22,58.63,127.41Z" style="fill:gray;mix-blend-mode:multiply;opacity:0.30000000000000004"/><polygon points="57.52 155.92 55.12 157.45 40.64 146.76 38.97 135.22 40.35 134.28 57.38 143.99 57.52 155.92" style="fill:#1a1a1a"/><polygon points="55.12 157.45 38.24 147.7 38.97 135.22 55.85 144.96 55.12 157.45" style="fill:#333"/><polygon points="38.97 135.22 38.64 140.79 46.24 147.62 55.55 150.03 55.85 144.96 38.97 135.22" style="fill:#1a1a1a"/><path d="M45.33,145.74l-.28,2.34a.7.7,0,0,0,.38.7l.43.22a.69.69,0,0,0,1-.48l.38-1.83Z" style="fill:#666"/><path d="M45.13,145.64,44.85,148a.68.68,0,0,0,.37.7l.43.22a.7.7,0,0,0,1-.48L47,146.6Z" style="fill:gray"/><polygon points="47.55 147.65 44.6 145.94 44.72 144.8 47.66 146.5 47.55 147.65" style="fill:#4d4d4d"/><path d="M45.34,138.69c-.65-.24-1.27-.54-1-1.25.56-.91,1.19-1.45,2-1.09Z" style="fill:#333"/><polygon points="45.91 132.47 44.53 138.18 45.2 139.47 46.39 140.66 47.85 141.06 49.45 141.28 50.24 140.4 50.95 140.16 51.22 137.83 51.22 136.1 49.79 134.12 49.76 131.1 46.22 130.44 45.91 132.47" style="fill:#ffb294"/><path d="M51.22,103.74c-1.46,2.44-3.08,8.76-4.69,14.81L45.2,133.24c.35,1.58,3.81,2.2,5.58.87l1.68-13.46,5.71-10.57C60.13,105.63,53.77,101,51.22,103.74Z" style="fill:#fff"/><path d="M50,138.07c-.38.22-.58,1.22-.09,1.44.78.52.74,1.17,1,2.19.38.59,1.19.32,1.19-.09C51.77,140.06,51,138.42,50,138.07Z" style="fill:#333"/><path d="M74.39,97.14c.36-.63.36-1.32,0-1.54h0l-3.59-1.66c-.34-.14-.76.23-1,.6s-.29.94,0,1.14c1.43,1,2,1.42,3.2,2.28C73.37,98.21,74,97.83,74.39,97.14Z"/><path d="M71,95.15c.23-.43.23-.88,0-1L68.58,93c-.22-.09-.51.15-.65.4s-.2.63,0,.76c1,.65,1.32,1,2.14,1.53C70.33,95.86,70.76,95.61,71,95.15Z"/><path d="M73.76,95.63,70.34,94a1.46,1.46,0,0,0-.45.4l3.25,1.8a2.06,2.06,0,0,1,.56-.51l.06,0Z" style="fill:#333"/><path d="M73.14,96.17l-3.25-1.8a1.37,1.37,0,0,0-.13.2L73,96.45a2.61,2.61,0,0,1,.17-.28Z" style="fill:#1a1a1a"/><path d="M79.27,99.94c.46-.85.46-1.75,0-2l0,0-4.75-2.18c-.44-.19-1,.29-1.29.79s-.39,1.24,0,1.5l2.88,2c.4.32.8.65,1.36,1.07,0,0,0,0,0,0C77.91,101.34,78.76,100.85,79.27,99.94Z"/><path d="M78.43,97.93,73.9,95.74l-.06,0a1.77,1.77,0,0,0-.54.49l4.31,2.39a2.63,2.63,0,0,1,.74-.68l.08,0Z" style="fill:#333"/><path d="M77.61,98.65,73.3,96.26a2.46,2.46,0,0,0-.17.27L77.38,99c.07-.12.15-.24.23-.36Z" style="fill:#1a1a1a"/><path d="M84.78,103.1c.63-1.13.63-2.34,0-2.73l-1-.56-.06,0L79.41,98c-.59-.25-1.34.4-1.72,1.06s-.53,1.66-.06,2l1.81,1.44c.54.43,1.07.87,1.82,1.43l0,0,.51.3.48.28C83,105,84.11,104.32,84.78,103.1Z"/><path d="M82.69,99.86l-4-1.76-.07,0a2.25,2.25,0,0,0-.72.66l3.72,2a3.27,3.27,0,0,1,1-.91l.1,0Z" style="fill:#333"/><path d="M81.6,100.82l-3.72-2a2.64,2.64,0,0,0-.23.35l3.64,2.15a3.94,3.94,0,0,1,.31-.48Z" style="fill:#1a1a1a"/><path d="M83.67,100.4l-1-.56-.13.07a3.23,3.23,0,0,0-.79.66l1,.55a3.23,3.23,0,0,1,.79-.66l.13-.06Z" style="fill:#333"/><path d="M82.75,101.12l-1-.55a4.08,4.08,0,0,0-.67,1.05l1,.55a4.26,4.26,0,0,1,.67-1Z" style="fill:#1a1a1a"/><path d="M81.78,103.43c0,1.11.76,1.58,1.71,1a3.84,3.84,0,0,0,1.76-3c0-1.11-.75-1.58-1.71-1.05A3.84,3.84,0,0,0,81.78,103.43Z" style="fill:#292929"/><path d="M82.13,104.16a1.38,1.38,0,0,1-.21-.8,3.5,3.5,0,0,1,1.62-2.73,1.33,1.33,0,0,1,.75-.2c.49,0,.83.45.82,1.15a3.49,3.49,0,0,1-1.62,2.73C82.9,104.64,82.39,104.56,82.13,104.16Z"/><path d="M82.13,104.16a1.38,1.38,0,0,1-.21-.8,3.5,3.5,0,0,1,1.62-2.73,1.33,1.33,0,0,1,.75-.2,1.32,1.32,0,0,1,.19.79A3.48,3.48,0,0,1,82.87,104,1.33,1.33,0,0,1,82.13,104.16Z" style="fill:#4d4d4d"/><path d="M83.72,103a2.7,2.7,0,0,0,.22-.33l.09-.18-2,.66a1.1,1.1,0,0,0,0,.18,1.64,1.64,0,0,0,0,.23Z" style="fill:#666"/><path d="M84.38,101.37l-2,.72a3.3,3.3,0,0,0-.29.87l2.07-.67A3.3,3.3,0,0,0,84.38,101.37Z" style="fill:#666"/><path d="M72.69,95.13,74,94.36a1.11,1.11,0,0,1,.78-.09l.74.2.54-.19,1,.57.34,0L79.06,96l.54,2.08-1.87-.76-1.25-.63-.81.07-1,.14c-.33.12-.78-.25-.58-.5h-.5c-.28.12-.77,0-.66-.45l.12-.22C72.56,95.65,72.39,95.32,72.69,95.13Z" style="fill:#ffb294"/><path d="M73,97.88a.44.44,0,0,0,.11.6l.1.07,1.29.35Z" style="fill:#ffb294"/><path d="M74.1,98.65s.36,1.07,2.25,1.59C75.36,99.47,74.1,98.65,74.1,98.65Z" style="fill:#ffb294"/><path d="M93.57,165.06a5.34,5.34,0,0,0-.38,3.13,15.41,15.41,0,0,1,.71,1.71c.3,1,.25,2.75,1.79,3.78,1.82,1.45,5.36,1.51,6.47,0a8.13,8.13,0,0,0-1.42-3.75l-1.8-3.34.12-3.12-5.16-1.13Z"/><path d="M103.4,157.51c-.48.66-.45,2.16-.3,3.85.48,1.7,2.1,1.54,3.49,1.73,2.68.37,4,2.35,7.59,2.29,2.11,0,3.51-.52,3.93-1.87a2.3,2.3,0,0,0-1.07-1.86c-4.9-2.09-4.89-2.09-5-2.16a27.75,27.75,0,0,1-2.37-1.79l-.9-3.87-5.21.09Z"/><path d="M101.6,117.87l3.75,20.57c-.57,6.27-2.73,12.45-2.15,18.5.46,2.51,5.64,2.14,6.63.29-.33-4.71,2.43-11.68,3.46-19.4.23-7.64.14-15.5-1.42-21.55Z" style="fill:#352717"/><path d="M112,122.63c-1.42,6-5.34,6.22-5.4,7.7a143.23,143.23,0,0,1-1.75,15.39c-2.4,7.41-4.59,14.5-5.11,19.19-.88,1.11-3.55,1.53-5.17.88a2.6,2.6,0,0,1-.62-.33,1.62,1.62,0,0,1-.68-1.34,69.09,69.09,0,0,1,2.81-18l-.45-19.33s-.07-2.72-.07-2.72l5.6-1.09,10.5-2C111.7,121.69,112.21,121.62,112,122.63Z" style="fill:#4a371e"/><path d="M101.59,122a3.45,3.45,0,0,0-.45,1c-.31,1.67,1.19,5.23-.4,6.9-3.7,3.87-2.48,9.56-1.86,16.07-3.68,5.19-4.84,11.9-4.33,19.88a2.6,2.6,0,0,1-.62-.33,1.62,1.62,0,0,1-.68-1.34,69.09,69.09,0,0,1,2.81-18l-.45-19.33a16.09,16.09,0,0,1,.09-6.53Z" style="fill:#352616;mix-blend-mode:multiply;opacity:0.5"/><path d="M112.2,99.19c1.32-1.66,9.11,2.64,16.51,5.78,2.37.88,4.82-2.73,2.85-4.62-9.06-5.22-19.45-11.45-22.62-12.25Z" style="fill:#47331e"/><path d="M129.82,103.92c-1.2-.9.13-3.24,1-2.84l2.12,1.16,3.24,2.53,2.32,1.71c.79.49.55,1.47-.6.76l-1.63-1,.35,1-.49,1.18a1.56,1.56,0,0,1-1.49.79l-.2-.06-.48.12-.39-.09a1,1,0,0,1-.75-.82l0-.1a.5.5,0,0,1,.6-.17l.5,0,.52-.56.06-.53-.52-1c.46.54-.15,1.33-1,.56l-1.43-.92Z" style="fill:#ffb294"/><path d="M108,87.79l3.65,11.4s2.67-4.27,1.27-7.94C111.78,88.32,108,87.79,108,87.79Z" style="fill:#47331e"/><path d="M115.25,122.23a4.72,4.72,0,0,1-2.4,1.55,6.29,6.29,0,0,1-3.8-2.53c-.68,3.15-2.57,7.55-3.42,8.21-1.38,1.21-5,1.12-8.07-.23a9.32,9.32,0,0,1-4.24-3.41c-.79-1.78.65-5.93.49-10.95l-.71-6.58L91.8,96.44a45.18,45.18,0,0,1,9.3-8.12h8c1.83,1.71,2.83,4.45,3.37,7.77,0,0-.09,13.31.48,16.53a45,45,0,0,0,2.64,7.95A1.74,1.74,0,0,1,115.25,122.23Z" style="fill:#47331e"/><path d="M104.73,94.39h-5.9l9.35,16.67c2.66-6.31,3.25-12.3.08-18.89Z" style="fill:#f2f2f2"/><path d="M104.62,94.61l-.17,2.22,1.42,2.1c.5,3.2,1.35,6.68,1.31,9.17l1.14,3.14,1.17-3.18a95.05,95.05,0,0,0-2.62-10l-.09-2.73-1.53-1Z" style="fill:#e43805"/><path d="M101.9,87.47,98.7,90c-1.61,4.89,2.4,6.9,5,9.63l1.53-4.28,3.8.74-1.39-7Z" style="fill:#fff"/><path d="M99.93,89c-2.36,1.8-1.1,5.34,1.66,8.58,2.48,2.92,6.46,9.43,6.9,14.23-2.47-4.7-6.86-10.53-9.26-12.2l.7-1.72-1.6.35a9.27,9.27,0,0,1-2.07-6.38Z" style="fill:#0b151a"/><path d="M105.6,88.41c3.45,3.31,5.46,17,2.65,23,3.09-3.73,4.06-9.36,2.81-18.2l-.91-.57.26-1-2.93-3.54Z" style="fill:#0b151a"/><path d="M106.05,94.61a1.38,1.38,0,0,1-.8.76c-3.25,1-5.91-2.75-5.54-4.93s.48-3.48.48-3.48l6.29,1.55s.07.59.1,1.43A11.16,11.16,0,0,1,106.05,94.61Z" style="fill:#ffb294"/><path d="M104,96.21c-2.64-1.32-2.88-6.85-2.88-6.85l5.9.6C107,90.8,108.58,98.51,104,96.21Z" style="fill:#ffb294;mix-blend-mode:multiply;opacity:0.5"/><path d="M100.68,88.06a10,10,0,0,0,1.9,3.89,6.7,6.7,0,0,0,3.42,2,2.84,2.84,0,0,0,2.15-.84c.48-.56.9-5.59.9-5.59,0-2,.24-2.68,0-3.79a5.56,5.56,0,0,0-6.6-4.6,4.62,4.62,0,0,0-4,4c-.23,1.61,1.06,4.49,1.06,4.49Z" style="fill:#ffb294"/><path d="M99.81,89.71l.29-1.61.26,0a2.28,2.28,0,0,0,1.76-1.55c.24-.77.63-1.55,1-1.52,1.09.08,3.71.9,5.35.18,3.39-1.49-.25-6.34-5.34-6.16-3.56.12-4.71,2.52-5,4.61C97.71,86.73,99.81,89.71,99.81,89.71Z"/><path d="M99.92,86.1a.78.78,0,0,0-1,.14.76.76,0,0,0-.12.57,2.27,2.27,0,0,0,.2.55,9.84,9.84,0,0,0,.5.9,1.08,1.08,0,0,0,.61.54c.27.07.61.26.76,0a2.24,2.24,0,0,0,.07-1.18A2.21,2.21,0,0,0,99.92,86.1Z" style="fill:#ffb294"/><path d="M102.35,130.31c-3.52,1.45-8.08-3-9-4.49-.79-1.78.65-5.93.49-10.95l-.71-6.58L98,104s-1.33,9.55,1.17,13.32c1.38,2.07,5.62,6.24,7.77,5.21C108.12,126.65,102.35,130.31,102.35,130.31Z" style="fill:#352616;mix-blend-mode:multiply;opacity:0.5"/><path d="M121.76,137.07a.75.75,0,0,1,1-.28l4,2.28a.75.75,0,0,1-.75,1.3l-4-2.28A.74.74,0,0,1,121.76,137.07Z" style="fill:#784d24"/><path d="M112.65,146.67a.76.76,0,0,1,.65-.37.74.74,0,0,1,.75.75v6.45a.74.74,0,0,1-.75.74.75.75,0,0,1-.75-.75v-6.44A.83.83,0,0,1,112.65,146.67Z" style="fill:#784d24"/><path d="M125.53,124.38a.64.64,0,0,1,.27-.27l5.58-3.23a.76.76,0,0,1,1,.28.75.75,0,0,1-.28,1l-5.58,3.22a.75.75,0,0,1-1-1Z" style="fill:#784d24"/><path d="M115,136.68a6.72,6.72,0,0,0,3-5.26,2.14,2.14,0,0,0-.9-2l-2.63-1.53a2.15,2.15,0,0,0-2.17.21,6.7,6.7,0,0,0-3,5.27,2.13,2.13,0,0,0,.89,2l2.64,1.53a1.12,1.12,0,0,1-.21-.17A2,2,0,0,0,115,136.68Z" style="fill:#c69c6d"/><path d="M105.23,148.92c2.42,1.69,5.91,1.64,9.79-.61,7.27-4.19,13.15-14.39,13.13-22.73,0-4.17-1.49-7.09-3.88-8.46l-2.61-1.52c-2.39-1.39-5.71-1.2-9.36.91C105,120.7,99.15,130.9,99.17,139.25c0,4.14,1.48,7.06,3.85,8.44l2.64,1.53C105.51,149.13,105.37,149,105.23,148.92Zm-1.29-9.36c0-7,4.92-15.56,11-19.07a8.78,8.78,0,0,1,6.42-1.32,8.68,8.68,0,0,1,2,6.1c0,7-4.91,15.54-11,19.06a8.8,8.8,0,0,1-6.41,1.33A8.76,8.76,0,0,1,103.94,139.56Z" style="fill:#c69c6d"/><path d="M115.17,133.28a1.13,1.13,0,0,1,1.54-.41l4.73,2.73a1.12,1.12,0,0,1-1.12,2l-4.74-2.73A1.13,1.13,0,0,1,115.17,133.28Z" style="fill:#784d24"/><path d="M112.74,135.85a1.12,1.12,0,0,1,2.1.56v7.73a1.13,1.13,0,0,1-2.25,0v-7.73A1.14,1.14,0,0,1,112.74,135.85Z" style="fill:#784d24"/><path d="M116.22,129.87a1.08,1.08,0,0,1,.41-.41l6.65-3.84a1.13,1.13,0,1,1,1.13,1.95l-6.66,3.84a1.13,1.13,0,0,1-1.53-.41A1.14,1.14,0,0,1,116.22,129.87Z" style="fill:#784d24"/><path d="M112.65,110.5a.76.76,0,0,1,.65-.37.74.74,0,0,1,.75.75v6.44a.75.75,0,0,1-1.5,0v-6.44A.8.8,0,0,1,112.65,110.5Z" style="fill:#784d24"/><path d="M121.76,116.05l3.94-6.84a.75.75,0,0,1,1-.27.74.74,0,0,1,.27,1l-4,6.84a.75.75,0,1,1-1.29-.75Z" style="fill:#784d24"/><path d="M99.61,154.41l3.94-6.83a.75.75,0,1,1,1.3.75l-3.95,6.83a.75.75,0,1,1-1.29-.75Z" style="fill:#784d24"/><path d="M94.2,142.47a.73.73,0,0,1,.27-.28l5.59-3.22a.74.74,0,0,1,1,.27.75.75,0,0,1-.27,1l-5.59,3.22a.75.75,0,0,1-1-1Z" style="fill:#784d24"/><path d="M115,136.68c-1.68,1-3,.19-3.06-1.74a6.72,6.72,0,0,1,3-5.26c1.68-1,3-.19,3.06,1.74A6.72,6.72,0,0,1,115,136.68Z" style="fill:#784d24"/><path d="M115,136.68a6.72,6.72,0,0,0,3-5.26,2.14,2.14,0,0,0-.9-2,3,3,0,0,0-2.63-1.53,2.15,2.15,0,0,0-2.17.21,6.7,6.7,0,0,0-3,5.27,2.13,2.13,0,0,0,.89,2,3.23,3.23,0,0,0,2.64,1.53,1.12,1.12,0,0,1-.21-.17A2,2,0,0,0,115,136.68Z" style="fill:#c69c6d"/><path d="M111.82,130.05l-4.71-2.72a1.07,1.07,0,0,0-.38-.13l-.94,1.93a1,1,0,0,0,.2.15l4.7,2.71a1.12,1.12,0,1,0,1.13-1.94Z" style="fill:#784d24"/><path d="M112.74,120.18a1.13,1.13,0,0,1,2.1.56v7.69a1.13,1.13,0,0,1-2.25,0v-7.69A1.2,1.2,0,0,1,112.74,120.18Z" style="fill:#784d24"/><path d="M115,127.48l4.7-8.14a1.12,1.12,0,1,1,2,1.12l-4.71,8.15a1.12,1.12,0,1,1-1.94-1.13Z" style="fill:#784d24"/><path d="M105.34,144.15l4.71-8.15a1.12,1.12,0,0,1,2,1.12l-4.71,8.16a1.13,1.13,0,0,1-2-1.13Z" style="fill:#784d24"/><path d="M102.61,137.73a1.08,1.08,0,0,1,.41-.41l6.7-3.87a1.11,1.11,0,0,1,1.53.41,1.13,1.13,0,0,1-.41,1.54l-6.69,3.86a1.12,1.12,0,0,1-1.54-1.53Z" style="fill:#784d24"/><path d="M115,148.31c-7.26,4.2-13.19.82-13.21-7.53s5.87-18.55,13.13-22.74,13.19-.81,13.21,7.54S122.29,144.12,115,148.31Zm-.08-27.82c-6.08,3.51-11,12.07-11,19.07s5,9.82,11.08,6.31,11-12.07,11-19.07-5-9.83-11.08-6.31Z" style="fill:#784d24"/><path d="M115,136.68c-1.68,1-3,.19-3.06-1.74a6.72,6.72,0,0,1,3-5.26c1.68-1,3-.19,3.06,1.74A6.72,6.72,0,0,1,115,136.68Z" style="fill:#784d24"/><path d="M116.43,136a3.87,3.87,0,0,0,1.75-3,1.22,1.22,0,0,0-.52-1.13l-1.51-.88a1.23,1.23,0,0,0-1.25.12,3.87,3.87,0,0,0-1.75,3,1.22,1.22,0,0,0,.51,1.12l1.52.89-.12-.1A1.15,1.15,0,0,0,116.43,136Z" style="fill:#c69c6d"/><path d="M116.43,136c-1,.55-1.76.11-1.76-1a3.84,3.84,0,0,1,1.75-3c1-.56,1.76-.11,1.76,1A3.87,3.87,0,0,1,116.43,136Z" style="fill:#784d24"/><path d="M124.76,134.29a2.92,2.92,0,0,0-1.32-2.55l0,0-3.95-2.3a3.08,3.08,0,0,0-3.12.3,9.71,9.71,0,0,0-4.36,7.27l-1.78,37.84,4,2.3L126.74,170Z" style="fill:#c69c6d"/><path d="M120.37,132.07c2.32-1.34,4.25-.37,4.39,2.22l2,35.66-12.51,7.23L116,139.34A9.71,9.71,0,0,1,120.37,132.07Z" style="fill:#784d24"/><path d="M122.53,139.54a3.81,3.81,0,0,0,1.75-3,1.23,1.23,0,0,0-.51-1.13l-1.52-.88a1.23,1.23,0,0,0-1.25.12,3.9,3.9,0,0,0-1.75,3,1.22,1.22,0,0,0,.51,1.12l1.52.89-.11-.1A1.13,1.13,0,0,0,122.53,139.54Z" style="fill:#c69c6d"/><path d="M122.53,139.54c-1,.56-1.75.12-1.76-1a3.86,3.86,0,0,1,1.75-3c1-.56,1.76-.12,1.76,1A3.81,3.81,0,0,1,122.53,139.54Z" style="fill:#784d24"/><path d="M99.5,126.77a1.78,1.78,0,0,1-1.86.63,43.72,43.72,0,0,1-9.43-12.69c0-8.27.92-15.52,3.59-18.27,3.22,1,5.6,2.7,5.26,6.35l-1.92,10.77,6,10.2S100,126.14,99.5,126.77Z" style="fill:#47331e"/><polygon points="98.78 124.43 100.1 123.54 101.81 123.77 102.38 124.38 101.59 124.98 99.5 125.63 98.78 124.43" style="fill:#ffb294"/><path d="M99.61,124.28a.75.75,0,0,1,1-.28l4,2.28a.76.76,0,0,1,.27,1,.74.74,0,0,1-1,.27l-4-2.28A.74.74,0,0,1,99.61,124.28Z" style="fill:#784d24"/><path d="M100.45,125.63l.7.41c.38.22,1.41-.32,1.08-1.11l-.93-.54.84,0,.62-.11a.67.67,0,0,1,.56.15l.87.75.41.8a2,2,0,0,1,0,1.78l-.3.59a1.2,1.2,0,0,1-.93.65l-1.23.13a1.9,1.9,0,0,1-1.14-.25l-1-.6-1.83-2a2,2,0,0,1,.65-1.86l1.09.87Z" style="fill:#ffb294"/><path d="M48.28,87.56c-.26,0-.51-.1-.76-.16a10.33,10.33,0,0,1-3.36-1.47,3.18,3.18,0,0,1-1.32-2.78c0-.69,0-1.41,0-2.16l-.44-3.91,4.69-6.68C46.67,77.74,45.13,82.82,48.28,87.56Z" style="fill:gray;mix-blend-mode:multiply;opacity:0.30000000000000004"/><polygon points="46.99 115.99 44.62 117.51 30.23 106.89 28.57 95.42 29.94 94.49 46.86 104.14 46.99 115.99" style="fill:#1a1a1a"/><polygon points="44.62 117.51 27.84 107.83 28.57 95.42 45.34 105.11 44.62 117.51" style="fill:#333"/><polygon points="28.57 95.42 28.24 100.96 35.8 107.75 45.05 110.14 45.34 105.11 28.57 95.42" style="fill:#1a1a1a"/><path d="M34.89,105.87l-.28,2.34a.69.69,0,0,0,.38.69l.42.22a.69.69,0,0,0,1-.48l.37-1.82Z" style="fill:#666"/><path d="M34.69,105.78l-.28,2.34a.67.67,0,0,0,.37.69l.43.22a.69.69,0,0,0,1-.48l.37-1.82Z" style="fill:gray"/><polygon points="37.09 107.77 34.16 106.08 34.28 104.95 37.21 106.64 37.09 107.77" style="fill:#4d4d4d"/><path d="M34.9,98.87c-.65-.23-1.26-.53-1-1.24.55-.9,1.18-1.43,2-1.08Z" style="fill:#333"/><polygon points="35.46 92.7 34.1 98.37 34.76 99.65 35.95 100.83 37.4 101.23 38.98 101.45 39.77 100.57 40.47 100.33 40.74 98.02 40.74 96.3 39.32 94.34 39.29 91.33 35.77 90.67 35.46 92.7" style="fill:#ffb294"/><path d="M40.74,64.16c-1.45,2.42-3.06,8.69-4.66,14.71L34.76,93.46c.35,1.57,3.78,2.18,5.54.87L42,81l4.75-8.36C48.67,68.18,43.28,61.46,40.74,64.16Z" style="fill:#fff"/><path d="M39.51,98.26c-.38.22-.57,1.21-.09,1.43.77.52.73,1.16.95,2.18.37.58,1.18.31,1.18-.1C41.29,100.23,40.55,98.61,39.51,98.26Z" style="fill:#333"/></g></g></g></svg>