<svg xmlns="http://www.w3.org/2000/svg" xmlns:xlink="http://www.w3.org/1999/xlink" viewBox="0 0 166.81 239.48"><defs><linearGradient id="linear-gradient" x1="83.41" y1="227.48" x2="83.41" y2="-12" gradientUnits="userSpaceOnUse"><stop offset="0" stop-color="#fff"/><stop offset="1" stop-color="#d3b5ff"/></linearGradient><clipPath id="clip-path"><polygon points="105.3 112.04 95.99 117.37 94.58 120.17 91.28 110.7 91.95 109.64 99.53 103.9 105.3 112.04" style="fill:none"/></clipPath></defs><g style="isolation:isolate"><g id="Capa_2" data-name="Capa 2"><g id="Layer_3" data-name="Layer 3"><rect width="166.81" height="239.48" style="opacity:0.75;fill:url(#linear-gradient)"/><path d="M128.12,139.62l-8.89-9c-2.45-2.48-8-2.75-12.48-.61s-6,5.89-3.58,8.37l8.89,9c2.38,2.41,7.69,2.73,12,.81C130.81,144,128.4,139.9,128.12,139.62Z" style="fill:#e2d6ff;mix-blend-mode:multiply;opacity:0.75"/><path d="M92.69,142.48a14.93,14.93,0,0,0-3.34-2.57c-7.52-4.34-19.64-4.4-27.32-.2-4.61-1.41-10.46-1-14.34,1.24l-17.25,10c-4.76,2.75-4.76,7.21,0,10s12.5,2.75,17.26,0l11.53-6.66a15.88,15.88,0,0,0,2.42,1.7A22.29,22.29,0,0,0,66,157.79l-18.4,10.54,29.29,16.79L125,157.57l-29.3-16.79Z" style="fill:#e2d6ff;mix-blend-mode:multiply;opacity:0.75"/><path d="M120.36,129.52c.51.67.51,2.22.39,4-.48,1.78-2.16,1.64-3.59,1.86-2.78.43-4.15,2.52-7.84,2.51-2.19,0-3.65-.47-4.11-1.86a2.35,2.35,0,0,1,1.08-1.95s5-2.25,5.15-2.34a25,25,0,0,0,2.42-1.9c0-.17.87-4,.87-4h5.41Z"/><path d="M123,137.92a5.47,5.47,0,0,1,.39,3.24,16.7,16.7,0,0,0-.74,1.78c-.3,1.07-.26,2.86-1.85,3.93-1.9,1.49-5.57,1.56-6.72,0a8.43,8.43,0,0,1,1.48-3.89l1.86-3.46-.12-3.25,5.35-1.17Z"/><path d="M114.06,88.15v21.7c1.74,6.29,5.1,12.2,5.64,18.49,0,2.65-5.37,3.23-6.72,1.52-.54-4.86-4.65-11.47-7.15-19.16-1.66-7.75-3-15.79-2.57-22.27Z" style="fill:#352717"/><path d="M103.42,89c-.15,2.21,2.87,8,6.33,10.65.15,4.71.76,12.88,1.56,18.21,2.5,7.69,4.78,15,5.31,19.92.9,1.13,3.59,1.58,5.28,1a1.82,1.82,0,0,0,.34-.15l.11-.05a1.74,1.74,0,0,0,1-1.56,71.84,71.84,0,0,0-2.92-18.73l.52-27.94,0-.78Z" style="fill:#47331e"/><path d="M117.22,118.81c3.3,4,4,11.94,4.68,19.9l.34-.15.11-.05a1.74,1.74,0,0,0,1-1.56,71.84,71.84,0,0,0-2.92-18.73l.52-27.94-3.27,2.23C119.71,99.49,118.09,109,117.22,118.81Z" style="fill:#352616;mix-blend-mode:multiply;opacity:0.5"/><path d="M110.09,58.17c-3.85-.31-8.86,4.39-14,8l-7.29-6.31c-1.46-.78-3.41,1.82-3.81,2.87,1.35,4.71,5.74,7.79,9.13,11,3.62,1.66,12.51-7.62,14.11-7.13Z" style="fill:#db9a16"/><path d="M85.9,62.43a2.28,2.28,0,0,0-.56-1.25l-1.51-2.06a2.46,2.46,0,0,1-.61-1.93l0-.31a1.48,1.48,0,0,1-.12-1.37l.36-.89.35-1.4L86.19,52c.79-.42,1.31.47.45.91l-.83.68-.08.86,1.64,1.38.47-.49-.2-1.53L87.42,53c-.16-.74.37-.88.73-.33l.78,1.55.43,2.75-.91,2.91.45.71C89.08,61.53,86.49,63.5,85.9,62.43Z" style="fill:#ffb294"/><path d="M102.59,88.81c.06.52.14,1,.23,1.49.26,1.48.58.13.58.13-.18.61,12.19,6.59,15.4,5.07a7.64,7.64,0,0,1,1.27-.47,5.43,5.43,0,0,0,2.2-1.54c.77-1.9.48-1.45.47-6.74l.52-7,1-12.53A47.58,47.58,0,0,0,114.15,59l-7.59.36c-2.94,2.09-3.6,4.7-4.06,8.22,0,0,.55,14,.06,17.42A14.86,14.86,0,0,0,102.59,88.81Z" style="fill:#db9a16"/><path d="M113.28,58.17l3.46,2.58c1.85,5.1-2.3,7.35-5,10.32L110,66.61l-4,.92,1.23-7.39Z" style="fill:#fff"/><path d="M101.91,89.32a1.45,1.45,0,0,0,.91,1c1.56.73,4.87.58,8.32-.83,3.81.64,9-.09,9.06.64.37,2.22-.74,2.93-1,5.25a4.94,4.94,0,0,0,3.11-1.87c.77-1.9.48-1.45.47-6.74l.52-7-5.34-4.4a22.88,22.88,0,0,1,1.51,4.24c.14.49-5.33,2.48-7.81,4.29-2.84,2.08-7.33,4-9,4.88C102.15,89.06,101.9,89.23,101.91,89.32Z" style="fill:#c2a24b;mix-blend-mode:multiply;opacity:0.5"/><path d="M113.71,57.84l1.6,2.81c1.28,3.42-2.78,6.26-5.28,5.85L107.5,62Z" style="fill:#ffb294"/><path d="M113.45,61.34a9.61,9.61,0,0,1-.82,4.67c-1.87,3.39-3.4.88-4.18-.22Z" style="fill:#ffc8b3;mix-blend-mode:multiply"/><path d="M113.56,60.56a7.59,7.59,0,0,1-3.51,6.15,1.75,1.75,0,0,1-2.19-.06l-2.08-2.83a7.65,7.65,0,0,1-1.76-3l3.16-6.52h4.92l2.33,3.22Z" style="fill:#ffb294"/><path d="M114.8,60l-2,.42a1.67,1.67,0,0,0-2.11-.16,7.5,7.5,0,0,1-4.7,1.48A3.41,3.41,0,0,1,102.7,58c.14-1.86,3.29-6.09,6.93-5.84,4.3.29,6.36,3.5,5.55,8.26Z"/><path d="M114,57.86a.82.82,0,0,1,.85.31,1.17,1.17,0,0,1,.15.67,3.57,3.57,0,0,1-.34,1.43,1.49,1.49,0,0,1-.36.5.74.74,0,0,1-.58.2c-.73-.11-.6-1-.67-1.57A1.43,1.43,0,0,1,114,57.86Z" style="fill:#ffb294"/><path d="M124.22,67.27a77.35,77.35,0,0,1,4.81,12,5.3,5.3,0,0,1-3.14,6.54A50.14,50.14,0,0,1,113,88.71c-1.37-.34-2.45-4.56-1.46-5.81l9.17-2.46L118.41,76C115.32,70.88,120.88,64,124.22,67.27Z" style="fill:#db9a16"/><path d="M112.39,87.2c1-.21.4-3.6-.62-3.49l-1.16.36a31.42,31.42,0,0,0-3.43-.93l-2.79.74-1.44.76-.64.2c-.85.12-.76.84,0,1l1.23-.07,1.69-.64.73.35-2.82,2.16-2.66-.18c-.94,0-.94.7-.3.9l1.09.33.61.6.65.44.83.36a12.4,12.4,0,0,0,3.61-.58l2.9-1.69Z" style="fill:#ffb294"/><polygon points="92.84 76.05 97.44 90.22 107.2 91.08 106.73 89.34 105.52 84.81 105.41 84.4 104.89 82.45 103.34 76.69 92.84 76.05" style="fill:#e6e6e6"/><path d="M105.66,85.34l.34.16-.25.19,1,3.9.2-.06,2.9-1.69,2.49-.64c1-.21.4-3.6-.62-3.49l-1.16.36a29.86,29.86,0,0,0-3.43-.93l-2,.52Z" style="fill:#ffb294"/><path d="M100.21,88.38l1.09.33.61.61.65.43.83.36a12.11,12.11,0,0,0,3.41-.52l-1-3.9-2.58,2-2.66-.18C99.56,87.49,99.57,88.18,100.21,88.38Z" style="fill:#ffb294"/><path d="M90.77,52c-1.18.11-2.36.28-3.53.45l-1.77.28-.88.15a1.2,1.2,0,0,0-.85.37,0,0,0,0,0,0,.06,1.24,1.24,0,0,0,.92.15l.89-.08,1.77-.17c1.18-.13,2.37-.27,3.54-.46a.37.37,0,0,0,.31-.43A.38.38,0,0,0,90.77,52Z" style="fill:#1a1a1a"/><path d="M87.12,60.66V55.59l.25.21.47-.49-.2-1.53L87.42,53c-.16-.74.37-.88.73-.33l.78,1.55.43,2.75-.91,2.91.45.71c.18,1-2.41,3-3,1.89a2.28,2.28,0,0,0-.56-1.25L85,60.66Z" style="fill:#ffb294"/><path d="M32,150.21a6.1,6.1,0,0,0-.43,3.61,21.18,21.18,0,0,1,.82,2c.34,1.19.28,3.18,2.06,4.37,2.11,1.67,6.19,1.74,7.47,0a9.34,9.34,0,0,0-1.64-4.33L38.24,152l.13-3.61L32.42,147Z"/><path d="M49,141.88c-.52.69-.52,2.3-.4,4.11.49,1.82,2.22,1.68,3.7,1.91,2.86.45,4.28,2.6,8.08,2.59,2.25,0,3.76-.49,4.23-1.92a2.41,2.41,0,0,0-1.11-2s-5.18-2.32-5.31-2.41a30,30,0,0,1-2.5-2l-.89-4.15H49.2Z"/><path d="M56.16,142.64c-2.3,1.38-5.43,2.62-6.83,2a1.13,1.13,0,0,1-.7-.87c-.14-.64-.27-1.27-.4-1.91-1.23-6.08-1.82-11.89-.7-17l-2.83-9.65-.08-.25L44,112.76l-.07-.25c-.05-5.88,2.39-8,6.64-7.44l.74.13.57.12.83.23.56,3.4,2.38,14.62C56.34,129.23,55.19,137.71,56.16,142.64Z" style="fill:#32567b"/><path d="M49.33,144.62a1.13,1.13,0,0,1-.7-.87c-.14-.64-.27-1.27-.4-1.91-1.23-6.08-1.82-11.89-.7-17l-2.83-9.65-.08-.25c-.15.86-.42,2.26-.53,2.89s-.25,1.32-.38,2l-.34-6.27.62-.79,3.93-5c-.07.89-.12,1.78-.14,2.68a65.1,65.1,0,0,0,1.55,14.41C47.85,129.81,48.61,137.24,49.33,144.62Z" style="fill:#32567b;mix-blend-mode:multiply;opacity:0.5"/><path d="M50.7,103.73a7.53,7.53,0,0,1-.33,2.09c-.51,1.75-3.37-.37-4.43,1-1.27,1.64-.77,6.67-1.25,7.68,0,.11,0,.25-.07.42-.15.87-.42,2.27-.53,2.89s-.25,1.34-.38,2c-.44,2.36-1,4.78-1.5,7.28-.47,2.06-1,4.16-1.47,6.3a89.73,89.73,0,0,0-2.38,18.74,6,6,0,0,1-5.72-.26,2.92,2.92,0,0,1-1.07-1.39c0-2.67,0-5.39.1-7.92.12-5.27.5-9.81,1.66-11.84l0-20.93c-1.11-3.93-1.33-11,.94-12.66l.1-.08,9,2c3.05-.36,5.15,3.51,6.41,3.37Z" style="fill:#32567b"/><path d="M37.22,127c-2.93,4.34-4.47,16.15-4.58,24.85a2.92,2.92,0,0,1-1.07-1.39c0-2.67,0-5.39.1-7.92.12-5.27.5-9.81,1.66-11.84l0-20.93c-1.11-3.93-1.33-11,.94-12.66l1.41,4.6C35.62,110.11,35.6,120.21,37.22,127Z" style="fill:#32567b;mix-blend-mode:multiply;opacity:0.5"/><path d="M97.59,105.2a3.22,3.22,0,0,0-2.9,0,1,1,0,0,0-.6.83v36.52a1,1,0,0,0,.6.83,3.22,3.22,0,0,0,2.9,0,1,1,0,0,0,.61-.83V106A1,1,0,0,0,97.59,105.2Z" style="fill:#4d4d4d"/><path d="M60.17,151.26A1.17,1.17,0,1,1,59,150.1,1.16,1.16,0,0,1,60.17,151.26Z" style="fill:#333"/><path d="M78.29,156.56a1.17,1.17,0,1,1-1.17-1.16A1.17,1.17,0,0,1,78.29,156.56Z" style="fill:#333"/><path d="M92.35,148.41a1.17,1.17,0,1,1-1.17-1.16A1.17,1.17,0,0,1,92.35,148.41Z" style="fill:#333"/><path d="M83.61,137.81a1.17,1.17,0,1,1-1.17-1.16A1.17,1.17,0,0,1,83.61,137.81Z" style="fill:#333"/><path d="M63.06,139.93a1.17,1.17,0,1,1-1.17-1.16A1.16,1.16,0,0,1,63.06,139.93Z" style="fill:#333"/><path d="M77.74,144.72l5.7-7.57v-.5H81.76l-7.33,7.09a7.12,7.12,0,0,0-1.47.14l-10.8-5.45-1.33.26v.5l9.5,6.19a1.56,1.56,0,0,0-.23.85l-12.37,3.7v.5l.85,1,13.2-3.27a5.69,5.69,0,0,0,1.33.39l3.15,8,1.86-.17v-.5l-1.34-7.7a5.18,5.18,0,0,0,.58-.28,3.38,3.38,0,0,0,.48-.33l14.31.77.3-1.07v-.5l-14-1.3A2.28,2.28,0,0,0,77.74,144.72Z" style="fill:#333"/><path d="M77.74,142.71l5.7-6.06-1.68-.49-7.33,5.59a7.12,7.12,0,0,0-1.47.13l-10.8-3.94-1.33.76,9.5,4.69a1.52,1.52,0,0,0-.23.84l-12.37,5.71.85,1,13.2-4.78a6.23,6.23,0,0,0,1.33.4l3.15,9.54,1.86-.17-1.34-9.71a5.14,5.14,0,0,0,.58-.27c.18-.11.33-.22.48-.33l14.31,2.27.3-1.07-14-3.3A2.31,2.31,0,0,0,77.74,142.71Z" style="fill:#999"/><path d="M76.21,133.13a1.56,1.56,0,0,0-.37-.28,3.6,3.6,0,0,0-3.23,0,1.56,1.56,0,0,0-.37.28H72v10.65a1.13,1.13,0,0,0,.66.92,3.6,3.6,0,0,0,3.23,0,1.13,1.13,0,0,0,.66-.92V133.13Z" style="fill:#4d4d4d"/><path d="M75.84,132.2a1,1,0,0,1,0,1.85,3.6,3.6,0,0,1-3.23,0,1,1,0,0,1,0-1.85A3.6,3.6,0,0,1,75.84,132.2Z" style="fill:#4d4d4d"/><path d="M77.13,125.65a3.31,3.31,0,0,0-1.54-.81,5.27,5.27,0,0,0-2.73,0,3.31,3.31,0,0,0-1.54.81h-.43v8.1c0,.68.62,1.35,1.87,1.72a5.22,5.22,0,0,0,2.93,0c1.25-.37,1.87-1,1.87-1.72v-8.1Z" style="fill:#999"/><path d="M75.69,123.93c2.5.73,2.5,2.71,0,3.45a5.22,5.22,0,0,1-2.93,0c-2.5-.74-2.5-2.72,0-3.45A5,5,0,0,1,75.69,123.93Z" style="fill:#4d4d4d"/><path d="M76.54,125.38,70,121.64c-5.54-3.18-9.88-10-9.88-15.57v-9.4h2.3v9.4c0,4.73,3.92,10.83,8.74,13.59l6.53,3.74Z" style="fill:#999"/><rect x="60.72" y="120.26" width="27.01" height="3.81" style="fill:#1a1a1a"/><path d="M83.77,118.6c5.28,3,5.28,7.92,0,10.94s-13.82,3-19.09,0-5.28-7.92,0-10.94S78.5,115.57,83.77,118.6Z" style="fill:#1a1a1a"/><path d="M83.77,114.79c5.28,3,5.28,7.92,0,10.94s-13.82,3-19.09,0-5.28-7.92,0-10.94S78.5,111.77,83.77,114.79Z" style="fill:#4d4d4d"/><path d="M67.76,87.54,70.25,89l-1.53,1.3a8.91,8.91,0,0,1-4,6.66l-5.75,3.29-3.44,3.5-2.36-1.35a2.74,2.74,0,0,1-1.35-2.69c0-2.56,2-5.47,4.05-7a50.14,50.14,0,0,1,8.85-5.07C66,87.12,67,87,67.76,87.54Z" style="fill:#1a1a1a"/><path d="M67.32,89.19a44.29,44.29,0,0,0-8.85,5.07c-2,1.61-4,4.39-4,7s2,3.88,4,2.32a43.47,43.47,0,0,1,9-5.57c2.37-1,3.89-3.9,3.89-6.46S69.65,88.1,67.32,89.19Z" style="fill:#4d4d4d"/><path d="M121.42,131.46v2.92L98.24,121.1a.64.64,0,0,1-.26-.58,2,2,0,0,1,.9-1.55.61.61,0,0,1,.64-.06Z"/><path d="M90.47,97.53a6.65,6.65,0,0,1-2.06,5.16,10.11,10.11,0,0,1-1.11.93l-3.36-1.85-1.57-.86-.28-7.4L83,88.32Z" style="fill:#e43805"/><path d="M95.83,147.93c-.62.68-.76,2.35-.8,4.25.35,2,2.19,2,3.72,2.34,3,.72,4.26,3.1,8.26,3.43,2.38.2,4-.16,4.64-1.62a2.55,2.55,0,0,0-1-2.19s-5.24-2.9-5.37-3a29.49,29.49,0,0,1-2.45-2.28c0-.19-1.1-4.46-1.1-4.46L96.41,144Z"/><path d="M83.35,154.79c-.69,1.68-.35,2.08-.23,3.37a20.61,20.61,0,0,1,.63,2c.23,1.18,0,3.1,1.64,4.4,1.91,1.79,5.89,2.21,7.29.59a9.09,9.09,0,0,0-1.24-4.33l-2.33-4.73-.21-3.5-5.54-1.14Z"/><path d="M65.67,126.84a124,124,0,0,0,14.82,11.09c-.57,3.2,1,10.5,2.28,17.33,1.18,2.27,6.82,1.35,6.82,0-.3-8.51-.42-19.09-1.21-21.59-3.92-5.56-7.78-10.56-11.31-12.81L71,117.53l-5.34,4.26Z" style="fill:#32567b"/><path d="M76,123.57c3,2.82,13.26,3.48,18.13,6.28-.57,3.19-.43,11.6.88,18.44,1.18,2.26,7.76,1.66,7.76.31-.29-8.51,1.35-18.94.56-21.44-1.4-6.34-9.08-8.58-18.74-12.23l-2.86-.64-2.87.83Z" style="fill:#32567b"/><path d="M85.37,114.74s-3.25-.68-3.94-2.49c-5.78,3.26-13,8.15-18.54,4.4a19.73,19.73,0,0,0-.38,5.14c.48,2.87,2.05,5.92,3.81,6.75,1.48.71.19-4.9,4.7-7.72,2.62-.86,6.29,1.61,8.29,1.24a1.5,1.5,0,0,0,1.18-1,.69.69,0,0,1,.05-.13C82.46,115.57,85.66,115.92,85.37,114.74Z" style="fill:#0b151a"/><path d="M81.53,110.57a2.17,2.17,0,0,0-.1,1.68l-.19.11c-5.45,3.13-12,8.89-18.13,5.47a2.1,2.1,0,0,1-1-1.73c-.19-3.46-.39-8.41-.26-12.2,0-1,.08-1.83.16-2.6A15.93,15.93,0,0,1,63,96.4c3.28-4.77,7.36-7.35,11.21-9.43l8.2.71c1.73,1.91,2.52,4.8,2.78,8.26C85.22,95.94,84.17,104.58,81.53,110.57Z" style="fill:#e43805"/><path d="M75.14,86.17l-3.53,2.32c-2.09,4.88,1.87,7.29,4.32,10.31l2-4.24,3.85,1.1-.82-7.26Z" style="fill:#fff"/><path d="M81.23,112.36c-5.44,3.13-12,8.89-18.12,5.47a2.1,2.1,0,0,1-1-1.73c-.19-3.46-.39-8.41-.26-12.2l1.09-5.45,7,1.66,2,9.11s5.42,2.83,5.75,2.94C77.86,112.21,79.51,112.28,81.23,112.36Z" style="fill:#b03c19"/><path d="M85.56,82.34A7.55,7.55,0,0,1,85,89.11c-1.24-1.46-2.47-3-3.81-3.34L81.46,83Z"/><path d="M78.83,94.32c-.35.31-.46.43-.83.46-4,.34-6-4.75-4.5-7.24a20.29,20.29,0,0,0,1.46-3l5.7,4A2.78,2.78,0,0,1,80.5,90C80,91.43,79.86,93.41,78.83,94.32Z" style="fill:#ffb294"/><path d="M78.07,97.53c-2,.45-4.87-2-3.14-10.09L80.2,90C79.71,91.44,81.7,96.73,78.07,97.53Z" style="fill:#ffb294;mix-blend-mode:multiply;opacity:0.5"/><path d="M75,85.83s-.39,3,.37,4.62a7.9,7.9,0,0,0,3.2,3.32,2.13,2.13,0,0,0,2,.11c.71-.37,3-5.41,3-5.41a16,16,0,0,0,1.17-3.81c.3-1.77.54-5.85-4.51-7.06A5,5,0,0,0,74.7,80c-.87,1.51-.71,4.88-.71,4.88Z" style="fill:#ffb294"/><path d="M75.13,86.05a8.18,8.18,0,0,0-.54,2.89,13.06,13.06,0,0,0,1.33,3.9c.56,1.08,1,2.67,2.15,3.13s3.32.53,4.29-.82.51-5,.51-5c-.17.3-.38.85-.76.33-.25-.35-1.32-.28-2.19.16-.72.36-.86.87-1.77.71S76.36,90.26,76,88.61A5.05,5.05,0,0,1,76.31,86Z"/><path d="M73.81,85.22l1.8,2.09.7-1.29a1.2,1.2,0,0,1,1.63-.65c1.06.51,2.57.36,4.42.13,3.39-.41,1.58,2.28,1.58,2.28a5.6,5.6,0,0,0,1.47-5.89,7.7,7.7,0,0,0-4.35-4.09c-3.61-1.27-6,.54-6.83,2.63A12.16,12.16,0,0,0,73.81,85.22Z"/><path d="M75,83.59a.84.84,0,0,0-1-.23.82.82,0,0,0-.34.51,1.91,1.91,0,0,0,0,.63,9.85,9.85,0,0,0,.15,1.09,1.18,1.18,0,0,0,.39.78c.25.17.51.49.75.31A2.45,2.45,0,0,0,75,83.59Z" style="fill:#ffb294"/><path d="M80.2,92.27l.91-.25c.74-.19.75-1,.21-.87a3.68,3.68,0,0,0-1.12.32C79.72,91.71,79.72,92.4,80.2,92.27Z" style="fill:#ffb294"/><path d="M80.72,87.17c.33-.06.52.1.51.37a1.37,1.37,0,0,1,.35-.13,1,1,0,0,1,.3,0,1.43,1.43,0,0,1,.87-.62l1.51-.26c.4-.08.61.18.47.56l-.1.29a2.3,2.3,0,0,1-1.58,1.33l-.55.1c-.68.12-1-.31-.81-.95l.06-.17a.39.39,0,0,0-.26,0,.83.83,0,0,0-.32.13l-.06.17a2.39,2.39,0,0,1-1.65,1.39l-.55.09c-.65.12-1-.29-.78-.91l.11-.29a1.41,1.41,0,0,1,1-.82ZM78.4,88.49c-.17.48.1.8.6.71l.55-.1A1.85,1.85,0,0,0,80.84,88l.09-.24c.09-.25-.05-.41-.3-.36l-1.51.27a.9.9,0,0,0-.62.52l-.1.28ZM82,87.82c-.19.5.1.84.63.74l.55-.1a1.76,1.76,0,0,0,1.22-1l.11-.28c.08-.25,0-.41-.31-.36l-1.5.27a.88.88,0,0,0-.62.52l-.08.24Z"/><path d="M78.41,87.91,75.8,84.75v.35l2.55,3a.05.05,0,0,0,.09,0A.2.2,0,0,0,78.41,87.91Z"/><path d="M77.29,156.31a2,2,0,0,0,.9,1.55.63.63,0,0,0,.64.06l42.49-24.31a.61.61,0,0,0,.27-.58,2,2,0,0,0-.91-1.55.61.61,0,0,0-.63-.06l-42.5,24.31A.62.62,0,0,0,77.29,156.31Z" style="fill:#261f14"/><path d="M79.34,146.63v36.51a1,1,0,0,1-.6.83,3.24,3.24,0,0,1-2.91,0,1,1,0,0,1-.6-.83V146.63a1,1,0,0,1,.6-.83,3.18,3.18,0,0,1,2.91,0A1,1,0,0,1,79.34,146.63Z" style="fill:#261f14"/><path d="M123.55,120a3.22,3.22,0,0,0-2.9,0,1,1,0,0,0-.6.84V157.3a1,1,0,0,0,.6.83,3.22,3.22,0,0,0,2.9,0,1,1,0,0,0,.6-.83V120.79A1,1,0,0,0,123.55,120Z" style="fill:#261f14"/><path d="M53.09,131a3.24,3.24,0,0,0-2.91,0,1,1,0,0,0-.6.83v36.52a1,1,0,0,0,.6.83,3.24,3.24,0,0,0,2.91,0,1,1,0,0,0,.6-.83V131.87A1,1,0,0,0,53.09,131Z" style="fill:#261f14"/><polygon points="125.59 122.86 77.33 150.51 47.92 133.66 47.92 131.23 96.18 106.01 125.59 120.43 125.59 122.86" style="fill:#261f14"/><polygon points="125.59 120.43 77.33 148.08 47.92 131.23 96.18 103.57 125.59 120.43" style="fill:#b39f81"/><polygon points="65.63 127.69 82 131.5 89.37 123.99 73 120.17 65.63 127.69" style="fill:#fff"/><path d="M75.23,154.33v2.92L52.05,144a.61.61,0,0,1-.26-.58,2,2,0,0,1,.9-1.55.61.61,0,0,1,.64-.06Z" style="fill:#261f14"/><path d="M92.79,112.38l-3-5.2L87.93,104l-.63-.35.73-1.41,2.44-4.68L93,100.66l4.39,9.18C98.23,112.47,94.14,113.91,92.79,112.38Z" style="fill:#e43805"/><polygon points="108.69 118.76 90.28 129.32 78.74 122.71 78.74 122.15 97.16 112.15 108.69 118.76" style="fill:#1a1a1a"/><polygon points="108.69 118.2 90.28 128.75 78.74 122.15 97.16 111.59 108.69 118.2" style="fill:#4d4d4d"/><polygon points="105.97 118.64 104.79 119.31 103.89 118.8 105.07 118.12 105.97 118.64" style="fill:#999"/><polygon points="104.6 119.42 103.41 120.1 102.51 119.58 103.69 118.91 104.6 119.42" style="fill:#999"/><polygon points="103.22 120.21 102.04 120.89 101.14 120.37 102.32 119.69 103.22 120.21" style="fill:#999"/><polygon points="101.84 121 100.66 121.68 99.76 121.16 100.94 120.48 101.84 121" style="fill:#999"/><polygon points="100.47 121.79 99.29 122.47 98.39 121.95 99.57 121.27 100.47 121.79" style="fill:#999"/><polygon points="99.09 122.58 97.91 123.25 97.01 122.74 98.19 122.06 99.09 122.58" style="fill:#999"/><polygon points="97.72 123.36 96.53 124.04 95.63 123.53 96.82 122.85 97.72 123.36" style="fill:#999"/><polygon points="96.34 124.15 95.16 124.83 94.26 124.31 95.44 123.64 96.34 124.15" style="fill:#999"/><polygon points="94.97 124.94 93.78 125.62 92.88 125.1 94.06 124.42 94.97 124.94" style="fill:#999"/><polygon points="93.59 125.73 92.41 126.41 91.51 125.89 92.69 125.21 93.59 125.73" style="fill:#999"/><polygon points="92.22 126.52 91.03 127.2 90.13 126.68 91.31 126 92.22 126.52" style="fill:#999"/><polygon points="104.36 117.71 103.17 118.39 102.27 117.87 103.45 117.19 104.36 117.71" style="fill:#999"/><polygon points="102.98 118.5 101.8 119.17 100.89 118.66 102.08 117.98 102.98 118.5" style="fill:#999"/><polygon points="101.6 119.28 100.42 119.96 99.52 119.44 100.7 118.77 101.6 119.28" style="fill:#999"/><polygon points="100.23 120.07 99.05 120.75 98.14 120.23 99.33 119.56 100.23 120.07" style="fill:#999"/><polygon points="98.85 120.86 97.67 121.54 96.77 121.02 97.95 120.34 98.85 120.86" style="fill:#999"/><polygon points="97.48 121.65 96.29 122.33 95.39 121.81 96.57 121.13 97.48 121.65" style="fill:#999"/><polygon points="96.1 122.44 94.92 123.12 94.02 122.6 95.2 121.92 96.1 122.44" style="fill:#999"/><polygon points="94.72 123.23 93.54 123.9 92.64 123.39 93.82 122.71 94.72 123.23" style="fill:#999"/><polygon points="93.35 124.02 92.17 124.69 91.26 124.17 92.45 123.5 93.35 124.02" style="fill:#999"/><polygon points="91.97 124.8 90.79 125.48 89.89 124.96 91.07 124.29 91.97 124.8" style="fill:#999"/><polygon points="90.6 125.59 89.42 126.27 88.51 125.75 89.69 125.07 90.6 125.59" style="fill:#999"/><polygon points="103.32 117.11 102.14 117.79 101.24 117.28 102.42 116.6 103.32 117.11" style="fill:#999"/><polygon points="101.94 117.9 100.76 118.58 99.86 118.06 101.04 117.39 101.94 117.9" style="fill:#999"/><polygon points="100.57 118.69 99.39 119.37 98.48 118.85 99.67 118.17 100.57 118.69" style="fill:#999"/><polygon points="99.19 119.48 98.01 120.16 97.11 119.64 98.29 118.96 99.19 119.48" style="fill:#999"/><polygon points="97.82 120.27 96.64 120.95 95.73 120.43 96.92 119.75 97.82 120.27" style="fill:#999"/><polygon points="96.44 121.06 95.26 121.73 94.36 121.22 95.54 120.54 96.44 121.06" style="fill:#999"/><polygon points="95.07 121.84 93.88 122.52 92.98 122.01 94.16 121.33 95.07 121.84" style="fill:#999"/><polygon points="93.69 122.63 92.51 123.31 91.61 122.79 92.79 122.12 93.69 122.63" style="fill:#999"/><polygon points="92.31 123.42 91.13 124.1 90.23 123.58 91.41 122.91 92.31 123.42" style="fill:#999"/><polygon points="90.94 124.21 89.76 124.89 88.85 124.37 90.04 123.69 90.94 124.21" style="fill:#999"/><polygon points="102.29 116.52 101.1 117.2 100.2 116.68 101.38 116.01 102.29 116.52" style="fill:#999"/><polygon points="100.91 117.31 99.73 117.99 98.83 117.47 100.01 116.79 100.91 117.31" style="fill:#999"/><polygon points="99.53 118.1 98.35 118.78 97.45 118.26 98.63 117.58 99.53 118.1" style="fill:#999"/><polygon points="98.16 118.89 96.98 119.56 96.07 119.05 97.26 118.37 98.16 118.89" style="fill:#999"/><polygon points="96.78 119.68 95.6 120.35 94.7 119.84 95.88 119.16 96.78 119.68" style="fill:#999"/><polygon points="95.41 120.46 94.22 121.14 93.32 120.63 94.5 119.95 95.41 120.46" style="fill:#999"/><polygon points="94.03 121.25 92.85 121.93 91.95 121.41 93.13 120.74 94.03 121.25" style="fill:#999"/><polygon points="92.66 122.04 91.47 122.72 90.57 122.2 91.75 121.52 92.66 122.04" style="fill:#999"/><polygon points="91.28 122.83 90.1 123.51 89.19 122.99 90.38 122.31 91.28 122.83" style="fill:#999"/><polygon points="89.56 125 88.53 124.41 89.9 123.62 89 123.1 87.63 123.89 87.28 124.09 86.44 124.57 87.21 125.01 87.35 125.08 88.38 125.68 89.56 125" style="fill:#999"/><polygon points="99.52 116.92 99.88 116.72 101.25 115.93 100.35 115.41 98.97 116.2 98.61 116.41 97.79 116.88 98.69 117.4 99.52 116.92" style="fill:#999"/><polygon points="98.5 117.51 97.32 118.18 96.42 117.67 97.6 116.99 98.5 117.51" style="fill:#999"/><polygon points="97.13 118.3 95.94 118.97 95.04 118.45 96.22 117.78 97.13 118.3" style="fill:#999"/><polygon points="95.75 119.08 94.57 119.76 93.66 119.24 94.85 118.57 95.75 119.08" style="fill:#999"/><polygon points="94.37 119.87 93.19 120.55 92.29 120.03 93.47 119.36 94.37 119.87" style="fill:#999"/><polygon points="93 120.66 91.81 121.34 90.91 120.82 92.09 120.14 93 120.66" style="fill:#999"/><polygon points="91.62 121.45 90.44 122.13 89.54 121.61 90.72 120.93 91.62 121.45" style="fill:#999"/><polygon points="90.25 122.24 89.06 122.91 88.16 122.4 89.34 121.72 90.25 122.24" style="fill:#999"/><polygon points="87.69 123.7 87.89 123.59 88.87 123.03 87.97 122.51 86.99 123.07 86.78 123.19 85.41 123.97 86.31 124.49 87.69 123.7" style="fill:#999"/><polygon points="100.22 115.34 99.03 116.02 98.13 115.5 99.31 114.82 100.22 115.34" style="fill:#999"/><polygon points="98.84 116.13 97.66 116.8 96.76 116.29 97.94 115.61 98.84 116.13" style="fill:#999"/><polygon points="97.47 116.91 96.28 117.59 95.38 117.07 96.56 116.4 97.47 116.91" style="fill:#999"/><polygon points="90 121.19 90.59 120.86 90.78 120.75 91.96 120.07 92.16 119.96 93.34 119.28 93.53 119.17 94.71 118.49 96.09 117.7 95.19 117.19 93.81 117.97 92.63 118.65 92.44 118.76 91.25 119.44 91.06 119.55 89.88 120.23 89.69 120.34 89.09 120.68 88.5 121.02 89.41 121.53 90 121.19" style="fill:#999"/><polygon points="89.21 121.64 88.03 122.32 87.13 121.81 88.31 121.13 89.21 121.64" style="fill:#999"/><polygon points="87.84 122.43 86.65 123.11 85.75 122.59 86.93 121.92 87.84 122.43" style="fill:#999"/><polygon points="86.46 123.22 85.28 123.9 84.38 123.38 85.56 122.7 86.46 123.22" style="fill:#999"/><polygon points="93.63 117.25 88.61 120.13 86.05 118.66 91.07 115.78 93.63 117.25" style="fill:#333"/><polygon points="114.41 106.82 95.99 117.37 90.25 128.77 108.66 118.22 114.76 107.22 114.41 106.82" style="fill:#1a1a1a"/><polygon points="114.76 107.22 96.34 117.78 90.6 129.18 109.02 118.62 114.76 107.22" style="fill:#4d4d4d"/><path d="M62.21,111.59c.1,2.48,1.29,3.89,3.63,4.74,3.24,1.43,8.62,3.31,13,4.73,2.25.69,4.36-4.09,3.21-4.88a80.72,80.72,0,0,0-12.49-5.5l.26-9c.43-3.71-.52-10.11-4.52-8.09C61,96.47,62,106.58,62.21,111.59Z" style="fill:#e43805"/><path d="M79.75,119.63l1.35.68a6.37,6.37,0,0,0,4.14,1.34l1.38.92,1,1.46c.75.9,1.08.32.72-.42l-.56-.94-1.18-1.4.44-.28,1,.29,1.44.78.37.41a.69.69,0,0,0,.81.16l.07,0,.14.07a.47.47,0,0,0,.61-.18.7.7,0,0,0,0-.74l-.64-1-1.15-1,.93.14.76.54.49.6c.54.57.87,0,.65-.53l-.59-.88-1.56-1.15L88,117.76l-4.35-.3-1.6-.64C80.58,115.92,78.67,118.79,79.75,119.63Z" style="fill:#ffb294"/><g style="clip-path:url(#clip-path)"><path d="M93.92,111.75l.29.51-.09,2.47.76,1.74.4,1.08,1,1.06c.5.44,1-.15.66-.87l-.63-1.11,0-1.16a1.92,1.92,0,0,1,2,.18s.45,1.43.46,1.5.3,1.38.3,1.38c.17,1.13,1,1,1,.12L99.85,117l-.14-1.3,1,1.61.52,1.38c.33.78,1.08.71,1,0l-.36-1.27-.45-1.24,1,1.18.32,1.06a.81.81,0,0,0,.64.65.38.38,0,0,0,.31-.59c.19-.12.15-.51.06-.71l-.85-1.63-2.74-2.9-2.64-2.12L96.82,110C95.79,108.9,93.42,110.65,93.92,111.75Z" style="fill:#ffb294"/></g><path d="M92,110.91l-2.16-3.73L87.93,104l-.63-.35-3.36-1.85a22.25,22.25,0,0,0-.33-5.34L88,102.21l.38.48.11.14Z" style="fill:#b03c19"/><path d="M65.85,90.5l-3.21,10.39L58.19,112s-4.18-1.47-4-2,2-9.77,2-9.77l1.7-6.84Z" style="fill:#e6e6e6"/><path d="M65.12,93.37c-1.48,3.22-3.14,6.08-5.69,7.26L54,102.72l.39,2.55c-.24.2-.49.39-.74.57a16.86,16.86,0,0,1-4.92,2.54,11.39,11.39,0,0,1-10.65-1.62,13.89,13.89,0,0,1-3.66-4.34c-.74-2-1.22-4.09-.57-5.85a5.9,5.9,0,0,1,3.4-3.2L45,88.88l10-5.94C64.9,80.93,65.21,87,65.12,93.37Z" style="fill:#fff"/><path d="M50.42,114.15l1.52-1.42L53.18,111l1.93-2.13.11-.17a10.55,10.55,0,0,1,3,3L58,114.56l-.85,2.73-.57,1.38c-.3.9-.89.86-.78,0l.18-1-1,2.07c-.41.92-1,.74-.84,0l.79-3-1.51,2.72c-.6,1-1.34.6-.84-.44l.86-2,.55-1.63-.39-2-.92.39-1.5,1.07C50.21,115.64,49.6,114.92,50.42,114.15Z" style="fill:#ffb294"/><path d="M63.59,90.5c-1.25,4.89-3.87,7.35-8.19,10.23,1.08-3,1.84-5.3,1.48-7.58-.42-2.66.4-4.17,2.61-5.69l1.38.38Z" style="fill:#32567b"/><path d="M63.59,94.14l-3.15,1.09c-2.45.33-2.87-2-3-4.34a3.39,3.39,0,0,1,1.52-3.06l1.51-1Z" style="fill:#ffb294"/><path d="M60.44,97.18c-1.58.5-1.79-1.09-.42-6.89l3.22,1.36C62.74,93.06,61.78,96.29,60.44,97.18Z" style="fill:#ffb294;mix-blend-mode:multiply;opacity:0.5"/><path d="M70.08,88.39a14.5,14.5,0,0,1-1,2.66c-.1.26-.3.65-.43,1,0,0,0,.07,0,.11-.34.74-2.53,5.71-5.07,4.56a6.37,6.37,0,0,1-3.23-2.8A10.77,10.77,0,0,1,60,89.34l-1-.91s-.16-3.31.7-4.8a4.85,4.85,0,0,1,5.5-2.4A6.12,6.12,0,0,1,70.08,88.39Z" style="fill:#ffb294"/><path d="M58.8,88.74,61.54,91l.69-1.27a1.16,1.16,0,0,1,1.59-.64,5.61,5.61,0,0,0,3.59.73,3.37,3.37,0,0,0,2.44-1c1.88-2.59-1-6.31-4-7.34C62.36,80.18,60,82,59.22,84A12,12,0,0,0,58.8,88.74Z"/><path d="M61.15,88.32a.83.83,0,0,0-.92-.45.79.79,0,0,0-.44.42,2,2,0,0,0-.16.6c-.16,1.09,0,2.7.74,2.37a2.24,2.24,0,0,0,.77-1A2.38,2.38,0,0,0,61.15,88.32Z" style="fill:#ffb294"/><path d="M60.47,115.28l-4.66-.67-3.54-.5-3.57-5.73L48,107.17l-4.58-4-.94.46a16.34,16.34,0,0,0-4.38,3.11,13.89,13.89,0,0,1-3.66-4.34c-.74-2-1.22-4.09-.57-5.85,3.87,3.78,7.9,5.51,13.6.7l6.2,8.57,1.06,1.45Z" style="fill:gray;mix-blend-mode:multiply;opacity:0.30000000000000004"/><path d="M66.43,110.05l2.41-.32,3.47-.87,4.11.1,2.25.14,1.33.23c1.08.17,1,1-.32.91l-1.57-.06-1.9,0,0,.22,3.83.94c.94.24.79,1.13-.4.93l-2.77-.5-1.11-.22L78.59,113c1,.55.46,1.18-.51.78l-3-.94-.63.12L76,114c1.37.77.61,1.34-.55.67l-1.76-.83-1.58-.21-1.76-.2-1.18-.73-2.13.43Z" style="fill:#ffb294"/><path d="M69.77,109.49c-1.71.44-.72,3.06,0,3.75-4.64,1.53-11.67,1.93-15.7.4-3.45-5.23-6.66-10.3-7.75-13.92-2.29-8.85,6.64-7.14,8-2.79,1,3.86,2.24,6.88,4.1,12.58Z" style="fill:#fff"/><path d="M78.94,145l8-4.64-2-1.14L78.94,143A2.64,2.64,0,0,0,78.94,145Z" style="fill:#5e3930"/><path d="M78.7,144.79l7.9-4.56v-2l-8,4.65A2.37,2.37,0,0,0,78.7,144.79Z" style="fill:#f4c099"/><path d="M67.43,138.35,78.94,145a2.8,2.8,0,0,1,0-2l-11.51-6.65A2.89,2.89,0,0,0,67.43,138.35Z" style="fill:#855044"/><polygon points="67.43 136.33 78.94 142.98 86.99 138.33 75.47 131.69 67.43 136.33" style="fill:#cc8b7c"/><path d="M80,143.11l8-4.64-2-1.14L80,141.09A2.63,2.63,0,0,0,80,143.11Z" style="fill:#a61539"/><path d="M79.79,142.9l7.9-4.55v-2l-8,4.64A2.36,2.36,0,0,0,79.79,142.9Z" style="fill:#f4c099"/><path d="M67.42,135.83,80,143.11a2.8,2.8,0,0,1,0-2l-12.61-7.28A3,3,0,0,0,67.42,135.83Z" style="fill:#e6454a"/><polygon points="67.42 133.81 80.03 141.09 88.08 136.45 75.47 129.17 67.42 133.81" style="fill:#a61539"/><path d="M80.09,140.42l8-4.64-2-1.14-6.1,3.76A2.73,2.73,0,0,0,80.09,140.42Z" style="fill:#094559"/><path d="M79.86,140.22l7.89-4.56v-2l-8,4.64A2.32,2.32,0,0,0,79.86,140.22Z" style="fill:#f4c099"/><path d="M67.49,133.15l12.6,7.27a2.8,2.8,0,0,1,0-2l-12.6-7.28A3,3,0,0,0,67.49,133.15Z" style="fill:#db9a16"/><polygon points="67.49 131.12 80.09 138.4 88.14 133.76 75.53 126.48 67.49 131.12" style="fill:#094559"/><path d="M59.38,134a1.57,1.57,0,0,1-.93-1.29l.06-5.13a1.55,1.55,0,0,1,.92-1.27,4.89,4.89,0,0,1,4.44,0,1.53,1.53,0,0,1,.92,1.38v-.09l-.06,5.12a1.54,1.54,0,0,1-.91,1.28A4.89,4.89,0,0,1,59.38,134Z" style="fill:#e6454a"/><path d="M59.44,128.9a4.89,4.89,0,0,0,4.44,0,1.36,1.36,0,0,0,0-2.57,4.89,4.89,0,0,0-4.44,0A1.36,1.36,0,0,0,59.44,128.9Z" style="fill:#fff"/><path d="M59.17,128.26a1.74,1.74,0,0,0,.55.47,4.26,4.26,0,0,0,3.87,0,1.5,1.5,0,0,0,.56-.47c.46-.59.27-1.3-.56-1.78a4.34,4.34,0,0,0-3.88,0C58.88,127,58.71,127.67,59.17,128.26Z" style="fill:#e6454a"/><path d="M59.17,128.26a1.74,1.74,0,0,0,.55.47,4.26,4.26,0,0,0,3.87,0,1.5,1.5,0,0,0,.56-.47,1.7,1.7,0,0,0-.56-.48,4.22,4.22,0,0,0-3.88,0A1.61,1.61,0,0,0,59.17,128.26Z" style="fill:#1a1a1a"/><path d="M59.17,128.26a1.74,1.74,0,0,0,.55.47,4.26,4.26,0,0,0,3.87,0,1.5,1.5,0,0,0,.56-.47,1.7,1.7,0,0,0-.56-.48,4.22,4.22,0,0,0-3.88,0A1.61,1.61,0,0,0,59.17,128.26Z" style="fill:#1a1a1a"/><path d="M57.86,132.27a.94.94,0,0,0,.89-.66.37.37,0,0,0-.21-.48.38.38,0,0,0-.48.22c-.07.19-.18.19-.2.18a1,1,0,0,1-.71-.65,2.51,2.51,0,0,1,0-1.71.58.58,0,0,1,.24-.31.51.51,0,0,1,.48,0,.69.69,0,0,1,.26.59.38.38,0,0,0,.37.37.37.37,0,0,0,.37-.37,1.39,1.39,0,0,0-.59-1.2,1.23,1.23,0,0,0-1.16-.12,1.24,1.24,0,0,0-.65.71,3.25,3.25,0,0,0,0,2.28A1.68,1.68,0,0,0,57.86,132.27Z" style="fill:#e6454a"/></g></g></g></svg>