<svg xmlns="http://www.w3.org/2000/svg" viewBox="0 0 111.2 52"><defs><style>.cls-1{fill:#1d1d1b;fill-rule:evenodd;}.cls-2{fill:#c71522;}</style></defs><g id="Layer_2" data-name="Layer 2"><g id="menu"><path class="cls-1" d="M.27,43q0-.15.06-.18a.27.27,0,0,1,.16,0h.76l1.23,3.91q0,.2.12.42c0,.16.09.31.13.46s.07.27.1.37,0,.17.06.19,0-.06,0-.17l.1-.37c0-.15.07-.3.11-.45a2.85,2.85,0,0,1,.13-.41L4.4,43a.48.48,0,0,1,.07-.16s.07-.06.14-.06h.85v8.84a.24.24,0,0,1,0,.13s-.05,0-.11.06l-.32,0H4.39l0-3.14c0-.31,0-.66,0-1.06s0-.78.08-1.16,0-.7.07-1,0-.49,0-.59c-.07.24-.15.51-.23.82s-.17.6-.25.88-.15.53-.21.75a4,4,0,0,1-.14.44l-.68,2s0,.07-.07.08l-.07,0H2.55L1.88,47.8c0-.07-.07-.21-.13-.43s-.14-.47-.22-.76-.17-.58-.25-.89L1,44.88H1c.05.46.08.92.12,1.37s.06.8.08,1.24,0,.82.05,1.17l0,3a.24.24,0,0,1,0,.13.18.18,0,0,1-.13.06l-.32,0H.27Z"/><path class="cls-1" d="M10,49.56H7.73l-.5,2.12a.26.26,0,0,1-.11.16.92.92,0,0,1-.38,0H6.45a2.22,2.22,0,0,1-.37,0L8.38,43c0-.12.16-.18.4-.18a3.28,3.28,0,0,1,.49,0l2.31,8.86a.14.14,0,0,1-.05.16.83.83,0,0,1-.4.06h-.27l-.35,0Zm-2-1H9.74L9.3,46.77q-.09-.33-.15-.66c-.05-.22-.09-.45-.13-.67s-.08-.42-.11-.62-.05-.38-.07-.53c0,.15,0,.33-.07.53s-.08.4-.11.62-.08.43-.13.66-.09.45-.14.67Z"/><path class="cls-1" d="M14.34,48.31c-.06-.15-.14-.38-.24-.68s-.22-.64-.34-1-.24-.71-.35-1.07-.22-.66-.29-.91c0,.21,0,.5.05.88s0,.76,0,1.16,0,.77,0,1.11,0,.58,0,.71v3.14a.39.39,0,0,1,0,.13.15.15,0,0,1-.12.06l-.31,0h-.6V43a.2.2,0,0,1,.22-.22h.8l1.45,3.49.25.72c.11.31.22.64.34,1s.24.7.35,1.05.21.65.29.89v0a7,7,0,0,1-.06-.84c0-.37,0-.75,0-1.14s0-.76,0-1.11V43a.22.22,0,0,1,0-.12s.05,0,.12-.06a1.22,1.22,0,0,1,.32,0h.6v8.84a.19.19,0,0,1-.22.21h-.79Z"/><path class="cls-1" d="M19,49.25c0,.26,0,.5,0,.72a1.54,1.54,0,0,0,.18.56.92.92,0,0,0,.37.36,1.34,1.34,0,0,0,.65.13A2.9,2.9,0,0,0,20.9,51a2,2,0,0,0,.48-.16V43a.37.37,0,0,1,0-.12s.05,0,.12-.06a1.14,1.14,0,0,1,.31,0h.61v8.71a3.1,3.1,0,0,1-.83.32,5.63,5.63,0,0,1-1.37.15A2.85,2.85,0,0,1,19,51.77a1.66,1.66,0,0,1-.7-.6,2.11,2.11,0,0,1-.32-.88,7.21,7.21,0,0,1-.07-1.07V43a.22.22,0,0,1,0-.12s0,0,.11-.06a1.22,1.22,0,0,1,.32,0H19Z"/><path class="cls-1" d="M23.56,51.86V43a.19.19,0,0,1,0-.1s0,0,.07-.08a.21.21,0,0,1,.12,0h3.09v.51a1.65,1.65,0,0,1,0,.27c0,.06,0,.1-.06.11l-.11,0H24.62v2.74h1.94a6.05,6.05,0,0,1,0,.77c0,.12-.07.19-.16.19H24.62v4.23a.23.23,0,0,1,0,.11.17.17,0,0,1-.18.1Z"/><path class="cls-1" d="M31,49.56H28.74l-.51,2.12a.25.25,0,0,1-.1.16,1,1,0,0,1-.39,0h-.29a2.31,2.31,0,0,1-.37,0L29.38,43c0-.12.16-.18.4-.18a3.19,3.19,0,0,1,.49,0l2.32,8.86a.13.13,0,0,1-.06.16.81.81,0,0,1-.39.06h-.28l-.34,0Zm-2-1h1.78l-.44-1.83-.15-.66c0-.22-.09-.45-.13-.67s-.07-.42-.1-.62-.05-.38-.07-.53c0,.15-.05.33-.08.53s-.07.4-.11.62-.08.43-.12.66-.09.45-.14.67Z"/><path class="cls-1" d="M35.6,42.68a2.38,2.38,0,0,1,.59.07,1.06,1.06,0,0,1,.37.17.64.64,0,0,1,.19.22.62.62,0,0,1,.06.26,1.27,1.27,0,0,1-.05.34,2.13,2.13,0,0,1-.12.29,1.76,1.76,0,0,0-.32-.21,1.08,1.08,0,0,0-.52-.11,1.29,1.29,0,0,0-.6.14,1.27,1.27,0,0,0-.52.55,4,4,0,0,0-.38,1.2,12.52,12.52,0,0,0-.14,2.06,10.13,10.13,0,0,0,.1,1.61,3.59,3.59,0,0,0,.26,1,.92.92,0,0,0,.41.47,1.27,1.27,0,0,0,.52.11,1.93,1.93,0,0,0,.69-.13,2.24,2.24,0,0,0,.5-.27,1.6,1.6,0,0,1,.11.29,1.4,1.4,0,0,1,0,.34.78.78,0,0,1-.44.65,2.13,2.13,0,0,1-1.17.28,1.83,1.83,0,0,1-.85-.11,1.47,1.47,0,0,1-.68-.6A3.89,3.89,0,0,1,33.21,50a12.37,12.37,0,0,1-.16-2.26,11.73,11.73,0,0,1,.24-2.65,4.6,4.6,0,0,1,.61-1.54,1.61,1.61,0,0,1,.82-.69A2.76,2.76,0,0,1,35.6,42.68Z"/><path class="cls-1" d="M39.93,43.8v7.85a.24.24,0,0,1,0,.13s0,0-.11.06l-.31,0h-.6V43.8H37.13V43a.2.2,0,0,1,.22-.22h4.39v.78c0,.14-.07.21-.22.21Z"/><path class="cls-1" d="M43.48,49.25a5.39,5.39,0,0,0,0,.72,1.37,1.37,0,0,0,.17.56.94.94,0,0,0,.38.36,1.31,1.31,0,0,0,.65.13,2.81,2.81,0,0,0,.65-.07,2.15,2.15,0,0,0,.49-.16V43a.22.22,0,0,1,0-.12s0,0,.11-.06a1.22,1.22,0,0,1,.32,0h.61v8.71a3.2,3.2,0,0,1-.84.32,5.49,5.49,0,0,1-1.36.15,2.79,2.79,0,0,1-1.23-.22,1.69,1.69,0,0,1-.71-.6,2.26,2.26,0,0,1-.32-.88,8.87,8.87,0,0,1-.07-1.07V43a.37.37,0,0,1,0-.12.15.15,0,0,1,.12-.06,1.17,1.17,0,0,1,.32,0h.63Z"/><path class="cls-1" d="M48,43a.19.19,0,0,1,0-.1l.06-.08a.22.22,0,0,1,.13,0h1.28a2.42,2.42,0,0,1,1.81.6,2.82,2.82,0,0,1,.57,2A3.59,3.59,0,0,1,51.59,47a2.14,2.14,0,0,1-.81.89c.1.13.21.3.34.51a7.22,7.22,0,0,1,.37.78,6.8,6.8,0,0,1,.31,1.06A8.54,8.54,0,0,1,52,51.63a.22.22,0,0,1-.08.2,1,1,0,0,1-.45.06h-.28l-.34,0a9.12,9.12,0,0,0-.18-1.43,10.13,10.13,0,0,0-.28-1.07,5.43,5.43,0,0,0-.32-.74,3.88,3.88,0,0,0-.28-.44h-.71v3.46a.39.39,0,0,1,0,.13s0,0-.11.06l-.31,0H48Zm2.72,2.29a2.63,2.63,0,0,0-.22-1.16.82.82,0,0,0-.8-.43h-.65v3.49h.57a.91.91,0,0,0,.82-.43A2.82,2.82,0,0,0,50.74,45.32Z"/><path class="cls-1" d="M56.22,49.56H54l-.5,2.12a.26.26,0,0,1-.11.16.92.92,0,0,1-.38,0h-.3l-.36,0L54.65,43c0-.12.16-.18.4-.18a3.28,3.28,0,0,1,.49,0l2.31,8.86a.13.13,0,0,1-.06.16.76.76,0,0,1-.39.06h-.27l-.35,0Zm-2-1H56l-.44-1.83c-.05-.22-.1-.44-.14-.66s-.09-.45-.13-.67-.08-.42-.11-.62,0-.38-.07-.53c0,.15,0,.33-.08.53s-.07.4-.11.62-.07.43-.12.66-.09.45-.14.67Z"/><path class="cls-1" d="M60.47,42.68a3.3,3.3,0,0,1,1.31.19c.26.13.38.28.38.46a1,1,0,0,1,0,.3,1,1,0,0,1-.2.31,1.86,1.86,0,0,0-.48-.21,2.4,2.4,0,0,0-.79-.11,1.65,1.65,0,0,0-.92.23.77.77,0,0,0-.33.66,1.47,1.47,0,0,0,.14.64,3.82,3.82,0,0,0,.45.64l1.4,1.59a4.66,4.66,0,0,1,.41.56,3.31,3.31,0,0,1,.27.53,2.08,2.08,0,0,1,.14.53,3.28,3.28,0,0,1,0,.56,4,4,0,0,1-.11.93,2.2,2.2,0,0,1-.39.78,1.77,1.77,0,0,1-.71.53,2.71,2.71,0,0,1-1.1.19,2.51,2.51,0,0,1-1.29-.25c-.27-.17-.4-.34-.4-.53a1.34,1.34,0,0,1,.06-.36,1.11,1.11,0,0,1,.21-.38,1.76,1.76,0,0,0,.53.31,2.12,2.12,0,0,0,.8.14,1.19,1.19,0,0,0,1-.36,1.52,1.52,0,0,0,.28-1,2,2,0,0,0-.16-.81,3.26,3.26,0,0,0-.58-.87l-1.31-1.51a4.2,4.2,0,0,1-.62-1,2.27,2.27,0,0,1-.18-.88,1.76,1.76,0,0,1,.56-1.34A2.36,2.36,0,0,1,60.47,42.68Z"/><path class="cls-1" d="M66.71,42.81a2.93,2.93,0,0,1,1.11.2,1.73,1.73,0,0,1,.79.66,3.31,3.31,0,0,1,.47,1.24,9.86,9.86,0,0,1,.16,2,14.29,14.29,0,0,1-.17,2.38,5.07,5.07,0,0,1-.49,1.54,2,2,0,0,1-.8.83,2.3,2.3,0,0,1-1.06.24H65.1v-8.8a.21.21,0,0,1,.07-.18.43.43,0,0,1,.28-.07Zm1.33,4A11.54,11.54,0,0,0,68,45.3a3,3,0,0,0-.24-.92,1,1,0,0,0-.41-.47,1.26,1.26,0,0,0-.57-.13h-.59v7.09h.58a1,1,0,0,0,.49-.14,1.11,1.11,0,0,0,.42-.57,5.55,5.55,0,0,0,.29-1.24A17.36,17.36,0,0,0,68,46.77Z"/><path class="cls-1" d="M73.45,50.92c0,.22,0,.4,0,.52a1.7,1.7,0,0,1,0,.28.33.33,0,0,1-.06.12l-.12,0H70.18V43a.19.19,0,0,1,0-.1s0,0,.07-.08a.21.21,0,0,1,.12,0h3.09v.51a2,2,0,0,1,0,.29.17.17,0,0,1-.06.12.19.19,0,0,1-.12,0H71.24v2.7h1.94V47a2.11,2.11,0,0,1,0,.3.23.23,0,0,1-.06.14.15.15,0,0,1-.12,0H71.24v3.49Z"/><path class="cls-1" d="M74.31,43a.2.2,0,0,1,.22-.22h1.28a2.38,2.38,0,0,1,1.8.6,2.77,2.77,0,0,1,.58,2A4.23,4.23,0,0,1,78,46.71a2.32,2.32,0,0,1-.52.87,1.94,1.94,0,0,1-.76.47,3,3,0,0,1-.91.14h-.45v3.46a.39.39,0,0,1,0,.13.15.15,0,0,1-.12.06l-.31,0h-.6ZM77,45.26a2.36,2.36,0,0,0-.22-1.11.83.83,0,0,0-.8-.42h-.64v3.49h.56a.93.93,0,0,0,.83-.44A3.14,3.14,0,0,0,77,45.26Z"/><path class="cls-1" d="M78.78,47.29a13.28,13.28,0,0,1,.15-2.18,4.24,4.24,0,0,1,.46-1.41,1.84,1.84,0,0,1,.77-.77,2.47,2.47,0,0,1,1.09-.23,2.32,2.32,0,0,1,1.07.22,1.6,1.6,0,0,1,.71.74,4.7,4.7,0,0,1,.4,1.4,16.71,16.71,0,0,1,.12,2.19,15.39,15.39,0,0,1-.14,2.23A4.68,4.68,0,0,1,83,50.94a1.87,1.87,0,0,1-.77.8,2.34,2.34,0,0,1-1.09.24A2.49,2.49,0,0,1,80,51.77a1.57,1.57,0,0,1-.72-.74,4.6,4.6,0,0,1-.41-1.44A16.24,16.24,0,0,1,78.78,47.29Zm1.18.25c0,.61,0,1.12.05,1.54a4.8,4.8,0,0,0,.2,1,1.44,1.44,0,0,0,.37.6,1,1,0,0,0,1.17,0,1.36,1.36,0,0,0,.38-.63A5.51,5.51,0,0,0,82.35,49q.06-.68.06-1.68c0-.64,0-1.19-.06-1.63a5.16,5.16,0,0,0-.19-1.09,1.23,1.23,0,0,0-.36-.6.89.89,0,0,0-.58-.18.88.88,0,0,0-.57.2,1.48,1.48,0,0,0-.4.65A4.88,4.88,0,0,0,80,45.78,17.61,17.61,0,0,0,80,47.54Z"/><path class="cls-1" d="M84.46,43a.19.19,0,0,1,0-.1s0,0,.06-.08a.22.22,0,0,1,.13,0H86a2.38,2.38,0,0,1,1.8.6,2.77,2.77,0,0,1,.58,2A3.59,3.59,0,0,1,88,47a2.09,2.09,0,0,1-.82.89,4.4,4.4,0,0,1,.35.51c.12.22.24.48.37.78a6.8,6.8,0,0,1,.31,1.06,9.85,9.85,0,0,1,.19,1.37.25.25,0,0,1-.08.2,1,1,0,0,1-.45.06h-.29l-.33,0a12.34,12.34,0,0,0-.18-1.43,8,8,0,0,0-.29-1.07,5.52,5.52,0,0,0-.31-.74,3.88,3.88,0,0,0-.28-.44h-.71v3.46a.39.39,0,0,1,0,.13s0,0-.12.06l-.31,0h-.6Zm2.72,2.29A2.63,2.63,0,0,0,87,44.16a.83.83,0,0,0-.81-.43h-.64v3.49h.57a.91.91,0,0,0,.82-.43A2.92,2.92,0,0,0,87.18,45.32Z"/><path class="cls-1" d="M91.63,43.8v7.85a.39.39,0,0,1,0,.13s0,0-.12.06l-.31,0h-.6V43.8H88.82V43a.2.2,0,0,1,.22-.22h4.4v.78a.19.19,0,0,1-.22.21Z"/><path class="cls-1" d="M94.09,43.29a1.91,1.91,0,0,1,0-.28.19.19,0,0,1,.11-.14.82.82,0,0,1,.32,0h.61v8.84a.39.39,0,0,1,0,.13s0,0-.12.06l-.31,0h-.61Z"/><path class="cls-1" d="M95.78,43.12a.5.5,0,0,1,0-.24s.1-.07.24-.07h.86l1.07,5c.11.57.21,1.14.29,1.7s.16,1,.23,1.45c.05-.41.11-.9.19-1.46s.17-1.13.27-1.69l1-4.7a.56.56,0,0,1,.08-.23.21.21,0,0,1,.19-.08h.92l-2,9.09-.4,0H98.2a.45.45,0,0,1-.4-.21,1.35,1.35,0,0,1-.22-.54c-.07-.26-.15-.57-.23-1s-.18-.77-.27-1.2-.2-.87-.3-1.33-.2-.91-.3-1.35C96.26,45.33,96,44.25,95.78,43.12Z"/><path class="cls-1" d="M105.06,49.56h-2.22l-.51,2.12a.25.25,0,0,1-.1.16,1,1,0,0,1-.39,0h-.29a2.31,2.31,0,0,1-.37,0l2.3-8.89c0-.12.16-.18.4-.18a3.43,3.43,0,0,1,.5,0l2.31,8.86a.13.13,0,0,1-.06.16.81.81,0,0,1-.39.06H106l-.34,0Zm-2-1h1.78l-.44-1.83-.15-.66c0-.22-.09-.45-.13-.67s-.07-.42-.1-.62,0-.38-.07-.53c0,.15,0,.33-.08.53s-.07.4-.11.62-.08.43-.12.66-.09.45-.14.67Z"/><path class="cls-1" d="M109.31,42.68a3.3,3.3,0,0,1,1.31.19c.25.13.38.28.38.46a.8.8,0,0,1-.06.3.82.82,0,0,1-.2.31,1.59,1.59,0,0,0-.48-.21,2.3,2.3,0,0,0-.78-.11,1.62,1.62,0,0,0-.92.23.76.76,0,0,0-.34.66,1.34,1.34,0,0,0,.15.64,3.82,3.82,0,0,0,.45.64l1.39,1.59a4.8,4.8,0,0,1,.42.56,3.31,3.31,0,0,1,.27.53A2.6,2.6,0,0,1,111,49a3.28,3.28,0,0,1,0,.56,3.48,3.48,0,0,1-.12.93,2.18,2.18,0,0,1-.38.78,1.84,1.84,0,0,1-.71.53,2.8,2.8,0,0,1-1.11.19,2.49,2.49,0,0,1-1.28-.25c-.27-.17-.41-.34-.41-.53a1.08,1.08,0,0,1,.07-.36,1.27,1.27,0,0,1,.2-.38,2,2,0,0,0,.54.31,2.07,2.07,0,0,0,.79.14,1.19,1.19,0,0,0,1-.36,1.52,1.52,0,0,0,.28-1,2,2,0,0,0-.16-.81,3.34,3.34,0,0,0-.59-.87l-1.3-1.51a3.89,3.89,0,0,1-.62-1,2.28,2.28,0,0,1-.19-.88,1.73,1.73,0,0,1,.57-1.34A2.35,2.35,0,0,1,109.31,42.68Z"/><path class="cls-2" d="M110.58,14.69a18,18,0,0,0-1.57-4.2,17.07,17.07,0,0,0-4.63-5.57,19.45,19.45,0,0,0-4.3-2.56A26.9,26.9,0,0,0,93.43.46,40.74,40.74,0,0,0,87.18,0a5.74,5.74,0,0,0-5.73,5.73v15a5.73,5.73,0,1,0,11.46,0V12a14.45,14.45,0,0,1,2.65.87A8.05,8.05,0,0,1,97.33,14a6.5,6.5,0,0,1,1,.94,6.25,6.25,0,0,1,1,2,10.86,10.86,0,0,1,.45,3.3,8.61,8.61,0,0,1-.68,3.38,8.77,8.77,0,0,1-3.15,3.82,8.6,8.6,0,0,1-4.85,1.48H68.26l-9.6-25-.09-.2c0-.1-.08-.19-.13-.29l-.14-.26-.13-.23L58,2.57c-.05-.07-.09-.14-.14-.2l-.2-.24-.17-.19-.21-.21-.2-.19-.2-.17-.24-.18-.22-.14L56.16.88,55.9.75,55.66.63,55.31.49a.94.94,0,0,0-.15-.06h0a3.81,3.81,0,0,0-.45-.13l-.1,0a5.71,5.71,0,0,0-2.47,0L51.78.3l-.21.07-.34.11h0L51,.58l-.29.13-.26.14a1.71,1.71,0,0,0-.23.13L50,1.16l-.2.14a2.31,2.31,0,0,0-.24.2l-.2.17-.2.2c-.06.07-.13.13-.19.21s-.11.13-.17.2l-.18.24c0,.07-.1.14-.14.21s-.12.17-.17.26-.09.17-.13.25a1.92,1.92,0,0,0-.12.25,2.44,2.44,0,0,0-.14.34c0,.06-.05.11-.07.16V4h0L45.05,12l-3-8.08L42,3.74c0-.1-.08-.2-.13-.3l-.12-.24A2,2,0,0,0,41.63,3l-.15-.25-.15-.22-.19-.24c0-.07-.11-.13-.17-.2l-.2-.21a1.8,1.8,0,0,0-.2-.19,1.12,1.12,0,0,0-.2-.18l-.23-.19-.22-.15L39.67,1,39.43.82,39.18.69,38.9.56,38.73.49l-.07,0-.3-.1L38.11.29,37.82.23,37.55.18l-.27,0L37,.12h-.56l-.26,0-.31,0-.24,0L35.3.27l-.23.07-.32.1-.07,0-.16.07-.29.12L34,.78l-.24.13-.26.16-.21.15L33,1.4l-.2.17-.21.2-.2.2-.18.21-.18.23-.15.21-.17.25-.13.24c-.05.08-.09.17-.13.25s-.09.19-.13.28-.05.11-.07.17L21.63,28.93H5.77a5.77,5.77,0,0,0,0,11.54H25.6A5.78,5.78,0,0,0,31,36.77l5.55-14.46,3.24,8.84h0a5,5,0,0,0,.23.53c0,.08.08.16.13.24s.08.17.13.25l.21.3.11.16c.07.1.15.18.22.27l.14.17.22.21a1.62,1.62,0,0,0,.19.18l.2.17.24.19A1.37,1.37,0,0,0,42,34l.27.18.32.17.17.09.54.22h0l.08,0,.46.14.19,0,.37.06.24,0,.32,0h.56l.29,0,.27,0,.32-.07.24,0a2.78,2.78,0,0,0,.38-.12l.15,0h0l.47-.2c.13-.06.25-.13.37-.2l.17-.09.32-.22a.71.71,0,0,0,.14-.1l.28-.22.16-.14.21-.22.19-.18.16-.21.19-.23.14-.21c.06-.09.12-.17.17-.26l.18-.34c0-.05.06-.11.08-.16s.15-.36.22-.54h0l2.9-8.35,5.39,14.06a5.79,5.79,0,0,0,5.37,3.7H90.88a21.13,21.13,0,0,0,8-1.76,20.13,20.13,0,0,0,12.3-18.56A22.84,22.84,0,0,0,110.58,14.69Z"/></g></g></svg>