<?xml version="1.0" encoding="UTF-8"?>
<svg id="Capa_2" data-name="Capa 2" xmlns="http://www.w3.org/2000/svg" viewBox="0 0 8.88 11.09">
  <defs>
    <style>
      .cls-1 {
        fill: #c71621;
        stroke-width: 0px;
      }
    </style>
  </defs>
  <g id="Capa_1-2" data-name="Capa 1">
    <path class="cls-1" d="M3.53,10.56H.53v-1.23h1.77v-.53H.53v-1.23h1.06v-.53H.53v-1.23h1.77v-.53H.53v-1.23h1.06v-.53H.53v-1.23h1.77v-.53H.53V.53h3v10.03ZM3.8,0H.27C.12,0,0,.12,0,.27v10.56c0,.15.12.27.27.27h3.53c.15,0,.27-.12.27-.27V.27C4.07.12,3.95,0,3.8,0"/>
    <path class="cls-1" d="M8.5,8.94l-1.25,1.25V.9l1.25,1.24.37-.37L7.17.08c-.1-.1-.27-.1-.38,0l-1.7,1.7.38.37,1.25-1.24v9.28l-1.25-1.25-.37.37,1.7,1.7c.1.1.27.1.38,0l1.71-1.7-.38-.37Z"/>
  </g>
</svg>