<?xml version="1.0" encoding="UTF-8"?>
<svg id="Capa_2" data-name="Capa 2" xmlns="http://www.w3.org/2000/svg" viewBox="0 0 11.65 11.28">
  <defs>
    <style>
      .cls-1 {
        fill: #c71621;
        stroke-width: 0px;
      }
    </style>
  </defs>
  <g id="Capa_1-2" data-name="Capa 1">
    <path class="cls-1" d="M10.39,0H3.44c-.17,0-.31.13-.31.3s.14.3.31.3h6.96c.36,0,.65.28.65.63v6.73c0,.16.14.3.31.3s.31-.13.31-.3V1.22c0-.67-.57-1.22-1.26-1.22"/>
    <path class="cls-1" d="M10.61,8.92c-.12-.11-.31-.11-.43,0-.12.12-.12.3,0,.42h0s.43.42.43.42H2.22c-.36,0-.65-.28-.65-.63V1.01l.43.42c.12.11.31.11.43,0,.12-.12.12-.3,0-.42h0L1.48.09c-.12-.11-.31-.11-.43,0L.09,1.01c-.12.12-.12.3,0,.42.12.11.31.11.43,0l.43-.42v8.12c0,.67.57,1.22,1.26,1.22h8.39l-.43.42c-.12.12-.12.3,0,.42.12.12.31.12.43,0l.96-.93c.12-.12.12-.3,0-.42l-.96-.93Z"/>
    <polygon class="cls-1" points="6.5 3.94 5.23 6 3.94 3.94 3.29 3.94 3.29 7.27 4.03 7.27 4.03 5.31 5.04 6.91 5.4 6.91 6.41 5.27 6.42 7.27 7.17 7.27 7.16 3.94 6.5 3.94"/>
    <path class="cls-1" d="M8.49,4.7l.56-.51c.12-.1.2-.2.26-.28.06-.08.1-.16.12-.24.02-.08.03-.15.03-.23,0-.14-.04-.27-.11-.37-.08-.1-.18-.18-.32-.24-.14-.06-.3-.09-.48-.09-.22,0-.41.04-.58.12-.17.08-.3.19-.39.32l.41.26c.06-.08.13-.14.22-.18.09-.04.18-.06.29-.06.13,0,.23.02.29.08.07.05.1.12.1.22,0,.04,0,.08-.02.12s-.04.09-.07.14-.09.11-.17.18l-.95.86v.36h1.85v-.45h-1.06Z"/>
  </g>
</svg>