<?xml version="1.0" encoding="UTF-8"?>
<svg id="Capa_2" data-name="Capa 2" xmlns="http://www.w3.org/2000/svg" viewBox="0 0 11.09 8.87">
  <defs>
    <style>
      .cls-1 {
        fill: #c71621;
        stroke-width: 0px;
      }
    </style>
  </defs>
  <g id="Capa_1-2" data-name="Capa 1">
    <path class="cls-1" d="M10.56,5.34v3h-1.23v-1.77h-.53v1.77h-1.23v-1.06h-.53v1.06h-1.23v-1.77h-.53v1.77h-1.23v-1.06h-.53v1.06h-1.23v-1.77h-.53v1.77H.53v-3h10.03ZM0,5.07v3.53c0,.15.12.27.26.27h10.56c.15,0,.27-.12.27-.27v-3.53c0-.15-.12-.27-.27-.27H.27C.12,4.81,0,4.93,0,5.07"/>
    <path class="cls-1" d="M8.94.38l1.24,1.25H.9L2.15.38,1.78,0,.08,1.71c-.1.1-.1.27,0,.38l1.7,1.7.37-.38-1.24-1.25h9.28l-1.24,1.25.37.37,1.7-1.7c.1-.1.1-.27,0-.38l-1.7-1.71-.37.38Z"/>
  </g>
</svg>