<svg xmlns="http://www.w3.org/2000/svg" viewBox="0 0 42.9 42.9"><defs><style>.cls-1{fill:#c71522;}.cls-2{fill:#fff;}</style></defs><g id="Layer_2" data-name="Layer 2"><g id="menu"><circle class="cls-1" cx="21.45" cy="21.45" r="21.45"/><path class="cls-2" d="M26.41,28.65A2.31,2.31,0,1,0,28.72,31,2.33,2.33,0,0,0,26.41,28.65Z"/><path class="cls-2" d="M32.12,15.23s-.14,0-.22,0H14.66l-.28-1.83A2.44,2.44,0,0,0,12,11.26H9.73a1.1,1.1,0,1,0,0,2.19H12a.3.3,0,0,1,.27.25l1.7,11.55a3,3,0,0,0,3,2.54H28.26a3,3,0,0,0,3-2.4L33,16.49A1.08,1.08,0,0,0,32.12,15.23Z"/><path class="cls-2" d="M20.74,30.85a2.29,2.29,0,0,0-2.29-2.2,2.32,2.32,0,0,0-2.22,2.4,2.28,2.28,0,0,0,2.27,2.2h0A2.3,2.3,0,0,0,20.74,30.85Z"/></g></g></svg>