<svg xmlns="http://www.w3.org/2000/svg" xmlns:xlink="http://www.w3.org/1999/xlink" viewBox="0 0 200.39 61.66"><defs><style>.cls-1{fill:none;}.cls-2{clip-path:url(#clip-path);}.cls-3{fill:#bd1622;}</style><clipPath id="clip-path" transform="translate(0 0)"><rect class="cls-1" width="200.39" height="61.66"/></clipPath></defs><g id="Layer_2" data-name="Layer 2"><g id="B._Urbagym" data-name="B. Urbagym"><g class="cls-2"><path class="cls-3" d="M84.46,28c-.69.56-1.47,1.16-2.32,1.8s-1.71,1.24-2.55,1.79A22.16,22.16,0,0,1,77.29,33a3.72,3.72,0,0,1-1.7.5c-.23,0-.13-.31.28-.88a20.69,20.69,0,0,1,1.84-2.12c.81-.86,1.74-1.78,2.8-2.78s2.11-1.92,3.14-2.75a27.4,27.4,0,0,1,2.88-2.08,3.94,3.94,0,0,1,2-.78q.33,0,0,.66a15,15,0,0,1-1.06,1.59c-.46.62-1,1.27-1.55,1.94S84.86,27.52,84.46,28m34.72,7.8q1.75-1.47,3.32-2.88a33.74,33.74,0,0,0,2.61-2.59,1.8,1.8,0,0,0,.6-1.74,2.78,2.78,0,0,0-1.29-1.47A11,11,0,0,0,121.76,26a15.74,15.74,0,0,0-3.45-.6,21.73,21.73,0,0,0-3.77.1,13.36,13.36,0,0,0-3.56.88,1.74,1.74,0,0,0-1.18,1.17,2.46,2.46,0,0,0,.09,1.4,5.62,5.62,0,0,0,1,1.66,15.62,15.62,0,0,1,4.73-1.69,13.94,13.94,0,0,1,3.41-.16A20.43,20.43,0,0,1,116.18,31c-1.23.86-2.59,1.71-4.06,2.55s-3,1.61-4.5,2.3a25.69,25.69,0,0,1-4.1,1.53,5.58,5.58,0,0,1-2.86.17c-.7-.21-1-.81-.78-1.79a17.46,17.46,0,0,1,2.88-6.8,38.78,38.78,0,0,1,5.42-6.31A56,56,0,0,1,115,17.17a73.33,73.33,0,0,1,7.2-4.37,57.8,57.8,0,0,1,6.43-3,17.78,17.78,0,0,1,4.57-1.26,5.46,5.46,0,0,0-.28.71,4.72,4.72,0,0,0-.19.72,2.17,2.17,0,0,0,.08,1.21,2.63,2.63,0,0,0,.48.81,2,2,0,0,0,.6.47,1,1,0,0,0,.47.17,1.76,1.76,0,0,0,.27,0c.11,0,.18-.18.23-.43a3.48,3.48,0,0,1,1.49-2,20.92,20.92,0,0,1,2.83-1.78c1-.54,1.95-1,2.77-1.43s1.26-.76,1.31-1,.09-.62.13-1a4.62,4.62,0,0,0,0-1.12,2.16,2.16,0,0,0-.36-.93,1,1,0,0,0-.9-.38,5.23,5.23,0,0,0-1.87.47,1.6,1.6,0,0,0-.56-.09h-.57A26.32,26.32,0,0,0,132.22,4a63.49,63.49,0,0,0-8.9,3.35,88.29,88.29,0,0,0-9.6,5.19,64.89,64.89,0,0,0-9,6.66,43.9,43.9,0,0,0-6.52,7.14c-1.14.66-3.18,1.57-4,2.2a44.48,44.48,0,0,0-4,2.45c-1,.82-1.62,1.29-2.49,2l-2.17,1.67a7.88,7.88,0,0,1-.92.65,4.54,4.54,0,0,1,1-1.23c.57-.6,1.27-1.3,2.1-2.09l2.69-2.55,2.69-2.56c.82-.79,1.52-1.49,2.09-2.09a4.67,4.67,0,0,0,1-1.23,1.41,1.41,0,0,0-.17-.76,6.05,6.05,0,0,0-.62-1.08,4.46,4.46,0,0,0-1-1,2.17,2.17,0,0,0-1.12-.44c-.37,0-1.1.5-2.2,1.55A23.22,23.22,0,0,0,92,19.63a5.61,5.61,0,0,0,.3-2,2.19,2.19,0,0,0-.51-1.38,2,2,0,0,0-1.5-.57,6.22,6.22,0,0,0-2.15.55A28.42,28.42,0,0,0,84.64,18a46.33,46.33,0,0,0-4.2,2.68,36.25,36.25,0,0,0-4.26,3.53,27.88,27.88,0,0,0-3.64,4.26,16.83,16.83,0,0,0-2.37,4.88A4,4,0,0,0,70,35a3.12,3.12,0,0,0,.42,1.22,2.14,2.14,0,0,0,.77.7,2,2,0,0,0,.9.27A5.28,5.28,0,0,0,74,36.87a25.38,25.38,0,0,0,2.53-1c.9-.4,1.81-.86,2.75-1.39s1.82-1,2.64-1.56A7.9,7.9,0,0,0,81,34.4a2.53,2.53,0,0,0,0,1.16A8.16,8.16,0,0,0,81.44,37a6.72,6.72,0,0,0,.63,1.26c.23.34.44.52.62.52a4.23,4.23,0,0,0,1.86-.71c.87-.49,2.25-2.08,3.36-2.86,0,0,5.54-4.2,8.58-6.16a20.22,20.22,0,0,0-2.4,6.55c-.39,2.16-.19,3.67.58,4.54A4.21,4.21,0,0,0,98,41.46a16,16,0,0,0,5.18-1.12,47.63,47.63,0,0,0,6-2.74c2-1.09,4-2.26,5.94-3.49s3.54-2.38,4.88-3.43q-4.17,3.38-7.08,5.78t-4.84,4.07a37.51,37.51,0,0,0-2.83,2.66,3.91,3.91,0,0,0-1,1.52,1.37,1.37,0,0,0,.51,1.29,5.87,5.87,0,0,0,1.48,1,7.49,7.49,0,0,0,1.56.52c.47.1.72.08.74,0a6.89,6.89,0,0,1,1.23-2.66,22.83,22.83,0,0,1,2.51-2.9c1-1,2.09-2,3.29-3s2.38-2,3.55-3" transform="translate(0 0)"/><path class="cls-3" d="M68.82,23.88a25.4,25.4,0,0,1-2.08,2.55q-1.38,1.53-3.2,3.26t-3.63,3.2a25.73,25.73,0,0,1-3.43,2.37,4.51,4.51,0,0,1-2.62.76c-.23,0-.24-.43,0-1.21a20.74,20.74,0,0,1,1-2.66,33.32,33.32,0,0,1,1.59-3A11.57,11.57,0,0,1,58,27a20.89,20.89,0,0,1,2.64-1.51c1.08-.53,2.18-1,3.29-1.42a29.43,29.43,0,0,1,3.1-1,6.1,6.1,0,0,1,2.12-.28c.24,0,.12.4-.35,1.08m3,4.4A11.84,11.84,0,0,0,74,23.79a3.58,3.58,0,0,0,0-1.68,3.17,3.17,0,0,0-.55-1.23,2.89,2.89,0,0,0-.9-.77,2.81,2.81,0,0,0-.95-.34,7,7,0,0,0-2.22.15c-.93.17-1.93.41-3,.71a32.85,32.85,0,0,0-3.21,1.09q-1.61.63-2.85,1.26c.68-.74,1.34-1.49,2-2.22s2.35-2.24,4.35-4.06c.15-.11.29-.23.45-.33a1.92,1.92,0,0,0,.44-.48,81.6,81.6,0,0,1,6.86-5.81c2.26-1.44,6.21-4.75,5.22-5.77s-3.6-2.26-5.26-1.49S60.53,15.88,60.53,15.88h0c-1.68,1.39-3.3,2.83-4.88,4.31a62.83,62.83,0,0,0-5.95,6.45,30.59,30.59,0,0,0-2,2.77l-1.42,1-3.22,2.33L40,35c-.94.67-1.73,1.22-2.36,1.65a5.14,5.14,0,0,1-1,.64,5.66,5.66,0,0,1,1.37-2q1.23-1.36,3-3.06t3.8-3.53l3.79-3.47c1.17-1.08,2.16-2,3-2.8a5.07,5.07,0,0,0,1.28-1.56,2.71,2.71,0,0,0-.19-1.39,6.88,6.88,0,0,0-.84-1.61,6.28,6.28,0,0,0-1.21-1.3A2.08,2.08,0,0,0,49.27,16a6.76,6.76,0,0,0-1.18.3L45.63,17l-3.19,1c-1.16.36-2.27.68-3.33,1s-2,.53-2.89.73a9.28,9.28,0,0,1-1.9.29c-.41,0-.63.16-.66.46a2.39,2.39,0,0,0,.18,1,3.26,3.26,0,0,0,.66,1,1.2,1.2,0,0,0,.83.44h.56a4.7,4.7,0,0,0,.62,0L34.29,24.8a16,16,0,0,0-1.21,1.28c-1.88,1.79-4.46,3.9-5.83,5.26-4.38,4.4-9.17,9-14.08,12.19.11-.14.21-.29.31-.43.88-1.25,1.78-2.48,2.72-3.69.82-1.06,1.68-2.17,2.56-3.33s1.75-2.19,2.57-3.09L25,28.74c1.45-1.7,3-3.49,4.55-5.37l4.77-5.7q2.4-2.88,4.4-5.29l3.45-4.14C43.1,7.09,43.72,6.33,44,6q-.32-.93-.6-1.68c-.19-.43-.4-.84-.62-1.25a1.47,1.47,0,0,0-.7-.75l-.43,0a1.15,1.15,0,0,0-.6.08q-3.74,3.54-7.41,7.23-3.16,3.16-6.72,7t-6.45,7.42Q17,26.22,14.15,28.25c-.84.57-1.67,1.15-2.5,1.74s-1.59,1.14-2.29,1.65-1.32,1-1.87,1.43-.92.75-1.14,1a1.09,1.09,0,0,1,.12-.68A5.58,5.58,0,0,1,7,32.21c.26-.46.66-1.11,1.23-2q2.4-3.6,5-6.94c.73-1,1.5-1.93,2.3-2.91s1.64-2,2.5-2.91,1.72-1.85,2.58-2.7a27.88,27.88,0,0,1,2.56-2.24L25,11l1.41-1.16A11.4,11.4,0,0,0,27.33,9l1-1.32a15.09,15.09,0,0,0,.8-1.33,5.41,5.41,0,0,0,.54-1.46,11.88,11.88,0,0,0-1.05-2.34A8.76,8.76,0,0,0,27.23.89,3.12,3.12,0,0,0,25.36,0q-3.7,3.65-7.18,7.41-3,3.23-6.16,7a79.75,79.75,0,0,0-5.41,7.15,58.56,58.56,0,0,0-3.87,6.21c-.46.85-.88,1.72-1.28,2.61A23.29,23.29,0,0,0,.5,33,11.09,11.09,0,0,0,0,35.39a3.89,3.89,0,0,0,.27,2,4.3,4.3,0,0,0,1.28.86,3.35,3.35,0,0,0,1.35.4,2.66,2.66,0,0,0,1.59-.32c2.31-1.9,4.42-3.63,6.33-5.17.8-.65,1.59-1.29,2.37-1.94l2.14-1.75L17,28.1l.84-.7q-1.56,1.92-3,4c-.81,1.18-1.67,2.51-2.58,4a27.9,27.9,0,0,0-1.78,3.42A39,39,0,0,0,8.3,45.33a3.87,3.87,0,0,0-.06.84,2.35,2.35,0,0,0,.11.68,1.66,1.66,0,0,0,.27.53,1,1,0,0,0,.1.28l.09-.07a.8.8,0,0,0,.17.15A1.81,1.81,0,0,0,10,48a3.85,3.85,0,0,0,1.51-.37,13.2,13.2,0,0,0,1.73-.93c5.66-3.55,10.94-8.59,15.65-13.31,1.86-1.85,4.81-4.73,6.53-6.72h0l.57-.46q1.22-1,2.43-2l2.23-1.88c.89-.14,1.8-.31,2.73-.49l2.22-.45a5,5,0,0,1-1.08,1.43c-.68.73-1.5,1.6-2.47,2.61s-2,2.1-3.19,3.26S36.63,31,35.66,32s-1.82,2-2.51,2.78A5.29,5.29,0,0,0,32,36.5a1.8,1.8,0,0,0,.19,1,4.52,4.52,0,0,0,.79,1.2,5.11,5.11,0,0,0,1.27,1,3.23,3.23,0,0,0,1.65.43,4.51,4.51,0,0,0,1.77-.75c.85-.5,1.82-1.13,2.93-1.88s2.26-1.59,3.48-2.49l1.63-1.22a3.18,3.18,0,0,0,0,.68,2.27,2.27,0,0,0,.37,1.1,1.92,1.92,0,0,0,.72.64,2.6,2.6,0,0,0,.79.26,1.23,1.23,0,0,0,1-.35A8.79,8.79,0,0,0,49.59,35a16.27,16.27,0,0,0,1.12-1.48A13.39,13.39,0,0,1,51.94,32a15.42,15.42,0,0,0-.85,2.21,6.85,6.85,0,0,0-.32,2.05,2.49,2.49,0,0,0,.5,1.56,2.4,2.4,0,0,0,1.65.8,7.89,7.89,0,0,0,2.32-.3A28,28,0,0,0,59,37.11,41.42,41.42,0,0,0,63.52,35,31.65,31.65,0,0,0,68,32a22,22,0,0,0,3.73-3.75" transform="translate(0 0)"/><path class="cls-3" d="M194.66,46.35c-6.34-1-43.27-.11-58.62,3.39-4.57,1-8.41,1.8-11.58,2.46l3-3,2-2c.61-.55,2.29-2,4.23-3.68l.43-.29.09-.07c8.75-6.06,18.88-9.55,27.54-15.22-4.27,3.83-13.94,9.29-7.61,13.22,6.13-4.57,12-9.39,19.73-12.09-2.6,3.5-6.24,5.73-8.52,9.6,2.37,4.32,7.94-.17,11.15-4.27l1.07-1.42a41.84,41.84,0,0,1,5.73-2.55c-2.59,3.51-6.24,5.74-8.52,9.61,2.38,4.32,7.95-.17,11.16-4.27a41.54,41.54,0,0,0,5.46-8.54c-1.39-4.13-6.83-.85-10.12.7a3.36,3.36,0,0,1-.62.52,24.92,24.92,0,0,0,1.31-2.58c-1.52-4.51-7.84-.21-10.95,1.07.88-1.25,2.42-1.7,2.78-3.56a10,10,0,0,0-2.36-2.85c-3.35,1.72-5.61,2.95-9.1,4.83,0,0-1.48,1-1.48,1a16.91,16.91,0,0,0-1.68,1.05c-5.39,3.25-10.91,6.52-14.26,8.2,3.83-4.34,17.61-11.27,9.78-16.13-6.95,5.18-12.27,11.7-23.78,14.4,2.94-4,7.92-7.18,10.5-11.57-2.69-4.9-8.43.18-12.08,4.83-2.24,3-4.58,5.92-6.19,9.68,1.69,5,8.66.39,12.24-1.14-3.6,3.24-7.42,6.83-7.42,6.83h0c-1.62,1.25-3.21,2.55-4.73,3.9-2.18,1.93-6.06,4.13-7.76,6.13S113,55,112.75,56.91a4.89,4.89,0,0,0,.59,3.51c1,1,2.45,2.19,6.76,0,7.83-3.89,14.35-9.74,39.51-9.74s40.77.67,40.77.67.62-4-5.72-5" transform="translate(0 0)"/></g></g></g></svg>