<?xml version="1.0" encoding="utf-8"?>
<!-- Generator: Adobe Illustrator 16.0.3, SVG Export Plug-In . SVG Version: 6.00 Build 0)  -->
<!DOCTYPE svg PUBLIC "-//W3C//DTD SVG 1.1//EN" "http://www.w3.org/Graphics/SVG/1.1/DTD/svg11.dtd">
<svg version="1.1" id="Capa_1" xmlns="http://www.w3.org/2000/svg" xmlns:xlink="http://www.w3.org/1999/xlink" x="0px" y="0px"
	 width="595.279px" height="841.891px" viewBox="0 0 595.279 841.891" enable-background="new 0 0 595.279 841.891"
	 xml:space="preserve">
<g id="Layer_2">
	<g id="categorías">
		<path fill="#FC0000" d="M297.715,123.305C133.291,123.222-0.067,256.446-0.15,420.87
			C-0.233,585.293,132.99,718.652,297.414,718.735S595.197,585.595,595.28,421.171c0-0.051,0-0.101,0-0.15
			C595.031,256.758,461.977,123.636,297.715,123.305z M297.715,681.427C153.814,681.511,37.091,564.922,37.008,421.021
			c-0.083-143.902,116.505-260.625,260.406-260.708S558.039,276.817,558.122,420.72c0,0.1,0,0.2,0,0.301
			C557.873,564.736,441.431,681.179,297.715,681.427z M463.197,421.021c-0.163,10.218-8.579,18.369-18.797,18.206
			c-0.053-0.001-0.105-0.002-0.158-0.003H315.918v128.021c-0.925,10.261-9.991,17.83-20.253,16.905
			c-8.979-0.809-16.096-7.925-16.905-16.905V439.224H150.889c-10.262,0.924-19.328-6.645-20.253-16.906
			c-0.924-10.261,6.645-19.328,16.905-20.252c1.113-0.101,2.233-0.101,3.348,0H278.76V274.193
			c-0.924-10.261,6.645-19.328,16.905-20.252c10.262-0.924,19.328,6.645,20.253,16.905c0.1,1.114,0.1,2.234,0,3.347v127.872H443.94
			c10.219-0.17,18.639,7.977,18.809,18.194c0.004,0.254,0.003,0.507-0.004,0.761H463.197z"/>
	</g>
</g>
</svg>
