<svg xmlns="http://www.w3.org/2000/svg" viewBox="0 0 120.06 98.44"><defs><style>.cls-1{fill:#fff;}</style></defs><g id="Layer_2" data-name="Layer 2"><g id="categorías"><path class="cls-1" d="M118.4,58.38H104.83V46h8.49A1.72,1.72,0,0,0,115,44.24V12.39a1.72,1.72,0,0,0-1.66-1.78h-8.49V7.09a6.74,6.74,0,1,0-13.47,0v3.53H28.7V7.09A6.93,6.93,0,0,0,22,0a6.93,6.93,0,0,0-6.74,7.09v3.53H6.74a1.71,1.71,0,0,0-1.66,1.77V44.24A1.72,1.72,0,0,0,6.74,46h8.49V58.38H1.66A1.73,1.73,0,0,0,0,60.17V70.78a1.73,1.73,0,0,0,1.66,1.78H5.08v24.1a1.72,1.72,0,0,0,1.66,1.78H16.89a1.72,1.72,0,0,0,1.66-1.78V72.56h83V96.65a1.73,1.73,0,0,0,1.67,1.79h10.15A1.73,1.73,0,0,0,115,96.65V72.56h3.42a1.73,1.73,0,0,0,1.66-1.78V60.17A1.73,1.73,0,0,0,118.4,58.38ZM94.68,7.09a3.41,3.41,0,1,1,6.82,0v3.53H94.68Zm-76.13,0a3.42,3.42,0,1,1,6.83,0v3.53H18.55ZM8.41,14.18H111.66V26.54H8.41Zm0,28.28V30.1H111.66V42.46ZM101.5,46V58.38H94.68V46ZM91.36,46V58.38H28.7V46Zm-66,0V58.38H18.55V46ZM15.23,94.88H8.4V72.56h6.83Zm96.43,0h-6.83V72.56h6.83ZM116.73,69H3.33V61.94h113.4Z"/></g></g></svg>