<svg xmlns="http://www.w3.org/2000/svg" viewBox="0 0 39.57 39.57"><defs><style>.cls-1{fill:#fff;}</style></defs><g id="Layer_2" data-name="Layer 2"><g id="categorías"><path class="cls-1" d="M19.79,0A19.79,19.79,0,1,0,39.57,19.79,19.82,19.82,0,0,0,19.79,0Zm0,37.1A17.32,17.32,0,1,1,37.1,19.79,17.34,17.34,0,0,1,19.79,37.1Zm11-17.31A1.23,1.23,0,0,1,29.53,21H21v8.51a1.24,1.24,0,0,1-2.47,0V21h-8.5a1.24,1.24,0,1,1,0-2.47h8.5v-8.5a1.24,1.24,0,1,1,2.47,0v8.5h8.51A1.23,1.23,0,0,1,30.76,19.79Z"/></g></g></svg>