<svg xmlns="http://www.w3.org/2000/svg" viewBox="0 0 131.95 101.67"><defs><style>.cls-1{fill:#fff;}</style></defs><g id="Layer_2" data-name="Layer 2"><g id="categorías"><path class="cls-1" d="M97.48,7.15c1.57,0,3.08,0,4.58,0,1,0,1.32.28,1.55,1.23,1,4,2.07,8,3.14,12.05,2.06,7.75,4.16,15.5,6.21,23.25,1.9,7.15,3.75,14.31,5.65,21.45q3.11,11.7,6.24,23.39c1,3.79,2,7.59,3.05,11.36.42,1.48,1.43,2.06,2.66,1.72a2.32,2.32,0,0,0,1.31-2.81q-2.07-7.92-4.18-15.83-3.12-11.68-6.25-23.38c-1.8-6.76-3.57-13.52-5.36-20.27q-3.1-11.7-6.24-23.39c-1.29-4.79-2.56-9.58-3.88-14.36A1.9,1.9,0,0,0,103.46.1,2.12,2.12,0,0,0,102,2.67c.07.28.1.56.16.89H97.51l-.2-1.48H94l-.13,1.45H78.7l-.15-1.46H75.22L75,3.55H56.88l-.14-1.49H53.37l-.14,1.5H38.13l-.21-1.47H34.59l-.14,1.43H29.89a8,8,0,0,0,0-2.09A2,2,0,0,0,27.75,0c-1.49,0-1.75,1.16-2,2.18-1.56,5.79-3.06,11.6-4.59,17.4Q17.9,31.9,14.62,44.19C12.75,51.25,10.91,58.32,9,65.38Q4.59,82,.11,98.69a2.22,2.22,0,0,0,1.32,2.89c1.25.31,2.13-.28,2.62-1.77.12-.34.2-.69.29-1,1-3.66,1.92-7.32,2.9-11,2.06-7.71,4.15-15.41,6.2-23.12,1.81-6.8,3.55-13.61,5.35-20.41Q22,32,25.34,19.69c1.11-4.17,2.24-8.33,3.35-12.45h5.79l.1,2H38l.17-2H53.25l.13,2h3.38l.13-2H75.06l.14,2h3.38l.12-2H93.83l.16,2h3.37Zm-63,4.57V77.27L33,77.49v3.83H58.13V77.44l-1.35-.15V11.75H53.23V77.26H38V11.72Zm59.38,0V77.29H78.6V11.75H75.11V77.23l-1.28.3v3.82H99V77.46l-1.65-.21V11.72Z"/></g></g></svg>