<svg xmlns="http://www.w3.org/2000/svg" viewBox="0 0 109.68 111.58"><defs><style>.cls-1{fill:#fff;}</style></defs><g id="Layer_2" data-name="Layer 2"><g id="categorías"><path class="cls-1" d="M104.76,0H4.93A5,5,0,0,0,0,5V66.62H0v7a5,5,0,0,0,4.93,5H27.68a1.64,1.64,0,0,0,0-3.27H4.93a1.72,1.72,0,0,1-1.71-1.74V65.38h0V5A1.72,1.72,0,0,1,4.93,3.28h99.83A1.71,1.71,0,0,1,106.46,5V73.64a1.72,1.72,0,0,1-1.7,1.74H82.42a1.64,1.64,0,0,0,0,3.27h22.34a5,5,0,0,0,4.92-5V5A5,5,0,0,0,104.76,0Z"/><path class="cls-1" d="M83.61,68.83a1.64,1.64,0,0,0,0,3.28h18a1.63,1.63,0,0,0,1.61-1.64V8.19a1.62,1.62,0,0,0-1.61-1.64H8A1.62,1.62,0,0,0,6.43,8.18V70.47A1.62,1.62,0,0,0,8,72.1H26.5a1.64,1.64,0,0,0,0-3.27H9.65v-59H100v59Z"/><path class="cls-1" d="M84.62,63.52a4,4,0,0,0,3.93-4V55.83a4,4,0,0,0-3.93-4H25.06a4,4,0,0,0-3.93,4v3.69a4,4,0,0,0,3.93,4h2.08l4.66,5.77,3.87,40.82a1.61,1.61,0,1,0,3.2-.32L38.33,104l1.4-1.29a82.61,82.61,0,0,0,6,8.05,2.11,2.11,0,0,0,1.49.72h.1a2.18,2.18,0,0,0,1.46-.59l.29-.29q3.11-3,6-6.13,3,3.31,6.26,6.42a2.15,2.15,0,0,0,1.46.59h.09a2.09,2.09,0,0,0,1.49-.71l.69-.78a69.9,69.9,0,0,0,5.37-7.25L71.78,104l-.54,5.76a1.63,1.63,0,0,0,1.44,1.79h.16a1.62,1.62,0,0,0,1.6-1.47l3.87-40.82L83,63.52ZM25.06,60.25a.72.72,0,0,1-.71-.73V55.83a.72.72,0,0,1,.71-.73H84.62a.72.72,0,0,1,.71.73v3.69a.72.72,0,0,1-.71.73ZM46.88,74.08q-2.54,3.44-5.28,6.7-1.93-3.27-3.75-6.73Q40.5,70.81,43,67.4,44.85,70.81,46.88,74.08ZM45,64.46c.22-.31.43-.62.64-.94h6.69l.78,1.33q-2,3.25-4.22,6.39C47.57,69,46.28,66.76,45,64.46ZM48.74,77q2.07,3.14,4.29,6.17-2.64,3.47-5.5,6.77-2.14-3-4.15-6.24Q46.17,80.43,48.74,77Zm2.06-2.79q2.21-3.09,4.26-6.3,2,3.21,4.26,6.3-2.05,3.18-4.26,6.24Q52.84,77.39,50.8,74.21ZM57,64.85c.27-.44.53-.88.79-1.33h6.69l.63.94c-1.23,2.3-2.53,4.56-3.88,6.78Q59,68.11,57,64.85ZM61.36,77q2.6,3.44,5.37,6.71-2,3.21-4.14,6.24-2.87-3.3-5.51-6.78Q59.3,80.14,61.36,77Zm1.87-2.92q2-3.27,3.91-6.68,2.46,3.41,5.12,6.66-1.82,3.45-3.75,6.73Q65.77,77.52,63.23,74.08ZM34.8,67.93l-.06-.12v0a1.18,1.18,0,0,0-.13-.18v0L31.3,63.52h9.61l.35.7c-1.61,2.27-3.28,4.5-5,6.67C35.75,69.92,35.27,68.93,34.8,67.93Zm1,9.07q1.76,3.25,3.62,6.37c-.89,1-1.8,2-2.73,3Zm4.05,20c-.86-1.33-1.69-2.59-2.51-3.8l-.24-2.54q2.1-2.16,4.11-4.41,2,3.16,4.15,6.18c-1.63,1.79-3.32,3.55-5,5.27Zm7.6,10.75c-1.83-2.2-3.59-4.72-5.32-7.29,1.78-1.75,3.51-3.53,5.19-5.37q2.7,3.61,5.62,7C51.13,104,49.3,105.92,47.41,107.75Zm2.07-15.11q2.9-3.31,5.58-6.79,2.69,3.48,5.58,6.8-2.69,3.6-5.57,7Q52.16,96.25,49.48,92.64Zm13.24,15.12c-1.89-1.84-3.72-3.73-5.49-5.69q2.91-3.36,5.61-7c1.69,1.84,3.43,3.63,5.21,5.39A69.64,69.64,0,0,1,62.72,107.76ZM72.81,93.2c-.87,1.29-1.75,2.65-2.67,4.08l-.28.44q-2.6-2.58-5.06-5.28c1.42-2,2.81-4.07,4.15-6.19q2,2.25,4.1,4.41Zm.65-6.82c-.93-1-1.84-2-2.73-3q1.86-3.11,3.62-6.37Zm2.06-18.79s0,0,0,0l-.06.09a1,1,0,0,0-.08.14l0,.06q-.7,1.5-1.44,3c-1.74-2.18-3.42-4.41-5-6.68l.35-.7h9.61Z"/><path class="cls-1" d="M78.51,48.55a1.62,1.62,0,0,0,1.61-1.63v-19a3.76,3.76,0,0,0-3.72-3.78H33.28a3.75,3.75,0,0,0-3.72,3.78v19a1.61,1.61,0,1,0,3.22,0v-19a.51.51,0,0,1,.5-.51H76.4a.51.51,0,0,1,.5.51v19A1.62,1.62,0,0,0,78.51,48.55Z"/></g></g></svg>