<?xml version="1.0" encoding="UTF-8"?>
<svg id="Capa_2" data-name="Capa 2" xmlns="http://www.w3.org/2000/svg" viewBox="0 0 42.9 42.9">
  <defs>
    <style>
      .cls-1 {
        fill: #fff;
      }

      .cls-2 {
        fill: #c71522;
      }
    </style>
  </defs>
  <g id="Menú">
    <circle class="cls-2" cx="21.45" cy="21.45" r="21.45"/>
    <g>
      <path class="cls-1" d="m26.41,28.65c-1.27,0-2.31,1.02-2.31,2.31s1.02,2.31,2.31,2.31,2.31-1.02,2.31-2.31c-.02-1.27-1.04-2.31-2.31-2.31Z"/>
      <path class="cls-1" d="m32.12,15.23c-.05,0-.14-.03-.22-.03H14.66l-.27-1.83c-.16-1.2-1.2-2.11-2.44-2.11h-2.22c-.6,0-1.1.49-1.1,1.1s.49,1.1,1.1,1.1h2.22c.14,0,.25.11.27.25l1.7,11.55c.22,1.45,1.48,2.55,2.96,2.55h11.39c1.42,0,2.66-1.01,2.96-2.41l1.78-8.9c.11-.57-.27-1.15-.88-1.26Z"/>
      <path class="cls-1" d="m20.74,30.85c-.04-1.22-1.07-2.2-2.29-2.2-1.29.07-2.27,1.13-2.22,2.4.04,1.22,1.04,2.2,2.27,2.2h.04c1.27-.07,2.27-1.13,2.2-2.4Z"/>
    </g>
  </g>
</svg>