<?xml version="1.0" encoding="UTF-8"?>
<svg id="Capa_2" data-name="Capa 2" xmlns="http://www.w3.org/2000/svg" viewBox="0 0 31.83 31.83">
  <defs>
    <style>
      .cls-1 {
        fill: #c71522;
        stroke-width: 0px;
      }

      .cls-2 {
        isolation: isolate;
      }
    </style>
  </defs>
  <g id="Carcterísticas" class="cls-2">
    <g id="Textos">
      <g>
        <path class="cls-1" d="M15.92,1c8.23,0,14.92,6.69,14.92,14.92s-6.69,14.92-14.92,14.92S1,24.14,1,15.92,7.69,1,15.92,1M15.92,0C7.13,0,0,7.13,0,15.92s7.13,15.92,15.92,15.92,15.92-7.13,15.92-15.92S24.71,0,15.92,0h0Z"/>
        <path class="cls-1" d="M6.2,11.21c.12-.29.21-.6.38-.85.4-.57.98-.81,1.67-.81,1.66,0,3.33,0,4.99,0,3.44,0,6.88,0,10.32,0,.69,0,1.26.23,1.68.79.27.35.39.76.39,1.2,0,1.81,0,3.62,0,5.43,0,1.09,0,2.19,0,3.28,0,1.18-.83,2.02-2.01,2.03-5.13,0-10.27,0-15.4,0-1.01,0-1.83-.71-1.98-1.61,0-.02-.02-.03-.03-.05,0-3.14,0-6.27,0-9.41ZM8.69,10.85c.07.07.11.12.16.16,2.26,2.26,4.51,4.52,6.77,6.77.25.25.36.25.6,0,2.26-2.26,4.52-4.52,6.78-6.79.04-.04.08-.09.14-.16h-14.45ZM18.79,17s-.07.11-.12.16c-.52.52-1.04,1.05-1.57,1.57-.71.71-1.64.71-2.35,0-.53-.52-1.06-1.05-1.58-1.58-.05-.05-.1-.09-.12-.11-1.33,1.33-2.64,2.64-3.94,3.94h13.66c-1.32-1.32-2.63-2.63-3.98-3.98ZM12.03,16.11c-1.51-1.51-3.03-3.03-4.53-4.53,0-.01,0,.01,0,.04,0,2.9,0,5.8,0,8.71,0,.09.03.19.05.28,1.52-1.52,3.02-3.02,4.49-4.49ZM19.8,16.07c1.49,1.49,2.99,2.99,4.49,4.49.06-.13.09-8.71.03-9.01-1.51,1.51-3.03,3.03-4.52,4.52Z"/>
      </g>
    </g>
  </g>
</svg>