<?xml version="1.0" encoding="UTF-8"?>
<svg id="Capa_2" data-name="Capa 2" xmlns="http://www.w3.org/2000/svg" viewBox="0 0 20.7 13.56">
  <defs>
    <style>
      .cls-1 {
        fill: #c8414b;
      }

      .cls-2 {
        fill: #f5f5f5;
      }

      .cls-3 {
        fill: #5064aa;
      }

      .cls-4 {
        fill: #fab446;
      }

      .cls-5 {
        fill: #ffd250;
      }

      .cls-6 {
        fill: #ffa0d2;
      }

      .cls-7 {
        fill: #ffb441;
      }
    </style>
  </defs>
  <g id="Cabecera">
    <g>
      <path class="cls-1" d="m.36,13.56h19.99c.2,0,.36-.16.36-.36V.36c0-.2-.16-.36-.36-.36H.36c-.2,0-.36.16-.36.36v12.85c0,.2.16.36.36.36Z"/>
      <rect class="cls-5" y="2.86" width="20.7" height="7.85"/>
      <path class="cls-1" d="m8.75,6.78l.3-1.36c.03-.13-.07-.24-.2-.24h-.21c-.13,0-.22.12-.2.24l.3,1.36Z"/>
      <rect class="cls-2" x="8.39" y="6.07" width=".71" height="3.03"/>
      <rect class="cls-4" x="8.21" y="5.71" width="1.07" height=".36"/>
      <g>
        <rect class="cls-1" x="7.5" y="6.78" width="1.78" height=".36"/>
        <polygon class="cls-1" points="9.28 8.21 8.21 7.85 8.21 7.5 9.28 7.85 9.28 8.21"/>
        <path class="cls-1" d="m3.39,6.78l.3-1.36c.03-.13-.07-.24-.2-.24h-.21c-.13,0-.22.12-.2.24l.3,1.36Z"/>
      </g>
      <path class="cls-2" d="m4.64,5.71c-.2,0-.36.16-.36.36v2.32c0,.43.4,1.25,1.78,1.25s1.78-.82,1.78-1.25v-2.32c0-.2-.16-.36-.36-.36h-2.86Z"/>
      <g>
        <path class="cls-1" d="m6.07,7.5h-1.78v-1.43c0-.2.16-.36.36-.36h1.43v1.78Z"/>
        <path class="cls-1" d="m6.07,7.5h1.78v.89c0,.49-.4.89-.89.89h0c-.49,0-.89-.4-.89-.89v-.89Z"/>
      </g>
      <path class="cls-4" d="m4.28,7.5h1.78v.89c0,.49-.4.89-.89.89h0c-.49,0-.89-.4-.89-.89v-.89Z"/>
      <g>
        <path class="cls-1" d="m5.71,9.1v-1.6h-.36v1.77c.13-.03.25-.09.36-.16Z"/>
        <path class="cls-1" d="m5,9.26v-1.77h-.36v1.6c.1.08.22.14.36.16Z"/>
      </g>
      <rect class="cls-7" x="4.64" y="6.78" width="1.07" height=".36"/>
      <g>
        <rect class="cls-4" x="4.64" y="6.07" width="1.07" height=".36"/>
        <rect class="cls-4" x="4.82" y="6.28" width=".71" height=".65"/>
      </g>
      <rect class="cls-2" x="3.03" y="6.07" width=".71" height="3.03"/>
      <g>
        <rect class="cls-4" x="2.86" y="8.92" width="1.07" height=".36"/>
        <rect class="cls-4" x="2.86" y="5.71" width="1.07" height=".36"/>
      </g>
      <rect class="cls-3" x="2.68" y="9.28" width="1.43" height=".36"/>
      <rect class="cls-4" x="8.39" y="8.92" width="1.07" height=".36"/>
      <rect class="cls-3" x="8.03" y="9.28" width="1.43" height=".36"/>
      <rect class="cls-4" x="5" y="5.35" width="2.14" height=".36"/>
      <rect class="cls-7" x="5.89" y="4.28" width=".36" height="1.07"/>
      <g>
        <path class="cls-2" d="m5.71,4.82c-.3,0-.54-.24-.54-.54s.24-.54.54-.54.54.24.54.54c0,.3-.24.54-.54.54Zm0-.71c-.1,0-.18.08-.18.18s.08.18.18.18.18-.08.18-.18-.08-.18-.18-.18Z"/>
        <path class="cls-2" d="m6.43,4.82c-.3,0-.54-.24-.54-.54s.24-.54.54-.54.54.24.54.54-.24.54-.54.54Zm0-.71c-.1,0-.18.08-.18.18s.08.18.18.18.18-.08.18-.18c0-.1-.08-.18-.18-.18Z"/>
        <path class="cls-2" d="m7.14,5.18c-.3,0-.54-.24-.54-.54s.24-.54.54-.54.54.24.54.54-.24.54-.54.54Zm0-.71c-.1,0-.18.08-.18.18s.08.18.18.18.18-.08.18-.18-.08-.18-.18-.18Z"/>
        <path class="cls-2" d="m5,5.18c-.3,0-.54-.24-.54-.54s.24-.54.54-.54.54.24.54.54c0,.3-.24.54-.54.54Zm0-.71c-.1,0-.18.08-.18.18s.08.18.18.18.18-.08.18-.18-.08-.18-.18-.18Z"/>
      </g>
      <path class="cls-4" d="m7.14,8.21v.18c0,.1-.08.18-.18.18s-.18-.08-.18-.18v-.18h.36m.36-.36h-1.07v.54c0,.3.24.54.54.54s.54-.24.54-.54v-.54h0Z"/>
      <path class="cls-6" d="m6.96,7.14h0c-.2,0-.36-.16-.36-.36v-.36c0-.2.16-.36.36-.36h0c.2,0,.36.16.36.36v.36c0,.2-.16.36-.36.36Z"/>
      <circle class="cls-3" cx="6.07" cy="7.5" r=".54"/>
      <rect class="cls-4" x="5.89" y="3.57" width=".36" height="1.07"/>
      <path class="cls-1" d="m5,5.35l-.36-.36.21-.21c.32-.32.76-.5,1.22-.5h0c.46,0,.9.18,1.22.5l.21.21-.36.36h-2.14Z"/>
      <g>
        <circle class="cls-5" cx="6.07" cy="5" r=".18"/>
        <circle class="cls-5" cx="5.35" cy="5" r=".18"/>
        <circle class="cls-5" cx="6.78" cy="5" r=".18"/>
      </g>
      <g>
        <rect class="cls-1" x="2.86" y="6.78" width="1.78" height=".36"/>
        <polygon class="cls-1" points="2.86 8.21 3.93 7.85 3.93 7.5 2.86 7.85 2.86 8.21"/>
      </g>
    </g>
  </g>
</svg>