<?xml version="1.0" encoding="UTF-8"?>
<svg id="Capa_2" data-name="Capa 2" xmlns="http://www.w3.org/2000/svg" viewBox="0 0 9.84 18.96">
  <defs>
    <style>
      .cls-1 {
        fill: #959ca3;
      }
    </style>
  </defs>
  <g id="Cabecera">
    <path class="cls-1" d="m8.22,0c.32.02.64.05.96.07.22.02.44.04.67.06v3.02c-.09,0-.17,0-.26,0-.64,0-1.27,0-1.91.03-.79.04-1.23.46-1.26,1.25-.04.83,0,1.65,0,2.51h3.32c-.15,1.14-.29,2.25-.44,3.38h-2.9v8.64h-3.49v-8.64H0v-3.38h2.91c0-.1,0-.17,0-.24,0-.88-.02-1.77.02-2.65.04-1.06.36-2.04,1.11-2.83.57-.6,1.28-.95,2.09-1.12C6.33.07,6.55.04,6.77,0c.48,0,.96,0,1.45,0Z"/>
  </g>
</svg>