<?xml version="1.0" encoding="UTF-8"?>
<svg id="Capa_2" data-name="Capa 2" xmlns="http://www.w3.org/2000/svg" viewBox="0 0 89.81 39.58">
  <defs>
    <style>
      .cls-1 {
        fill: #fff;
      }

      .cls-1, .cls-2, .cls-3, .cls-4, .cls-5, .cls-6, .cls-7, .cls-8, .cls-9 {
        fill-rule: evenodd;
      }

      .cls-2 {
        fill: #48aa6a;
      }

      .cls-3 {
        fill: #d2b22c;
      }

      .cls-4 {
        fill: #48545c;
      }

      .cls-5 {
        fill: #ebbb8c;
      }

      .cls-6 {
        fill: #cf4037;
      }

      .cls-7 {
        fill: #a8afb5;
      }

      .cls-8 {
        fill: #0098d6;
      }
    </style>
  </defs>
  <g id="Texto">
    <g id="Capa_16" data-name="Capa 16">
      <g>
        <path class="cls-9" d="m37.79,34.92c-.82.92-1.55,1.21-2.32,1.21-.31,0-1.08-.15-1.5-.86-.36-.63-.42-1.58-.42-2.17,0-1.67.38-3.17,1.82-3.17,1.12,0,1.95,1.15,2.29,2.01h.25v-2.3h-.27c-.1.25-.19.45-.45.45s-1.01-.48-1.9-.48c-2.06,0-3.48,1.54-3.48,3.54,0,1.84,1.24,3.46,3.53,3.46,1.26,0,2.03-.62,2.74-1.44l-.29-.25h0Zm7.41,1.25c-.47.02-.63-.32-1.07-1.37l-2.19-5.18h-.27l-2.18,5.4c-.3.74-.43,1.07-.96,1.15v.25h2v-.25c-.33-.02-.81-.05-.81-.42,0-.16.16-.56.43-1.27h2.21c.14.32.45,1.04.45,1.31,0,.33-.18.33-.79.38v.25h3.19v-.25Zm-4.92-2.08l.92-2.39.99,2.39h-1.92,0Zm5.4,2.33h2.23v-.25c-.73-.08-.93-.27-.93-.98v-3.94h.02l4.38,5.34h.28v-5.8c0-.47.06-.7.77-.79v-.25h-2.12v.25c.8.06.91.38.91.98v2.99h-.02l-3.41-4.21h-2.08v.25c.13,0,.29.03.84.71v4.67c0,.65-.28.72-.87.79v.25Zm11.99-.25c-.73-.05-.96-.07-.96-.91v-5.19c.68.04,1.69.09,1.89,1.67h.29l-.02-1.98h-5.9l-.03,1.98h.29c.2-1.58,1.21-1.63,1.9-1.67v5.19c0,.83-.24.85-.95.91v.25h3.51v-.25h0Zm7.56,0c-.47.02-.63-.32-1.07-1.37l-2.19-5.18h-.28l-2.18,5.4c-.3.74-.43,1.07-.96,1.15v.25h2v-.25c-.33-.02-.81-.05-.81-.42,0-.16.16-.56.43-1.27h2.21c.14.32.45,1.04.45,1.31,0,.33-.18.33-.79.38v.25h3.19v-.25h0Zm-4.92-2.08l.92-2.39.99,2.39h-1.92Zm7.84-1.05h.29c.64.03,1.5.18,1.5,1.59,0,.6-.13,1.48-1.21,1.48-.41,0-.59-.16-.59-.6v-2.46Zm0-2.5c0-.23.02-.48.52-.48.8,0,1.01.58,1.01,1.27,0,1-.22,1.42-1.53,1.42v-2.21Zm-2.44,5.88h3.17c2.08-.04,2.76-1.01,2.76-1.83,0-1.12-1.03-1.62-1.86-1.75v-.02c.41-.13,1.52-.38,1.52-1.48,0-1.54-2.01-1.58-2.56-1.58h-3.04v.25c.45.03.87.05.87.7v4.77c0,.6-.32.64-.87.7v.25h0Zm9.12-5.91c.05-.31.07-.41.61-.41.79,0,1.19.42,1.19,1.42,0,1.28-.51,1.5-1.8,1.51v-2.51h0Zm4.32,5.66c-.12,0-.27-.01-.4-.19l-1.98-2.81c.53-.17,1.54-.47,1.54-1.68,0-1.66-2.09-1.73-2.77-1.73h-3.17v.25c.56.04.87.06.87.91v4.35c0,.8-.2.83-.87.91v.25h3.32v-.25c-.65-.09-.87-.12-.87-.91v-1.93h.27l2.04,3.08h2.02v-.25h0Zm3.71,0c-.54-.04-.93-.07-.93-.7v-4.77c0-.67.47-.68.93-.7v-.25h-3.44v.25c.45.03.92.05.92.7v4.77c0,.61-.38.65-.92.7v.25h3.44v-.25Zm6.96,0c-.47.02-.63-.32-1.07-1.37l-2.19-5.18h-.28l-2.18,5.4c-.3.74-.43,1.07-.96,1.15v.25h2v-.25c-.33-.02-.81-.05-.81-.42,0-.16.16-.56.43-1.27h2.21c.14.32.45,1.04.45,1.31,0,.33-.18.33-.79.38v.25h3.19v-.25h0Zm-4.92-2.08l.92-2.39.99,2.39h-1.92Zm-48.32-9.91c-.56-.02-.58-.31-.58-.57v-5.66h-2.11v.24c.54.04.75.05.75.57v1.8c-.24-.26-.57-.61-1.16-.61-.92,0-1.9.82-1.9,2.53,0,1.44.9,2.27,1.72,2.27.74,0,1.01-.28,1.37-.65v.64c.61-.17.7-.18,1.92-.33v-.23h0Zm-1.95-.68c0,.11-.36.69-.82.69-.79,0-.79-1.28-.79-1.85,0-.96.14-1.84.84-1.84.55,0,.77.6.77.61v2.39Zm3.77-1.67c0-1.36.33-1.58.7-1.58.34,0,.47.25.53.46.08.3.08.81.09,1.11h-1.32Zm2.34,1.55c-.19.23-.53.66-1.11.66-.93,0-1.15-1.01-1.18-1.84h2.48c-.03-.53-.16-2.25-1.87-2.25-1.13,0-2.03.93-2.03,2.38,0,1.68,1,2.41,2,2.41.79,0,1.35-.32,1.95-1.23l-.24-.14h0Zm-1.99-13.41h-3.37v.25c.68.04.99.06.99.69v1.03c0,.42-.16.72-1.02.72-1.86,0-1.92-2.45-1.92-3.15,0-1.69.39-3.19,1.82-3.19,1.12,0,1.95,1.15,2.29,2.01h.25v-2.31h-.27c-.1.25-.19.45-.45.45s-1.01-.48-1.9-.48c-2.12,0-3.48,1.6-3.48,3.54,0,1.71,1.1,3.46,3.56,3.46.86,0,2.18-.28,2.66-.61v-1.25c0-.81.24-.84.85-.91v-.25h0,0Zm4.05-3.66c1.38,0,1.74,1.73,1.74,3.17,0,.86-.06,3.17-1.74,3.17s-1.74-2.32-1.74-3.17c0-1.44.36-3.17,1.74-3.17Zm0-.33c-1.9,0-3.48,1.35-3.48,3.5s1.47,3.5,3.48,3.5,3.48-1.43,3.48-3.5-1.58-3.5-3.48-3.5Zm6.42,3.43h.3c.64.03,1.5.18,1.5,1.59,0,.6-.13,1.48-1.21,1.48-.41,0-.59-.16-.59-.6v-2.46Zm0-2.5c.01-.23.02-.48.52-.48.8,0,1.01.58,1.01,1.27,0,1.01-.22,1.42-1.53,1.42v-2.21h0,0Zm-2.44,5.88h3.17c2.08-.04,2.76-1,2.76-1.83,0-1.12-1.03-1.62-1.86-1.75v-.02c.41-.13,1.52-.38,1.52-1.48,0-1.54-2.01-1.58-2.56-1.58h-3.04v.25c.45.03.87.05.87.7v4.77c0,.6-.31.64-.87.7v.25h0Zm10.04-.25c-.54-.04-.93-.07-.93-.7v-4.77c0-.67.47-.68.93-.7v-.25h-3.44v.25c.45.03.91.05.91.7v4.77c0,.61-.38.65-.91.7v.25h3.44v-.25Zm.34-6.17c.45.03.87.05.87.7v4.77c0,.61-.31.64-.87.7v.25h5.75l.39-2.05h-.28c-.62,1.49-1.62,1.74-2.59,1.74-.64,0-.83-.12-.83-.55v-2.38c.97,0,1.48.3,1.59,1.53h.26v-3.33h-.26c-.15,1.22-.65,1.48-1.59,1.47v-2.29c0-.42.18-.46.72-.46,1.33,0,2.03.25,2.25,1.65h.25v-1.98h-5.68v.25h0Zm9.12.5c.05-.31.07-.41.61-.41.79,0,1.19.42,1.19,1.42,0,1.28-.51,1.5-1.8,1.51v-2.51h0Zm4.32,5.66c-.12,0-.27,0-.4-.19l-1.98-2.81c.53-.17,1.54-.47,1.54-1.68,0-1.65-2.08-1.73-2.77-1.73h-3.17v.25c.56.04.86.06.86.91v4.35c0,.8-.2.83-.86.91v.25h3.32v-.25c-.65-.09-.87-.12-.87-.91v-1.93h.27l2.04,3.08h2.02v-.25h0Zm.22.25h2.23v-.25c-.73-.08-.93-.27-.93-.98v-3.94h.02l4.38,5.34h.28v-5.8c0-.47.06-.7.77-.79v-.25h-2.12v.25c.8.06.92.38.92.98v2.99h-.02l-3.41-4.21h-2.08v.25c.13,0,.29.03.84.71v4.67c0,.65-.28.72-.87.79v.25h0Zm10.77-6.48c1.38,0,1.74,1.73,1.74,3.17,0,.86-.06,3.17-1.74,3.17s-1.74-2.32-1.74-3.17c0-1.44.36-3.17,1.74-3.17Zm0-.33c-1.9,0-3.48,1.35-3.48,3.5s1.47,3.5,3.48,3.5,3.48-1.43,3.48-3.5c0-2.15-1.58-3.5-3.48-3.5Z"/>
        <g>
          <path class="cls-6" d="m21.95,26.18v3.41c0,5.52-4.8,9.99-10.72,9.99S.52,35.11.52,29.59v-3.41h21.43Zm-1.12-17.2l-2.87,2.56H4.43l-3.21-2.55.36-1.37s1.1-1.4,4.64-1.16c0,0,2.41-1.35,4.86-.94,2.45-.41,4.86.94,4.86.94,3.53-.24,4.64,1.16,4.64,1.16l.26,1.35h0Z"/>
          <path class="cls-3" d="m20.73,8.98l-.58-1.25c.28-.26.38-.61.43-.9.21-2.08-3.78-2.08-3.78-2.08l-.12-.37s4.04-.07,4.34,2.06c.06.42-.04.95-.4,1.46l.42.88-.3.21h0Zm-10.5-4.79s-1.97-.75-3.17-.07c-1.47.82-.76,2.4-.28,2.62l-.48.88-.22-.32.22-.49c-.8-1.01-.75-2.58.92-3.14,1.51-.51,3.05.19,3.05.19l-.04.34h0Zm5.82,3.2l-.28-.58c.8-1.01.75-2.58-.92-3.14-1.51-.51-2.93.15-2.93.15l.08.32s1.81-.69,3.01-.02c1.47.82.76,2.4.28,2.62l.46.95.3-.3Z"/>
          <path class="cls-8" d="m11.43,1.51c.41.12.7.48.7.89,0,.52-.45.94-1.01.94s-1.01-.42-1.01-.94c0-.4.27-.74.64-.88l.67-.02h0Z"/>
          <path class="cls-3" d="m1,8.74l.46-.84c-.36-.51-.46-1.04-.4-1.46.29-2.13,4.25-2,4.25-2l.04.36s-4.07-.04-3.86,2.04c.05.29.15.64.43.9l-.58,1.27-.34-.26h0Zm3.91,3.95l-.36-.83s2.33-1.21,6.56-.95c4.23-.26,6.8.84,6.8.84l-.46,1.05-12.54-.11h0Zm1.29-3.35c-.3.3-.92.4-.92.4-.03-.15.05-.23.05-.23-.56.02-.7-.27-.7-.27.3-.42.68-.41.68-.41-.15-.07-.17-.2-.17-.2.57-.24.97.12.97.12,0,0-.52-.22-.44-.8,0,0,.14-.02.26.09,0,0-.2-.34.14-.73,0,0,.42.04.56.54,0,0,.06-.09.22-.11,0,0,.08.58-.14.94,0,0,.25-.48.87-.4,0,0,.02.13-.1.24,0,0,.36-.11.78.22,0,0-.05.32-.59.44,0,0,.1.06.12.21,0,0-.62.06-1-.15-.38-.21-.29-.19-.59.11Zm9.22-.1c-.38.21-1,.15-1,.15.02-.15.12-.21.12-.21-.54-.12-.59-.44-.59-.44.42-.33.78-.22.78-.22-.12-.11-.11-.24-.11-.24.62-.09.9.37.9.37,0,0-.44-.35-.19-.89,0,0,.14.02.22.16,0,0-.02-.35.43-.64,0,0,.32.12.3.65,0,0,.09-.07.25-.05,0,0-.09.58-.41.86,0,0,.38-.4.95-.16,0,0-.02.13-.17.21,0,0,.38,0,.68.41,0,0-.14.29-.7.27,0,0,.08.08.05.23,0,0-.62-.1-.92-.4-.3-.3-.22-.26-.6-.05h0Z"/>
          <path class="cls-3" d="m19.56,10.58l.72-.84c.7-.69,1.14-.43,1.14-.43,0,0,0-1.05-1.16-.39,0,0-.28-.86-.42.69,0,0-.36-.49-.88-.52l-.12.22s-.36-.06-.58.07c0,0,0,.19.46.43,0,0-.1.06-.1.21s.86.04.86.04c-1.53,1.82-1.81.02-1.81.02-1.71,1.65-1.99-.86-1.99-.86-1.4,2.4-2.29.22-2.29.22-1.38,1.93-2.29-.58-2.29-.58-.9,2.53-2.25.62-2.25.62-1.08,2.04-2.31-.22-2.31-.22-.16,2.38-1.91,1.07-1.91,1.07-.48,1.4-1.87-.17-1.87-.17,0,0,.86.11.86-.04s-.1-.21-.1-.21c.46-.24.46-.43.46-.43-.22-.13-.58-.07-.58-.07l-.12-.22c-.52.04-.88.52-.88.52-.14-1.55-.42-.69-.42-.69-1.16-.66-1.16.39-1.16.39,0,0,.44-.26,1.14.43l.72.84s1.4,1.46,2.09.24c0,0,1.3.66,2.01-.64,0,0,1.14,1.05,2.13-.11,0,0,1.12,1.01,2.21-.21,0,0,1,1.2,2.19.21,0,0,1,1.2,2.17.02,0,0,.54,1.29,2.01.6,0,0,.64,1.38,2.05-.17,1.4-1.55.02-.04.02-.04h0Z"/>
          <path class="cls-6" d="m1.94,10.37c-.17-.25-.15-.55.04-.66.19-.11.49,0,.66.26s.15.55-.04.66-.49,0-.66-.26Z"/>
          <path class="cls-6" d="m20.22,10.29c.17-.25.15-.55-.04-.66-.19-.11-.49,0-.66.26s-.15.55.04.66c.19.11.49,0,.66-.26Zm-14.23-1.33c0-.26.22-.47.5-.47s.5.21.5.47-.22.47-.5.47-.5-.21-.5-.47Zm9.21,0c0-.26.22-.47.5-.47s.5.21.5.47-.22.47-.5.47-.5-.21-.5-.47Z"/>
          <path d="m19.74,10.67c-.07,0-.14-.02-.21-.05-.09-.05-.16-.14-.18-.26-.04-.16,0-.35.12-.52.19-.29.53-.41.76-.28.09.05.16.14.18.26.04.16,0,.35-.12.52-.14.21-.36.33-.55.33Zm.28-1.01c-.14,0-.32.1-.43.27-.09.13-.12.28-.09.4.01.05.04.12.11.16.16.09.41-.02.56-.23h0c.09-.13.12-.28.09-.4-.01-.05-.04-.12-.11-.16-.04-.02-.08-.03-.13-.03Zm-4.31-.15c-.32,0-.58-.24-.58-.54s.26-.54.58-.54.58.24.58.54-.26.54-.58.54Zm0-.94c-.23,0-.43.18-.43.39s.19.39.43.39.42-.18.42-.39-.19-.39-.42-.39Zm-9.21.94c-.32,0-.58-.24-.58-.54s.26-.54.58-.54.58.24.58.54-.26.54-.58.54Zm0-.94c-.23,0-.42.18-.42.39s.19.39.42.39.43-.18.43-.39-.19-.39-.43-.39Z"/>
          <path class="cls-1" d="m8.53,9.12c0-.21.14-.37.31-.37s.31.17.31.37-.14.37-.31.37-.31-.17-.31-.37Zm4.56,0c0-.21.14-.37.31-.37s.31.17.31.37-.14.37-.31.37-.31-.17-.31-.37Zm4.39.62c.08-.19.27-.31.43-.25.16.06.23.26.16.45-.08.19-.27.31-.43.25-.16-.06-.23-.26-.16-.45h0Zm-12.72.21c-.08-.19-.28-.3-.44-.24-.16.06-.22.26-.14.46.08.19.28.3.44.24.16-.06.22-.26.14-.46h0Z"/>
          <path d="m4.53,10.49c-.17,0-.34-.12-.42-.3-.05-.12-.06-.26-.01-.37.04-.09.11-.16.19-.19.2-.07.44.05.54.28h0c.05.12.06.26.01.37-.04.09-.11.16-.19.19-.04.01-.08.02-.12.02Zm-.11-.73s-.05,0-.07.01c-.06.02-.09.07-.11.1-.03.07-.03.16.01.25.07.15.22.24.34.2.06-.02.09-.07.11-.11.03-.07.03-.16-.01-.25h0c-.06-.13-.17-.21-.27-.21Zm13.3.51s-.07,0-.11-.02c-.09-.03-.16-.09-.2-.18-.05-.11-.05-.24,0-.37h0c.09-.23.33-.36.53-.3.09.03.16.09.2.18.05.11.05.24,0,.37-.07.19-.25.31-.42.31Zm.11-.73c-.11,0-.22.09-.27.22,0,0,0,0,0,0-.03.09-.03.18,0,.25.02.04.05.08.11.1.12.04.27-.05.33-.21.03-.09.03-.18,0-.25-.02-.04-.05-.08-.11-.1-.02,0-.04,0-.06,0Zm-4.43.02c-.21,0-.39-.2-.39-.45s.17-.45.39-.45.39.2.39.45-.17.45-.39.45Zm0-.75c-.13,0-.23.13-.23.3s.11.3.23.3.23-.13.23-.3-.11-.3-.23-.3Zm-4.56.75c-.21,0-.39-.2-.39-.45s.17-.45.39-.45.39.2.39.45-.17.45-.39.45Zm0-.75c-.13,0-.23.13-.23.3s.11.3.23.3.23-.13.23-.3-.11-.3-.23-.3Z"/>
          <path class="cls-1" d="m5.56,6.98c0-.14.13-.26.28-.26s.28.12.28.26-.13.26-.28.26-.28-.12-.28-.26Zm-.26-.52c0-.14.13-.26.28-.26s.28.12.28.26-.13.26-.28.26-.28-.12-.28-.26Zm-.18-.58c0-.15.13-.26.28-.26s.28.12.28.26-.13.26-.28.26-.28-.12-.28-.26Zm-.04-.58c0-.14.13-.26.28-.26s.28.12.28.26-.13.26-.28.26-.28-.12-.28-.26Zm.46-1.1c0-.14.13-.26.28-.26s.28.12.28.26-.13.26-.28.26c-.15,0-.28-.12-.28-.26Zm.44-.41c0-.14.13-.26.28-.26s.28.12.28.26-.13.26-.28.26-.28-.12-.28-.26Zm.52-.36c0-.14.13-.26.28-.26s.28.12.28.26-.13.26-.28.26-.28-.12-.28-.26Zm.6-.21c0-.14.13-.26.28-.26s.28.12.28.26-.13.26-.28.26-.28-.12-.28-.26Zm.6-.13c0-.14.13-.26.28-.26s.28.12.28.26-.13.26-.28.26-.28-.12-.28-.26h0Zm.62-.02c0-.14.13-.26.28-.26s.28.12.28.26-.13.26-.28.26-.28-.12-.28-.26Zm.6.06c0-.14.13-.26.28-.26s.28.12.28.26-.13.26-.28.26-.28-.12-.28-.26h0Zm.6.13c0-.14.13-.26.28-.26s.28.12.28.26-.13.26-.28.26-.28-.12-.28-.26Zm.56.09c0-.14.13-.26.28-.26s.28.12.28.26-.13.26-.28.26-.28-.12-.28-.26Z"/>
          <path d="m5.84,7.32c-.2,0-.36-.15-.36-.34,0-.07.02-.13.06-.19-.18-.02-.32-.16-.32-.34,0-.1.04-.19.11-.25-.17-.03-.29-.17-.29-.33,0-.12.06-.22.15-.28-.12-.06-.2-.17-.2-.3,0-.19.16-.34.36-.34s.36.15.36.34c0,.12-.06.22-.15.28.12.06.2.17.2.3,0,.1-.04.19-.11.25.17.03.29.17.29.33,0,.07-.02.13-.06.19.18.02.32.16.32.34,0,.19-.16.34-.36.34Zm0-.52c-.11,0-.2.08-.2.19s.09.19.2.19.2-.08.2-.19-.09-.19-.2-.19Zm-.26-.52c-.11,0-.2.08-.2.19s.09.19.2.19.2-.08.2-.19-.09-.19-.2-.19Zm-.18-.58c-.11,0-.2.08-.2.19s.09.19.2.19.2-.08.2-.19-.09-.19-.2-.19Zm-.04-.58c-.11,0-.2.08-.2.19s.09.19.2.19.2-.08.2-.19-.09-.19-.2-.19Zm.46-.58c-.1,0-.19-.04-.26-.11-.06-.06-.1-.15-.1-.23,0-.19.16-.34.36-.34.03,0,.07,0,.1.01,0-.03-.01-.06-.01-.09,0-.19.16-.34.36-.34.06,0,.12.01.17.04,0-.02,0-.04,0-.06,0-.19.16-.34.36-.34.1,0,.18.04.25.09.02-.17.17-.3.36-.3.1,0,.2.04.26.11.05-.14.18-.24.34-.24.13,0,.24.07.31.16.06-.11.18-.18.32-.18s.26.08.32.19c.07-.08.17-.13.28-.13.16,0,.3.1.34.24.07-.07.16-.11.26-.11.14,0,.26.08.32.18.06-.06.15-.09.24-.09.2,0,.36.15.36.34s-.16.34-.36.34c-.14,0-.26-.07-.32-.18-.06.06-.15.09-.24.09-.16,0-.3-.1-.34-.24-.07.07-.16.11-.26.11-.14,0-.26-.08-.32-.19-.07.08-.17.13-.28.13-.13,0-.24-.07-.31-.16-.06.11-.18.18-.32.18-.1,0-.2-.04-.26-.11-.05.14-.18.24-.34.24-.1,0-.18-.04-.25-.09-.02.17-.17.3-.36.3-.06,0-.12-.01-.17-.04,0,.02,0,.04,0,.06,0,.19-.16.34-.36.34-.03,0-.07,0-.1-.01,0,.03.01.06.01.08,0,.19-.16.34-.36.34h0Zm0-.52c-.11,0-.2.08-.2.19,0,.05.02.09.05.12.04.04.09.06.15.06h0c.11,0,.2-.08.2-.19s-.09-.19-.2-.19Zm.44-.41c-.11,0-.2.08-.2.19s.09.19.2.19.2-.08.2-.19-.09-.19-.2-.19Zm.52-.36c-.11,0-.2.08-.2.19s.09.19.2.19.2-.08.2-.19-.09-.19-.2-.19Zm3.59-.07c-.11,0-.2.08-.2.19s.09.19.2.19.2-.08.2-.19-.09-.19-.2-.19Zm-.56-.09c-.11,0-.2.08-.2.19s.09.19.2.19.2-.08.2-.19-.09-.19-.2-.19Zm-2.43-.04c-.11,0-.2.08-.2.19s.09.19.2.19.2-.08.2-.19-.09-.19-.2-.19Zm1.83-.09c-.11,0-.2.08-.2.19s.09.19.2.19.2-.08.2-.19-.09-.19-.2-.19Zm-1.22-.04c-.11,0-.2.08-.2.19s.09.19.2.19.2-.08.2-.19-.09-.19-.2-.19Zm.62-.02c-.11,0-.2.08-.2.19s.09.19.2.19.2-.08.2-.19-.09-.19-.2-.19Z"/>
          <path class="cls-1" d="m.56,8.65c0-.15.13-.26.28-.26s.28.12.28.26-.13.26-.28.26c-.16,0-.28-.12-.28-.26Z"/>
          <path d="m.84,8.99c-.2,0-.36-.15-.36-.34s.16-.34.36-.34.36.15.36.34-.16.34-.36.34Zm0-.52c-.11,0-.2.08-.2.19s.09.18.2.19c.11,0,.2-.08.2-.19s-.09-.19-.2-.19Z"/>
          <path class="cls-1" d="m.3,8.12c0-.14.13-.26.28-.26s.28.12.28.26-.13.26-.28.26-.28-.12-.28-.26Zm-.18-.58c0-.14.13-.26.28-.26s.28.12.28.26-.13.26-.28.26c-.16,0-.28-.12-.28-.26Zm-.04-.58c0-.14.13-.26.28-.26s.28.12.28.26-.13.26-.28.26-.28-.12-.28-.26Zm.08-.6c0-.15.13-.26.28-.26s.28.12.28.26-.13.26-.28.26-.28-.12-.28-.26Zm.26-.58c0-.14.13-.26.28-.26s.28.12.28.26-.13.26-.28.26-.28-.12-.28-.26Zm.42-.52c0-.14.13-.26.28-.26s.28.12.28.26-.13.26-.28.26-.28-.12-.28-.26Zm.5-.39c0-.14.13-.26.28-.26s.28.12.28.26-.13.26-.28.26-.28-.12-.28-.26Zm.56-.3c0-.14.13-.26.28-.26s.28.12.28.26-.13.26-.28.26-.28-.12-.28-.26Zm.58-.22c0-.14.13-.26.28-.26s.28.12.28.26-.13.26-.28.26-.28-.12-.28-.26Zm.6-.15c0-.14.13-.26.28-.26s.28.12.28.26-.13.26-.28.26c-.16,0-.28-.12-.28-.26Zm.58-.13c0-.14.13-.26.28-.26s.28.12.28.26-.13.26-.28.26-.28-.12-.28-.26Zm.58-.06c0-.14.13-.26.28-.26s.28.12.28.26-.13.26-.28.26-.28-.12-.28-.26Zm.6.02c0-.14.13-.26.28-.26s.28.12.28.26-.13.26-.28.26-.28-.12-.28-.26Zm11.1,2.96c0-.14.13-.26.28-.26s.28.12.28.26-.13.26-.28.26-.28-.12-.28-.26Zm.26-.52c0-.14.13-.26.28-.26s.28.12.28.26-.13.26-.28.26-.28-.12-.28-.26Zm.18-.58c0-.15.13-.26.28-.26s.28.12.28.26-.13.26-.28.26-.28-.12-.28-.26Zm.04-.58c0-.14.13-.26.28-.26s.28.12.28.26-.13.26-.28.26-.28-.12-.28-.26Zm-.12-.6c0-.14.13-.26.28-.26s.28.12.28.26-.13.26-.28.26-.28-.12-.28-.26Zm-.34-.51c0-.14.13-.26.28-.26s.28.12.28.26-.13.26-.28.26c-.15,0-.28-.12-.28-.26Zm-.44-.41c0-.14.13-.26.28-.26s.28.12.28.26-.13.26-.28.26-.28-.12-.28-.26Zm-.52-.36c0-.14.13-.26.28-.26s.28.12.28.26-.13.26-.28.26-.28-.12-.28-.26Zm-.6-.21c0-.14.13-.26.28-.26s.28.12.28.26-.13.26-.28.26-.28-.12-.28-.26Zm-.6-.13c0-.14.13-.26.28-.26s.28.12.28.26-.13.26-.28.26-.28-.12-.28-.26h0Zm-.62-.02c0-.14.13-.26.28-.26s.28.12.28.26-.13.26-.28.26-.28-.12-.28-.26Zm-.6.06c0-.14.13-.26.28-.26s.28.12.28.26-.13.26-.28.26-.28-.12-.28-.26h0Zm-.6.13c0-.14.13-.26.28-.26s.28.12.28.26-.13.26-.28.26-.28-.12-.28-.26h0Zm-.56.09c0-.14.13-.26.28-.26s.28.12.28.26-.13.26-.28.26-.28-.12-.28-.26Z"/>
          <path d="m.58,8.46c-.2,0-.36-.15-.36-.34,0-.1.04-.19.11-.25-.07-.01-.14-.05-.2-.1-.06-.06-.1-.15-.1-.23,0-.12.06-.22.15-.28-.12-.06-.19-.17-.19-.3,0-.15.1-.27.24-.32-.09-.06-.16-.16-.16-.28,0-.19.16-.34.36-.34,0,0,0,0,0,0-.07-.06-.11-.15-.11-.24,0-.19.16-.34.36-.34.05,0,.1.01.15.03-.05-.06-.08-.13-.08-.21,0-.19.16-.34.36-.34.06,0,.11.01.16.03,0-.03-.01-.06-.01-.09,0-.19.16-.34.36-.34.08,0,.15.02.21.06,0,0,0-.02,0-.02,0-.19.16-.34.36-.34.09,0,.16.03.23.08.02-.17.17-.3.36-.3.1,0,.19.04.26.1.04-.15.18-.25.35-.25.1,0,.18.04.25.09.05-.13.18-.22.34-.22.11,0,.2.05.27.12.06-.1.18-.17.31-.17s.25.07.31.17c.06-.09.17-.15.29-.15.2,0,.36.15.36.34s-.16.34-.36.34c-.13,0-.25-.07-.31-.17-.06.09-.17.15-.29.15-.11,0-.2-.05-.27-.12-.06.1-.18.17-.31.17-.09,0-.18-.04-.25-.09-.05.13-.18.22-.34.22h0c-.1,0-.19-.04-.25-.1-.04.15-.18.25-.35.25-.09,0-.16-.03-.23-.08-.02.17-.17.3-.36.3-.08,0-.15-.02-.2-.06,0,0,0,.01,0,.02,0,.19-.16.34-.36.34-.06,0-.11-.01-.16-.03,0,.03.01.06.01.09,0,.19-.16.34-.36.34-.05,0-.1-.01-.15-.03.05.06.08.13.08.21,0,.19-.16.34-.36.34,0,0,0,0,0,0,.07.06.11.15.11.24,0,.15-.1.27-.24.32.09.06.16.16.16.28s-.06.22-.15.28c.12.06.19.17.19.3,0,.1-.04.19-.11.25.17.03.29.17.29.33,0,.19-.16.34-.36.34Zm0-.52c-.11,0-.2.08-.2.19s.09.19.2.19.2-.08.2-.19-.09-.19-.2-.19Zm-.18-.58c-.11,0-.2.08-.2.19,0,.05.02.09.05.13.04.04.09.06.15.06h0c.11,0,.2-.08.2-.19s-.09-.19-.2-.19Zm-.04-.58c-.11,0-.2.08-.2.19s.09.19.2.19.2-.08.2-.19-.09-.19-.2-.19Zm.08-.6c-.11,0-.2.08-.2.19s.09.19.2.19.2-.08.2-.19-.09-.19-.2-.19Zm.26-.58c-.11,0-.2.08-.2.19s.09.19.2.19.2-.08.2-.19-.09-.19-.2-.19Zm.42-.52c-.11,0-.2.08-.2.19s.09.19.2.19.2-.08.2-.19-.09-.19-.2-.19Zm.5-.39c-.11,0-.2.08-.2.19s.09.19.2.19.2-.08.2-.19-.09-.19-.2-.19Zm.56-.3c-.11,0-.2.08-.2.19s.09.19.2.19.2-.08.2-.19-.09-.19-.2-.19Zm.58-.22c-.11,0-.2.08-.2.19s.09.19.2.19.2-.08.2-.19-.09-.19-.2-.19Zm.6-.15c-.11,0-.2.08-.2.19,0,.05.02.09.05.13.04.04.09.06.15.06.11,0,.2-.08.2-.19s-.09-.19-.2-.19Zm.58-.13c-.11,0-.2.08-.2.19s.09.19.2.19.2-.08.2-.19-.09-.19-.2-.19Zm1.18-.04c-.11,0-.2.08-.2.19s.09.19.2.19.2-.08.2-.19-.09-.19-.2-.19Zm-.6-.02c-.11,0-.2.08-.2.19s.09.19.2.19.2-.08.2-.19-.09-.19-.2-.19Zm11.7,3.5c-.2,0-.36-.15-.36-.34,0-.17.14-.32.32-.34-.04-.05-.06-.12-.06-.19,0-.17.13-.31.29-.33-.07-.06-.11-.15-.11-.25,0-.13.08-.25.19-.3-.09-.06-.15-.16-.15-.28s.06-.21.14-.27c-.15-.04-.27-.17-.27-.33,0-.06.02-.12.05-.17-.01,0-.02,0-.03,0-.1,0-.19-.04-.26-.11-.06-.06-.1-.15-.1-.23,0-.03,0-.06.01-.08-.03,0-.06.01-.1.01-.2,0-.36-.15-.36-.34,0-.02,0-.04,0-.06-.05.03-.11.04-.17.04-.18,0-.33-.13-.36-.3-.06.06-.15.09-.25.09-.16,0-.3-.1-.34-.24-.07.07-.16.11-.26.11-.14,0-.26-.07-.32-.18-.06.1-.18.16-.31.16-.11,0-.22-.05-.28-.13-.06.11-.18.19-.32.19-.1,0-.2-.04-.26-.11-.05.14-.18.24-.34.24-.09,0-.18-.03-.24-.09-.06.11-.18.18-.32.18-.2,0-.36-.15-.36-.34s.16-.34.36-.34c.09,0,.18.03.24.09.06-.11.18-.18.32-.18.1,0,.2.04.26.11.05-.14.18-.24.34-.24.11,0,.22.05.28.13.06-.11.18-.19.32-.19s.26.07.32.18c.06-.1.18-.16.31-.16.16,0,.3.1.34.24.07-.07.16-.11.26-.11.18,0,.33.13.36.3.06-.06.15-.09.25-.09.2,0,.36.15.36.34,0,.02,0,.04,0,.06.05-.03.11-.04.17-.04.2,0,.36.15.36.34,0,.03,0,.06-.01.09.03,0,.06-.01.1-.01.2,0,.36.15.36.34,0,.06-.02.12-.05.17.01,0,.02,0,.03,0,.2,0,.36.15.36.34,0,.11-.06.21-.14.27.15.04.27.17.27.33,0,.13-.08.25-.19.3.09.06.15.16.15.28,0,.17-.13.31-.29.33.07.06.11.15.11.25,0,.17-.14.32-.32.34.04.05.06.12.06.19,0,.19-.16.34-.36.34Zm0-.52c-.11,0-.2.08-.2.19s.09.19.2.19.2-.08.2-.19-.09-.19-.2-.19Zm.26-.52c-.11,0-.2.08-.2.19s.09.19.2.19.2-.08.2-.19-.09-.19-.2-.19Zm.18-.58c-.11,0-.2.08-.2.19s.09.19.2.19.2-.08.2-.19-.09-.19-.2-.19Zm.04-.58c-.11,0-.2.08-.2.19s.09.19.2.19.2-.08.2-.19-.09-.19-.2-.19Zm-.12-.6c-.11,0-.2.08-.2.19s.09.19.2.19.2-.08.2-.19-.09-.19-.2-.19Zm-.34-.51c-.11,0-.2.08-.2.19,0,.05.02.09.05.12.04.04.09.06.15.06.11,0,.21-.08.21-.19s-.09-.19-.2-.19Zm-.44-.41c-.11,0-.2.08-.2.19s.09.19.2.19.2-.08.2-.19-.09-.19-.2-.19Zm-.52-.36c-.11,0-.2.08-.2.19s.09.19.2.19.2-.08.2-.19-.09-.19-.2-.19Zm-3.59-.07c-.11,0-.2.08-.2.19s.09.19.2.19.2-.08.2-.19-.09-.19-.2-.19Zm.56-.09c-.11,0-.2.08-.2.19s.09.19.2.19.2-.08.2-.19-.09-.19-.2-.19Zm2.43-.04c-.11,0-.2.08-.2.19s.09.19.2.19.2-.08.2-.19-.09-.19-.2-.19Zm-1.83-.09c-.11,0-.2.08-.2.19s.09.19.2.19.2-.08.2-.19-.09-.19-.2-.19Zm1.22-.04c-.11,0-.2.08-.2.19s.09.19.2.19.2-.08.2-.19-.09-.19-.2-.19Zm-.62-.02c-.11,0-.2.08-.2.19s.09.19.2.19.2-.08.2-.19-.09-.19-.2-.19Z"/>
          <path class="cls-1" d="m20.95,8.65c0-.15.13-.26.28-.26s.28.12.28.26-.13.26-.28.26-.28-.12-.28-.26Z"/>
          <path d="m21.23,8.99c-.2,0-.36-.15-.36-.34s.16-.34.36-.34.36.15.36.34-.16.34-.36.34Zm0-.52c-.11,0-.2.08-.2.19s.09.19.2.19.2-.08.2-.19-.09-.19-.2-.19Z"/>
          <path class="cls-1" d="m21.21,8.12c0-.14.13-.26.28-.26s.28.12.28.26-.13.26-.28.26-.28-.12-.28-.26Zm.18-.58c0-.14.13-.26.28-.26s.28.12.28.26-.13.26-.28.26-.28-.12-.28-.26Zm.04-.58c0-.14.13-.26.28-.26s.28.12.28.26-.13.26-.28.26-.28-.12-.28-.26Zm-.08-.6c0-.15.13-.26.28-.26s.28.12.28.26-.13.26-.28.26-.28-.12-.28-.26Zm-.26-.58c0-.14.13-.26.28-.26s.28.12.28.26-.13.26-.28.26-.28-.12-.28-.26Zm-.42-.52c0-.14.13-.26.28-.26s.28.12.28.26-.13.26-.28.26-.28-.12-.28-.26Zm-.5-.39c0-.14.13-.26.28-.26s.28.12.28.26-.13.26-.28.26-.28-.12-.28-.26Zm-.56-.3c0-.14.13-.26.28-.26s.28.12.28.26-.13.26-.28.26-.28-.12-.28-.26Zm-.58-.22c0-.14.13-.26.28-.26s.28.12.28.26-.13.26-.28.26-.28-.12-.28-.26Zm-.6-.15c0-.14.13-.26.28-.26s.28.12.28.26-.13.26-.28.26-.28-.12-.28-.26Zm-.58-.13c0-.14.13-.26.28-.26s.28.12.28.26-.13.26-.28.26-.28-.12-.28-.26Zm-.58-.06c0-.14.13-.26.28-.26s.28.12.28.26-.13.26-.28.26-.28-.12-.28-.26Zm-.6.02c0-.14.13-.26.28-.26s.28.12.28.26-.13.26-.28.26-.28-.12-.28-.26Z"/>
          <path d="m21.49,8.46c-.2,0-.36-.15-.36-.34,0-.17.13-.3.29-.33-.07-.06-.11-.15-.11-.25,0-.13.08-.25.19-.3-.09-.06-.15-.16-.15-.28s.06-.22.16-.28c-.14-.05-.24-.17-.24-.32,0-.09.04-.18.11-.24,0,0,0,0-.01,0-.2,0-.36-.15-.36-.34,0-.08.03-.16.08-.21-.04.02-.09.03-.14.03-.2,0-.36-.15-.36-.34,0-.03,0-.06.01-.09-.05.02-.1.03-.16.03-.2,0-.36-.15-.36-.34,0,0,0-.01,0-.02-.06.04-.13.06-.21.06-.18,0-.34-.13-.36-.3-.06.05-.14.08-.23.08-.17,0-.31-.11-.35-.25-.06.06-.16.1-.26.1-.15,0-.29-.09-.34-.22-.06.06-.15.09-.25.09-.13,0-.25-.07-.31-.17-.07.07-.16.12-.27.12-.12,0-.23-.06-.29-.15-.06.1-.18.17-.31.17-.2,0-.36-.15-.36-.34s.16-.34.36-.34c.12,0,.23.06.29.15.06-.1.18-.17.31-.17s.25.07.31.17c.07-.07.16-.12.27-.12.15,0,.29.09.34.22.06-.06.15-.09.25-.09.17,0,.31.11.35.25.06-.06.16-.1.26-.1.18,0,.34.13.36.3.06-.05.14-.08.23-.08.2,0,.36.15.36.34,0,0,0,.02,0,.02.06-.04.13-.06.21-.06.2,0,.36.15.36.34,0,.03,0,.06-.01.09.05-.02.1-.03.16-.03.2,0,.36.15.36.34,0,.08-.03.16-.08.21.04-.02.09-.03.14-.03.2,0,.36.15.36.34,0,.09-.04.18-.11.24,0,0,0,0,.01,0,.2,0,.36.15.36.34,0,.12-.06.22-.16.28.14.05.24.17.24.32,0,.13-.08.25-.19.3.09.06.15.16.15.28,0,.17-.13.3-.29.33.07.06.11.15.11.25,0,.19-.16.34-.36.34Zm0-.52c-.11,0-.2.08-.2.19s.09.19.2.19.2-.08.2-.19-.09-.19-.2-.19Zm.18-.58c-.11,0-.2.08-.2.19s.09.19.2.19.2-.08.2-.19-.09-.19-.2-.19Zm.04-.58c-.11,0-.2.08-.2.19s.09.19.2.19.2-.08.2-.19-.09-.19-.2-.19Zm-.08-.6c-.11,0-.2.08-.2.19s.09.19.2.19.2-.08.2-.19-.09-.19-.2-.19Zm-.26-.58c-.11,0-.2.08-.2.19s.09.19.2.19.2-.08.2-.19-.09-.19-.2-.19Zm-.42-.52c-.11,0-.2.08-.2.19s.09.19.2.19.2-.08.2-.19-.09-.19-.2-.19Zm-.5-.39c-.11,0-.2.08-.2.19s.09.19.2.19.2-.08.2-.19-.09-.19-.2-.19Zm-.56-.3c-.11,0-.2.08-.2.19s.09.19.2.19.2-.08.2-.19-.09-.19-.2-.19Zm-.58-.22c-.11,0-.2.08-.2.19s.09.19.2.19.2-.08.2-.19-.09-.19-.2-.19Zm-.6-.15c-.11,0-.2.08-.2.19s.09.19.2.19.2-.08.2-.19-.09-.19-.2-.19Zm-.58-.13c-.11,0-.2.08-.2.19s.09.19.2.19.2-.08.2-.19-.09-.19-.2-.19Zm-1.18-.04c-.11,0-.2.08-.2.19s.09.19.2.19.2-.08.2-.19-.09-.19-.2-.19Zm.6-.02c-.11,0-.2.08-.2.19s.09.19.2.19.2-.08.2-.19-.09-.19-.2-.19Z"/>
          <path class="cls-3" d="m10.75,7.21l-.7-.66s.3-1.09.18-1.76.14-1.53.89-1.45c.75-.08,1,.77.88,1.45-.12.67.18,1.76.18,1.76l-.7.66h-.73Z"/>
          <path d="m11.49,7.28h-.73s-.04,0-.05-.02l-.7-.66s-.03-.05-.02-.08c0-.01.3-1.08.18-1.73-.09-.5.02-1.01.29-1.29.17-.19.41-.27.68-.24.27-.03.5.06.67.24.26.28.38.79.29,1.3-.12.65.18,1.71.18,1.72,0,.03,0,.06-.02.08l-.7.66s-.03.02-.05.02Zm-.7-.15h.67l.65-.6c-.06-.22-.28-1.14-.17-1.75.08-.45-.02-.92-.25-1.17-.14-.15-.33-.22-.55-.19,0,0-.01,0-.02,0-.23-.02-.41.04-.56.2-.23.25-.33.71-.25,1.16.11.61-.11,1.53-.17,1.75l.65.6Z"/>
          <path d="m11.31,6.96l-.11-.11.5-.52c-.05-.18-.21-.88-.13-1.35.07-.38.06-1.03-.17-1.28-.07-.08-.16-.11-.27-.1h0c-.11,0-.2.05-.27.14-.21.26-.25.83-.18,1.23.08.47-.08,1.16-.13,1.34l.51.5-.11.11-.54-.53.05-.05-.07-.02s.23-.83.14-1.32c-.06-.36-.06-1.02.21-1.36.1-.13.23-.19.38-.2.16-.02.29.03.39.15.29.31.28,1.01.21,1.41-.09.5.14,1.31.14,1.32l-.07.02.06.05-.53.55Z"/>
          <path class="cls-1" d="m10.83,5.47c0-.14.13-.26.28-.26s.28.12.28.26-.13.26-.28.26-.28-.12-.28-.26Zm0,.67c0-.14.13-.26.28-.26s.28.12.28.26-.13.26-.28.26-.28-.12-.28-.26Zm0-1.98c0-.14.13-.26.28-.26s.28.12.28.26-.13.26-.28.26-.28-.12-.28-.26Zm0,.67c0-.14.13-.26.28-.26s.28.12.28.26-.13.26-.28.26-.28-.12-.28-.26Z"/>
          <path d="m11.11,6.48c-.2,0-.36-.15-.36-.34,0-.17.14-.32.32-.34-.18-.02-.32-.16-.32-.34,0-.15.1-.27.24-.32-.14-.05-.24-.17-.24-.32,0-.18.14-.32.32-.34-.18-.02-.32-.16-.32-.34,0-.19.16-.34.36-.34s.36.15.36.34c0,.17-.14.32-.32.34.18.02.32.16.32.34,0,.15-.1.27-.24.32.14.05.24.17.24.32,0,.17-.14.32-.32.34.18.02.32.16.32.34,0,.19-.16.34-.36.34Zm0-.52c-.11,0-.2.08-.2.19s.09.19.2.19.2-.08.2-.19-.09-.19-.2-.19Zm0-.67c-.11,0-.2.08-.2.19s.09.19.2.19.2-.08.2-.19-.09-.19-.2-.19Zm0-.64c-.11,0-.2.08-.2.19s.09.19.2.19.2-.08.2-.19-.09-.19-.2-.19Zm0-.67c-.11,0-.2.08-.2.19s.09.19.2.19.2-.08.2-.19-.09-.19-.2-.19Z"/>
          <path class="cls-3" d="m4.61,13.08c0-.63,2.92-1.14,6.53-1.14s6.53.51,6.53,1.14c0,.37-.99.62-2.53.83-3.91-.04-3.89,0-8.17-.02-1.44-.21-2.36-.45-2.36-.8h0Z"/>
          <path d="m15.15,13.99h0c-2.24-.02-3.19-.02-4.39-.02-.91,0-1.95,0-3.78,0,0,0,0,0-.01,0-1.73-.25-2.43-.51-2.43-.88h0c0-.79,3.41-1.22,6.61-1.22s6.61.43,6.61,1.22c0,.39-.78.66-2.59.9,0,0,0,0-.01,0Zm-3.34-.17c.83,0,1.77,0,3.33.02.82-.11,1.42-.23,1.82-.35.55-.17.63-.32.63-.4,0-.2-.49-.49-1.85-.73-1.23-.21-2.87-.33-4.61-.33s-3.38.12-4.61.33c-1.36.24-1.85.53-1.85.73h0c0,.09.1.23.59.38.38.12.93.23,1.71.34,1.83,0,2.86,0,3.78,0,.36,0,.7,0,1.05,0Z"/>
          <path d="m17.18,13.21s-.02,0-.03,0c-.99-.35-3.24-.7-6.01-.7s-5,.27-6,.7c-.04.02-.08,0-.1-.04-.02-.04,0-.08.04-.1,1.03-.43,3.41-.71,6.06-.71,2.79,0,5.05.36,6.06.71.04.01.06.06.05.1-.01.03-.04.05-.07.05Z"/>
          <path class="cls-6" d="m5.48,13.05c.87.37,3.11.51,5.53.51s4.78-.18,5.65-.54c-6.44-1.33-11.18.04-11.18.04h0Z"/>
          <path d="m11,13.63c-1.62,0-4.5-.07-5.56-.51-.03-.01-.05-.04-.05-.08,0-.03.02-.06.06-.07.01,0,1.21-.35,3.19-.52,1.82-.16,4.69-.21,8.03.48.03,0,.06.03.06.07,0,.03-.02.07-.05.08-.96.4-3.56.55-5.68.55Zm-5.27-.57c.89.27,2.73.42,5.27.42s4.42-.17,5.36-.45c-3.2-.63-5.95-.58-7.7-.42-1.45.13-2.48.35-2.92.45Z"/>
          <path d="m11,13.63c-1.62,0-4.5-.07-5.56-.51-.03-.01-.05-.04-.05-.08,0-.03.02-.06.06-.07.01,0,1.21-.35,3.19-.52,1.82-.16,4.69-.21,8.03.48.03,0,.06.03.06.07,0,.03-.02.07-.05.08-.96.4-3.56.55-5.68.55Zm-5.27-.57c.89.27,2.73.42,5.27.42s4.42-.17,5.36-.45c-3.2-.63-5.95-.58-7.7-.42-1.45.13-2.48.35-2.92.45Z"/>
          <path d="m10.52,13.63s-.08-.03-.08-.08v-1.12s.03-.08.08-.08.08.03.08.08v1.12s-.03.08-.08.08Zm1.11,0s-.08-.03-.08-.08v-1.11s.03-.08.08-.08.08.03.08.08v1.11s-.03.08-.08.08Zm-1.67,0s-.08-.03-.08-.08v-1.09s.03-.08.08-.08.08.03.08.08v1.09s-.03.08-.08.08Zm2.24,0s-.08-.03-.08-.08v-1.08s.03-.08.08-.08.08.03.08.08v1.08s-.03.08-.08.08Zm-2.9-.01s-.08-.03-.08-.08v-1.04s.03-.08.08-.08.08.03.08.08v1.04s-.03.08-.08.08Zm3.56,0s-.08-.03-.08-.08v-1.03s.03-.08.08-.08.08.03.08.08v1.03s-.03.08-.08.08Zm-3.99,0s-.08-.03-.08-.08v-1s.03-.08.08-.08.08.03.08.08v1s-.03.08-.08.08Zm4.43-.01s-.08-.03-.08-.08v-.97s.03-.08.08-.08.08.03.08.08v.97s-.03.08-.08.08Zm-4.79,0s-.08-.03-.08-.08v-.95s.03-.08.08-.08.08.03.08.08v.95s-.03.08-.08.08Zm5.15-.02s-.08-.03-.08-.08v-.92s.03-.08.08-.08.08.03.08.08v.92s-.03.08-.08.08Zm-5.5,0s-.08-.03-.08-.08v-.89s.03-.08.08-.08.08.03.08.08v.89s-.03.08-.08.08Zm5.84-.02s-.08-.03-.08-.08v-.86s.03-.08.08-.08.08.03.08.08v.86s-.03.08-.08.08Zm-6.19,0s-.08-.03-.08-.08v-.83s.03-.08.08-.08.08.03.08.08v.83s-.03.08-.08.08Zm6.54-.02s-.08-.03-.08-.08v-.79s.03-.08.08-.08.08.03.08.08v.79s-.03.08-.08.08Zm-6.87,0s-.08-.03-.08-.08v-.76s.03-.08.08-.08.08.03.08.08v.76s-.03.08-.08.08Zm7.21-.03s-.08-.03-.08-.08v-.72s.03-.08.08-.08.08.03.08.08v.72s-.03.08-.08.08Zm-7.54,0s-.08-.03-.08-.08v-.67s.03-.08.08-.08.08.03.08.08v.67s-.03.08-.08.08Zm7.88-.03s-.08-.03-.08-.08v-.64s.03-.08.08-.08.08.03.08.08v.64s-.03.08-.08.08Zm-8.16,0s-.08-.03-.08-.08v-.6s.03-.08.08-.08.08.03.08.08v.6s-.03.08-.08.08Zm8.44-.03s-.08-.03-.08-.08v-.56s.03-.08.08-.08.08.03.08.08v.56s-.03.08-.08.08Zm-8.73,0s-.08-.03-.08-.08v-.5s.03-.08.08-.08.08.03.08.08v.5s-.03.08-.08.08Zm9.02-.04s-.08-.03-.08-.08v-.47s.03-.08.08-.08.08.03.08.08v.47s-.03.08-.08.08Zm-9.28,0s-.08-.03-.08-.08v-.41s.03-.08.08-.08.08.03.08.08v.41s-.03.08-.08.08Zm9.54-.04s-.08-.03-.08-.08v-.38s.03-.08.08-.08.08.03.08.08v.38s-.03.08-.08.08Zm-9.79-.01s-.08-.03-.08-.08v-.31s.03-.08.08-.08.08.03.08.08v.31s-.03.08-.08.08Zm10.03-.04s-.08-.03-.08-.08v-.28s.03-.08.08-.08.08.03.08.08v.28s-.03.08-.08.08Z"/>
          <path class="cls-1" d="m5.76,11.9c0-.17.14-.3.32-.3s.32.13.32.3-.14.3-.32.3c-.18,0-.32-.13-.32-.3Zm3.29-.41c0-.17.14-.3.32-.3s.32.13.32.3-.14.3-.32.3c-.18,0-.32-.13-.32-.3Zm3.55.02c0-.17.14-.3.32-.3s.32.13.32.3-.14.3-.32.3-.32-.13-.32-.3Zm3.29.34c0-.17.14-.3.32-.3s.32.13.32.3-.14.3-.32.3-.32-.13-.32-.3Z"/>
          <path d="m6.08,12.28c-.22,0-.4-.17-.4-.38s.18-.38.4-.38.4.17.4.38-.18.38-.4.38Zm0-.6c-.13,0-.24.1-.24.22s.11.22.24.22c.13,0,.24-.1.24-.22s-.11-.22-.24-.22Zm10.14.54c-.22,0-.4-.17-.4-.38s.18-.38.4-.38.4.17.4.38-.18.38-.4.38Zm0-.6c-.13,0-.24.1-.24.22s.11.22.24.22.24-.1.24-.22-.11-.22-.24-.22Zm-3.29.26c-.22,0-.4-.17-.4-.38s.18-.38.4-.38.4.17.4.38-.18.38-.4.38Zm0-.6c-.13,0-.24.1-.24.22s.11.22.24.22.24-.1.24-.22-.11-.22-.24-.22Zm-3.55.58c-.11,0-.21-.04-.29-.12-.07-.07-.11-.16-.11-.26,0-.21.18-.38.4-.38s.4.17.4.38-.18.38-.4.38h0Zm0-.6c-.13,0-.24.1-.24.22,0,.06.02.11.06.15.05.05.11.07.18.07h0c.14,0,.24-.1.24-.22s-.11-.22-.24-.22Z"/>
          <path class="cls-6" d="m4.33,12.44l.26-.43.73.15-.51.41-.48-.13h0Zm13.85,0l-.26-.43-.73.15.51.41.48-.13h0Z"/>
          <path d="m17.7,12.64s-.03,0-.05-.02l-.51-.41s-.03-.05-.03-.08c0-.03.03-.05.06-.06l.73-.15s.06,0,.08.04l.26.43s.01.05,0,.07c0,.02-.03.04-.05.05l-.48.13s-.01,0-.02,0Zm-.34-.45l.35.28.35-.09-.18-.3-.52.11Zm-12.55.45s-.01,0-.02,0l-.48-.13s-.04-.02-.05-.05c0-.02,0-.05,0-.07l.26-.43s.05-.04.08-.04l.73.15s.05.03.06.06c0,.03,0,.06-.03.08l-.51.41s-.03.02-.05.02Zm-.36-.25l.35.09.35-.28-.52-.11-.18.3Z"/>
          <path class="cls-2" d="m7.06,11.51l1.38-.14c.13-.01.24.07.25.19v.02c.02.12-.07.22-.2.23l-1.38.14c-.13.01-.24-.07-.25-.19v-.02c-.02-.12.07-.22.2-.23Zm8.3,0l-1.38-.14c-.13-.01-.24.07-.25.19v.02c-.02.12.07.22.2.23l1.38.14c.12.01.24-.07.25-.19v-.02c.02-.12-.08-.22-.2-.23h0Z"/>
          <path d="m15.33,12.03s-.02,0-.03,0l-1.39-.14c-.08,0-.16-.05-.21-.11-.05-.06-.07-.13-.06-.21v-.02c.02-.16.17-.27.34-.26l1.38.14c.08,0,.16.05.21.11.05.06.07.13.06.21v.03c-.02.15-.15.26-.31.26Zm-1.38-.58c-.08,0-.14.05-.15.12v.02s0,.07.03.09c.03.03.06.05.1.05l1.39.14c.08,0,.16-.05.17-.12v-.03s0-.07-.03-.09c-.03-.03-.06-.05-.11-.05,0,0,0,0,0,0l-1.38-.14s-.01,0-.02,0Zm-6.86.58c-.15,0-.29-.11-.3-.26v-.03c-.01-.07.01-.15.06-.21.05-.06.13-.1.21-.11l1.38-.14c.17-.02.32.1.33.26v.03c.01.07-.01.15-.06.21-.05.06-.13.1-.21.11l-1.38.14s-.02,0-.03,0Zm1.38-.58s-.01,0-.02,0l-1.38.14s0,0,0,0c-.04,0-.08.02-.11.05-.02.03-.03.06-.03.09v.03c.01.07.09.13.17.12l1.38-.14s.08-.02.11-.05c.02-.03.03-.06.03-.09v-.03c-.01-.07-.08-.12-.15-.12Z"/>
          <path class="cls-6" d="m10.41,11.24h1.47c.13,0,.23.09.23.21v.06c0,.12-.1.21-.23.21h-1.47c-.13,0-.23-.09-.23-.21v-.06c0-.12.1-.21.23-.21Z"/>
          <path d="m11.88,11.8h-1.47c-.17,0-.3-.13-.3-.29v-.06c0-.16.14-.29.3-.29h1.47c.17,0,.3.13.3.29v.06c0,.16-.14.29-.3.29Zm-1.47-.49c-.08,0-.15.06-.15.14v.06c0,.07.07.14.15.14h1.47c.08,0,.15-.06.15-.14v-.06c0-.07-.07-.14-.15-.14h-1.47Z"/>
          <path class="cls-3" d="m11.03,10.58c-4.58.03-6.62.9-6.62.9-.09,0-.2.13-.2.22s.13.14.22.14c0,0,2.05-.86,6.62-.9,4.58.03,6.62.9,6.62.9.09,0,.22-.05.22-.14s-.11-.22-.2-.22c0,0-2.05-.86-6.62-.9h-.04,0Z"/>
          <path d="m17.68,11.91s-.02,0-.03,0c-.02,0-2.09-.86-6.59-.89-4.5.03-6.57.88-6.59.89,0,0-.02,0-.03,0-.14,0-.3-.08-.3-.22,0-.12.13-.28.26-.29.09-.04.6-.23,1.6-.44.99-.2,2.67-.45,5.04-.46h.04c2.37.02,4.05.26,5.04.46,1,.2,1.51.4,1.6.44.13.01.26.17.26.29,0,.13-.15.22-.3.22Zm-6.62-1.05c2.37.02,4.05.26,5.04.46.99.2,1.5.4,1.59.43.07,0,.13-.04.13-.06,0-.05-.08-.14-.12-.14-.01,0-.02,0-.03,0-.02,0-2.09-.86-6.59-.89h-.04c-4.5.03-6.57.88-6.59.89,0,0-.02,0-.03,0-.05,0-.12.09-.12.14,0,.02.06.06.13.06.1-.04.61-.23,1.59-.43.99-.2,2.67-.45,5.04-.46Z"/>
          <path class="cls-3" d="m10.82,8.87c-.35.25-.97.26-.97.26,0-.15.09-.22.09-.22-.56-.06-.64-.37-.64-.37.37-.37.74-.31.74-.31-.14-.1-.14-.23-.14-.23.61-.15.94.26.94.26,0,0-.48-.3-.3-.86,0,0,.14,0,.24.13,0,0-.06-.35.34-.69,0,0,.33.09.38.61,0,0,.08-.08.24-.08,0,0-.02.58-.3.9,0,0,.33-.44.93-.27,0,0,0,.13-.14.22,0,0,.38-.05.73.33,0,0-.1.31-.66.35,0,0,.09.07.08.22,0,0-.63-.03-.96-.29-.34-.26-.25-.23-.6.02h0Z"/>
          <path d="m10.18,9.85l.69-.92h0c-.36.27-.99.28-1.02.28h-.08s0-.08,0-.08c0-.06.01-.12.03-.16-.49-.09-.58-.39-.58-.41v-.04s.02-.03.02-.03c.24-.24.47-.31.63-.33-.04-.08-.04-.15-.04-.15v-.06h.06c.24-.08.44-.05.6,0-.06-.15-.09-.33-.02-.56l.02-.05h.06s.08,0,.17.05c.02-.15.1-.37.36-.59l.03-.03h.04s.33.1.42.56c.05-.02.11-.03.18-.03h.08s0,.08,0,.08c0,.02-.01.32-.12.61.17-.08.4-.14.7-.05l.06.02v.06s0,.07-.05.15c.16.02.39.1.62.35l.03.03v.04s-.12.31-.61.39c.02.04.03.1.03.16v.08s-.08,0-.08,0c-.03,0-.66-.03-1.01-.31-.02-.02-.04-.03-.06-.04-.08-.06-.14-.11-.17-.12l-.96,1.11Zm1.07-1.23s.1.07.16.12c.02.01.04.03.06.04.24.19.65.25.83.27-.01-.05-.04-.08-.04-.08l-.15-.12h.19c.38-.04.52-.2.57-.27-.31-.3-.62-.27-.63-.27l-.33.04.28-.18c.05-.03.08-.07.09-.1-.42-.09-.68.15-.75.23,0,0-.02.02-.02.03l-.25.29Zm-1.87-.07c.04.07.18.24.56.28l.19.02-.15.12s-.03.03-.05.08c.18-.01.59-.06.84-.24h0c.05-.04.1-.07.13-.1.09-.07.16-.11.21-.12l.03-.04-.35-.22s-.08-.05-.16-.14c-.13-.09-.35-.19-.65-.13.01.03.04.07.09.11l.28.2-.33-.06s-.32-.05-.64.25Zm1.35-.48c.1.07.16.14.16.14l.26.32.23-.31s0,0,.02-.02c.18-.23.24-.59.26-.75-.07.01-.1.05-.1.05l-.12.13-.02-.17c-.04-.36-.22-.49-.29-.53-.32.29-.28.58-.28.59l.05.29-.18-.23c-.04-.05-.09-.08-.13-.09-.06.27.04.46.14.58Z"/>
          <path class="cls-6" d="m10.59,8.55c0-.26.22-.47.5-.47s.5.21.5.47-.22.47-.5.47-.5-.21-.5-.47Z"/>
          <path d="m11.1,9.1c-.32,0-.58-.24-.58-.54s.26-.54.58-.54.58.24.58.54-.26.54-.58.54Zm0-.94c-.23,0-.43.18-.43.39s.19.39.43.39.42-.18.42-.39-.19-.39-.42-.39Z"/>
          <path class="cls-1" d="m5.19,4.7c0-.14.13-.26.28-.26s.28.12.28.26-.13.26-.28.26-.28-.12-.28-.26Z"/>
          <path d="m5.48,5.04c-.2,0-.36-.15-.36-.34s.16-.34.36-.34.36.15.36.34-.16.34-.36.34Zm0-.52c-.11,0-.2.08-.2.19s.09.19.2.19.2-.08.2-.19-.09-.19-.2-.19Z"/>
          <path class="cls-3" d="m12.11,2.24c.04.21,0,.43-.1.62h-.05s-1.71,0-1.71,0v.03c-.12-.19-.16-.41-.12-.62v.02s.64,0,.64,0v-1.16h-.42v-.58h.42V.08h.62v.45h.48v.56h-.46v1.16h.7Z"/>
          <path d="m10.25,2.95s-.05-.01-.06-.04c-.13-.2-.17-.44-.13-.68,0-.04.05-.07.09-.06.01,0,.03,0,.04.02h.52v-1.01h-.34s-.08-.03-.08-.08v-.58s.03-.08.08-.08h.34V.08s.03-.08.08-.08h.62s.08.03.08.08v.37h.41s.08.03.08.08v.56s-.03.08-.08.08h-.38v1.01h.58s.05-.01.07,0c.02,0,.04.03.05.06.04.23,0,.47-.11.67-.02.03-.04.04-.08.04h-.05s-1.64,0-1.64,0c0,.01-.02.02-.04.02,0,0-.01,0-.02,0Zm.03-.18h1.68s0,0,0,0h0c.07-.14.1-.29.08-.45h-.63s-.08-.03-.08-.08v-1.16s.03-.08.08-.08h.38v-.41h-.41s-.08-.03-.08-.08V.15h-.47v.37s-.03.08-.08.08h-.34v.43h.34s.08.03.08.08v1.16s-.03.08-.08.08h-.58c-.01.15.02.29.08.43Z"/>
          <path class="cls-8" d="m.52,26.25v-12.09h21.43v12.09H.52Z"/>
          <path d="m22.05,26.35H.42v-12.28h21.63v12.28ZM.61,14.26v11.89h21.24v-11.89H.61Z"/>
          <path class="cls-5" d="m3.87,23.52l3.28.44,2.26-.32,1.83.06.14-.7.65-1.6c-.46.32-1.65.86-4.42.86-2.4.01-3.6-.59-4.07-.91v.05s.01-.84.01-.84h-.58s-.46,1.63.9,2.96h0Z"/>
          <path d="m7.15,24.04h-.01s-3.31-.45-3.31-.45l-.02-.02c-.56-.55-.9-1.24-.98-2-.05-.47.02-.84.05-.97l-.2-.11h.95v.84c.52.34,1.68.86,3.9.86.03,0,.05,0,.08,0,2.74,0,3.92-.53,4.38-.85l.21-.15-.74,1.83-.15.76-1.89-.07-2.26.32Zm-3.24-.59l3.24.44,2.25-.32,1.77.06.13-.64.56-1.39c-.58.32-1.81.75-4.26.75-.03,0-.05,0-.08,0-2.15,0-3.33-.49-3.9-.83v.4l-.23-.74.08.05v-.58h-.44c-.06.3-.28,1.67.88,2.81Z"/>
          <path class="cls-7" d="m21.95,24.12c-.8.19-1.23.47-2.05.49-.85.01-1.28-.4-2.13-.41-.86,0-1.31.38-2.17.37-.86,0-1.31-.33-2.17-.34-.87,0-1.33.37-2.21.37-.84,0-1.29-.38-2.13-.37-.86.01-1.31.42-2.17.41-.8,0-1.21-.4-2.01-.41-.94-.02-1.43.52-2.37.49-.81-.03-1.19-.3-2.02-.49h-.04s0,.45,0,.45h.04c.79.19,1.21.46,2.02.49.94.03,1.43-.5,2.37-.49.8.01,1.21.41,2.01.41.86,0,1.31-.4,2.17-.41.84,0,1.29.38,2.13.37.87,0,1.33-.38,2.21-.37.86,0,1.31.33,2.17.34.86,0,1.31-.38,2.17-.37.85,0,1.28.43,2.13.41.82-.01,2.05-.49,2.05-.49v-.45h0Z"/>
          <path d="m2.64,25.24s-.05,0-.08,0c-.54-.02-.91-.14-1.31-.27-.22-.07-.44-.15-.71-.21h-.1v-.63l.13.03c.31.07.56.15.79.23.38.13.71.24,1.21.25.46.01.8-.11,1.17-.24.35-.13.72-.26,1.2-.25.41,0,.72.11,1.02.21.31.1.6.2.99.2.42,0,.74-.1,1.08-.2.32-.1.66-.21,1.09-.21.44,0,.77.09,1.09.19.32.1.62.18,1.03.18h0c.42,0,.74-.09,1.08-.18.33-.09.68-.19,1.12-.19,0,0,0,0,0,0,.44,0,.77.09,1.1.17.33.08.65.17,1.07.17h0c.41,0,.72-.09,1.05-.18.33-.1.67-.19,1.11-.19.43,0,.75.11,1.07.21.33.11.64.21,1.06.2.52,0,.88-.13,1.29-.26.23-.08.46-.15.74-.22l.09-.02v.6l-.05.02c-.05.02-1.25.48-2.07.49-.44,0-.78-.1-1.11-.21-.32-.1-.62-.2-1.02-.2-.42,0-.73.09-1.07.18-.32.09-.66.19-1.09.19h0c-.44,0-.78-.09-1.1-.17-.33-.08-.65-.17-1.06-.17-.43,0-.75.09-1.09.18-.33.09-.68.19-1.12.19h0c-.43,0-.76-.1-1.07-.19-.33-.1-.64-.19-1.05-.18-.41,0-.72.1-1.05.2-.33.1-.67.21-1.12.21-.41,0-.73-.11-1.03-.21-.3-.1-.59-.2-.97-.2-.45,0-.79.11-1.15.24-.34.12-.69.25-1.14.25Zm-2.05-.63c.27.07.49.14.71.21.41.13.76.25,1.27.27.46.01.8-.11,1.17-.24.35-.13.72-.26,1.2-.25.41,0,.72.11,1.02.21.31.1.6.2.99.2.42,0,.74-.1,1.08-.2.32-.1.66-.21,1.09-.21.44,0,.77.09,1.09.19.32.1.63.18,1.03.18h0c.42,0,.74-.09,1.08-.18.33-.09.68-.19,1.12-.19h0c.44,0,.78.09,1.1.17.33.08.65.17,1.07.17h0c.41,0,.72-.09,1.05-.18.33-.1.67-.19,1.11-.19.43,0,.75.11,1.07.21.33.11.64.21,1.06.2.71-.01,1.74-.38,1.97-.46v-.3c-.24.06-.44.13-.64.19-.41.14-.79.26-1.33.27-.44,0-.78-.1-1.11-.21-.32-.1-.62-.2-1.02-.2-.42,0-.73.09-1.07.18-.32.09-.66.19-1.09.19h0c-.44,0-.78-.09-1.1-.17-.33-.08-.65-.16-1.06-.17-.43,0-.75.09-1.09.18-.33.09-.68.19-1.12.19h0c-.43,0-.75-.1-1.07-.19-.33-.1-.64-.19-1.05-.18-.41,0-.72.1-1.05.2-.33.1-.67.21-1.12.21-.42,0-.73-.11-1.04-.21-.3-.1-.59-.2-.97-.2-.45,0-.79.11-1.15.24-.36.13-.73.26-1.22.25-.52-.02-.86-.13-1.25-.26-.22-.07-.44-.15-.72-.21v.29Z"/>
          <path class="cls-7" d="m21.95,25.01c-.8.19-1.23.47-2.05.49-.85.01-1.28-.4-2.13-.41-.86,0-1.31.38-2.17.37-.86,0-1.31-.33-2.17-.34-.87,0-1.33.37-2.21.37-.84,0-1.29-.38-2.13-.37-.86.01-1.31.42-2.17.41-.8,0-1.21-.4-2.01-.41-.94-.02-1.43.52-2.37.49-.81-.03-1.19-.3-2.02-.49h-.04s0,.45,0,.45h.04c.79.19,1.21.46,2.02.49.94.03,1.43-.5,2.37-.49.8.01,1.21.41,2.01.41.86,0,1.31-.4,2.17-.41.84-.01,1.29.38,2.13.37.87,0,1.33-.38,2.21-.37.86,0,1.31.33,2.17.34.86,0,1.31-.38,2.17-.37.85,0,1.28.43,2.13.41.82-.01,2.05-.49,2.05-.49v-.45Z"/>
          <path d="m2.64,26.13s-.05,0-.08,0c-.54-.02-.91-.14-1.31-.27-.22-.07-.44-.15-.71-.21h-.1v-.63l.13.03c.31.07.56.15.79.23.38.13.71.24,1.21.25.46.01.8-.11,1.17-.24.35-.13.72-.26,1.2-.25.41,0,.72.11,1.02.21.31.1.6.2.99.2,0,0,.01,0,.02,0,.42,0,.73-.1,1.06-.2.32-.1.66-.21,1.09-.21.44,0,.77.09,1.09.19.32.1.63.19,1.03.19h0c.42,0,.74-.09,1.08-.18.33-.09.68-.19,1.12-.19h0c.44,0,.77.09,1.1.17.33.09.65.17,1.07.17h0c.41,0,.72-.09,1.05-.18.33-.1.67-.19,1.11-.19.43,0,.75.11,1.07.21.33.11.64.21,1.06.2.52,0,.88-.13,1.29-.26.23-.08.46-.15.74-.22l.09-.02v.6l-.05.02c-.05.02-1.25.48-2.07.49-.44,0-.78-.1-1.11-.21-.32-.1-.62-.2-1.02-.2-.42,0-.73.09-1.07.18-.32.09-.66.19-1.09.19h0c-.44,0-.78-.09-1.1-.17-.33-.08-.65-.16-1.06-.17-.43,0-.75.09-1.09.18-.33.09-.67.19-1.12.19h0c-.43,0-.76-.1-1.07-.19-.33-.1-.64-.19-1.05-.18-.41,0-.72.1-1.05.2-.33.1-.67.21-1.12.21-.41,0-.73-.11-1.03-.21-.3-.1-.59-.2-.97-.2-.45,0-.79.11-1.15.24-.34.12-.69.25-1.14.25Zm-2.05-.63c.27.07.49.14.71.21.4.13.75.25,1.27.27.46.02.8-.11,1.17-.24.35-.13.72-.26,1.2-.25.41,0,.72.11,1.02.21.31.1.6.2.99.2.43,0,.74-.1,1.08-.2.32-.1.66-.21,1.09-.21.44,0,.77.09,1.09.19.32.1.63.18,1.03.18.42,0,.74-.09,1.08-.18.33-.09.68-.19,1.12-.19,0,0,0,0,0,0,.44,0,.77.09,1.1.17.33.08.65.17,1.07.17h0c.41,0,.72-.09,1.05-.18.33-.1.67-.19,1.11-.19.43,0,.75.11,1.07.21.33.11.64.21,1.06.2.71-.01,1.74-.38,1.97-.46v-.3c-.24.06-.44.13-.64.19-.41.14-.79.26-1.33.27-.44,0-.78-.1-1.11-.21-.32-.1-.62-.2-1.02-.2-.42,0-.73.09-1.07.18-.32.09-.66.19-1.09.19h0c-.44,0-.78-.09-1.1-.17-.33-.08-.65-.16-1.06-.17h0c-.42,0-.74.09-1.08.18-.33.09-.68.19-1.12.19-.43,0-.76-.1-1.08-.19-.33-.1-.64-.19-1.05-.18-.41,0-.72.1-1.05.2-.33.1-.67.21-1.12.21-.42,0-.73-.11-1.04-.21-.3-.1-.59-.2-.97-.2-.45,0-.79.11-1.15.24-.36.13-.73.26-1.22.25-.52-.02-.86-.13-1.25-.26-.22-.07-.44-.15-.72-.21v.29Z"/>
          <path class="cls-3" d="m18.06,18.88c-.2,2.54,1.28,2.88,1.28,2.88v1.95h-5.42v-1.95s1.44-.34,1.24-2.88l-.68-.64v-1.53h.64v.49h.48v-.49h.68v.49h.56v-.49h.68v.49h.56v-.49h.64v1.61l-.68.56h0Z"/>
          <path d="m19.42,23.79h-5.57v-2.08h.06s.35-.1.66-.48c.29-.35.62-1.04.52-2.3l-.68-.64v-1.64h.8v.49h.33v-.49h.84v.49h.41v-.49h.84v.49h.41v-.49h.8v1.72l-.68.56c-.07,1,.11,1.79.54,2.3.33.38.68.47.68.47h.06s0,.07,0,.07v2.02Zm-5.42-.15h5.27v-1.81c-.12-.04-.42-.17-.7-.49-.33-.38-.69-1.11-.59-2.45v-.03s.68-.56.68-.56v-1.5h-.49v.49h-.72v-.49h-.53v.49h-.71v-.49h-.53v.49h-.63v-.49h-.49v1.42l.68.63v.03c.11,1.34-.25,2.07-.56,2.45-.27.32-.56.45-.68.49v1.81Z"/>
          <path d="m18.54,21.24h-3.77v-.15h3.77v.15Zm-.28-.56h-3.25v-.15h3.25v.15Zm-.2-.49h-2.89v-.15h2.89v.15Zm0-.49h-2.81v-.15h2.81v.15Zm0-.45h-2.85v-.15h2.85v.15Zm.2-.49h-3.25v-.15h3.25v.15Zm.48-.37h-4.17v-.15h4.17v.15Zm0-.56h-4.25v-.15h4.25v.15Zm0-.56h-4.25v-.15h4.25v.15Z"/>
          <path class="cls-8" d="m15.93,23.69v-1.26c0-.38.33-.68.73-.68s.73.31.73.68v1.26h-1.46Z"/>
          <path d="m17.47,23.77h-1.62v-1.34c0-.42.36-.76.81-.76s.81.34.81.76v1.34Zm-1.46-.15h1.31v-1.19c0-.33-.29-.61-.66-.61s-.66.27-.66.61v1.19Z"/>
          <path d="m19.32,23.06h-1.89v-.15h1.89v.15Zm0-.54h-1.89v-.15h1.89v.15Zm-3.47,0h-1.89v-.15h1.89v.15Zm3.41-.64h-1.73v-.15h1.73v.15Zm-3.61-.04h-1.73v-.15h1.73v.15Zm2.77-3.6h-.15v-.49h.15v.49Zm-1.16,0h-.15v-.49h.15v.49Zm-1.16,0h-.15v-.49h.15v.49Zm-1.16,0h-.15v-.49h.15v.49Zm2.89-.52h-.15v-.49h.15v.49Zm-1.16,0h-.15v-.49h.15v.49Zm-1.16,0h-.15v-.49h.15v.49Z"/>
          <path class="cls-8" d="m17.02,20.12h-.7v-.87c0-.18.16-.33.35-.33s.35.15.35.33v.87Z"/>
          <path d="m17.09,20.19h-.86v-.95c0-.22.19-.4.43-.4s.43.18.43.4v.95Zm-.7-.15h.55v-.79c0-.14-.12-.25-.27-.25s-.27.11-.27.25v.79Z"/>
          <path d="m18.02,23.69h-.15v-.69h.15v.69Zm-2.53,0h-.15v-.63h-.71v.58h-.15v-.58h-.45v-.15h.91v-.43h.15v.43h.83v.15h-.42v.63Zm3.39-.06h-.15v-.64h.15v.64Zm-.46-.66h-.15v-.5h.15v.5Zm.46-.56h-.15v-.64h.15v.64Zm-3.37,0h-.15v-.64h.15v.64Zm2.51-.02h-.15v-.62h.15v.62Zm-3.37,0h-.15v-.62h.15v.62Zm1.39-.33l-.46-.27v-.62h.15v.54l.38.22-.08.13Zm1.23,0l-.09-.12.31-.24v-.54h.15v.62l-.37.29Zm-.9-.29l-.3-.56.14-.07.3.56-.14.07Zm.59-.01l-.13-.08.34-.52.13.08-.34.52Zm.86-.66h-.15v-.49h.15v.49Zm-1.16,0h-.15v-.49h.15v.49Zm-1.16,0h-.15v-.49h.15v.49Zm1.73-.54h-.15v-.43h.15v.43Zm-.96,0h-.15v-.43h.15v.43Zm1.34-.51h-.15v-.45h.15v.45Zm-1.71,0h-.15v-.45h.15v.45Zm1.95-.47h-.15v-.45h.15v.45Zm-2.25,0h-.15v-.45h.15v.45Zm2.01-.43h-.15v-.45h.15v.45Zm-1.71,0h-.15v-.45h.15v.45Zm.49-.13l-.28-.26.1-.11.28.26-.1.11Zm.51-.02l-.1-.11.32-.3.1.11-.32.3Z"/>
          <path class="cls-5" d="m12,21.48v-.92h.58s.38,1.48-.82,2.9c-1.22,1.44-.06-1.27.24-1.98h0Z"/>
          <path d="m11.28,23.96s-.05,0-.07-.02c-.16-.1-.1-.55.71-2.46h0v-.99h.72v.06s.11.39.06.94c-.05.51-.25,1.28-.88,2.03-.29.34-.44.45-.54.45Zm.8-3.32v.86l-.02.04c-.12.28-.34.81-.52,1.29-.27.74-.26.93-.25.98.03-.01.14-.07.41-.39.61-.72.79-1.45.84-1.94.04-.41,0-.72-.03-.84h-.44Z"/>
          <path class="cls-9" d="m3.29,21.17s1.04,1.12,4.31,1.1c3.91,0,4.68-1.09,4.68-1.09,0,0-.32,1.27-4.7,1.29-3.75,0-4.3-1.31-4.3-1.31Z"/>
          <path class="cls-9" d="m3.29,21.56s1.04,1.12,4.31,1.1c3.91,0,4.68-1.09,4.68-1.09,0,0-.32,1.27-4.7,1.29-3.75,0-4.3-1.31-4.3-1.31Z"/>
          <path class="cls-9" d="m3.29,21.97s1.04,1.12,4.31,1.1c3.91,0,4.68-1.09,4.68-1.09,0,0-.32,1.27-4.7,1.29-3.75,0-4.3-1.31-4.3-1.31Z"/>
          <path class="cls-9" d="m3.29,22.36s1.04,1.12,4.31,1.1c3.91,0,4.68-1.09,4.68-1.09,0,0-.32,1.27-4.7,1.29-3.75,0-4.3-1.31-4.3-1.31Z"/>
          <path class="cls-5" d="m9.63,22.21v-1.61h.36v.41h.36v-.45h.42v.47h.32v-.47h.42v1.2l-1.89.45h0Z"/>
          <path class="cls-1" d="m9.21,18.25s-.93,1.8.41,3.56v.16c-4.19-1.2-2.24.9-2.24.9-3.35-.92-1.55-4.62-1.55-4.62h3.37Z"/>
          <path class="cls-9" d="m7.42,22.27l.08-6.23h.08l.12,6.25-.28-.02h0Z"/>
          <path class="cls-9" d="m5.29,18.12l2.27-.19,2.37.19-2.35.15-2.29-.15h0Z"/>
          <path class="cls-1" d="m7.58,16.28l2.07.28-.96.13.92.19-2.03.22v-.82h0Z"/>
          <path class="cls-5" d="m11.9,23.65c-.48-.82-1.47-1.76-1.47-1.76,0,0,0,.71.8,1.82l.66-.06Z"/>
          <path class="cls-9" d="m9.87,21.43v-.19h.24l-.24.19Zm1.32,0v-.19h-.24l.24.19Z"/>
          <path class="cls-8" d="m10.07,22.14v-.33c0-.24.21-.44.47-.44s.47.2.47.44v.1l-.94.22Z"/>
          <path class="cls-1" d="m10.79,16.43c0-.67.58-1.22,1.31-1.22s1.3.54,1.3,1.22-.58,1.22-1.3,1.22c-.72,0-1.31-.54-1.31-1.22h0Z"/>
          <path class="cls-4" d="m11.1,17.57c0-.16.06-.27.06-.43,0-.07.03-.1.06-.13-.07-.07,0-.13,0-.17,0-.25.09-.46.4-.46.17,0,.25-.25.5-.25.54,0,.59.31.75.66v.56c0,.34-.1.28-.32.49-.08.07-.02.16-.06.26-.09.21-.29.58-.56.58-.05,0-.06-.05-.1-.09-.07-.09-.06-.17-.12-.28-.06-.12-.21-.1-.28-.2-.03-.05-.02-.12-.04-.19-.05-.11-.28-.13-.28-.34h0Z"/>
          <path d="m11.91,18.75c-.08,0-.11-.06-.14-.09,0,0-.01-.02-.02-.03,0,0,0,0,0,0-.05-.06-.07-.13-.09-.19-.01-.04-.02-.07-.04-.11-.02-.04-.05-.05-.11-.07-.05-.02-.12-.05-.17-.12,0,0,0,0,0,0-.03-.04-.03-.09-.03-.13,0-.02,0-.05-.01-.07-.01-.02-.05-.04-.08-.07-.08-.05-.2-.13-.2-.3,0-.09.02-.16.03-.23.01-.07.03-.13.03-.2,0-.06.02-.1.04-.13-.03-.06,0-.12.01-.15,0,0,0-.01,0-.02,0-.44.26-.54.48-.54.05,0,.09-.03.15-.09.08-.07.18-.16.35-.16.52,0,.64.28.77.58.02.04.03.08.05.12,0,0,0,.02,0,.03v.56c0,.28-.07.34-.2.43-.04.03-.09.06-.15.12-.02.02-.02.04-.02.09,0,.04,0,.09-.02.15-.08.19-.3.62-.63.62Zm-.04-.21s.02.03.03.04c0,0,.01.02.02.02.25,0,.43-.41.48-.53.01-.03.01-.05.01-.09,0-.06,0-.14.07-.2.06-.06.12-.1.16-.13.1-.07.13-.09.13-.3v-.55s-.03-.07-.05-.11c-.12-.29-.2-.49-.62-.49-.11,0-.18.06-.25.12-.07.06-.14.12-.25.12-.22,0-.33.12-.33.39,0,.03-.01.06-.02.08,0,0-.01.03-.01.03,0,0,0,0,0,0,.02.01.02.03.02.06s0,.04-.02.06c-.03.03-.04.04-.04.07,0,.09-.02.16-.03.23-.01.07-.03.13-.03.2,0,.08.05.12.13.17.06.04.12.07.14.14,0,0,0,0,0,0,.01.04.02.08.02.11,0,.03,0,.05.01.06.02.03.05.04.1.06.06.03.14.06.18.14,0,0,0,0,0,0,.03.05.04.1.05.14.01.05.03.09.06.13Z"/>
          <path class="cls-5" d="m11.63,17.5c-.1,0-.22-.15-.22-.25s.1-.17.14-.2c.1-.09.2-.28.24-.39.22.06.39.09.63.11,0,.17.2.41.2.51,0,.09-.12.22-.24.22-.14,0-.15-.14-.24-.17-.27-.1-.33.17-.5.17h0Z"/>
          <path d="m12.38,17.58c-.12,0-.18-.08-.22-.13-.02-.02-.04-.05-.05-.05-.12-.04-.18,0-.25.07-.06.05-.13.11-.23.11-.15,0-.29-.19-.29-.32,0-.12.09-.2.14-.24,0,0,.01-.01.02-.02.09-.08.18-.26.22-.36.01-.04.05-.06.09-.05.22.06.38.09.61.11.04,0,.07.04.07.08,0,.08.06.19.11.29.05.09.09.16.09.22,0,.13-.15.3-.32.3Zm-.35-.35s.09,0,.14.03c.06.02.09.06.12.1.04.05.06.07.1.07.08,0,.16-.1.16-.15,0-.02-.04-.1-.07-.15-.05-.09-.1-.19-.12-.29-.19-.02-.34-.05-.51-.09-.05.12-.14.27-.23.36,0,0-.01.01-.02.02-.04.03-.09.08-.09.13,0,.07.09.17.14.17.04,0,.08-.03.13-.07.06-.05.14-.12.27-.12Z"/>
          <path class="cls-9" d="m11.62,17.05c.05-.17.19-.13.36-.15.03.08,0,.04,0,.09s-.06.13-.18.13c-.09,0-.1-.05-.18-.08Zm.58-.17c-.02.19-.01.2.1.26l.22.02v-.1c-.1-.09-.14-.16-.32-.19h0Z"/>
          <path d="m12.52,17.24s0,0,0,0l-.22-.02s-.02,0-.03,0c-.15-.08-.17-.13-.14-.34,0-.02.01-.04.03-.05.02-.01.04-.02.06-.01.18.03.24.1.32.17.01.01.02.02.03.03.02.01.02.03.02.06v.1s0,.04-.03.06c-.01.01-.03.02-.05.02Zm-.19-.17h.1s-.08-.07-.15-.09c0,.02,0,.05,0,.06,0,0,.03.02.05.04Zm-.53.13c-.08,0-.12-.03-.15-.05-.02-.01-.03-.02-.05-.03-.04-.01-.06-.05-.05-.09.05-.19.21-.2.34-.2.03,0,.06,0,.09,0,.03,0,.07.02.08.05.01.04.03.08,0,.12,0,.1-.11.2-.26.2Zm-.08-.19s0,0,.01,0c.02.02.04.03.06.03.08,0,.11-.05.11-.06,0,0,0,0,0,0,0,0-.01,0-.02,0-.09,0-.14,0-.17.03Z"/>
          <path class="cls-1" d="m2.5,16.43c0-.67.58-1.22,1.3-1.22s1.3.54,1.3,1.22-.58,1.22-1.3,1.22c-.72,0-1.3-.54-1.3-1.22h0Z"/>
          <path d="m3.81,17.72c-.37,0-.71-.13-.97-.38-.26-.24-.41-.57-.41-.92,0-.71.62-1.29,1.38-1.29s1.38.58,1.38,1.29-.62,1.29-1.38,1.29h0Zm0-2.43c-.68,0-1.23.51-1.23,1.14,0,.3.13.59.36.8.23.22.54.34.87.34h0c.68,0,1.23-.51,1.23-1.14s-.55-1.14-1.23-1.14Z"/>
          <path class="cls-4" d="m2.81,17.57c0-.16.06-.27.06-.43,0-.07.03-.1.06-.13-.07-.07,0-.13,0-.17,0-.13.09-.25.18-.39.09-.13.17-.3.32-.3.17,0,.41.02.66.02.54,0,.41.25.56.6v.79c0,.34-.04.12-.26.32-.08.07-.16.13-.2.23-.09.21-.03.41-.3.41-.05,0-.29.02-.32-.02-.07-.09-.1-.08-.16-.19-.06-.12-.13-.06-.2-.17-.03-.05-.08-.23-.1-.3-.05-.11-.3-.05-.3-.26h0Z"/>
          <path d="m3.72,18.59c-.13,0-.18-.01-.21-.05,0,0,0,0,0,0-.02-.03-.04-.05-.06-.06-.03-.03-.07-.06-.11-.14-.02-.04-.03-.04-.06-.05-.04-.01-.09-.03-.13-.1,0,0,0,0,0,0-.02-.04-.05-.11-.08-.22-.01-.04-.02-.07-.03-.09,0-.01-.05-.03-.08-.04-.08-.03-.23-.07-.23-.25,0-.09.02-.16.03-.23.01-.07.03-.13.03-.2,0-.06.02-.1.04-.13-.03-.06,0-.12.01-.15,0,0,0-.01,0-.02,0-.14.08-.25.16-.38,0-.01.02-.03.03-.05.01-.02.02-.03.03-.05.08-.13.18-.29.35-.29.08,0,.17,0,.27,0,.12,0,.26.01.39.01.46,0,.5.19.56.41.02.07.04.15.07.24,0,0,0,.02,0,.03v.79c0,.19,0,.27-.14.29-.03,0-.08.01-.15.08-.02.02-.04.03-.05.05-.06.05-.11.09-.13.15-.02.05-.03.11-.05.16-.03.13-.07.3-.32.3,0,0-.02,0-.04,0-.05,0-.09,0-.13,0Zm-.1-.16s.1,0,.22,0c.02,0,.04,0,.05,0,.13,0,.14-.05.17-.18.01-.06.03-.12.05-.18.04-.09.11-.15.17-.21.02-.01.03-.03.05-.04.1-.1.18-.11.23-.12,0,0,0,0,0,0,0-.02,0-.06,0-.14v-.77c-.04-.09-.06-.17-.08-.25-.05-.21-.07-.29-.41-.29-.14,0-.28,0-.4-.01-.1,0-.19,0-.27,0-.09,0-.16.11-.23.22-.01.02-.02.03-.03.05-.01.02-.02.03-.03.05-.08.12-.14.21-.14.3,0,.03-.01.06-.02.08,0,0-.01.03-.01.03,0,0,0,0,0,0,.02.01.02.03.02.06,0,.02,0,.04-.02.06-.03.03-.04.04-.04.07,0,.09-.02.16-.03.23-.01.07-.03.13-.03.2,0,.06.02.08.12.11.06.02.14.05.18.12,0,0,0,0,0,0,0,.03.02.06.03.11.02.06.04.15.06.18.02.03.04.04.06.05.04.02.09.04.14.13.03.06.04.07.07.1.02.02.04.04.07.07Z"/>
          <path class="cls-5" d="m3.34,17.5c-.1,0-.22-.15-.22-.25s.1-.17.14-.2c.1-.09-.1-.26.24-.39.22.06.3-.11.54.02.24.15.28.5.28.6,0,.09-.12.22-.24.22-.14,0-.15-.14-.24-.17-.27-.1-.33.17-.51.17h0Z"/>
          <path d="m4.09,17.58c-.12,0-.18-.08-.22-.13-.02-.02-.03-.05-.05-.05-.12-.04-.18,0-.25.07-.06.05-.13.11-.23.11-.15,0-.29-.19-.29-.32,0-.12.09-.2.15-.24,0,0,.01-.01.02-.02,0,0,0-.02,0-.06,0-.12,0-.25.26-.35.02,0,.03,0,.05,0,.08.02.13,0,.2,0,.09-.02.2-.05.36.04,0,0,0,0,0,0,.31.2.32.66.32.67,0,.13-.15.3-.32.3Zm-.35-.35s.09,0,.14.03c.06.02.09.06.12.1.04.05.06.07.1.07.08,0,.16-.1.16-.15,0-.1-.04-.41-.24-.53-.11-.06-.17-.04-.25-.02-.07.02-.15.04-.25.02-.15.06-.14.12-.14.19,0,.05,0,.12-.05.18,0,0-.01.01-.02.02-.04.03-.09.08-.09.13,0,.07.09.17.14.17.04,0,.08-.03.13-.07.06-.05.14-.12.27-.12Z"/>
          <path class="cls-9" d="m3.33,17.05c.05-.17.19-.13.36-.15.03.08,0,.04,0,.09s-.06.13-.18.13c-.09,0-.1-.05-.18-.08Zm.58-.17c-.02.19-.01.2.1.26l.22.02v-.1c-.1-.09-.14-.16-.32-.19h0Z"/>
          <path d="m4.23,17.24s0,0,0,0l-.22-.02s-.02,0-.03,0c-.15-.08-.17-.13-.14-.34,0-.02.01-.04.03-.05.02-.01.04-.02.06-.01.18.03.25.1.32.17.01.01.02.02.03.03.02.01.02.03.02.06v.1s0,.04-.03.06c-.01.01-.03.02-.05.02Zm-.19-.17h.1s-.08-.07-.15-.09c0,.02,0,.05,0,.06,0,0,.03.02.05.04Zm-.53.13c-.08,0-.12-.03-.15-.05-.02-.01-.03-.02-.05-.03-.04-.01-.06-.05-.05-.09.05-.19.21-.2.34-.2.03,0,.06,0,.09,0,.03,0,.07.02.08.05.01.04.03.08,0,.13,0,.1-.11.2-.26.2Zm-.08-.19s0,0,.01,0c.03.02.04.02.06.02.08,0,.11-.05.11-.06,0,0,0,0,0,0,0,0-.01,0-.02,0-.09,0-.14,0-.17.03Z"/>
          <path d="m2.39,23.79c-.08,0-.15-.03-.21-.08h0s-.33-.31-.33-.31l.1-.11-.1.11c-.06-.06-.09-.13-.09-.21,0-.08.03-.15.09-.2.12-.11.3-.1.42,0l.33.31c.06.06.09.13.09.21,0,.08-.03.15-.09.2,0,0,0,0,0,0-.06.05-.13.08-.21.08Zm-.11-.2c.06.06.15.06.21,0,.02-.02.04-.05.04-.09,0-.04-.02-.07-.04-.1l.05-.06-.05.06-.33-.31.05-.06-.05.06c-.06-.06-.15-.06-.21,0-.02.02-.04.05-.04.08,0,.04.02.07.04.1h0s.33.31.33.31h0Zm-.79-.64c-.08,0-.15-.03-.21-.08l-.33-.31c-.11-.1-.13-.27-.03-.39,0,0,.01-.01.02-.02.12-.11.3-.1.42,0h0s.33.31.33.31l-.1.11-.33-.31h0s0,0,0,0c-.06-.06-.15-.06-.21,0,0,0,0,0,0,0-.04.05-.04.13.01.17l-.05.06.05-.06.33.31-.05.06.05-.06c.06.06.15.06.21,0,.02-.02.04-.05.04-.09,0-.04-.02-.07-.04-.1l.1-.11c.06.06.09.13.09.21,0,.08-.03.15-.09.2,0,0,0,0,0,0-.06.05-.13.08-.21.08Z"/>
          <path d="m2.02,23.21s-.04,0-.05-.02l-.5-.47s-.03-.08,0-.11c.03-.03.08-.03.11,0l.5.47s.03.08,0,.11c-.02.02-.04.02-.06.02Zm-.82-.77s-.04,0-.05-.02l-.5-.47s-.03-.08,0-.11c.03-.03.08-.03.11,0l.5.47s.03.08,0,.11c-.02.02-.04.02-.06.02Z"/>
          <path d="m4.12,25.4c-.08,0-.15-.03-.21-.08h0s-.33-.31-.33-.31c-.05-.05-.09-.11-.09-.19,0-.07.02-.14.07-.2,0,0,.01-.01.02-.02,0,0,0,0,0,0,.12-.11.3-.1.42,0l.33.31h0c.06.05.09.12.09.19,0,.07-.02.14-.07.2,0,0-.01.01-.02.02,0,0,0,0,0,0-.06.05-.13.08-.21.08Zm-.11-.2c.06.06.15.06.21,0,0,0,0,0,0,0,.02-.02.03-.06.03-.09s-.02-.06-.04-.08l.06-.07-.06.06-.33-.31.05-.06-.05.06c-.06-.06-.15-.06-.21,0,0,0,0,0,0,0-.02.02-.03.06-.03.09,0,.03.02.06.04.08l-.06.07.07-.07.33.31h0Zm-3.34-3.05c-.08,0-.15-.03-.21-.09l.11-.11c.06.06.15.06.21,0h0s0,0,0,0c.02-.02.03-.06.03-.09,0-.03-.02-.06-.04-.08l.06-.07-.06.06-.33-.31.1-.11.33.31h0c.05.05.09.11.09.19,0,.07-.02.14-.07.2,0,0-.01.01-.02.02l-.06-.06.06.07c-.06.05-.13.08-.21.08Z"/>
          <path d="m3.75,24.82s-.04,0-.05-.02l-.5-.47s-.03-.08,0-.11c.03-.03.08-.03.11,0l.5.47s.03.08,0,.11c-.02.02-.04.02-.06.02Z"/>
          <path d="m15.18,22.99c-.07,0-.15-.03-.21-.08,0,0,0,0,0,0,0,0-.01-.01-.02-.02-.1-.11-.09-.29.03-.39h0s.33-.31.33-.31h0c.12-.11.3-.11.42,0,.06.05.09.12.09.2,0,.08-.03.15-.09.21l-.1-.11s.04-.06.04-.1c0-.03-.01-.06-.04-.09-.06-.05-.15-.05-.21,0h0s-.33.31-.33.31l-.06-.06.06.07c-.05.04-.06.12-.01.17,0,0,0,0,0,0,.06.05.15.05.21,0l.05.06-.05-.06.33-.31.1.11-.33.31c-.06.06-.14.09-.21.09Z"/>
          <path d="m14.67,23.24s-.04,0-.06-.02c-.03-.03-.03-.08,0-.11l.5-.47s.08-.03.11,0c.03.03.03.08,0,.11l-.5.47s-.03.02-.05.02Zm.82-.77s-.04,0-.06-.02c-.03-.03-.03-.08,0-.11l.5-.47s.08-.03.11,0c.03.03.03.08,0,.11l-.5.47s-.03.02-.05.02Z"/>
          <path d="m12.55,25.44c-.07,0-.15-.03-.21-.08,0,0,0,0,0,0,0,0-.01-.01-.02-.02-.05-.06-.07-.13-.07-.2,0-.07.04-.14.09-.19h0s.33-.31.33-.31h0c.12-.11.3-.11.42,0,0,0,0,0,0,0,0,0,.01.01.02.02.1.11.09.29-.03.39l-.33.31c-.06.06-.14.08-.21.08Zm.11-.2l.05.06-.05-.06.33-.31.05.06-.05-.06c.05-.04.06-.12.01-.17,0,0,0,0,0,0-.06-.05-.15-.05-.21,0h0s-.33.31-.33.31l-.06-.06.06.07s-.04.05-.04.08c0,.03,0,.06.03.09,0,0,0,0,0,0,.06.05.15.05.21,0Zm.79-.65c-.07,0-.15-.03-.2-.08,0,0-.01-.01-.02-.02-.1-.11-.09-.29.03-.39l.33-.31.05.06-.05-.06c.12-.11.3-.11.42,0,0,0,0,0,0,0,0,0,.01.01.02.02.1.11.09.29-.03.39l-.33.31h0c-.06.06-.14.08-.22.08Zm-.15-.43l.05.06c-.05.04-.06.12-.01.17,0,0,0,0,0,0,.06.05.15.05.21,0h0s.33-.31.33-.31l.07.07-.06-.07c.05-.04.06-.12.01-.17,0,0,0,0,0,0-.06-.05-.15-.05-.21,0l-.33.31-.05-.06Z"/>
          <path d="m12.94,24.85s-.04,0-.06-.02c-.03-.03-.03-.08,0-.11l.5-.47s.08-.03.11,0c.03.03.03.08,0,.11l-.5.47s-.03.02-.05.02Z"/>
          <polygon points="22.03 25.47 21.88 25.47 21.88 23.79 21.87 23.79 21.87 23.33 21.88 23.33 21.88 23.22 22.03 23.22 22.03 25.47"/>
          <path class="cls-7" d="m21.95,23.22c-.8.19-1.23.47-2.05.49-.85.01-1.28-.4-2.13-.41-.86,0-1.31.38-2.17.37-.86,0-1.31-.33-2.17-.34-.87,0-1.33.37-2.21.37-.84,0-1.29-.38-2.13-.37-.86.01-1.31.42-2.17.41-.8,0-1.21-.4-2.01-.41-.94-.02-1.43.52-2.37.49-.81-.03-1.19-.3-2.02-.49h-.04s0,.45,0,.45h.04c.79.19,1.21.46,2.02.49.94.03,1.43-.5,2.37-.49.8.01,1.21.41,2.01.41.86,0,1.31-.4,2.17-.41.84,0,1.29.38,2.13.37.87,0,1.33-.38,2.21-.37.86,0,1.31.34,2.17.34.86,0,1.31-.38,2.17-.37.85,0,1.28.43,2.13.41.82-.01,2.05-.49,2.05-.49v-.45h0Z"/>
          <path d="m2.64,24.35s-.05,0-.08,0c-.54-.02-.91-.14-1.31-.27-.22-.07-.44-.15-.71-.21h-.1v-.63l.13.03c.31.07.56.15.79.23.38.13.71.24,1.21.25.46.01.8-.11,1.17-.24.35-.13.72-.26,1.2-.25.41,0,.72.11,1.02.21.31.1.6.2.99.2.42,0,.74-.1,1.08-.2.32-.1.66-.21,1.09-.21.44,0,.77.09,1.09.19.32.1.63.18,1.03.18h0c.43,0,.74-.09,1.08-.18.33-.09.68-.19,1.12-.19h0c.44,0,.77.09,1.1.17.33.08.65.17,1.07.17h0c.41,0,.72-.09,1.05-.18.33-.1.67-.19,1.11-.19.43,0,.75.11,1.07.21.33.11.64.21,1.06.2.52,0,.88-.13,1.29-.26.23-.08.46-.15.74-.22l.09-.02v.6l-.05.02c-.05.02-1.25.48-2.07.49-.44,0-.78-.1-1.11-.21-.32-.1-.62-.2-1.02-.2-.42,0-.73.09-1.07.18-.33.09-.66.19-1.1.19-.44,0-.78-.09-1.1-.17-.33-.08-.65-.16-1.06-.17h0c-.42,0-.74.09-1.08.18-.33.09-.68.19-1.12.19h0c-.43,0-.76-.1-1.07-.19-.33-.1-.64-.19-1.05-.18-.41,0-.72.1-1.05.2-.33.1-.67.21-1.12.21-.42,0-.73-.11-1.03-.21-.3-.1-.59-.2-.97-.2-.45,0-.79.11-1.15.24-.34.12-.69.25-1.14.25Zm-2.05-.63c.27.07.49.14.71.21.41.13.76.25,1.27.27.46.01.8-.11,1.17-.24.35-.13.72-.26,1.2-.25.41,0,.72.11,1.02.21.31.1.6.2.99.2.43,0,.74-.1,1.08-.2.32-.1.66-.21,1.09-.21.44,0,.77.09,1.09.19.32.1.63.18,1.03.18h0c.42,0,.74-.09,1.08-.18.33-.09.68-.19,1.12-.19h0c.44,0,.77.09,1.1.17.33.08.65.17,1.07.17h0c.41,0,.72-.09,1.05-.18.33-.1.67-.19,1.11-.19.43,0,.75.11,1.07.21.33.11.64.21,1.06.2.71-.01,1.74-.38,1.97-.46v-.3c-.24.06-.44.13-.64.19-.41.14-.79.26-1.33.27-.44,0-.78-.1-1.11-.21-.32-.1-.62-.2-1.02-.2-.42,0-.73.09-1.07.18-.32.09-.66.19-1.09.19h0c-.44,0-.78-.09-1.1-.17-.33-.08-.65-.16-1.06-.17h0c-.42,0-.74.09-1.08.18-.33.09-.68.19-1.12.19h0c-.43,0-.76-.1-1.07-.19-.33-.1-.64-.19-1.05-.18-.41,0-.72.1-1.05.2-.33.1-.67.21-1.12.21-.42,0-.73-.11-1.04-.21-.3-.1-.59-.2-.97-.2-.45,0-.79.11-1.15.24-.36.13-.73.26-1.22.25-.52-.02-.86-.13-1.25-.26-.22-.07-.44-.15-.72-.21v.29Z"/>
          <path d="m3.21,24.56c-.08,0-.16-.03-.22-.08l.05-.06-.05.06-.33-.31c-.05-.05-.09-.11-.09-.19,0-.07.02-.14.07-.2,0,0,.01-.01.02-.02,0,0,0,0,0,0,.12-.11.3-.1.42,0l.33.31c.06.06.09.13.09.21,0,.08-.03.15-.09.2-.06.05-.13.08-.21.08Zm-.11-.2c.06.05.16.06.21,0,.02-.02.04-.05.04-.09,0-.04-.02-.07-.04-.1l.05-.06-.05.06-.33-.31.05-.06-.05.06c-.06-.06-.15-.06-.21,0,0,0,0,0,0,0-.02.02-.03.06-.03.09,0,.03.02.06.04.08l-.05.06.05-.06.33.31Z"/>
          <path d="m2.93,24.05s-.04,0-.05-.02l-.5-.47s-.03-.08,0-.11c.03-.03.08-.03.11,0l.5.47s.03.08,0,.11c-.02.02-.04.02-.06.02Z"/>
          <path d="m14.27,23.83c-.07,0-.15-.03-.21-.08,0,0,0,0,0,0,0,0-.01-.01-.02-.02-.1-.11-.09-.29.03-.39h0s.33-.31.33-.31h0c.12-.11.3-.11.42,0,0,0,0,0,0,0,0,0,.01.01.02.02.05.06.07.13.07.2,0,.07-.04.14-.09.19h0s-.33.31-.33.31h0c-.06.06-.14.08-.21.08Zm.11-.2l.06.06-.06-.06.33-.31.05.05-.05-.06s.04-.05.04-.08c0-.03,0-.06-.03-.09,0,0,0,0,0,0-.06-.05-.15-.05-.21,0h0s0,0,0,0l-.33.31-.06-.06.06.07c-.05.04-.06.12-.01.17,0,0,0,0,0,0,.06.05.15.05.21,0Z"/>
          <path d="m13.76,24.09s-.04,0-.06-.02c-.03-.03-.03-.08,0-.11l.5-.47s.08-.03.11,0c.03.03.03.08,0,.11l-.5.47s-.03.02-.05.02Z"/>
          <path class="cls-5" d="m7.5,17.25h.13v.25h.13v-.22h.22v.45h-.89v-.45h.22v.22h.13v-.25h.13-.06Z"/>
          <path d="m8.05,17.81h-1.04v-.6h.35v-.03h.34v.03h.35v.6Zm-.89-.15h.74v-.29h-.07v.22h-.28v-.25h-.04v.25h-.28v-.22h-.07v.29Z"/>
          <path class="cls-7" d="m5.62,32.95c0-2.91,2.53-5.27,5.65-5.27s5.65,2.36,5.65,5.27-2.53,5.27-5.65,5.27-5.65-2.36-5.65-5.27Z"/>
          <path d="m11.28,38.3c-1.53,0-2.97-.56-4.05-1.56-1.08-1.01-1.68-2.35-1.68-3.78s.6-2.77,1.68-3.78c1.08-1.01,2.52-1.56,4.05-1.56s2.97.56,4.05,1.56c1.08,1.01,1.68,2.35,1.68,3.78s-.6,2.77-1.68,3.78c-1.08,1.01-2.52,1.56-4.05,1.56Zm0-10.54c-3.08,0-5.58,2.33-5.58,5.2s2.5,5.2,5.58,5.2,5.58-2.33,5.58-5.2-2.5-5.2-5.58-5.2Z"/>
          <path class="cls-7" d="m7.34,32.99c0-2.01,1.74-3.63,3.89-3.63s3.89,1.63,3.89,3.63-1.74,3.63-3.89,3.63c-2.15,0-3.89-1.63-3.89-3.63h0Z"/>
          <path d="m11.23,36.7c-1.06,0-2.06-.38-2.8-1.08-.75-.7-1.17-1.63-1.17-2.62,0-2.04,1.78-3.71,3.97-3.71s3.97,1.66,3.97,3.71-1.78,3.71-3.97,3.71h0Zm0-7.26c-2.11,0-3.82,1.59-3.82,3.55,0,.95.4,1.84,1.12,2.51.72.67,1.68,1.04,2.7,1.04h0c2.11,0,3.82-1.59,3.82-3.55s-1.71-3.55-3.82-3.55Z"/>
          <path class="cls-7" d="m8.13,32.98c0-1.6,1.39-2.9,3.12-2.9s3.12,1.3,3.12,2.9-1.39,2.9-3.12,2.9-3.12-1.3-3.12-2.9h0Z"/>
          <path d="m11.24,35.96c-1.76,0-3.19-1.34-3.19-2.98s1.43-2.98,3.19-2.98,3.19,1.34,3.19,2.98-1.43,2.98-3.19,2.98Zm0-5.81c-1.68,0-3.04,1.27-3.04,2.83s1.36,2.83,3.04,2.83,3.04-1.27,3.04-2.83-1.36-2.83-3.04-2.83Z"/>
          <path d="m11.88,38.08s-.05-.01-.07-.04l-.57-1.04-.5.96s-.04.04-.08.04c-.03,0-.06-.03-.07-.06l-.28-1.04-.63.88s-.05.04-.08.03c-.03,0-.05-.03-.06-.06l-.14-1.11-.98.64s-.06.02-.09,0c-.03-.02-.04-.05-.03-.08l.25-1.05-1.07.43s-.06,0-.08-.02-.03-.06-.01-.09l.46-.96-1.14.17s-.06-.01-.08-.04c-.02-.03-.01-.06,0-.09l.67-.82-1.14-.1s-.06-.02-.07-.05c0-.03,0-.06.02-.08l.84-.69-1.09-.26s-.05-.03-.06-.07c0-.03.01-.06.04-.08l1.02-.49-1.01-.46s-.05-.04-.04-.08c0-.03.03-.06.06-.07l1.13-.26-.92-.73s-.04-.06-.02-.09c.01-.03.04-.05.07-.05l1.16.03-.7-.88s-.02-.06,0-.09c.02-.03.05-.04.08-.03l1.16.26-.57-1.09s-.01-.06.01-.09c.02-.02.06-.03.09-.02l1.21.53-.35-1.15s0-.07.03-.08c.03-.02.06-.02.09,0l1,.73v-1.16s.02-.06.05-.07c.03-.01.06,0,.08.02l.79.9.28-1.09s.03-.05.07-.06c.03,0,.06.01.08.04l.53,1.02.5-1.02s.04-.05.08-.04c.03,0,.06.02.07.06l.32,1.13.79-.94s.06-.03.09-.02c.03.01.05.04.05.08l-.07,1.13.91-.75s.06-.02.09,0c.03.02.04.05.04.08l-.21,1.16,1.19-.6s.06,0,.09.01c.02.02.03.06.02.09l-.57,1.17,1.25-.27s.07,0,.08.04c.02.03.01.07,0,.09l-.81.89,1.28.03s.06.02.07.05c0,.03,0,.07-.03.08l-.94.65,1.19.26s.06.03.06.07c0,.03-.02.06-.05.08l-1.12.46,1.12.49s.05.04.05.08c0,.03-.03.06-.06.07l-1.16.26.91.69s.04.05.03.08c0,.03-.04.05-.07.05l-1.23.07.8.78s.03.06.02.09c-.01.03-.05.05-.08.04l-1.22-.17.53,1.03s.01.06-.01.09c-.02.02-.06.03-.09.02l-1.14-.5.28,1.16s0,.06-.03.08c-.03.02-.06.02-.09,0l-1.01-.74-.04,1.17s-.02.06-.05.07c-.03.01-.06,0-.08-.02l-.74-.83-.25,1.09s-.03.05-.06.06c0,0,0,0-.01,0Zm-.64-1.31s.05.02.07.04l.55.98.24-1.04s.03-.05.06-.06c.03,0,.06,0,.08.02l.72.79.03-1.12s.02-.05.04-.07c.03-.01.06,0,.08,0l.95.7-.27-1.11s0-.06.03-.08c.02-.02.05-.02.08-.01l1.09.47-.5-.97s-.01-.06,0-.08c.02-.02.04-.04.07-.03l1.13.16-.76-.74s-.03-.05-.02-.08.04-.05.07-.05l1.19-.06-.88-.66s-.04-.05-.03-.08c0-.03.03-.05.06-.06l1.1-.25-1.07-.47s-.05-.04-.05-.07c0-.03.02-.06.05-.07l1.06-.43-1.12-.25s-.05-.03-.06-.06c0-.03,0-.06.03-.08l.89-.61-1.21-.03s-.06-.02-.07-.05,0-.06.01-.08l.76-.83-1.17.25s-.06,0-.08-.03c-.02-.02-.02-.05,0-.08l.54-1.1-1.12.57s-.06.01-.08,0c-.02-.02-.03-.05-.03-.08l.2-1.1-.88.73s-.06.02-.08,0c-.03-.01-.04-.04-.04-.07l.07-1.08-.73.87s-.05.03-.07.03c-.03,0-.05-.03-.06-.05l-.31-1.08-.47.98s-.04.04-.07.04h0s-.05-.02-.07-.04l-.51-.98-.27,1.04s-.03.05-.06.06c-.03,0-.06,0-.08-.02l-.75-.86v1.11s-.02.06-.04.07c-.03.01-.06.01-.08,0l-.94-.69.33,1.09s0,.06-.02.08c-.02.02-.05.02-.08.01l-1.17-.51.54,1.04s.01.06,0,.08c-.02.02-.05.03-.08.03l-1.11-.25.67.84s.02.06,0,.08-.04.04-.07.04l-1.09-.03.86.68s.03.05.03.08c0,.03-.03.05-.06.06l-1.06.25.96.43s.04.04.05.07c0,.03-.02.06-.04.07l-.97.47,1.04.25s.05.03.06.06c0,.03,0,.06-.03.08l-.82.67,1.1.1s.05.02.06.05c.01.03,0,.06-.01.08l-.64.78,1.09-.16s.06,0,.07.03.02.05,0,.08l-.44.91,1.02-.41s.06,0,.08.01c.02.02.03.05.02.08l-.24,1.01.92-.61s.05-.02.07,0,.04.03.04.06l.14,1.04.61-.85s.05-.04.08-.03c.03,0,.05.03.06.06l.27,1.01.47-.91s.04-.04.07-.04h0Z"/>
          <path class="cls-7" d="m10.59,32.93c0-.34.3-.62.66-.62s.66.28.66.62-.3.62-.66.62-.66-.28-.66-.62Z"/>
          <path d="m11.26,33.63c-.41,0-.74-.31-.74-.69s.33-.69.74-.69.74.31.74.69-.33.69-.74.69Zm0-1.24c-.32,0-.59.24-.59.54s.26.54.59.54.59-.24.59-.54-.26-.54-.59-.54Z"/>
          <path class="cls-7" d="m10.66,30.52c0-.23,1.19-.23,1.19,0s-.27.42-.59.42-.59-.19-.59-.42Zm-2.03,3.01c-.25,0-.25-1.11,0-1.11s.46.25.46.55-.2.55-.46.55Zm3.21,1.93c0,.23-1.19.23-1.19,0s.27-.42.59-.42.59.19.59.42Zm2.03-3.11c.25,0,.25,1.11,0,1.11s-.46-.25-.46-.55c0-.31.2-.55.46-.55Z"/>
          <path d="m11.26,35.7c-.16,0-.67-.02-.67-.25,0-.28.3-.5.67-.5s.67.22.67.5c0,.23-.51.25-.67.25Zm-.52-.25s.19.1.52.1.5-.07.52-.1c0-.19-.24-.35-.52-.35s-.52.16-.52.35Zm-2.1-1.85c-.2,0-.26-.33-.26-.63s.07-.63.26-.63c.29,0,.53.28.53.63s-.24.63-.53.63Zm0-1.11s-.11.16-.11.48.08.48.11.48c.21,0,.38-.21.38-.48s-.17-.48-.38-.48Zm5.24,1.03c-.29,0-.53-.28-.53-.63,0-.35.24-.63.53-.63.2,0,.27.33.27.63s-.07.63-.27.63Zm0-1.11c-.21,0-.38.21-.38.48,0,.26.17.48.38.48.03,0,.11-.16.11-.48s-.08-.48-.11-.48Zm-2.62-1.4c-.37,0-.67-.22-.67-.5,0-.23.51-.25.67-.25s.67.02.67.25c0,.28-.3.5-.67.5Zm-.52-.5c0,.19.24.35.52.35s.52-.16.52-.35c-.02-.03-.19-.1-.52-.1s-.5.07-.52.1Z"/>
          <path class="cls-7" d="m9.24,31.37s-.1-.05-.15-.05c-.13,0-.24.1-.24.22s.11.22.24.22c.04,0,.08,0,.12-.03,0,0,1.11,1.24-.01,2.35-.13,0-.24.1-.24.22s.11.22.24.22c.05,0,.1-.01.14-.04,2.08-1.85-.1-3.13-.1-3.13h0Zm3.68-.32s.06-.09.06-.14c0-.12-.11-.22-.24-.22s-.24.1-.24.22c0,.04.01.08.03.11,0,0-1.32,1.04-2.52,0,0-.12-.11-.22-.24-.22s-.24.1-.24.22c0,.04.02.1.04.13,1.99,1.94,3.35-.09,3.35-.09h0s0,0,0,0Zm.34,3.44s.1.05.15.05c.13,0,.24-.1.24-.22s-.11-.22-.24-.22c-.04,0-.08,0-.12.03,0,0-1.11-1.24.01-2.35.13,0,.24-.1.24-.22s-.11-.22-.24-.22c-.05,0-.1.01-.14.04-2.08,1.85.1,3.13.1,3.13h0Zm-3.68.32s-.06.09-.06.14c0,.12.11.22.24.22s.24-.1.24-.22c0-.04,0-.08-.03-.11,0,0,1.32-1.04,2.52,0,0,.12.11.22.24.22s.24-.1.24-.22c0-.05-.02-.09-.04-.13-1.99-1.94-3.35.09-3.35.09h0s0,0,0,0Z"/>
          <path d="m9.77,35.25c-.18,0-.32-.13-.32-.3,0-.07.03-.14.08-.2,0,0,0,0,.02-.01.11-.15.65-.84,1.51-.93.64-.07,1.29.22,1.94.85,0,0,0,0,.01.01.03.05.05.11.05.17,0,0,0,0,0,0,0,.17-.14.3-.32.3-.16,0-.3-.12-.32-.26-.47-.4-1.01-.52-1.61-.36-.36.1-.64.27-.74.34,0,.03.01.06.01.09,0,.16-.14.3-.32.3Zm-.14-.37s-.02.05-.02.07c0,.08.07.15.16.15s.16-.07.16-.15c0-.03,0-.05-.02-.07-.02-.03-.01-.08.02-.1.01-.01.35-.27.84-.4.46-.12,1.14-.15,1.78.41.02.01.03.04.03.06,0,.08.07.15.16.15s.16-.07.16-.15c0-.03,0-.06-.02-.08-.61-.59-1.22-.86-1.81-.8-.87.09-1.41.88-1.42.89,0,0-.02.02-.03.02Zm3.8-.26c-.07,0-.14-.02-.2-.07,0,0,0,0-.01-.01-.16-.1-.92-.62-1-1.44-.06-.59.25-1.19.92-1.79,0,0,0,0,.02-.01.05-.03.11-.04.17-.05,0,0,0,0,0,0,.18,0,.32.13.32.3,0,.16-.12.28-.28.3-.43.43-.56.94-.39,1.49.1.34.29.6.37.69.03,0,.06-.01.1-.01.17,0,.32.13.32.3s-.14.3-.32.3h0Zm-.09-.18s.06.02.09.02h0c.09,0,.16-.07.16-.15s-.07-.15-.16-.15c-.03,0-.06,0-.09.02-.03.02-.07,0-.09-.02-.01-.01-.29-.33-.43-.79-.13-.43-.16-1.07.45-1.67.01-.01.03-.02.05-.02.09,0,.16-.07.16-.15s-.07-.15-.16-.15c-.03,0-.07,0-.1.02-.62.56-.91,1.11-.86,1.65.08.82.95,1.34.95,1.34,0,0,.02.01.02.02Zm-4.14.17c-.18,0-.32-.14-.32-.3,0-.16.12-.28.28-.3.43-.44.56-.94.39-1.49-.1-.34-.29-.59-.37-.69-.03,0-.07.01-.1.01-.17,0-.32-.13-.32-.3s.14-.3.32-.3h0c.07,0,.14.02.2.07,0,0,0,0,.01.01.15.09.92.61,1,1.44.06.59-.25,1.19-.92,1.79,0,0,0,0-.02.01-.05.03-.11.04-.17.05,0,0,0,0,0,0Zm.01-2.95s.04,0,.06.03c.01.01.29.33.43.79.13.43.16,1.07-.45,1.67-.01.01-.03.02-.05.02-.09,0-.16.07-.16.15s.07.15.16.15c.03,0,.07,0,.1-.02.62-.56.91-1.11.86-1.65-.08-.82-.95-1.34-.95-1.34,0,0-.02-.01-.02-.02-.03-.02-.06-.02-.09-.02-.09,0-.16.07-.16.15s.07.15.16.15c.03,0,.06,0,.09-.02.01,0,.02,0,.03,0Zm2.06.39c-.58,0-1.17-.29-1.76-.86,0,0,0,0-.01-.01-.03-.04-.05-.11-.05-.17,0-.17.14-.3.32-.3.16,0,.3.12.31.26.47.4,1.01.52,1.61.36.36-.1.64-.27.74-.34,0-.03-.01-.06-.01-.09,0-.17.14-.3.32-.3s.32.13.32.3c0,.07-.03.14-.08.19,0,0-.01,0-.02.01-.1.14-.65.84-1.51.93-.06,0-.12,0-.18,0Zm-1.64-.96c.61.59,1.22.86,1.81.8.87-.09,1.41-.88,1.42-.89,0-.01.02-.02.03-.02.01-.02.02-.05.02-.07,0-.08-.07-.15-.16-.15s-.16.07-.16.15c0,.03,0,.05.02.07.02.03.01.08-.02.1-.01.01-.35.27-.84.4-.46.12-1.14.15-1.78-.41-.02-.01-.03-.04-.03-.06,0-.08-.07-.15-.16-.15s-.16.07-.16.15c0,.02.01.06.02.08Z"/>
          <path class="cls-9" d="m11,32.88c0-.13.11-.24.24-.24.13,0,.24.11.24.24h0c0,.13-.11.24-.24.24-.13,0-.24-.11-.24-.24Z"/>
          <path d="m11.24,33.21c-.09,0-.17-.03-.23-.09-.06-.06-.09-.14-.09-.23h0c0-.09.03-.17.09-.23s.14-.09.23-.09h0c.09,0,.17.03.23.09.06.06.09.14.09.23,0,.09-.03.17-.09.23s-.14.09-.23.09h0Zm-.17-.32s.02.09.05.12c.03.03.07.05.12.05h0s.09-.02.12-.05c.03-.03.05-.07.05-.12,0-.04-.02-.09-.05-.12-.03-.03-.07-.05-.12-.05h0s-.09.02-.12.05-.05.07-.05.12h0Z"/>
          <path d="m11.24,36.17c-1.88,0-3.41-1.43-3.41-3.19s1.53-3.19,3.41-3.19,3.41,1.43,3.41,3.19-1.53,3.19-3.41,3.19Zm0-6.22c-1.8,0-3.26,1.36-3.26,3.03s1.46,3.03,3.26,3.03c1.8,0,3.26-1.36,3.26-3.03s-1.46-3.03-3.26-3.03Z"/>
        </g>
      </g>
    </g>
  </g>
</svg>