<?xml version="1.0" encoding="UTF-8"?>
<svg id="Capa_2" data-name="Capa 2" xmlns="http://www.w3.org/2000/svg" viewBox="0 0 20.7 13.56">
  <defs>
    <style>
      .cls-1 {
        fill: #f5f5f5;
      }

      .cls-2 {
        fill: #ff4b55;
      }

      .cls-3 {
        fill: #41479b;
      }
    </style>
  </defs>
  <g id="Cabecera">
    <g>
      <path class="cls-3" d="m20.35,13.56H.36c-.2,0-.36-.16-.36-.36V.36c0-.2.16-.36.36-.36h19.99c.2,0,.36.16.36.36v12.85c0,.2-.16.36-.36.36Z"/>
      <path class="cls-1" d="m20.7.36c0-.2-.16-.36-.36-.36h-1.6l-6.61,4.33V0h-3.57v4.33L1.95,0H.36C.16,0,0,.16,0,.36v.92l5.67,3.72H0v3.57h5.67L0,12.28v.92c0,.2.16.36.36.36h1.6l6.61-4.33v4.33h3.57v-4.33l6.61,4.33h1.6c.2,0,.36-.16.36-.36v-.92l-5.67-3.72h5.67v-3.57h-5.67l5.67-3.72V.36Z"/>
      <g>
        <polygon class="cls-2" points="20.7 5.71 11.42 5.71 11.42 0 9.28 0 9.28 5.71 0 5.71 0 7.85 9.28 7.85 9.28 13.56 11.42 13.56 11.42 7.85 20.7 7.85 20.7 5.71"/>
        <path class="cls-2" d="m7.24,8.57L.01,13.26c.03.17.17.31.35.31h.49l7.7-5h-1.31Z"/>
        <path class="cls-2" d="m14.01,8.57h-1.31l7.69,4.99c.18-.02.32-.17.32-.35v-.29l-6.7-4.35Z"/>
        <path class="cls-2" d="m0,.75l6.54,4.25h1.31L.21.03c-.12.06-.21.18-.21.32v.39Z"/>
        <path class="cls-2" d="m13.45,5L20.69.3C20.66.13,20.52,0,20.35,0h-.51l-7.7,5h1.31Z"/>
      </g>
    </g>
  </g>
</svg>