<?xml version="1.0" encoding="UTF-8"?>
<svg id="Capa_2" data-name="Capa 2" xmlns="http://www.w3.org/2000/svg" viewBox="0 0 18.93 18.97">
  <defs>
    <style>
      .cls-1 {
        fill: #959ca3;
      }
    </style>
  </defs>
  <g id="Cabecera">
    <g>
      <path class="cls-1" d="m6.63,0h5.67c.44.02.89.05,1.33.07.77.05,1.53.18,2.24.5,1.74.78,2.66,2.18,2.95,4.04.05.33.08.66.11.99v7.64c-.01.08-.02.17-.03.25-.05.42-.07.84-.16,1.25-.38,1.81-1.4,3.1-3.14,3.78-.83.33-1.71.41-2.6.42-2.01.02-4.01.04-6.02.03-.99,0-1.98,0-2.95-.24-1.57-.38-2.74-1.27-3.43-2.74-.43-.9-.56-1.88-.57-2.87C.01,11.06-.01,9.01,0,6.96c0-.86.06-1.73.18-2.58.2-1.33.84-2.43,1.92-3.24C3.04.43,4.12.16,5.26.08c.45-.03.91-.05,1.37-.08Zm2.86,17.3s0-.02,0-.03c.5,0,1,.01,1.5,0,1.07-.04,2.15-.03,3.22-.16,1.46-.18,2.45-1.02,2.81-2.47.14-.59.19-1.21.21-1.82.03-1.91.04-3.82.03-5.73,0-.77-.04-1.55-.14-2.31-.19-1.52-1.15-2.55-2.65-2.85-.65-.13-1.32-.17-1.99-.18-1.66-.03-3.32-.02-4.98-.02-.95,0-1.9,0-2.84.16-1.44.25-2.42,1.17-2.72,2.6-.13.62-.17,1.26-.18,1.89-.03,1.52-.04,3.04-.03,4.56.01,1.07.04,2.15.14,3.22.1,1.04.59,1.9,1.51,2.47.62.38,1.31.54,2.03.56,1.36.05,2.73.07,4.09.11Z"/>
      <path class="cls-1" d="m4.6,9.49c0-2.69,2.2-4.88,4.88-4.87,2.7.01,4.88,2.2,4.86,4.89-.02,2.7-2.19,4.86-4.87,4.86-2.69,0-4.88-2.19-4.88-4.88Zm1.72,0c0,1.75,1.4,3.16,3.15,3.16,1.75,0,3.16-1.4,3.17-3.15,0-1.76-1.4-3.17-3.16-3.17-1.75,0-3.15,1.41-3.16,3.15Z"/>
      <path class="cls-1" d="m14.57,3.29c.64.01,1.13.52,1.11,1.17-.02.63-.53,1.11-1.16,1.1-.63,0-1.13-.53-1.11-1.17.01-.62.53-1.11,1.16-1.1Z"/>
    </g>
  </g>
</svg>