<?xml version="1.0" encoding="UTF-8"?>
<svg id="Capa_2" data-name="Capa 2" xmlns="http://www.w3.org/2000/svg" viewBox="0 0 18.98 18.98">
  <defs>
    <style>
      .cls-1 {
        fill: #959ca3;
      }
    </style>
  </defs>
  <g id="Cabecera">
    <path class="cls-1" d="m1.63,0c5.24,0,10.48,0,15.72,0,.03.01.05.03.08.03.45.09.82.32,1.12.67.23.27.34.59.43.92v15.72s-.03.04-.03.06c-.2.95-.95,1.57-1.93,1.57-5.02,0-10.04,0-15.06,0-.17,0-.35-.02-.51-.06C.57,18.7,0,17.94,0,17,0,11.99,0,6.98,0,1.98c0-.06,0-.11,0-.17C.04,1.28.26.84.65.48c.28-.26.62-.38.98-.48Zm8.81,16.12v-.24c0-1.53,0-3.06,0-4.6,0-.12,0-.23.01-.35.08-.82.99-1.44,1.78-1.19.66.21,1.05.74,1.05,1.46,0,1.56,0,3.13,0,4.69,0,.07,0,.14,0,.22h2.84c0-.05,0-.09,0-.14,0-1.75,0-3.5,0-5.24,0-1.02-.41-1.88-1.18-2.53-1.28-1.08-2.99-1.11-4.24.19-.08.08-.15.18-.27.31v-1.1h-2.82v8.51h2.83Zm-4.76,0V7.61h-2.82v8.51h2.82Zm.29-11.85c0-.94-.77-1.71-1.71-1.71-.94,0-1.71.78-1.71,1.71,0,.94.76,1.69,1.7,1.7.94,0,1.71-.76,1.71-1.7Z"/>
  </g>
</svg>