<?xml version="1.0" encoding="UTF-8"?>
<svg id="Capa_2" data-name="Capa 2" xmlns="http://www.w3.org/2000/svg" viewBox="0 0 111.2 52">
  <defs>
    <style>
      .cls-1 {
        fill: #c71522;
      }

      .cls-2 {
        fill: #1d1d1b;
        fill-rule: evenodd;
      }
    </style>
  </defs>
  <g id="Menú">
    <g>
      <g>
        <path class="cls-2" d="m.27,43.03c0-.1.02-.17.06-.19.04-.02.09-.03.16-.03h.76l1.23,3.9c.03.13.08.27.12.43.05.16.09.31.13.45.04.15.07.27.1.37.03.1.05.17.06.19,0,0,.01-.07.04-.17.03-.11.06-.23.1-.37.04-.14.08-.29.12-.45.04-.16.08-.29.12-.41l1.14-3.72c.02-.07.04-.12.06-.16.03-.04.07-.06.14-.06h.85v8.84c0,.05,0,.09-.02.12-.01.03-.05.05-.12.06-.06.01-.17.02-.32.02h-.62l.04-3.14c0-.31.02-.66.05-1.06.02-.4.05-.78.07-1.16.03-.37.05-.71.07-1,.02-.29.04-.49.05-.59-.07.24-.15.51-.23.82-.09.31-.17.6-.25.88-.08.28-.15.53-.21.75-.06.22-.11.37-.14.45l-.69,1.96s-.04.07-.06.08c-.03.01-.05.02-.08.02h-.45l-.67-2.07c-.03-.07-.07-.21-.14-.43-.06-.22-.14-.47-.22-.76-.08-.28-.17-.58-.25-.89-.09-.31-.16-.59-.23-.84h0c.04.47.08.93.12,1.38.03.39.06.8.08,1.23.02.43.04.82.05,1.17l.03,2.99c0,.05,0,.09-.03.12-.02.03-.06.05-.13.06-.07.01-.17.02-.32.02H.27v-8.83Z"/>
        <path class="cls-2" d="m9.95,49.56h-2.22l-.5,2.12c-.02.07-.05.12-.1.15s-.18.05-.39.05c-.07,0-.17,0-.29,0-.12,0-.25-.02-.37-.03l2.3-8.89c.03-.12.16-.18.4-.18.2,0,.36.01.49.04l2.31,8.85c.02.07,0,.12-.06.16-.06.04-.19.06-.39.06h-.27c-.1,0-.22,0-.35-.03l-.56-2.3Zm-2-.96h1.78l-.44-1.84c-.05-.22-.1-.43-.15-.66-.05-.22-.09-.45-.13-.67-.04-.22-.07-.43-.1-.63-.03-.2-.05-.37-.07-.53-.02.16-.04.33-.08.53-.03.2-.07.4-.11.62-.04.22-.08.44-.12.67-.04.23-.09.45-.14.67l-.44,1.84Z"/>
        <path class="cls-2" d="m14.34,48.31c-.06-.15-.14-.37-.25-.68-.1-.31-.22-.64-.34-1-.12-.36-.24-.72-.36-1.07-.12-.36-.21-.66-.29-.91.02.21.03.5.05.88.02.38.03.77.05,1.16.01.4.02.76.03,1.11,0,.34,0,.58,0,.72v3.14c0,.05,0,.09-.02.12-.01.03-.05.05-.12.06-.06.01-.17.02-.31.02h-.6v-8.83c0-.15.07-.22.22-.22h.8l1.45,3.49c.06.17.14.41.25.72.11.31.22.64.34.99.12.35.24.7.35,1.05.11.35.21.64.28.89v-.04c-.03-.19-.05-.47-.06-.84-.01-.37-.03-.75-.04-1.14-.01-.39-.02-.76-.03-1.11,0-.34,0-.59,0-.75v-3.04c0-.05,0-.09.02-.12.01-.03.05-.05.12-.06.07-.01.17-.02.32-.03.14,0,.34,0,.6,0v8.84c0,.14-.07.21-.22.21h-.79l-1.47-3.55Z"/>
        <path class="cls-2" d="m19,49.25c0,.26.01.5.04.72.03.22.08.41.17.56.09.15.22.28.37.36.16.09.38.13.65.13.22,0,.44-.02.65-.07.21-.05.37-.1.48-.16v-7.75c0-.05,0-.09.02-.12.01-.03.05-.05.12-.06.06-.01.17-.02.32-.03.15,0,.35,0,.61,0v8.71c-.16.1-.44.21-.83.31-.39.1-.85.16-1.36.16s-.93-.07-1.23-.22c-.31-.15-.54-.35-.7-.6-.16-.25-.27-.55-.32-.88-.05-.33-.07-.69-.07-1.07v-6.19c0-.05,0-.09.02-.12.01-.03.05-.05.12-.06.06-.01.17-.02.32-.03.15,0,.36,0,.63,0v6.44Z"/>
        <path class="cls-2" d="m23.56,51.86v-8.83s0-.07.03-.1c.02-.03.04-.05.07-.08.03-.03.07-.04.12-.04h3.09v.5c0,.12,0,.21-.02.27-.01.06-.03.1-.06.11-.03.01-.06.02-.12.02h-2.05v2.74h1.94c0,.4,0,.65-.03.78-.02.12-.07.18-.17.18h-1.74v4.24s0,.07-.03.1c-.03.07-.09.1-.18.1h-.85Z"/>
        <path class="cls-2" d="m30.96,49.56h-2.22l-.5,2.12c-.02.07-.05.12-.1.15-.05.03-.18.05-.39.05-.07,0-.17,0-.29,0-.12,0-.25-.02-.37-.03l2.3-8.89c.03-.12.16-.18.4-.18.2,0,.36.01.49.04l2.31,8.85c.02.07,0,.12-.06.16-.06.04-.19.06-.39.06h-.27c-.1,0-.22,0-.35-.03l-.56-2.3Zm-2-.96h1.78l-.44-1.84c-.05-.22-.1-.43-.15-.66-.05-.22-.09-.45-.13-.67-.04-.22-.07-.43-.1-.63-.03-.2-.05-.37-.07-.53-.02.16-.04.33-.08.53-.03.2-.07.4-.11.62-.04.22-.08.44-.12.67-.04.23-.09.45-.14.67l-.44,1.84Z"/>
        <path class="cls-2" d="m35.6,42.68c.24,0,.44.02.59.06.16.04.28.1.37.17.09.07.15.14.19.23.04.08.06.17.06.25,0,.12-.02.24-.05.35-.03.11-.07.21-.12.28-.07-.06-.18-.13-.32-.21-.15-.08-.32-.12-.52-.12s-.41.05-.6.14c-.19.09-.37.28-.52.56-.16.28-.28.67-.37,1.2-.09.52-.14,1.21-.14,2.06,0,.65.03,1.19.1,1.61.06.42.15.75.26.98.11.24.25.39.41.47s.33.11.52.11c.25,0,.48-.04.69-.13.21-.09.38-.18.5-.27.04.09.08.19.11.3.03.11.05.22.05.34,0,.25-.15.47-.44.65-.29.19-.68.28-1.16.28-.31.03-.59-.01-.85-.11-.26-.1-.48-.3-.68-.6-.19-.3-.34-.74-.45-1.31-.11-.57-.16-1.32-.16-2.26,0-1.1.08-1.99.24-2.66.16-.67.36-1.18.61-1.54.25-.36.52-.59.82-.68.3-.1.59-.15.88-.15Z"/>
        <path class="cls-2" d="m39.93,43.8v7.86c0,.05,0,.09-.02.12-.01.03-.05.05-.12.06-.06.01-.17.02-.31.02h-.6v-8.06h-1.76v-.76c0-.15.07-.22.22-.22h4.39v.78c0,.14-.07.21-.22.21h-1.59Z"/>
        <path class="cls-2" d="m43.48,49.25c0,.26.01.5.04.72.03.22.08.41.17.56.09.15.22.28.37.36.16.09.38.13.65.13.22,0,.44-.02.65-.07.21-.05.37-.1.48-.16v-7.75c0-.05,0-.09.02-.12.01-.03.05-.05.12-.06.06-.01.17-.02.32-.03.15,0,.35,0,.61,0v8.71c-.16.1-.44.21-.83.31-.39.1-.85.16-1.36.16s-.93-.07-1.23-.22c-.31-.15-.54-.35-.7-.6-.16-.25-.27-.55-.32-.88-.05-.33-.07-.69-.07-1.07v-6.19c0-.05,0-.09.02-.12.01-.03.05-.05.12-.06.06-.01.17-.02.32-.03.15,0,.36,0,.63,0v6.44Z"/>
        <path class="cls-2" d="m48.02,43.03s0-.07.03-.1c.02-.03.04-.05.06-.08.03-.03.07-.04.13-.04h1.28c.82,0,1.42.2,1.8.6.38.4.58,1.05.58,1.96,0,.7-.1,1.25-.31,1.65-.21.4-.48.7-.81.89.1.13.22.3.34.52.12.22.25.47.37.78.12.3.23.65.32,1.06s.15.86.19,1.37c0,.1-.03.16-.08.2-.05.04-.2.06-.45.06-.09,0-.18,0-.28,0-.1,0-.22-.01-.34-.02-.03-.54-.09-1.02-.18-1.43-.09-.41-.18-.77-.28-1.07-.1-.3-.21-.54-.32-.74-.11-.19-.2-.34-.28-.45-.04,0-.09.01-.13.01h-.58v3.46c0,.05,0,.09-.02.12-.01.03-.05.05-.12.06-.06.01-.17.02-.31.02h-.6v-8.83Zm2.71,2.29c0-.49-.07-.88-.22-1.16-.15-.28-.41-.43-.8-.43h-.65v3.49h.57c.36,0,.64-.14.82-.43.19-.29.28-.78.28-1.47Z"/>
        <path class="cls-2" d="m56.22,49.56h-2.22l-.5,2.12c-.02.07-.05.12-.1.15s-.18.05-.39.05c-.07,0-.17,0-.29,0-.12,0-.25-.02-.37-.03l2.3-8.89c.03-.12.16-.18.4-.18.2,0,.36.01.49.04l2.31,8.85c.02.07,0,.12-.06.16-.06.04-.19.06-.39.06h-.27c-.1,0-.22,0-.35-.03l-.56-2.3Zm-2-.96h1.78l-.44-1.84c-.05-.22-.1-.43-.15-.66-.05-.22-.09-.45-.13-.67-.04-.22-.07-.43-.1-.63-.03-.2-.05-.37-.07-.53-.02.16-.04.33-.08.53-.03.2-.07.4-.11.62-.04.22-.08.44-.12.67-.04.23-.09.45-.14.67l-.44,1.84Z"/>
        <path class="cls-2" d="m60.47,42.68c.62,0,1.06.06,1.31.19.25.12.38.28.38.46,0,.09-.02.2-.06.3-.04.11-.11.21-.2.3-.09-.07-.25-.14-.48-.21-.22-.07-.49-.11-.79-.11-.39,0-.69.08-.92.24-.22.16-.34.38-.34.65,0,.24.05.46.15.65.1.19.25.4.45.63l1.4,1.59c.16.2.3.39.41.56.11.18.2.35.27.53.07.18.12.35.14.53.03.18.04.36.04.56,0,.33-.04.64-.12.93-.08.29-.2.55-.38.78-.18.22-.41.4-.71.53-.3.13-.67.19-1.11.19-.59,0-1.01-.08-1.29-.25-.27-.17-.41-.34-.41-.52,0-.1.02-.22.06-.36.04-.14.11-.27.21-.39.14.12.32.23.54.32.22.09.48.14.79.14.47,0,.79-.12.98-.36.19-.24.28-.56.28-.96,0-.29-.05-.56-.16-.81-.11-.25-.3-.54-.59-.87l-1.31-1.51c-.29-.36-.5-.69-.62-.98-.12-.29-.18-.58-.18-.89,0-.54.19-.99.56-1.34.37-.35.93-.52,1.66-.52Z"/>
        <path class="cls-2" d="m66.71,42.81c.42,0,.79.06,1.11.19.32.13.58.35.79.66.21.31.37.73.47,1.25.1.52.16,1.17.16,1.96,0,.95-.06,1.74-.17,2.38-.11.64-.28,1.15-.49,1.54-.22.39-.48.66-.8.83-.31.16-.67.25-1.07.25h-1.62v-8.8c0-.08.02-.14.06-.18.04-.04.14-.06.28-.06h1.25Zm1.33,3.95c0-.59-.03-1.09-.08-1.47-.05-.39-.13-.69-.24-.92-.11-.22-.24-.38-.41-.46-.16-.09-.35-.13-.57-.13h-.59v7.08h.58c.16,0,.32-.05.48-.14.16-.09.3-.28.42-.57.12-.29.22-.7.29-1.24s.11-1.26.11-2.15Z"/>
        <path class="cls-2" d="m73.45,50.92c0,.22,0,.4,0,.52,0,.12-.01.22-.03.28-.01.06-.03.1-.06.12-.03.02-.06.03-.12.03h-3.06v-8.83s0-.07.03-.1c.02-.03.04-.05.07-.08.03-.03.07-.04.12-.04h3.09v.51c0,.12,0,.22-.02.28-.01.06-.03.11-.06.12-.03.02-.06.03-.12.03h-2.05v2.7h1.94v.49c0,.13,0,.23-.02.3-.01.07-.03.12-.06.14-.03.03-.06.04-.12.04h-1.74v3.49h2.21Z"/>
        <path class="cls-2" d="m74.31,43.03c0-.15.07-.22.22-.22h1.28c.82,0,1.42.2,1.8.6.38.4.57,1.05.57,1.96,0,.53-.06.98-.19,1.34-.12.36-.3.65-.52.87-.22.22-.47.38-.76.47-.29.09-.59.14-.91.14h-.45v3.46c0,.05,0,.09-.02.12-.01.03-.05.05-.12.06-.06.01-.17.02-.31.02h-.6v-8.83Zm2.71,2.22c0-.46-.08-.82-.23-1.1-.15-.28-.42-.42-.8-.42h-.65v3.49h.57c.36,0,.64-.15.82-.45.18-.3.28-.8.28-1.52Z"/>
        <path class="cls-2" d="m78.78,47.29c0-.86.05-1.59.15-2.17.1-.59.25-1.06.46-1.42.21-.36.47-.61.78-.77s.67-.23,1.09-.23.78.07,1.07.22c.29.15.53.39.71.74.18.35.31.82.39,1.4.08.59.12,1.31.12,2.18s-.05,1.63-.14,2.24c-.1.6-.24,1.09-.44,1.46-.2.37-.45.64-.76.79-.31.16-.68.24-1.1.24s-.77-.07-1.07-.21c-.3-.14-.54-.39-.72-.74-.19-.36-.32-.84-.41-1.44-.09-.6-.13-1.37-.13-2.3Zm1.18.26c0,.6.02,1.12.06,1.54.04.42.11.77.2,1.04.09.27.22.47.37.59.15.12.34.19.58.19.23,0,.43-.06.59-.19.16-.13.29-.34.39-.63.1-.29.17-.67.21-1.12.04-.46.06-1.02.06-1.68s-.02-1.19-.06-1.63c-.04-.44-.1-.81-.19-1.09-.09-.28-.21-.48-.36-.6-.15-.12-.34-.18-.58-.18s-.42.07-.58.2c-.16.13-.29.35-.39.65-.1.3-.18.68-.23,1.16-.05.48-.07,1.07-.07,1.76Z"/>
        <path class="cls-2" d="m84.46,43.03s0-.07.03-.1c.02-.03.04-.05.07-.08.03-.03.07-.04.13-.04h1.28c.82,0,1.42.2,1.8.6.38.4.58,1.05.58,1.96,0,.7-.1,1.25-.31,1.65-.21.4-.48.7-.81.89.1.13.22.3.34.52.12.22.25.47.37.78.12.3.23.65.32,1.06.09.41.15.86.19,1.37,0,.1-.03.16-.08.2-.05.04-.2.06-.45.06-.09,0-.18,0-.28,0-.1,0-.22-.01-.34-.02-.03-.54-.09-1.02-.18-1.43-.09-.41-.18-.77-.28-1.07-.1-.3-.21-.54-.32-.74-.11-.19-.2-.34-.28-.45-.04,0-.09.01-.13.01h-.58v3.46c0,.05,0,.09-.02.12-.01.03-.05.05-.12.06-.06.01-.17.02-.31.02h-.6v-8.83Zm2.71,2.29c0-.49-.07-.88-.22-1.16-.15-.28-.41-.43-.8-.43h-.65v3.49h.57c.36,0,.64-.14.82-.43.19-.29.28-.78.28-1.47Z"/>
        <path class="cls-2" d="m91.63,43.8v7.86c0,.05,0,.09-.02.12-.01.03-.05.05-.12.06-.06.01-.17.02-.31.02h-.6v-8.06h-1.76v-.76c0-.15.07-.22.22-.22h4.39v.78c0,.14-.07.21-.22.21h-1.59Z"/>
        <path class="cls-2" d="m94.09,43.29c0-.12,0-.21.02-.28s.05-.11.12-.14c.06-.03.17-.05.32-.05.15,0,.35,0,.61,0v8.84c0,.05,0,.09-.02.12-.01.03-.05.05-.12.06-.07.01-.17.02-.32.02h-.61v-8.57Z"/>
        <path class="cls-2" d="m95.78,43.12c-.03-.11-.03-.19-.01-.24.02-.05.1-.07.25-.07h.85l1.07,5c.11.58.21,1.14.29,1.7.08.56.16,1.04.23,1.45.05-.41.12-.9.19-1.46.08-.56.17-1.12.27-1.69l.96-4.69c.02-.1.04-.18.08-.23.03-.05.1-.08.19-.08h.92l-1.99,9.09c-.15.02-.28.03-.4.04-.12,0-.28.01-.48.01-.17,0-.31-.07-.4-.21-.09-.14-.17-.32-.22-.54-.07-.26-.15-.58-.23-.95-.09-.37-.18-.78-.27-1.2-.09-.43-.19-.87-.3-1.33-.1-.46-.2-.91-.3-1.35-.22-1.03-.46-2.12-.7-3.24Z"/>
        <path class="cls-2" d="m105.06,49.56h-2.22l-.5,2.12c-.02.07-.05.12-.1.15s-.18.05-.39.05c-.07,0-.17,0-.29,0-.12,0-.25-.02-.37-.03l2.3-8.89c.03-.12.16-.18.4-.18.2,0,.36.01.49.04l2.31,8.85c.02.07,0,.12-.06.16-.06.04-.19.06-.39.06h-.27c-.1,0-.22,0-.35-.03l-.56-2.3Zm-2-.96h1.78l-.44-1.84c-.05-.22-.1-.43-.15-.66-.05-.22-.09-.45-.13-.67s-.07-.43-.1-.63c-.03-.2-.05-.37-.07-.53-.02.16-.04.33-.08.53-.03.2-.07.4-.11.62-.04.22-.08.44-.12.67-.04.23-.09.45-.14.67l-.44,1.84Z"/>
        <path class="cls-2" d="m109.31,42.68c.62,0,1.06.06,1.31.19.25.12.38.28.38.46,0,.09-.02.2-.06.3-.04.11-.11.21-.2.3-.09-.07-.25-.14-.48-.21-.22-.07-.49-.11-.79-.11-.39,0-.69.08-.92.24-.22.16-.34.38-.34.65,0,.24.05.46.15.65.1.19.25.4.45.63l1.4,1.59c.16.2.3.39.41.56.11.18.2.35.27.53.07.18.12.35.14.53.03.18.04.36.04.56,0,.33-.04.64-.12.93-.08.29-.2.55-.38.78-.18.22-.41.4-.71.53-.3.13-.67.19-1.1.19-.59,0-1.01-.08-1.29-.25-.27-.17-.41-.34-.41-.52,0-.1.02-.22.06-.36.04-.14.11-.27.21-.39.14.12.32.23.54.32.22.09.48.14.8.14.47,0,.79-.12.98-.36.19-.24.28-.56.28-.96,0-.29-.05-.56-.16-.81-.11-.25-.3-.54-.59-.87l-1.31-1.51c-.29-.36-.5-.69-.62-.98-.12-.29-.18-.58-.18-.89,0-.54.19-.99.56-1.34.37-.35.93-.52,1.66-.52Z"/>
      </g>
      <path class="cls-1" d="m110.58,14.69c-.36-1.5-.89-2.91-1.57-4.2-1.18-2.27-2.82-4.14-4.63-5.57-1.36-1.07-2.82-1.91-4.3-2.56-2.22-.98-4.48-1.55-6.66-1.9-2.18-.35-4.29-.46-6.24-.46-1.51,0-2.99.61-4.05,1.68-1.07,1.07-1.68,2.54-1.68,4.05v14.96c0,3.17,2.57,5.73,5.73,5.73s5.73-2.57,5.73-5.73v-8.66c.98.22,1.88.51,2.65.86.69.31,1.28.67,1.77,1.06.37.29.67.6.95.95.41.52.74,1.12,1.01,1.94.26.83.45,1.89.45,3.3,0,1.21-.24,2.34-.68,3.38-.65,1.55-1.76,2.89-3.15,3.82-1.39.94-3.03,1.48-4.85,1.48h-22.79L58.66,3.81c-.03-.07-.06-.13-.09-.2-.04-.1-.08-.2-.13-.29-.04-.09-.09-.18-.14-.26-.04-.08-.08-.15-.13-.23-.06-.09-.12-.18-.18-.26-.05-.07-.09-.13-.14-.2-.06-.08-.13-.16-.2-.24-.06-.06-.11-.13-.17-.19-.07-.07-.14-.14-.2-.2-.07-.07-.13-.13-.2-.19-.07-.06-.14-.11-.21-.17-.08-.06-.16-.13-.24-.18-.07-.05-.14-.1-.22-.14-.08-.05-.17-.11-.26-.16-.08-.05-.17-.09-.26-.13-.08-.04-.16-.08-.24-.12-.11-.05-.23-.1-.35-.14-.05-.02-.1-.04-.16-.06,0,0-.02,0-.02,0-.15-.05-.3-.09-.45-.13-.03,0-.06-.02-.1-.03-.8-.19-1.64-.2-2.47-.03-.11.02-.22.04-.33.07-.07.02-.13.04-.2.06-.12.04-.23.07-.34.11-.01,0-.02,0-.03.01-.07.03-.13.06-.2.09-.1.04-.19.08-.29.13-.09.04-.18.09-.26.14-.08.04-.15.08-.23.13-.09.06-.18.12-.26.18-.07.05-.14.09-.2.14-.08.06-.16.13-.24.2-.07.06-.13.11-.2.17-.07.06-.13.13-.2.2-.07.07-.13.14-.2.21-.06.07-.11.13-.16.2-.06.08-.13.16-.19.24-.05.07-.09.14-.14.21-.06.09-.11.17-.16.26-.05.08-.09.17-.13.25-.04.08-.08.16-.12.24-.05.11-.1.23-.14.35-.02.05-.04.1-.06.15l-.02.05s0,0,0,.01l-2.75,7.92-2.96-8.08c-.02-.05-.04-.1-.06-.15-.04-.1-.08-.21-.13-.31-.04-.08-.08-.16-.12-.24-.04-.08-.09-.17-.14-.25-.05-.09-.1-.17-.16-.25-.05-.07-.1-.15-.15-.22-.06-.08-.12-.16-.18-.24-.06-.07-.11-.14-.17-.2-.06-.07-.13-.14-.2-.21-.07-.07-.13-.13-.2-.19-.07-.06-.14-.12-.21-.18-.07-.06-.15-.12-.23-.18-.07-.05-.14-.1-.22-.15-.08-.06-.16-.11-.25-.16-.08-.05-.16-.09-.24-.14-.08-.04-.16-.09-.25-.13-.09-.05-.19-.09-.28-.13-.06-.02-.11-.05-.16-.07-.02,0-.05-.02-.07-.02-.1-.04-.2-.07-.3-.1-.08-.02-.16-.05-.25-.07-.1-.02-.19-.04-.29-.06-.09-.02-.18-.04-.27-.05-.09-.01-.18-.02-.27-.03-.1-.01-.19-.02-.29-.03-.09,0-.18,0-.26,0-.1,0-.2,0-.3,0-.09,0-.17.01-.26.02-.1,0-.2.02-.31.03-.08.01-.16.03-.25.04-.11.02-.21.04-.31.06-.08.02-.16.04-.23.07-.11.03-.21.06-.32.1-.02,0-.05.01-.07.02-.06.02-.11.05-.16.07-.1.04-.19.08-.29.12-.09.04-.17.08-.25.13-.08.04-.16.09-.24.13-.09.05-.17.11-.26.16-.07.05-.14.1-.21.15-.08.06-.16.12-.24.19-.07.05-.13.11-.2.17-.07.06-.14.13-.21.2-.07.07-.13.13-.2.2-.06.07-.12.14-.18.2-.06.08-.12.15-.18.23-.05.07-.1.14-.15.21-.06.08-.11.16-.16.25-.05.08-.09.16-.14.24-.05.08-.09.16-.13.25-.05.09-.09.19-.13.28-.02.06-.05.11-.07.17l-9.64,25.12H5.77c-3.19,0-5.77,2.58-5.77,5.77s2.58,5.77,5.77,5.77h19.83c2.39,0,4.53-1.47,5.39-3.7l5.55-14.46,3.24,8.84s0,0,0,0c.07.18.14.36.22.53.04.08.09.16.13.24.05.08.09.17.14.25.06.11.14.2.21.3.04.05.07.11.11.16.07.09.15.18.22.27.05.06.09.11.14.17.07.07.14.14.22.21.06.06.12.12.19.18.07.06.13.11.2.17.08.06.16.13.24.19.07.05.14.09.2.14.09.06.17.12.27.17.1.06.21.12.32.17.06.03.11.06.17.09.17.08.35.15.54.22,0,0,0,0,0,0,.03.01.06.02.09.03.15.05.3.1.46.13.06.02.13.02.19.04.12.02.24.05.36.07.08.01.16.02.24.02.11.01.21.02.32.03.09,0,.18,0,.27,0,.1,0,.2,0,.3,0,.1,0,.19-.02.28-.03.09,0,.19-.02.28-.03.11-.02.21-.04.31-.06.08-.02.16-.03.24-.05.13-.03.25-.07.38-.12.05-.02.1-.03.16-.05,0,0,0,0,.01,0,.16-.06.32-.13.47-.2.13-.06.25-.13.37-.2.06-.03.11-.06.17-.09.11-.07.22-.14.32-.22.05-.03.1-.06.15-.1.1-.07.18-.15.27-.23.05-.05.11-.09.16-.14.08-.07.15-.14.22-.22.06-.06.12-.12.18-.19.06-.07.11-.13.17-.2.06-.08.13-.16.19-.24.05-.07.09-.14.14-.21.06-.09.12-.17.17-.26.06-.11.12-.22.18-.33.03-.06.06-.11.08-.16.08-.17.15-.35.22-.54,0,0,0,0,0,0l2.89-8.35,5.4,14.06c.88,2.29,3.05,3.69,5.36,3.7,0,0,.01,0,.02,0h26.56c2.77,0,5.61-.74,8.02-1.76,3.62-1.53,6.69-4.08,8.86-7.29,2.17-3.21,3.45-7.12,3.44-11.27,0-1.92-.21-3.75-.62-5.46Z"/>
    </g>
  </g>
</svg>