<?xml version="1.0" encoding="UTF-8"?>
<svg id="Capa_2" data-name="Capa 2" xmlns="http://www.w3.org/2000/svg" viewBox="0 0 94 94">
  <defs>
    <style>
      .cls-1 {
        isolation: isolate;
      }

      .cls-2 {
        fill: #838a92;
      }
    </style>
  </defs>
  <g id="Carcterísticas" class="cls-1">
    <g id="Capa_20" data-name="Capa 20">
      <g>
        <path class="cls-2" d="m30.72,52.63c.73-.03,1.45.08,2.16.26.28.07.44.02.63-.17,2.56-2.57,5.11-5.13,7.69-7.68.37-.37.07-.5-.12-.7-3.16-3.16-6.32-6.33-9.49-9.49-.56-.56-1.15-1.09-1.67-1.68-1.24-1.4-2.65-2.53-4.4-3.22-.31-.12-.54-.33-.72-.62-.83-1.26-1.68-2.52-2.52-3.78-.42-.63-.38-1.02.15-1.55.83-.83,1.66-1.66,2.49-2.49.51-.5.91-.54,1.51-.15,1.26.83,2.52,1.68,3.78,2.51.34.22.56.52.71.88.63,1.59,1.68,2.85,2.89,4.04,3.82,3.74,7.58,7.53,11.34,11.33.4.41.59.36.97-.02,2.44-2.48,4.91-4.94,7.38-7.39.28-.28.34-.52.25-.89-1.22-5.6,2.72-11.04,8.41-11.66,1.63-.18,3.18.04,4.69.63,1.04.4,1.18,1.2.34,1.93-1.72,1.47-3.45,2.94-5.19,4.39-.32.26-.44.51-.37.92.15.87.27,1.76.37,2.64.03.28.18.39.42.42.94.13,1.88.26,2.82.4.3.05.48-.08.66-.3,1.47-1.75,2.95-3.49,4.43-5.24.76-.9,1.56-.77,1.99.34,2.27,5.76-1.39,12.17-7.51,13.17-1.25.2-2.5.16-3.73-.16-.26-.07-.4-.02-.58.16-1.94,1.95-3.89,3.89-5.83,5.84-.4.41-.36.6.13.85.02,0,.04.01.06.02,2.69,1.07,4.86,2.83,6.84,4.93,2.78,2.94,5.72,5.73,8.56,8.62,1.44,1.47,2.07,3.21,1.33,5.25-.25.67-.68,1.24-1.18,1.74-.9.9-1.8,1.81-2.71,2.7-2.11,2.07-4.84,2.12-6.95.04-3.88-3.82-7.71-7.69-11.56-11.54-.35-.35-.51-.82-.73-1.24-.48-.93-.95-1.87-1.4-2.81-.2-.42-.45-.5-.78-.18-1.99,1.98-3.98,3.98-5.97,5.96-.15.15-.16.28-.11.48,1.28,5.14-2,10.49-7.26,11.69-2.01.46-3.97.31-5.87-.47-.95-.39-1.07-1.21-.29-1.88,1.74-1.48,3.48-2.97,5.24-4.42.33-.28.41-.55.35-.94-.13-.84-.24-1.68-.37-2.51-.04-.24-.06-.47-.4-.51-.94-.11-1.88-.23-2.82-.39-.33-.06-.51.07-.71.3-1.44,1.72-2.89,3.44-4.35,5.15-.86,1.01-1.61.88-2.09-.36-2.25-5.79,1.61-12.33,7.75-13.1.44-.06.88-.12,1.33-.1Zm39.2,10.77c-.03-.97-.51-1.72-1.17-2.38-3.66-3.66-7.33-7.33-10.99-10.99-.17-.17-.34-.34-.57-.45-1.08-.53-2.17-1.06-3.24-1.62-.27-.14-.41-.09-.61.12-1.43,1.46-2.87,2.91-4.34,4.33-.28.27-.25.45-.12.77.97,2.25,2.23,4.28,4.16,5.85.25.2.46.45.69.68,2.75,2.75,5.49,5.5,8.24,8.24,1.46,1.46,2.97,1.46,4.44,0,.88-.87,1.75-1.74,2.61-2.62.52-.53.9-1.14.88-1.93Zm-16.12-19.98c1.88-1.88,3.74-3.69,5.53-5.55.6-.63,1.17-.76,1.99-.53,3.56.98,7.34-.76,8.93-4.07.73-1.51.95-3.1.64-4.84-.14.14-.22.23-.29.32-1.18,1.39-2.37,2.76-3.52,4.17-.43.53-.91.74-1.58.64-1.43-.22-2.87-.41-4.31-.62-.53-.08-.9-.38-.98-.93-.22-1.54-.42-3.08-.65-4.61-.07-.5.09-.86.46-1.17.52-.42,1.02-.86,1.53-1.29,1.02-.87,2.04-1.74,3.12-2.66-.17-.06-.24-.11-.31-.12-5.56-.78-10.08,4.38-8.55,9.8.2.71.06,1.21-.47,1.72-2.65,2.61-5.27,5.25-7.9,7.89-.17.17-.6.31-.18.69.28.26.43.47.84.1.82-.73,1.81-1.02,2.92-.79,1.16.24,2.08.85,2.76,1.85Zm-24.47,26.53c1.27.41,3.38.12,4.88-.62,3.35-1.67,5.02-5.47,3.97-9.15-.18-.62-.1-1.08.38-1.52.54-.49,1.03-1.02,1.55-1.54,1.4-1.4,2.79-2.79,4.2-4.2-.2-.15-.36-.27-.52-.4-1.61-1.33-1.89-3.72-.54-5.3.38-.44.11-.57-.12-.84-.34-.4-.48-.02-.64.15-2.65,2.64-5.31,5.28-7.93,7.94-.52.53-1.02.65-1.73.45-4.05-1.16-8.24,1.12-9.5,5.15-.37,1.19-.4,2.4-.21,3.76.29-.33.48-.55.68-.78,1.1-1.29,2.2-2.58,3.29-3.89.34-.41.73-.58,1.27-.49,1.43.23,2.87.42,4.31.62.81.11,1.07.39,1.18,1.19.17,1.28.33,2.56.56,3.83.15.82,0,1.41-.69,1.95-1.47,1.16-2.88,2.41-4.37,3.68Zm-3.45-46.56c-.08.07-.18.14-.26.22-.34.34-.67.71-1.03,1.02-.28.24-.3.43-.09.73.55.77,1.07,1.57,1.58,2.36.21.34.47.59.84.74,1.49.59,2.68,1.57,3.8,2.71,4.42,4.48,8.88,8.91,13.33,13.36.91.91.89.89,1.85-.01.36-.34.37-.51,0-.87-5.05-5.02-10.08-10.06-15.11-15.1-.2-.2-.43-.38-.52-.66-.61-1.87-1.93-3.09-3.62-3.99-.19-.1-.37-.25-.55-.37-.07-.04-.14-.09-.22-.14Zm24.53,20.1c-.51-.03-.9.21-1.24.54-1.42,1.41-2.84,2.81-4.24,4.24-.77.79-.74,1.84.04,2.64.77.8,1.84.87,2.64.1,1.45-1.4,2.87-2.84,4.29-4.28.54-.55.71-1.21.38-1.94-.36-.8-.98-1.25-1.87-1.31Z"/>
        <path class="cls-2" d="m58.6,54.08c.42,0,.67.16.89.38,2,2,4.01,4,6.01,6.01.5.51.51,1.08.07,1.5-.4.38-.99.36-1.46-.1-2.02-2.01-4.04-4.04-6.05-6.05-.34-.34-.41-.74-.23-1.16.16-.37.48-.53.77-.57Z"/>
        <path class="cls-2" d="m63.11,63.99c0,.8-.8,1.26-1.46.87-.12-.07-.23-.17-.33-.27-1.98-1.97-3.95-3.95-5.92-5.93-.53-.53-.56-1.11-.12-1.54.41-.4,1-.36,1.5.14,1.98,1.97,3.95,3.95,5.93,5.92.23.23.45.48.4.81Z"/>
      </g>
      <path class="cls-2" d="m47,2c24.81,0,45,20.19,45,45s-20.19,45-45,45S2,71.82,2,47,22.19,2,47,2m0-2C21.04,0,0,21.04,0,47s21.04,47,47,47,47-21.04,47-47S72.96,0,47,0h0Z"/>
    </g>
  </g>
</svg>