<?xml version="1.0" encoding="UTF-8"?>
<svg id="Capa_2" data-name="Capa 2" xmlns="http://www.w3.org/2000/svg" viewBox="0 0 94 94">
  <defs>
    <style>
      .cls-1 {
        isolation: isolate;
      }

      .cls-2 {
        fill: #838a92;
      }
    </style>
  </defs>
  <g id="Carcterísticas" class="cls-1">
    <g id="Capa_20" data-name="Capa 20">
      <g>
        <path class="cls-2" d="m73.17,28.01c.45-.23.86-.46,1.24-.73,1.21-.87,2.28-.53,2.27,1.29-.06,10.88-.03,21.75-.02,32.63,0,.66-.12,1.19-.63,1.62H17.96c-.51-.42-.63-.96-.63-1.62.02-7.44.02-14.89,0-22.33,0-.77.29-1.21.94-1.57,6.11-3.38,12.22-6.75,18.3-10.18,1.24-.7,2.04.03,2.01,1.2-.07,2.73-.02,5.46-.02,8.19.27.04.44-.15.62-.25,5.49-3.05,10.98-6.09,16.47-9.14.35-.19.69-.37,1.11-.29.56.11.86.56.86,1.39,0,2.42,0,4.84,0,7.26,0,.19.02.37,0,.56-.05.5.11.57.53.31.58-.35,1.16-.67,1.75-.99m14.64-5.65c-.32.17-.54.28-.75.4-5.42,3.01-10.85,5.99-16.24,9.05-1.17.66-2.16.25-2.12-1.22.08-2.54.02-5.09.02-7.63,0-.17.09-.37-.1-.52-.2.1-.4.2-.59.31-5.44,3.02-10.87,6.04-16.31,9.06-.05.03-.11.06-.16.09-1.1.6-1.88.16-1.89-1.09-.01-2.61-.02-5.21,0-7.82,0-.52-.08-.6-.55-.34-5.3,2.96-10.61,5.91-15.93,8.85-.33.18-.46.38-.46.76.01,6.84.01,13.69,0,20.53,0,.48.14.57.59.57,5.62-.02,11.25-.02,16.87,0,.43,0,.55-.1.54-.54-.03-1.84-.01-3.68,0-5.52,0-1,.39-1.38,1.4-1.38,5.44,0,10.88,0,16.31,0,1,0,1.39.39,1.39,1.39,0,1.82.02,3.64-.01,5.46,0,.51.15.59.62.59,5.56-.02,11.12-.02,16.69,0,.57,0,.7-.14.7-.71-.02-9.86-.01-19.73-.01-29.59,0-.2,0-.41,0-.71Zm-31.8,31c.91,0,1.82-.01,2.72,0,.33,0,.47-.05.46-.43-.02-1.46-.02-2.93,0-4.39,0-.32-.05-.48-.43-.47-1.82.02-3.63.02-5.45,0-.37,0-.44.14-.44.47.01,1.44.02,2.89,0,4.33,0,.37.08.51.47.49.89-.03,1.77,0,2.66,0Zm8.5,0c.93,0,1.86-.01,2.79,0,.3,0,.39-.09.39-.39-.01-1.51-.01-3.01,0-4.52,0-.3-.11-.39-.4-.39-1.84,0-3.67.01-5.51,0-.34,0-.41.12-.41.43.01,1.49.02,2.97,0,4.46,0,.33.1.42.42.41.91-.02,1.82,0,2.72,0Z"/>
        <path class="cls-2" d="m47.03,41.61c1.3,0,2.6,0,3.91,0,.95,0,1.37.42,1.38,1.36,0,1.24.01,2.48,0,3.72,0,.9-.43,1.33-1.33,1.34-2.67.01-5.33.01-8,0-.9,0-1.31-.44-1.31-1.36,0-1.24-.01-2.48,0-3.72,0-.9.43-1.33,1.33-1.34,1.34-.01,2.69,0,4.03,0Zm-.05,2.18c-.54,0-1.07,0-1.61,0-1.56,0-1.54,0-1.54,1.59,0,.4.13.47.49.47,1.4-.02,2.81,0,4.22,0,1.66,0,1.65,0,1.6-1.65-.01-.34-.12-.41-.43-.41-.91.02-1.82,0-2.73,0Z"/>
        <path class="cls-2" d="m27.95,48.03c-1.28,0-2.56,0-3.84,0-1.08,0-1.47-.38-1.48-1.43,0-1.2-.01-2.4,0-3.6,0-1,.4-1.39,1.39-1.39,2.62,0,5.25,0,7.87,0,.95,0,1.34.4,1.34,1.36,0,1.24,0,2.48,0,3.72,0,.92-.39,1.32-1.31,1.33-1.32.01-2.64,0-3.97,0Zm0-2.19c.54,0,1.08.02,1.61,0,.51-.02,1.2.24,1.47-.11.25-.32.06-.99.09-1.5.02-.35-.08-.45-.44-.45-1.45.02-2.89,0-4.34.01-.51,0-1.2-.24-1.47.1-.25.32-.06.99-.1,1.5-.02.35.08.46.44.45.91-.03,1.82,0,2.73,0Z"/>
        <path class="cls-2" d="m66.06,41.61c1.3,0,2.6,0,3.91,0,.99,0,1.39.39,1.4,1.38.01,1.22.01,2.44,0,3.66-.01.98-.41,1.37-1.41,1.38-2.6,0-5.21,0-7.81,0-1,0-1.38-.4-1.38-1.39,0-1.22,0-2.44,0-3.66,0-.99.39-1.37,1.39-1.37,1.3,0,2.6,0,3.91,0Zm-.02,4.23c.54,0,1.08.02,1.61,0,.51-.02,1.2.24,1.47-.11.25-.32.06-.99.09-1.5.02-.35-.09-.45-.44-.45-1.45.02-2.89,0-4.34.01-.51,0-1.2-.24-1.47.1-.25.32-.06.99-.09,1.5-.02.35.08.46.44.45.91-.03,1.82,0,2.73,0Z"/>
      </g>
      <path class="cls-2" d="m47,2c24.81,0,45,20.19,45,45s-20.19,45-45,45S2,71.82,2,47,22.19,2,47,2m0-2C21.04,0,0,21.04,0,47s21.04,47,47,47,47-21.04,47-47S72.96,0,47,0h0Z"/>
    </g>
  </g>
</svg>