<?xml version="1.0" encoding="UTF-8"?>
<svg id="Capa_2" data-name="Capa 2" xmlns="http://www.w3.org/2000/svg" viewBox="0 0 18.99 13.56">
  <defs>
    <style>
      .cls-1 {
        fill: #e92b2b;
      }

      .cls-2 {
        fill: #32ab45;
      }

      .cls-3 {
        fill: #fbfbfb;
      }

      .cls-4 {
        fill: #ffe70e;
        fill-rule: evenodd;
      }
    </style>
  </defs>
  <g id="Cabecera">
    <g>
      <path class="cls-1" d="m18.54,0H.45c-.25,0-.45.2-.45.45v12.67c0,.25.2.45.45.45h18.09c.25,0,.45-.2.45-.45V.45c0-.25-.2-.45-.45-.45Z"/>
      <path class="cls-2" d="m.45,13.56h6.33V0H.45c-.25,0-.45.2-.45.45v12.67c0,.25.2.45.45.45Z"/>
      <g>
        <path class="cls-4" d="m6.78,4.75c-1.12,0-2.03.91-2.03,2.03s.91,2.03,2.03,2.03,2.03-.91,2.03-2.03-.91-2.03-2.03-2.03Zm-2.71,2.03c0-1.5,1.21-2.71,2.71-2.71s2.71,1.21,2.71,2.71-1.21,2.71-2.71,2.71-2.71-1.21-2.71-2.71Z"/>
        <path class="cls-4" d="m8.24,8.72l-3.39-3.39.48-.48,3.39,3.39-.48.48Z"/>
        <path class="cls-4" d="m6.44,9.18v-4.8h.68v4.8h-.68Z"/>
        <path class="cls-4" d="m4.41,6.47h4.8v.68h-4.8v-.68Z"/>
        <path class="cls-4" d="m5.33,8.72l3.39-3.39-.48-.48-3.39,3.39.48.48Z"/>
      </g>
      <path class="cls-1" d="m7.8,5.43h-2.03c-.19,0-.34.15-.34.34v1.36c0,.75.61,1.36,1.36,1.36s1.36-.61,1.36-1.36v-1.36c0-.19-.15-.34-.34-.34Z"/>
      <path class="cls-3" d="m7.46,6.1h-1.36v1.02c0,.37.3.68.68.68s.68-.3.68-.68v-1.02Z"/>
    </g>
  </g>
</svg>