<?xml version="1.0" encoding="UTF-8"?>
<svg id="Capa_2" data-name="Capa 2" xmlns="http://www.w3.org/2000/svg" viewBox="0 0 94 94">
  <defs>
    <style>
      .cls-1 {
        isolation: isolate;
      }

      .cls-2 {
        fill: #838a92;
        stroke-width: 0px;
      }
    </style>
  </defs>
  <g id="Carcterísticas" class="cls-1">
    <g id="Capa_20" data-name="Capa 20">
      <g>
        <path class="cls-2" d="M59.9,16c.87.28,1.69.62,2.31,1.34.71.83,1,1.79,1.01,2.86,0,16.85,0,33.71,0,50.56,0,2.78-2.15,4.26-4.28,4.24-7.96-.06-15.93-.06-23.9,0-2.12.01-4.28-1.46-4.27-4.3,0-16.8,0-33.59,0-50.39,0-2.09.94-3.44,2.87-4.16.08-.03.2-.02.21-.15h26.03ZM61.7,43.57c0-6.24,0-12.48.01-18.71,0-.53-.09-.69-.67-.69-9.37.02-18.73.02-28.1,0-.5,0-.66.1-.66.64.02,12.48.02,24.95,0,37.43,0,.49.08.67.63.66,9.38-.02,18.77-.02,28.15,0,.48,0,.63-.09.63-.61-.02-6.24-.01-12.48-.01-18.71ZM47,64.38c-4.66,0-9.33,0-13.99,0-.13,0-.27,0-.4,0-.22-.02-.31.06-.3.29.03,2.21-.08,4.42.06,6.62.08,1.27,1.1,2.16,2.38,2.19.58.01,1.15,0,1.73,0,7.54,0,15.09,0,22.63,0,1.44,0,2.49-.86,2.55-2.25.09-2.09.03-4.18.07-6.27,0-.49-.13-.59-.6-.59-4.7.02-9.41.01-14.11.01ZM46.94,22.69c3.47,0,6.94,0,10.42,0,1.3,0,2.61-.01,3.91,0,.36,0,.45-.1.44-.45-.03-.65,0-1.3,0-1.96-.01-1.83-.98-2.79-2.8-2.79-6.37,0-12.74,0-19.11,0-1.67,0-3.34-.01-5.01,0-1.31.01-2.31.91-2.42,2.2-.07.82,0,1.65-.06,2.47-.03.46.14.52.54.52,4.7-.01,9.4,0,14.1,0Z"/>
        <path class="cls-2" d="M47,72.1c-1.67,0-3.03-1.36-3.04-3.03,0-1.65,1.36-3.05,3.02-3.07,1.67-.02,3.09,1.4,3.07,3.08-.02,1.68-1.37,3.02-3.05,3.02ZM48.53,69.07c0-.85-.67-1.54-1.51-1.56-.83-.01-1.53.68-1.54,1.52-.01.88.67,1.58,1.54,1.57.85,0,1.51-.68,1.51-1.54Z"/>
      </g>
      <path class="cls-2" d="M47,2c24.81,0,45,20.19,45,45s-20.19,45-45,45S2,71.82,2,47,22.19,2,47,2M47,0C21.04,0,0,21.04,0,47s21.04,47,47,47,47-21.04,47-47S72.96,0,47,0h0Z"/>
    </g>
  </g>
</svg>