<?xml version="1.0" encoding="UTF-8"?>
<svg id="Capa_2" data-name="Capa 2" xmlns="http://www.w3.org/2000/svg" viewBox="0 0 94 94">
  <defs>
    <style>
      .cls-1 {
        isolation: isolate;
      }

      .cls-2 {
        fill: #838a92;
        stroke-width: 0px;
      }
    </style>
  </defs>
  <g id="Carcterísticas" class="cls-1">
    <g id="Capa_20" data-name="Capa 20">
      <g>
        <path class="cls-2" d="M42.17,75.26c-.13-.07-.25-.15-.38-.22-.95-.47-1.49-1.48-1.31-2.46.2-1.05,1.07-1.89,2.16-1.9,2.92-.04,5.83-.04,8.75,0,1.13.01,1.97.85,2.15,1.97.16.99-.45,2.03-1.43,2.45-.12.05-.24.1-.36.16h-9.57ZM47.01,73.33c1.28,0,2.57,0,3.85,0,.32,0,.78.12.79-.41.01-.53-.43-.43-.76-.43-2.59,0-5.17,0-7.76,0-.33,0-.79-.1-.79.41,0,.54.48.44.83.44,1.28,0,2.57,0,3.85,0Z"/>
        <path class="cls-2" d="M47,64.12c-2.17,0-4.34,0-6.51,0-1.08,0-1.35-.3-1.33-1.38.03-1.7-.22-3.37-.79-4.97-.35-.99-.94-1.84-1.7-2.56-2.15-2.03-3.61-4.47-4.29-7.35-1.32-5.63.08-10.54,4.17-14.61,2.85-2.83,6.37-4.27,10.37-4.28,4.89-.01,8.95,1.94,12.02,5.77,2.63,3.29,3.68,7.08,3.17,11.26-.4,3.24-1.65,6.17-4,8.42-2.23,2.14-3.08,4.68-3.15,7.62,0,.25,0,.5,0,.75-.01.99-.32,1.32-1.31,1.32-2.21,0-4.42,0-6.63,0ZM53.03,62.19c.07-.72.12-1.43.22-2.13.35-2.38,1.13-4.58,2.91-6.3,3.25-3.17,4.57-7.02,4-11.5-.96-7.56-8.25-12.79-15.75-11.22-5.11,1.07-8.62,4.18-10.12,9.19-1.51,5.06-.3,9.61,3.46,13.37,1.44,1.44,2.36,3.11,2.78,5.06.25,1.15.37,2.33.55,3.52h11.95Z"/>
        <path class="cls-2" d="M46.92,69.72c-2.04,0-4.07.02-6.11,0-.91-.01-1.56-.51-1.94-1.31-.39-.81-.28-1.61.25-2.33.47-.63,1.13-.93,1.9-.93,3.99-.01,7.99-.02,11.98,0,1.38,0,2.36,1.05,2.34,2.33-.02,1.25-1.02,2.22-2.37,2.24-2.02.03-4.03,0-6.05,0,0,0,0,0,0,0ZM46.97,67.82c1.86,0,3.72,0,5.58,0,.15,0,.33.04.45-.02.16-.08.39-.25.39-.38,0-.15-.2-.33-.35-.44-.09-.07-.26-.03-.39-.03-3.8,0-7.6,0-11.4,0-.15,0-.33-.02-.45.05-.12.08-.25.26-.25.39,0,.13.14.32.26.37.16.07.37.05.57.05,1.86,0,3.72,0,5.58,0Z"/>
        <path class="cls-2" d="M35.7,27.65c-.12-.08-.43-.2-.58-.43-1.15-1.75-2.27-3.51-3.38-5.27-.31-.5-.18-1.04.25-1.32.42-.28,1.01-.18,1.32.29,1.14,1.75,2.28,3.5,3.37,5.28.41.66-.06,1.45-.98,1.45Z"/>
        <path class="cls-2" d="M71.58,31.48c-.11.13-.28.48-.56.64-1.77.99-3.56,1.95-5.36,2.9-.54.29-1.07.16-1.32-.27-.29-.48-.13-1.05.44-1.36,1.78-.98,3.57-1.95,5.36-2.89.74-.39,1.46.02,1.44.98Z"/>
        <path class="cls-2" d="M23.22,30.25c.38.15.62.21.84.33,1.69.91,3.37,1.82,5.05,2.75.64.35.85.9.57,1.42-.26.48-.82.57-1.46.22-1.73-.94-3.47-1.88-5.2-2.83-.43-.23-.72-.61-.52-1.08.14-.32.49-.55.73-.8Z"/>
        <path class="cls-2" d="M47.92,20.33c0,1,0,1.99,0,2.99,0,.69-.35,1.09-.91,1.09-.56,0-.93-.4-.93-1.08,0-1.99,0-3.99,0-5.98,0-.68.36-1.1.91-1.1.54,0,.93.43.93,1.09,0,1,0,1.99,0,2.99Z"/>
        <path class="cls-2" d="M62.96,21.53c-.17.37-.25.6-.39.8-1.1,1.66-2.2,3.32-3.32,4.98-.39.58-.84.71-1.3.41-.49-.32-.58-.82-.2-1.4,1.12-1.7,2.25-3.39,3.38-5.07.24-.36.59-.62,1.02-.42.31.15.53.46.8.7Z"/>
        <path class="cls-2" d="M58.77,43.89c0,.33,0,.5,0,.67-.02.56-.36.94-.85.97-.53.03-.91-.33-.99-.91-.11-.83-.15-1.69-.35-2.5-.98-4-4.49-6.98-8.61-7.36-.31-.03-.61-.05-.92-.07-.61-.06-.97-.41-.96-.93,0-.54.41-.91,1.04-.91,2.79.03,5.28.93,7.41,2.7,2.64,2.2,4.04,5.05,4.24,8.34Z"/>
      </g>
      <path class="cls-2" d="M47,2c24.81,0,45,20.19,45,45s-20.19,45-45,45S2,71.82,2,47,22.19,2,47,2M47,0C21.04,0,0,21.04,0,47s21.04,47,47,47,47-21.04,47-47S72.96,0,47,0h0Z"/>
    </g>
  </g>
</svg>