<?xml version="1.0" encoding="UTF-8"?>
<svg id="Capa_2" data-name="Capa 2" xmlns="http://www.w3.org/2000/svg" viewBox="0 0 31.83 31.83">
  <defs>
    <style>
      .cls-1 {
        fill: #c71522;
        stroke-width: 0px;
      }

      .cls-2 {
        isolation: isolate;
      }
    </style>
  </defs>
  <g id="Carcterísticas" class="cls-2">
    <g id="Textos">
      <g>
        <path class="cls-1" d="M15.92,1c8.23,0,14.92,6.69,14.92,14.92s-6.69,14.92-14.92,14.92S1,24.14,1,15.92,7.69,1,15.92,1M15.92,0C7.13,0,0,7.13,0,15.92s7.13,15.92,15.92,15.92,15.92-7.13,15.92-15.92S24.71,0,15.92,0h0Z"/>
        <g>
          <path class="cls-1" d="M6.21,9.87c.08-.24.26-.38.49-.49,1.12-.52,2.24-1.05,3.35-1.58.35-.16.66-.08.86.24.72,1.11,1.43,2.22,2.15,3.34.2.31.17.59-.09.85-.41.41-.82.84-1.24,1.23-.26.24-.31.51-.25.84.23,1.22.78,2.28,1.55,3.23.88,1.07,1.93,1.93,3.23,2.44.46.18.96.28,1.44.4.23.06.42-.03.59-.2.43-.43.86-.86,1.29-1.29.29-.29.56-.32.91-.1,1.09.7,2.19,1.41,3.28,2.11.35.23.44.52.26.9-.53,1.13-1.07,2.27-1.6,3.4-.16.33-.38.45-.73.41-2.39-.28-4.61-1.06-6.64-2.33-3.63-2.28-6.34-5.35-7.91-9.36-.46-1.17-.75-2.38-.9-3.62,0-.04-.02-.08-.03-.12,0-.11,0-.21,0-.32Z"/>
          <path class="cls-1" d="M15.74,7.69c.33.05.66.08.98.14,3.48.59,6.36,3.29,7.17,6.74.16.68.25,1.38.25,2.08,0,.33-.22.58-.55.62-.29.04-.58-.15-.66-.43-.02-.09-.03-.18-.03-.28-.04-1.77-.59-3.37-1.71-4.74-1.32-1.62-3.03-2.57-5.11-2.83-.29-.04-.58-.04-.87-.06-.35-.02-.58-.2-.64-.51-.06-.3.1-.56.42-.7.02,0,.03-.02.04-.03.23,0,.47,0,.7,0Z"/>
          <path class="cls-1" d="M15.47,10.78c2.35.22,4.07,1.36,5.08,3.52.34.73.49,1.5.5,2.31,0,.37-.24.65-.6.67-.34.02-.63-.25-.64-.62-.02-.59-.1-1.18-.34-1.72-.79-1.8-2.17-2.77-4.14-2.9-.08,0-.15,0-.23-.01-.33-.04-.57-.32-.56-.63.01-.33.27-.58.61-.6.1,0,.2,0,.3,0Z"/>
        </g>
      </g>
    </g>
  </g>
</svg>