<?xml version="1.0" encoding="UTF-8"?>
<svg id="Capa_2" data-name="Capa 2" xmlns="http://www.w3.org/2000/svg" viewBox="0 0 94 94">
  <defs>
    <style>
      .cls-1 {
        isolation: isolate;
      }

      .cls-2 {
        fill: #838a92;
      }
    </style>
  </defs>
  <g id="Carcterísticas" class="cls-1">
    <g id="Capa_20" data-name="Capa 20">
      <g>
        <g>
          <path class="cls-2" d="m16.98,55.03c.37-.47.85-.58,1.44-.58,2.68.02,5.36,0,8.03,0,.1,0,.2,0,.29,0,.72.02,1.15.38,1.14.97,0,.59-.42.95-1.16.95-.98.01-1.95,0-2.93,0-.27,0-.54,0-.87,0v2.04c.17.01.34.04.51.04,1.47,0,2.93,0,4.4,0,.32,0,.51-.07.66-.4,1.08-2.3,2.91-3.58,5.44-3.59,2.55,0,4.39,1.28,5.52,3.59.09.18.35.38.53.38,6.25.02,12.51.02,18.76.01.09,0,.19-.02.33-.04v-.65c0-2.03,0-4.07,0-6.1,0-.77.36-1.22.96-1.21.6,0,.94.43.94,1.23,0,2.07,0,4.14,0,6.22,0,.18.11.37.17.55.15-.15.35-.26.44-.44,1.11-2.26,2.93-3.52,5.43-3.53,2.53-.01,4.38,1.25,5.47,3.55.16.34.33.46.7.45.62-.03,1.25,0,1.91,0v-4.06c-.44-.02-.88-.03-1.32-.07-1.47-.15-2.56-1.27-2.64-2.74-.04-.72-.03-1.45,0-2.17.02-.63.37-.96,1.01-.97.91-.01,1.83,0,2.74,0-.08-.93-1.26-2.08-2.61-2.1-3.73-.04-7.46-.01-11.3-.01,0,.35.01.67,0,.99-.03.64-.4,1.02-.97,1-.54-.02-.91-.4-.91-1-.01-1.06,0-2.11,0-3.17,0-4.38,0-8.76,0-13.13v-.72H22.91c-.01.24-.03.49-.03.73,0,5.26,0,10.52,0,15.77,0,.21,0,.43-.02.64-.05.53-.41.86-.92.87-.5,0-.89-.33-.96-.84-.02-.15,0-.31,0-.47,0-5.45,0-10.91,0-16.36,0-1.52.75-2.26,2.26-2.26,11.84,0,23.69,0,35.53,0,1.46,0,2.2.73,2.22,2.18,0,.58,0,1.16,0,1.81.27,0,.48,0,.69,0,2.07,0,4.14,0,6.22,0,2.39,0,4.05,1.63,4.13,4.01,0,.21,0,.43,0,.64.03.57-.11,1.05-.73,1.26.5,1.98.98,3.93,1.49,5.87.04.16.24.34.41.39,2.47.7,3.84,2.5,3.84,5.07,0,3.19,0,6.37,0,9.56,0,.86-.33,1.2-1.2,1.21-.91,0-1.83,0-2.73,0-.65,3.85-2.79,5.98-5.98,6-3.27.01-5.42-2.08-6.09-5.97h-21.07c-.1,1.93-.83,3.53-2.35,4.72-1.17.91-2.51,1.3-3.99,1.25-2.99-.1-5.12-2.32-5.68-6-1.55,0-3.11,0-4.66,0-.27,0-.55-.02-.81-.08-.89-.22-1.47-.95-1.49-1.86-.02-.66,0-1.32,0-2.07-.86,0-1.67-.02-2.48,0-.59.02-1.11-.08-1.51-.55v-.82Zm44.04-16.68v6.06h9.76c0-.09.02-.13.02-.16-.45-1.81-.92-3.62-1.35-5.44-.09-.37-.24-.46-.59-.46-1.76.01-3.52,0-5.28,0-.84,0-1.68,0-2.56,0Zm-27.07,18.05c-2.24,0-4.07,1.84-4.05,4.06.01,2.21,1.88,4.07,4.09,4.05,2.23-.01,4.03-1.84,4.02-4.08,0-2.26-1.79-4.03-4.06-4.02Zm33.09,0c-2.25,0-4.05,1.82-4.03,4.06.02,2.23,1.86,4.07,4.08,4.05,2.22-.02,4.06-1.87,4.04-4.09-.02-2.25-1.83-4.03-4.08-4.02Zm3.05-20.03c-.02-1.22-.85-2.03-2.12-2.04-2.19-.02-4.37,0-6.56,0-.13,0-.26.04-.39.06v1.98h9.07Zm5.03,16.05v-2.03h-2.03c-.22,1.8.17,2.19,2.03,2.03Z"/>
          <path class="cls-2" d="m48.99,56.4c-2.19,0-4.38,0-6.56,0-.19,0-.39,0-.58-.03-.51-.09-.8-.42-.81-.93,0-.51.31-.83.8-.94.19-.04.39-.03.58-.03,4.4,0,8.79,0,13.19,0,.25,0,.51.01.75.09.44.15.65.49.61.96-.04.44-.28.72-.71.82-.23.05-.46.06-.7.06-2.19,0-4.38,0-6.56,0Z"/>
          <path class="cls-2" d="m25.95,50.47c1.95,0,3.9,0,5.85,0,.86,0,1.39.75.96,1.38-.16.25-.56.48-.85.48-3.98.03-7.96.03-11.94.02-.63,0-1.02-.41-1.01-.97.02-.55.42-.92,1.07-.92,1.97,0,3.94,0,5.91,0Z"/>
          <path class="cls-2" d="m35.92,60.42c.02,1.05-.85,1.96-1.9,1.99-1.06.03-2-.87-2.02-1.94-.02-1.07.89-1.99,1.96-1.99,1.05,0,1.94.87,1.96,1.94Z"/>
          <path class="cls-2" d="m67.08,58.49c1.06.02,1.94.91,1.95,1.95,0,1.06-.93,1.98-1.99,1.97-1.07-.01-1.99-.97-1.95-2.02.04-1.06.95-1.93,1.99-1.91Z"/>
        </g>
        <path class="cls-2" d="m51.38,39.92c-.07-.28-.17-.55-.3-.79-.22-.43-.53-.78-.88-1.05-.26-.2-.53-.36-.81-.48-.42-.18-.85-.29-1.26-.36-.41-.07-.81-.09-1.18-.09-.29,0-.56.12-.77.32-.2.2-.32.48-.32.77v2.83c0,.6.49,1.08,1.08,1.08s1.08-.49,1.08-1.08v-1.64c.19.04.36.1.5.16.13.06.24.13.33.2.07.06.13.11.18.18.08.1.14.21.19.37.05.16.09.36.09.62,0,.23-.05.44-.13.64-.12.29-.33.55-.6.72-.26.18-.57.28-.92.28h-4.31l-1.82-4.73s-.01-.02-.02-.04c0-.02-.02-.04-.02-.06,0-.02-.02-.03-.03-.05,0-.01-.02-.03-.02-.04-.01-.02-.02-.03-.03-.05,0-.01-.02-.03-.03-.04-.01-.02-.02-.03-.04-.05-.01-.01-.02-.02-.03-.04-.01-.01-.03-.03-.04-.04-.01-.01-.03-.02-.04-.04-.01-.01-.03-.02-.04-.03-.01-.01-.03-.02-.05-.03-.01,0-.03-.02-.04-.03-.02-.01-.03-.02-.05-.03-.02,0-.03-.02-.05-.03-.02,0-.03-.02-.05-.02-.02,0-.04-.02-.07-.03,0,0-.02,0-.03-.01,0,0,0,0,0,0-.03,0-.06-.02-.09-.03,0,0-.01,0-.02,0-.15-.04-.31-.04-.47,0-.02,0-.04,0-.06.01-.01,0-.03,0-.04.01-.02,0-.04.01-.07.02,0,0,0,0,0,0-.01,0-.03.01-.04.02-.02,0-.04.02-.05.02-.02,0-.03.02-.05.03-.01,0-.03.02-.04.02-.02.01-.03.02-.05.03-.01,0-.03.02-.04.03-.02.01-.03.02-.04.04-.01.01-.02.02-.04.03-.01.01-.03.03-.04.04-.01.01-.03.03-.04.04-.01.01-.02.03-.03.04-.01.02-.02.03-.04.05,0,.01-.02.03-.03.04-.01.02-.02.03-.03.05,0,.02-.02.03-.03.05,0,.02-.02.03-.02.05,0,.02-.02.04-.03.07,0,0,0,.02-.01.03h0s0,.01,0,.01l-.52,1.5-.56-1.53s0-.02-.01-.03c0-.02-.02-.04-.02-.06,0-.02-.02-.03-.02-.05,0-.02-.02-.03-.03-.05,0-.02-.02-.03-.03-.05,0-.01-.02-.03-.03-.04-.01-.02-.02-.03-.03-.04-.01-.01-.02-.03-.03-.04-.01-.01-.02-.03-.04-.04-.01-.01-.02-.02-.04-.04-.01-.01-.03-.02-.04-.03-.01-.01-.03-.02-.04-.03-.01-.01-.03-.02-.04-.03-.02-.01-.03-.02-.05-.03-.02,0-.03-.02-.05-.03-.02,0-.03-.02-.05-.02-.02,0-.04-.02-.05-.02-.01,0-.02,0-.03-.01,0,0,0,0-.01,0-.02,0-.04-.01-.06-.02-.02,0-.03,0-.05-.01-.02,0-.04,0-.05-.01-.02,0-.03,0-.05-.01-.02,0-.03,0-.05,0-.02,0-.04,0-.05,0-.02,0-.03,0-.05,0-.02,0-.04,0-.06,0-.02,0-.03,0-.05,0-.02,0-.04,0-.06,0-.02,0-.03,0-.05,0-.02,0-.04,0-.06.01-.01,0-.03,0-.04.01-.02,0-.04.01-.06.02,0,0,0,0-.01,0-.01,0-.02,0-.03.01-.02,0-.04.01-.05.02-.02,0-.03.02-.05.02-.02,0-.03.02-.05.02-.02,0-.03.02-.05.03-.01,0-.03.02-.04.03-.02.01-.03.02-.05.04-.01.01-.03.02-.04.03-.01.01-.03.02-.04.04-.01.01-.02.02-.04.04-.01.01-.02.03-.03.04-.01.01-.02.03-.03.04,0,.01-.02.03-.03.04-.01.02-.02.03-.03.05,0,.02-.02.03-.03.05,0,.02-.02.03-.02.05,0,.02-.02.04-.02.05,0,.01,0,.02-.01.03l-1.82,4.75h-3c-.6,0-1.09.49-1.09,1.09s.49,1.09,1.09,1.09h3.75c.45,0,.86-.28,1.02-.7l1.05-2.73.61,1.67s0,0,0,0c.01.03.03.07.04.1,0,.02.02.03.02.05,0,.02.02.03.03.05.01.02.03.04.04.06,0,0,.01.02.02.03.01.02.03.03.04.05,0,.01.02.02.03.03.01.01.03.03.04.04.01.01.02.02.04.03.01.01.03.02.04.03.01.01.03.02.05.04.01,0,.03.02.04.03.02.01.03.02.05.03.02.01.04.02.06.03.01,0,.02.01.03.02.03.02.07.03.1.04,0,0,0,0,0,0,0,0,.01,0,.02,0,.03,0,.06.02.09.03.01,0,.02,0,.04,0,.02,0,.05,0,.07.01.02,0,.03,0,.05,0,.02,0,.04,0,.06,0,.02,0,.03,0,.05,0,.02,0,.04,0,.06,0,.02,0,.04,0,.05,0,.02,0,.04,0,.05,0,.02,0,.04,0,.06-.01.02,0,.03,0,.05,0,.02,0,.05-.01.07-.02,0,0,.02,0,.03,0,0,0,0,0,0,0,.03-.01.06-.02.09-.04.02-.01.05-.02.07-.04.01,0,.02-.01.03-.02.02-.01.04-.03.06-.04,0,0,.02-.01.03-.02.02-.01.03-.03.05-.04.01,0,.02-.02.03-.03.01-.01.03-.03.04-.04.01-.01.02-.02.03-.04.01-.01.02-.03.03-.04.01-.01.02-.03.04-.05,0-.01.02-.03.03-.04.01-.02.02-.03.03-.05.01-.02.02-.04.03-.06,0-.01.01-.02.02-.03.02-.03.03-.07.04-.1,0,0,0,0,0,0l.55-1.58,1.02,2.66c.17.43.58.7,1.01.7,0,0,0,0,0,0h5.02c.52,0,1.06-.14,1.52-.33.69-.29,1.26-.77,1.68-1.38.41-.61.65-1.35.65-2.13,0-.36-.04-.71-.12-1.03Z"/>
      </g>
      <path class="cls-2" d="m47,2c24.81,0,45,20.19,45,45s-20.19,45-45,45S2,71.82,2,47,22.19,2,47,2m0-2C21.04,0,0,21.04,0,47s21.04,47,47,47,47-21.04,47-47S72.96,0,47,0h0Z"/>
    </g>
  </g>
</svg>