<?xml version="1.0" encoding="UTF-8"?>
<svg id="Capa_2" data-name="Capa 2" xmlns="http://www.w3.org/2000/svg" viewBox="0 0 31.83 31.83">
  <defs>
    <style>
      .cls-1 {
        fill: #c71522;
        stroke-width: 0px;
      }

      .cls-2 {
        isolation: isolate;
      }
    </style>
  </defs>
  <g id="Carcterísticas" class="cls-2">
    <g id="Textos">
      <g>
        <path class="cls-1" d="M15.92,1c8.23,0,14.92,6.69,14.92,14.92s-6.69,14.92-14.92,14.92S1,24.14,1,15.92,7.69,1,15.92,1M15.92,0C7.13,0,0,7.13,0,15.92s7.13,15.92,15.92,15.92,15.92-7.13,15.92-15.92S24.71,0,15.92,0h0Z"/>
        <g>
          <path class="cls-1" d="M18.34,20.77c.72.13,1.43.24,2.13.39.66.14,1.31.34,1.89.69.22.13.43.29.61.47.56.57.55,1.34,0,1.9-.48.49-1.09.73-1.72.93-1.14.36-2.31.53-3.5.62-1.5.11-2.99.1-4.48-.08-1.22-.15-2.43-.35-3.54-.9-.3-.15-.59-.35-.82-.58-.58-.56-.57-1.34,0-1.92.43-.44.99-.68,1.56-.88.9-.31,1.83-.48,2.77-.58.09-.01.19-.03.31-.05-.05-.09-.09-.17-.13-.24-1.05-1.82-2.08-3.65-2.86-5.6-.28-.7-.53-1.42-.67-2.16-.24-1.29.07-2.51.7-3.64,1.25-2.23,3.79-3.49,6.23-3.1,2.62.42,4.62,2.31,5.16,4.86.21,1.01.11,1.99-.23,2.97-.54,1.59-1.29,3.08-2.08,4.56-.39.72-.8,1.42-1.19,2.13-.04.07-.07.14-.1.2ZM20.75,12.02c-.03-.25-.04-.5-.09-.74-.37-2.01-1.9-3.51-3.96-3.9-1.86-.35-3.86.55-4.89,2.23-.66,1.08-.93,2.25-.55,3.5.2.64.44,1.28.71,1.89,1.01,2.29,2.27,4.45,3.56,6.59.24.4.52.4.76,0,.56-.95,1.12-1.89,1.66-2.85.92-1.64,1.8-3.3,2.43-5.07.19-.53.36-1.07.36-1.65ZM22.06,23.27c-.3-.3-.66-.44-1.03-.57-1.02-.36-2.08-.5-3.14-.62-.25-.03-.38.05-.5.26-.39.66-.98.95-1.74.84-.54-.08-.94-.38-1.19-.85-.12-.22-.25-.29-.49-.25-.36.06-.73.08-1.09.13-.86.13-1.72.3-2.52.67-.2.09-.38.23-.57.34,0,.03,0,.06,0,.1.27.14.53.31.81.42,1.17.46,2.39.62,3.63.71,1.31.1,2.61.09,3.91-.04,1-.1,1.99-.26,2.94-.6.34-.12.68-.26.97-.55Z"/>
          <path class="cls-1" d="M15.92,9.25c1.36,0,2.47,1.1,2.47,2.46,0,1.37-1.12,2.48-2.48,2.48-1.35,0-2.46-1.12-2.46-2.48,0-1.36,1.11-2.46,2.47-2.46ZM15.91,10.58c-.63,0-1.14.52-1.14,1.15,0,.63.52,1.15,1.15,1.14.63,0,1.14-.52,1.14-1.16,0-.63-.52-1.14-1.15-1.14Z"/>
        </g>
      </g>
    </g>
  </g>
</svg>