<svg xmlns="http://www.w3.org/2000/svg" viewBox="0 0 18.99 13.56"><defs><style>.cls-1{fill:#e92b2b;}.cls-2{fill:#32ab45;}.cls-3{fill:#ffe70e;fill-rule:evenodd;}.cls-4{fill:#fbfbfb;}</style></defs><g id="Layer_2" data-name="Layer 2"><g id="Cabecera"><path class="cls-1" d="M18.54,0H.45A.45.45,0,0,0,0,.45V13.12a.45.45,0,0,0,.45.44H18.54a.45.45,0,0,0,.45-.44V.45A.45.45,0,0,0,18.54,0Z"/><path class="cls-2" d="M.45,13.56H6.78V0H.45A.45.45,0,0,0,0,.45V13.12A.45.45,0,0,0,.45,13.56Z"/><path class="cls-3" d="M6.78,4.75a2,2,0,1,0,2,2A2,2,0,0,0,6.78,4.75Zm-2.71,2A2.72,2.72,0,1,1,6.78,9.5,2.71,2.71,0,0,1,4.07,6.78Z"/><path class="cls-3" d="M8.24,8.72,4.85,5.33l.48-.48L8.72,8.24Z"/><path class="cls-3" d="M6.44,9.18V4.38h.68v4.8Z"/><path class="cls-3" d="M4.41,6.47H9.2v.68H4.41Z"/><path class="cls-3" d="M5.33,8.72,8.72,5.33l-.48-.48L4.85,8.24Z"/><path class="cls-1" d="M7.8,5.43h-2a.33.33,0,0,0-.33.33V7.12a1.36,1.36,0,1,0,2.71,0V5.76A.34.34,0,0,0,7.8,5.43Z"/><path class="cls-4" d="M7.46,6.1H6.1v1a.68.68,0,0,0,1.36,0Z"/></g></g></svg>