<svg xmlns="http://www.w3.org/2000/svg" viewBox="0 0 20.7 13.56"><defs><style>.cls-1{fill:#c8414b;}.cls-2{fill:#ffd250;}.cls-3{fill:#f5f5f5;}.cls-4{fill:#fab446;}.cls-5{fill:#ffb441;}.cls-6{fill:#5064aa;}.cls-7{fill:#ffa0d2;}</style></defs><g id="Layer_2" data-name="Layer 2"><g id="Cabecera"><path class="cls-1" d="M.36,13.56h20a.35.35,0,0,0,.35-.35V.36A.36.36,0,0,0,20.35,0H.36A.36.36,0,0,0,0,.36V13.21A.36.36,0,0,0,.36,13.56Z"/><rect class="cls-2" y="2.86" width="20.7" height="7.85"/><path class="cls-1" d="M8.75,6.78l.3-1.36a.2.2,0,0,0-.2-.24H8.64a.2.2,0,0,0-.2.24Z"/><rect class="cls-3" x="8.39" y="6.07" width="0.71" height="3.03"/><rect class="cls-4" x="8.21" y="5.71" width="1.07" height="0.36"/><rect class="cls-1" x="7.5" y="6.78" width="1.78" height="0.36"/><polygon class="cls-1" points="9.28 8.21 8.21 7.85 8.21 7.5 9.28 7.85 9.28 8.21"/><path class="cls-1" d="M3.39,6.78l.3-1.36a.19.19,0,0,0-.19-.24H3.28a.19.19,0,0,0-.19.24Z"/><path class="cls-3" d="M4.64,5.71a.36.36,0,0,0-.36.36V8.39c0,.43.41,1.25,1.79,1.25s1.78-.82,1.78-1.25V6.07a.36.36,0,0,0-.35-.36Z"/><path class="cls-1" d="M6.07,7.5H4.28V6.07a.36.36,0,0,1,.36-.36H6.07Z"/><path class="cls-1" d="M6.07,7.5H7.85v.89A.89.89,0,0,1,7,9.28H7a.89.89,0,0,1-.89-.89Z"/><path class="cls-4" d="M4.28,7.5H6.07v.89a.89.89,0,0,1-.89.89h0a.89.89,0,0,1-.9-.89Z"/><path class="cls-1" d="M5.71,9.1V7.5H5.35V9.26A.74.74,0,0,0,5.71,9.1Z"/><path class="cls-1" d="M5,9.26V7.5H4.64V9.1A.74.74,0,0,0,5,9.26Z"/><rect class="cls-5" x="4.64" y="6.78" width="1.07" height="0.36"/><rect class="cls-4" x="4.64" y="6.07" width="1.07" height="0.36"/><rect class="cls-4" x="4.82" y="6.28" width="0.71" height="0.65"/><rect class="cls-3" x="3.03" y="6.07" width="0.71" height="3.03"/><rect class="cls-4" x="2.86" y="8.92" width="1.07" height="0.36"/><rect class="cls-4" x="2.86" y="5.71" width="1.07" height="0.36"/><rect class="cls-6" x="2.68" y="9.28" width="1.43" height="0.36"/><rect class="cls-4" x="8.39" y="8.92" width="1.07" height="0.36"/><rect class="cls-6" x="8.03" y="9.28" width="1.43" height="0.36"/><rect class="cls-4" x="5" y="5.35" width="2.14" height="0.36"/><rect class="cls-5" x="5.89" y="4.28" width="0.36" height="1.07"/><path class="cls-3" d="M5.71,4.82a.54.54,0,1,1,.54-.54A.54.54,0,0,1,5.71,4.82Zm0-.71a.18.18,0,0,0-.18.17.18.18,0,0,0,.36,0A.18.18,0,0,0,5.71,4.11Z"/><path class="cls-3" d="M6.43,4.82A.54.54,0,1,1,7,4.28.54.54,0,0,1,6.43,4.82Zm0-.71a.18.18,0,0,0-.18.17.18.18,0,0,0,.18.18.18.18,0,0,0,.17-.18A.18.18,0,0,0,6.43,4.11Z"/><path class="cls-3" d="M7.14,5.18a.54.54,0,1,1,.53-.54A.54.54,0,0,1,7.14,5.18Zm0-.72a.18.18,0,1,0,.18.18A.18.18,0,0,0,7.14,4.46Z"/><path class="cls-3" d="M5,5.18a.54.54,0,1,1,.53-.54A.54.54,0,0,1,5,5.18Zm0-.72a.18.18,0,1,0,.18.18A.18.18,0,0,0,5,4.46Z"/><path class="cls-4" d="M7.14,8.21v.18a.18.18,0,0,1-.36,0V8.21h.36m.36-.36H6.43v.54a.54.54,0,0,0,1.07,0V7.85Z"/><path class="cls-7" d="M7,7.14H7a.36.36,0,0,1-.36-.36V6.43A.36.36,0,0,1,7,6.07H7a.36.36,0,0,1,.36.36v.35A.36.36,0,0,1,7,7.14Z"/><circle class="cls-6" cx="6.07" cy="7.5" r="0.54"/><rect class="cls-4" x="5.89" y="3.57" width="0.36" height="1.07"/><path class="cls-1" d="M5,5.35,4.64,5l.21-.21a1.73,1.73,0,0,1,1.22-.51h0a1.75,1.75,0,0,1,1.22.51L7.5,5l-.36.35Z"/><circle class="cls-2" cx="6.07" cy="5" r="0.18"/><circle class="cls-2" cx="5.35" cy="5" r="0.18"/><circle class="cls-2" cx="6.78" cy="5" r="0.18"/><rect class="cls-1" x="2.86" y="6.78" width="1.78" height="0.36"/><polygon class="cls-1" points="2.86 8.21 3.93 7.85 3.93 7.5 2.86 7.85 2.86 8.21"/></g></g></svg>