<svg xmlns="http://www.w3.org/2000/svg" viewBox="0 0 20.7 13.56"><defs><style>.cls-1{fill:#41479b;}.cls-2{fill:#f5f5f5;}.cls-3{fill:#ff4b55;}</style></defs><g id="Layer_2" data-name="Layer 2"><g id="Cabecera"><path class="cls-1" d="M20.35,13.56H.36A.36.36,0,0,1,0,13.21V.36A.36.36,0,0,1,.36,0h20a.36.36,0,0,1,.35.36V13.21A.35.35,0,0,1,20.35,13.56Z"/><path class="cls-2" d="M20.7.36A.36.36,0,0,0,20.35,0h-1.6L12.14,4.33V0H8.57V4.33L2,0H.36A.36.36,0,0,0,0,.36v.92L5.67,5H0V8.57H5.67L0,12.28v.93a.36.36,0,0,0,.36.35H2L8.57,9.23v4.33h3.57V9.23l6.61,4.33h1.6a.35.35,0,0,0,.35-.35v-.93L15,8.57H20.7V5H15L20.7,1.28Z"/><polygon class="cls-3" points="20.7 5.71 11.42 5.71 11.42 0 9.28 0 9.28 5.71 0 5.71 0 7.85 9.28 7.85 9.28 13.56 11.42 13.56 11.42 7.85 20.7 7.85 20.7 5.71"/><path class="cls-3" d="M7.24,8.57,0,13.26a.35.35,0,0,0,.35.3H.85l7.7-5Z"/><path class="cls-3" d="M14,8.57H12.7l7.68,5a.36.36,0,0,0,.32-.35v-.3Z"/><path class="cls-3" d="M0,.75,6.54,5H7.85L.21,0A.37.37,0,0,0,0,.36Z"/><path class="cls-3" d="M13.45,5,20.69.3a.35.35,0,0,0-.34-.3h-.51l-7.7,5Z"/></g></g></svg>